<?xml version="1.0" encoding="UTF-8" standalone="no"?>
<!-- Created with Inkscape (http://www.inkscape.org/) -->
<svg
   xmlns:dc="http://purl.org/dc/elements/1.1/"
   xmlns:cc="http://web.resource.org/cc/"
   xmlns:rdf="http://www.w3.org/1999/02/22-rdf-syntax-ns#"
   xmlns:svg="http://www.w3.org/2000/svg"
   xmlns="http://www.w3.org/2000/svg"
   xmlns:xlink="http://www.w3.org/1999/xlink"
   xmlns:sodipodi="http://sodipodi.sourceforge.net/DTD/sodipodi-0.dtd"
   xmlns:inkscape="http://www.inkscape.org/namespaces/inkscape"
   id="svg3338"
   sodipodi:version="0.32"
   inkscape:version="0.44"
   width="100"
   height="160"
   version="1.0"
   sodipodi:docbase="/home/rhwinter/devel/eclipse_workspace/estudiolivre/desenhos/temas/bubble/REorganizar"
   sodipodi:docname="iEstrelas.svg">
  <metadata
     id="metadata3343">
    <rdf:RDF>
      <cc:Work
         rdf:about="">
        <dc:format>image/svg+xml</dc:format>
        <dc:type
           rdf:resource="http://purl.org/dc/dcmitype/StillImage" />
      </cc:Work>
    </rdf:RDF>
  </metadata>
  <defs
     id="defs3341">
    <linearGradient
       y2="-652.10773"
       x2="-432.48956"
       y1="-700.05035"
       x1="-458.75842"
       gradientUnits="userSpaceOnUse"
       id="linearGradient6094"
       xlink:href="#linearGradient12569"
       inkscape:collect="always" />
    <linearGradient
       y2="-652.10773"
       x2="-432.48956"
       y1="-700.05035"
       x1="-458.75842"
       gradientUnits="userSpaceOnUse"
       id="linearGradient6092"
       xlink:href="#linearGradient12569"
       inkscape:collect="always" />
    <linearGradient
       y2="-652.10773"
       x2="-432.48956"
       y1="-700.05035"
       x1="-458.75842"
       gradientUnits="userSpaceOnUse"
       id="linearGradient6090"
       xlink:href="#linearGradient12569"
       inkscape:collect="always" />
    <linearGradient
       y2="-652.10773"
       x2="-432.48956"
       y1="-700.05035"
       x1="-458.75842"
       gradientUnits="userSpaceOnUse"
       id="linearGradient6088"
       xlink:href="#linearGradient12569"
       inkscape:collect="always" />
    <linearGradient
       y2="-652.10773"
       x2="-432.48956"
       y1="-700.05035"
       x1="-458.75842"
       gradientUnits="userSpaceOnUse"
       id="linearGradient6086"
       xlink:href="#linearGradient12569"
       inkscape:collect="always" />
    <linearGradient
       y2="-652.10773"
       x2="-432.48956"
       y1="-700.05035"
       x1="-458.75842"
       gradientUnits="userSpaceOnUse"
       id="linearGradient6124"
       xlink:href="#linearGradient12569"
       inkscape:collect="always" />
    <linearGradient
       y2="-652.10773"
       x2="-432.48956"
       y1="-700.05035"
       x1="-458.75842"
       gradientUnits="userSpaceOnUse"
       id="linearGradient6122"
       xlink:href="#linearGradient12569"
       inkscape:collect="always" />
    <linearGradient
       y2="-652.10773"
       x2="-432.48956"
       y1="-700.05035"
       x1="-458.75842"
       gradientUnits="userSpaceOnUse"
       id="linearGradient6120"
       xlink:href="#linearGradient12569"
       inkscape:collect="always" />
    <linearGradient
       y2="-652.10773"
       x2="-432.48956"
       y1="-700.05035"
       x1="-458.75842"
       gradientUnits="userSpaceOnUse"
       id="linearGradient6118"
       xlink:href="#linearGradient12569"
       inkscape:collect="always" />
    <linearGradient
       y2="-652.10773"
       x2="-432.48956"
       y1="-700.05035"
       x1="-458.75842"
       gradientUnits="userSpaceOnUse"
       id="linearGradient6116"
       xlink:href="#linearGradient12569"
       inkscape:collect="always" />
    <linearGradient
       y2="-652.10773"
       x2="-432.48956"
       y1="-700.05035"
       x1="-458.75842"
       gradientUnits="userSpaceOnUse"
       id="linearGradient6114"
       xlink:href="#linearGradient12569"
       inkscape:collect="always" />
    <linearGradient
       y2="-652.10773"
       x2="-432.48956"
       y1="-700.05035"
       x1="-458.75842"
       gradientUnits="userSpaceOnUse"
       id="linearGradient6112"
       xlink:href="#linearGradient12569"
       inkscape:collect="always" />
    <linearGradient
       y2="-652.10773"
       x2="-432.48956"
       y1="-700.05035"
       x1="-458.75842"
       gradientUnits="userSpaceOnUse"
       id="linearGradient6110"
       xlink:href="#linearGradient12569"
       inkscape:collect="always" />
    <linearGradient
       y2="-652.10773"
       x2="-432.48956"
       y1="-700.05035"
       x1="-458.75842"
       gradientUnits="userSpaceOnUse"
       id="linearGradient6108"
       xlink:href="#linearGradient12569"
       inkscape:collect="always" />
    <linearGradient
       y2="-652.10773"
       x2="-432.48956"
       y1="-700.05035"
       x1="-458.75842"
       gradientUnits="userSpaceOnUse"
       id="linearGradient6106"
       xlink:href="#linearGradient12569"
       inkscape:collect="always" />
    <linearGradient
       y2="-652.10773"
       x2="-432.48956"
       y1="-700.05035"
       x1="-458.75842"
       gradientUnits="userSpaceOnUse"
       id="linearGradient6104"
       xlink:href="#linearGradient12569"
       inkscape:collect="always" />
    <linearGradient
       y2="-652.10773"
       x2="-432.48956"
       y1="-700.05035"
       x1="-458.75842"
       gradientUnits="userSpaceOnUse"
       id="linearGradient6102"
       xlink:href="#linearGradient12569"
       inkscape:collect="always" />
    <linearGradient
       y2="-652.10773"
       x2="-432.48956"
       y1="-700.05035"
       x1="-458.75842"
       gradientUnits="userSpaceOnUse"
       id="linearGradient6100"
       xlink:href="#linearGradient12569"
       inkscape:collect="always" />
    <linearGradient
       y2="-652.10773"
       x2="-432.48956"
       y1="-700.05035"
       x1="-458.75842"
       gradientUnits="userSpaceOnUse"
       id="linearGradient6098"
       xlink:href="#linearGradient12569"
       inkscape:collect="always" />
    <linearGradient
       y2="-652.10773"
       x2="-432.48956"
       y1="-700.05035"
       x1="-458.75842"
       gradientUnits="userSpaceOnUse"
       id="linearGradient6096"
       xlink:href="#linearGradient12569"
       inkscape:collect="always" />
    <linearGradient
       y2="-652.10773"
       x2="-432.48956"
       y1="-700.05035"
       x1="-458.75842"
       gradientUnits="userSpaceOnUse"
       id="linearGradient6084"
       xlink:href="#linearGradient12569"
       inkscape:collect="always" />
    <linearGradient
       y2="-652.10773"
       x2="-432.48956"
       y1="-700.05035"
       x1="-458.75842"
       gradientUnits="userSpaceOnUse"
       id="linearGradient6082"
       xlink:href="#linearGradient12569"
       inkscape:collect="always" />
    <linearGradient
       y2="-652.10773"
       x2="-432.48956"
       y1="-700.05035"
       x1="-458.75842"
       gradientUnits="userSpaceOnUse"
       id="linearGradient6080"
       xlink:href="#linearGradient12569"
       inkscape:collect="always" />
    <linearGradient
       y2="-652.10773"
       x2="-432.48956"
       y1="-700.05035"
       x1="-458.75842"
       gradientUnits="userSpaceOnUse"
       id="linearGradient6078"
       xlink:href="#linearGradient12569"
       inkscape:collect="always" />
    <linearGradient
       y2="-652.10773"
       x2="-432.48956"
       y1="-700.05035"
       x1="-458.75842"
       gradientUnits="userSpaceOnUse"
       id="linearGradient6076"
       xlink:href="#linearGradient12569"
       inkscape:collect="always" />
    <linearGradient
       y2="-652.10773"
       x2="-432.48956"
       y1="-700.05035"
       x1="-458.75842"
       gradientUnits="userSpaceOnUse"
       id="linearGradient6074"
       xlink:href="#linearGradient12569"
       inkscape:collect="always" />
    <linearGradient
       y2="-652.10773"
       x2="-432.48956"
       y1="-700.05035"
       x1="-458.75842"
       gradientUnits="userSpaceOnUse"
       id="linearGradient6072"
       xlink:href="#linearGradient12569"
       inkscape:collect="always" />
    <linearGradient
       y2="-652.10773"
       x2="-432.48956"
       y1="-700.05035"
       x1="-458.75842"
       gradientUnits="userSpaceOnUse"
       id="linearGradient6070"
       xlink:href="#linearGradient12569"
       inkscape:collect="always" />
    <linearGradient
       y2="-652.10773"
       x2="-432.48956"
       y1="-700.05035"
       x1="-458.75842"
       gradientUnits="userSpaceOnUse"
       id="linearGradient6068"
       xlink:href="#linearGradient12569"
       inkscape:collect="always" />
    <linearGradient
       id="linearGradient12569"
       inkscape:collect="always">
      <stop
         id="stop12571"
         offset="0"
         style="stop-color:#000000;stop-opacity:1;" />
      <stop
         id="stop12573"
         offset="1"
         style="stop-color:#000000;stop-opacity:0;" />
    </linearGradient>
    <linearGradient
       y2="-652.10773"
       x2="-432.48956"
       y1="-700.05035"
       x1="-458.75842"
       gradientUnits="userSpaceOnUse"
       id="linearGradient6066"
       xlink:href="#linearGradient12569"
       inkscape:collect="always" />
  </defs>
  <sodipodi:namedview
     inkscape:window-height="611"
     inkscape:window-width="941"
     inkscape:pageshadow="2"
     inkscape:pageopacity="0.0"
     guidetolerance="10.0"
     gridtolerance="10.0"
     objecttolerance="10.0"
     borderopacity="1.0"
     bordercolor="#666666"
     pagecolor="#ffffff"
     id="base"
     width="100px"
     height="160px"
     inkscape:zoom="0.38674898"
     inkscape:cx="490.98744"
     inkscape:cy="-327.16985"
     inkscape:window-x="10"
     inkscape:window-y="97"
     inkscape:current-layer="svg3338" />
  <g
     inkscape:export-ydpi="90.000000"
     inkscape:export-xdpi="90.000000"
     inkscape:export-filename="/home/uira/culturadigital/estudiolivre/src/styles/estudiolivre/star3.png"
     transform="translate(1321.279,249.2854)"
     id="g6038">
    <path
       sodipodi:sides="5"
       sodipodi:type="star"
       id="path5832"
       inkscape:randomized="0"
       sodipodi:cx="-447.11832"
       sodipodi:cy="-677.43262"
       inkscape:flatsided="false"
       sodipodi:arg2="1.4088858"
       sodipodi:arg1="0.78056728"
       transform="matrix(0.281001,4.48833e-2,-4.596649e-2,0.274379,-1214.018,48.90773)"
       style="fill:#ffde0a;fill-opacity:1;stroke:url(#linearGradient6086);stroke-width:1;stroke-miterlimit:4;stroke-dashoffset:0;stroke-opacity:1"
       sodipodi:r2="11.087763"
       sodipodi:r1="27.440657"
       inkscape:rounded="0"
       d="M -427.62133,-658.1231 L -445.33092,-666.48987 L -459.45786,-652.92292 L -456.97315,-672.35121 L -474.24155,-681.5943 L -454.99633,-685.23488 L -451.54186,-704.51438 L -442.13236,-687.33609 L -422.72898,-690.00838 L -436.15881,-675.75103 L -427.62133,-658.1231 z " />
    <path
       sodipodi:sides="5"
       sodipodi:type="star"
       id="path5834"
       inkscape:randomized="0"
       sodipodi:cx="-447.11832"
       sodipodi:cy="-677.43262"
       inkscape:flatsided="false"
       sodipodi:arg2="1.4088858"
       sodipodi:arg1="0.78056728"
       transform="matrix(0.281001,4.48833e-2,-4.596649e-2,0.274379,-1195.541,48.90773)"
       style="fill:#ffde0a;fill-opacity:1;stroke:url(#linearGradient6088);stroke-width:1;stroke-miterlimit:4;stroke-dashoffset:0;stroke-opacity:1"
       sodipodi:r2="11.087763"
       sodipodi:r1="27.440657"
       inkscape:rounded="0"
       d="M -427.62133,-658.1231 L -445.33092,-666.48987 L -459.45786,-652.92292 L -456.97315,-672.35121 L -474.24155,-681.5943 L -454.99633,-685.23488 L -451.54186,-704.51438 L -442.13236,-687.33609 L -422.72898,-690.00838 L -436.15881,-675.75103 L -427.62133,-658.1231 z " />
    <path
       sodipodi:sides="5"
       sodipodi:type="star"
       id="path5836"
       inkscape:randomized="0"
       sodipodi:cx="-447.11832"
       sodipodi:cy="-677.43262"
       inkscape:flatsided="false"
       sodipodi:arg2="1.4088858"
       sodipodi:arg1="0.78056728"
       transform="matrix(0.281001,4.48833e-2,-4.596649e-2,0.274379,-1177.065,48.90773)"
       style="fill:#ffde0a;fill-opacity:1;stroke:url(#linearGradient6090);stroke-width:1;stroke-miterlimit:4;stroke-dashoffset:0;stroke-opacity:1"
       sodipodi:r2="11.087763"
       sodipodi:r1="27.440657"
       inkscape:rounded="0"
       d="M -427.62133,-658.1231 L -445.33092,-666.48987 L -459.45786,-652.92292 L -456.97315,-672.35121 L -474.24155,-681.5943 L -454.99633,-685.23488 L -451.54186,-704.51438 L -442.13236,-687.33609 L -422.72898,-690.00838 L -436.15881,-675.75103 L -427.62133,-658.1231 z " />
    <path
       sodipodi:sides="5"
       sodipodi:type="star"
       id="path5838"
       inkscape:randomized="0"
       sodipodi:cx="-447.11832"
       sodipodi:cy="-677.43262"
       inkscape:flatsided="false"
       sodipodi:arg2="1.4088858"
       sodipodi:arg1="0.78056728"
       transform="matrix(0.281001,4.48833e-2,-4.596649e-2,0.274379,-1158.589,48.90773)"
       style="fill:#dedede;fill-opacity:1;stroke:url(#linearGradient6092);stroke-width:1;stroke-miterlimit:4;stroke-dashoffset:0;stroke-opacity:1"
       sodipodi:r2="11.087763"
       sodipodi:r1="27.440657"
       inkscape:rounded="0"
       d="M -427.62133,-658.1231 L -445.33092,-666.48987 L -459.45786,-652.92292 L -456.97315,-672.35121 L -474.24155,-681.5943 L -454.99633,-685.23488 L -451.54186,-704.51438 L -442.13236,-687.33609 L -422.72898,-690.00838 L -436.15881,-675.75103 L -427.62133,-658.1231 z " />
    <path
       sodipodi:sides="5"
       sodipodi:type="star"
       id="path5840"
       inkscape:randomized="0"
       sodipodi:cx="-447.11832"
       sodipodi:cy="-677.43262"
       inkscape:flatsided="false"
       sodipodi:arg2="1.4088858"
       sodipodi:arg1="0.78056728"
       transform="matrix(0.281001,4.48833e-2,-4.596649e-2,0.274379,-1140.112,48.90773)"
       style="fill:#dedede;fill-opacity:1;stroke:url(#linearGradient6094);stroke-width:1;stroke-miterlimit:4;stroke-dashoffset:0;stroke-opacity:1"
       sodipodi:r2="11.087763"
       sodipodi:r1="27.440657"
       inkscape:rounded="0"
       d="M -427.62133,-658.1231 L -445.33092,-666.48987 L -459.45786,-652.92292 L -456.97315,-672.35121 L -474.24155,-681.5943 L -454.99633,-685.23488 L -451.54186,-704.51438 L -442.13236,-687.33609 L -422.72898,-690.00838 L -436.15881,-675.75103 L -427.62133,-658.1231 z " />
  </g>
  <g
     inkscape:export-ydpi="90.000000"
     inkscape:export-xdpi="90.000000"
     inkscape:export-filename="/home/uira/culturadigital/estudiolivre/src/styles/estudiolivre/star0.png"
     transform="translate(1321.279,237.8722)"
     id="g6059">
    <path
       d="M -427.62133,-658.1231 L -445.33092,-666.48987 L -459.45786,-652.92292 L -456.97315,-672.35121 L -474.24155,-681.5943 L -454.99633,-685.23488 L -451.54186,-704.51438 L -442.13236,-687.33609 L -422.72898,-690.00838 L -436.15881,-675.75103 L -427.62133,-658.1231 z "
       inkscape:rounded="0"
       sodipodi:r1="27.440657"
       sodipodi:r2="11.087763"
       style="fill:#dedede;fill-opacity:1;stroke:url(#linearGradient6116);stroke-width:1;stroke-miterlimit:4;stroke-dashoffset:0;stroke-opacity:1"
       transform="matrix(0.281001,4.48833e-2,-4.596649e-2,0.274379,-1158.589,-14.91707)"
       sodipodi:arg1="0.78056728"
       sodipodi:arg2="1.4088858"
       inkscape:flatsided="false"
       sodipodi:cy="-677.43262"
       sodipodi:cx="-447.11832"
       inkscape:randomized="0"
       id="path5904"
       sodipodi:type="star"
       sodipodi:sides="5" />
    <path
       d="M -427.62133,-658.1231 L -445.33092,-666.48987 L -459.45786,-652.92292 L -456.97315,-672.35121 L -474.24155,-681.5943 L -454.99633,-685.23488 L -451.54186,-704.51438 L -442.13236,-687.33609 L -422.72898,-690.00838 L -436.15881,-675.75103 L -427.62133,-658.1231 z "
       inkscape:rounded="0"
       sodipodi:r1="27.440657"
       sodipodi:r2="11.087763"
       style="fill:#dedede;fill-opacity:1;stroke:url(#linearGradient6118);stroke-width:1;stroke-miterlimit:4;stroke-dashoffset:0;stroke-opacity:1"
       transform="matrix(0.281001,4.48833e-2,-4.596649e-2,0.274379,-1140.112,-14.91707)"
       sodipodi:arg1="0.78056728"
       sodipodi:arg2="1.4088858"
       inkscape:flatsided="false"
       sodipodi:cy="-677.43262"
       sodipodi:cx="-447.11832"
       inkscape:randomized="0"
       id="path5906"
       sodipodi:type="star"
       sodipodi:sides="5" />
    <path
       sodipodi:sides="5"
       sodipodi:type="star"
       id="path5923"
       inkscape:randomized="0"
       sodipodi:cx="-447.11832"
       sodipodi:cy="-677.43262"
       inkscape:flatsided="false"
       sodipodi:arg2="1.4088858"
       sodipodi:arg1="0.78056728"
       transform="matrix(0.281001,4.48833e-2,-4.596649e-2,0.274379,-1195.542,-14.91707)"
       style="fill:#dedede;fill-opacity:1;stroke:url(#linearGradient6120);stroke-width:1;stroke-miterlimit:4;stroke-dashoffset:0;stroke-opacity:1"
       sodipodi:r2="11.087763"
       sodipodi:r1="27.440657"
       inkscape:rounded="0"
       d="M -427.62133,-658.1231 L -445.33092,-666.48987 L -459.45786,-652.92292 L -456.97315,-672.35121 L -474.24155,-681.5943 L -454.99633,-685.23488 L -451.54186,-704.51438 L -442.13236,-687.33609 L -422.72898,-690.00838 L -436.15881,-675.75103 L -427.62133,-658.1231 z " />
    <path
       sodipodi:sides="5"
       sodipodi:type="star"
       id="path5925"
       inkscape:randomized="0"
       sodipodi:cx="-447.11832"
       sodipodi:cy="-677.43262"
       inkscape:flatsided="false"
       sodipodi:arg2="1.4088858"
       sodipodi:arg1="0.78056728"
       transform="matrix(0.281001,4.48833e-2,-4.596649e-2,0.274379,-1177.065,-14.91707)"
       style="fill:#dedede;fill-opacity:1;stroke:url(#linearGradient6122);stroke-width:1;stroke-miterlimit:4;stroke-dashoffset:0;stroke-opacity:1"
       sodipodi:r2="11.087763"
       sodipodi:r1="27.440657"
       inkscape:rounded="0"
       d="M -427.62133,-658.1231 L -445.33092,-666.48987 L -459.45786,-652.92292 L -456.97315,-672.35121 L -474.24155,-681.5943 L -454.99633,-685.23488 L -451.54186,-704.51438 L -442.13236,-687.33609 L -422.72898,-690.00838 L -436.15881,-675.75103 L -427.62133,-658.1231 z " />
    <path
       d="M -427.62133,-658.1231 L -445.33092,-666.48987 L -459.45786,-652.92292 L -456.97315,-672.35121 L -474.24155,-681.5943 L -454.99633,-685.23488 L -451.54186,-704.51438 L -442.13236,-687.33609 L -422.72898,-690.00838 L -436.15881,-675.75103 L -427.62133,-658.1231 z "
       inkscape:rounded="0"
       sodipodi:r1="27.440657"
       sodipodi:r2="11.087763"
       style="fill:#dedede;fill-opacity:1;stroke:url(#linearGradient6124);stroke-width:1;stroke-miterlimit:4;stroke-dashoffset:0;stroke-opacity:1"
       transform="matrix(0.281001,4.48833e-2,-4.596649e-2,0.274379,-1214.018,-14.91707)"
       sodipodi:arg1="0.78056728"
       sodipodi:arg2="1.4088858"
       inkscape:flatsided="false"
       sodipodi:cy="-677.43262"
       sodipodi:cx="-447.11832"
       inkscape:randomized="0"
       id="path5931"
       sodipodi:type="star"
       sodipodi:sides="5" />
  </g>
  <g
     inkscape:export-ydpi="90.000000"
     inkscape:export-xdpi="90.000000"
     inkscape:export-filename="/home/uira/culturadigital/estudiolivre/src/styles/estudiolivre/star1.png"
     transform="translate(1321.279,241.5557)"
     id="g6052">
    <path
       sodipodi:sides="5"
       sodipodi:type="star"
       id="path19799"
       inkscape:randomized="0"
       sodipodi:cx="-447.11832"
       sodipodi:cy="-677.43262"
       inkscape:flatsided="false"
       sodipodi:arg2="1.4088858"
       sodipodi:arg1="0.78056728"
       transform="matrix(0.281001,4.48833e-2,-4.596649e-2,0.274379,-1214.018,6.47873)"
       style="fill:#ffde0a;fill-opacity:1;stroke:url(#linearGradient6106);stroke-width:1;stroke-miterlimit:4;stroke-dashoffset:0;stroke-opacity:1"
       sodipodi:r2="11.087763"
       sodipodi:r1="27.440657"
       inkscape:rounded="0"
       d="M -427.62133,-658.1231 L -445.33092,-666.48987 L -459.45786,-652.92292 L -456.97315,-672.35121 L -474.24155,-681.5943 L -454.99633,-685.23488 L -451.54186,-704.51438 L -442.13236,-687.33609 L -422.72898,-690.00838 L -436.15881,-675.75103 L -427.62133,-658.1231 z " />
    <path
       sodipodi:sides="5"
       sodipodi:type="star"
       id="path5946"
       inkscape:randomized="0"
       sodipodi:cx="-447.11832"
       sodipodi:cy="-677.43262"
       inkscape:flatsided="false"
       sodipodi:arg2="1.4088858"
       sodipodi:arg1="0.78056728"
       transform="matrix(0.281001,4.48833e-2,-4.596649e-2,0.274379,-1158.589,6.47873)"
       style="fill:#dedede;fill-opacity:1;stroke:url(#linearGradient6108);stroke-width:1;stroke-miterlimit:4;stroke-dashoffset:0;stroke-opacity:1"
       sodipodi:r2="11.087763"
       sodipodi:r1="27.440657"
       inkscape:rounded="0"
       d="M -427.62133,-658.1231 L -445.33092,-666.48987 L -459.45786,-652.92292 L -456.97315,-672.35121 L -474.24155,-681.5943 L -454.99633,-685.23488 L -451.54186,-704.51438 L -442.13236,-687.33609 L -422.72898,-690.00838 L -436.15881,-675.75103 L -427.62133,-658.1231 z " />
    <path
       sodipodi:sides="5"
       sodipodi:type="star"
       id="path5948"
       inkscape:randomized="0"
       sodipodi:cx="-447.11832"
       sodipodi:cy="-677.43262"
       inkscape:flatsided="false"
       sodipodi:arg2="1.4088858"
       sodipodi:arg1="0.78056728"
       transform="matrix(0.281001,4.48833e-2,-4.596649e-2,0.274379,-1140.112,6.47873)"
       style="fill:#dedede;fill-opacity:1;stroke:url(#linearGradient6110);stroke-width:1;stroke-miterlimit:4;stroke-dashoffset:0;stroke-opacity:1"
       sodipodi:r2="11.087763"
       sodipodi:r1="27.440657"
       inkscape:rounded="0"
       d="M -427.62133,-658.1231 L -445.33092,-666.48987 L -459.45786,-652.92292 L -456.97315,-672.35121 L -474.24155,-681.5943 L -454.99633,-685.23488 L -451.54186,-704.51438 L -442.13236,-687.33609 L -422.72898,-690.00838 L -436.15881,-675.75103 L -427.62133,-658.1231 z " />
    <path
       d="M -427.62133,-658.1231 L -445.33092,-666.48987 L -459.45786,-652.92292 L -456.97315,-672.35121 L -474.24155,-681.5943 L -454.99633,-685.23488 L -451.54186,-704.51438 L -442.13236,-687.33609 L -422.72898,-690.00838 L -436.15881,-675.75103 L -427.62133,-658.1231 z "
       inkscape:rounded="0"
       sodipodi:r1="27.440657"
       sodipodi:r2="11.087763"
       style="fill:#dedede;fill-opacity:1;stroke:url(#linearGradient6112);stroke-width:1;stroke-miterlimit:4;stroke-dashoffset:0;stroke-opacity:1"
       transform="matrix(0.281001,4.48833e-2,-4.596649e-2,0.274379,-1195.542,6.47873)"
       sodipodi:arg1="0.78056728"
       sodipodi:arg2="1.4088858"
       inkscape:flatsided="false"
       sodipodi:cy="-677.43262"
       sodipodi:cx="-447.11832"
       inkscape:randomized="0"
       id="path5950"
       sodipodi:type="star"
       sodipodi:sides="5" />
    <path
       d="M -427.62133,-658.1231 L -445.33092,-666.48987 L -459.45786,-652.92292 L -456.97315,-672.35121 L -474.24155,-681.5943 L -454.99633,-685.23488 L -451.54186,-704.51438 L -442.13236,-687.33609 L -422.72898,-690.00838 L -436.15881,-675.75103 L -427.62133,-658.1231 z "
       inkscape:rounded="0"
       sodipodi:r1="27.440657"
       sodipodi:r2="11.087763"
       style="fill:#dedede;fill-opacity:1;stroke:url(#linearGradient6114);stroke-width:1;stroke-miterlimit:4;stroke-dashoffset:0;stroke-opacity:1"
       transform="matrix(0.281001,4.48833e-2,-4.596649e-2,0.274379,-1177.065,6.47873)"
       sodipodi:arg1="0.78056728"
       sodipodi:arg2="1.4088858"
       inkscape:flatsided="false"
       sodipodi:cy="-677.43262"
       sodipodi:cx="-447.11832"
       inkscape:randomized="0"
       id="path5952"
       sodipodi:type="star"
       sodipodi:sides="5" />
  </g>
  <g
     inkscape:export-ydpi="90.000000"
     inkscape:export-xdpi="90.000000"
     inkscape:export-filename="/home/uira/culturadigital/estudiolivre/src/styles/estudiolivre/star2.png"
     transform="translate(1321.279,248.14)"
     id="g6045">
    <path
       d="M -427.62133,-658.1231 L -445.33092,-666.48987 L -459.45786,-652.92292 L -456.97315,-672.35121 L -474.24155,-681.5943 L -454.99633,-685.23488 L -451.54186,-704.51438 L -442.13236,-687.33609 L -422.72898,-690.00838 L -436.15881,-675.75103 L -427.62133,-658.1231 z "
       inkscape:rounded="0"
       sodipodi:r1="27.440657"
       sodipodi:r2="11.087763"
       style="fill:#ffde0a;fill-opacity:1;stroke:url(#linearGradient6096);stroke-width:1;stroke-miterlimit:4;stroke-dashoffset:0;stroke-opacity:1"
       transform="matrix(0.281001,4.48833e-2,-4.596649e-2,0.274379,-1214.018,24.97373)"
       sodipodi:arg1="0.78056728"
       sodipodi:arg2="1.4088858"
       inkscape:flatsided="false"
       sodipodi:cy="-677.43262"
       sodipodi:cx="-447.11832"
       inkscape:randomized="0"
       id="path5810"
       sodipodi:type="star"
       sodipodi:sides="5" />
    <path
       d="M -427.62133,-658.1231 L -445.33092,-666.48987 L -459.45786,-652.92292 L -456.97315,-672.35121 L -474.24155,-681.5943 L -454.99633,-685.23488 L -451.54186,-704.51438 L -442.13236,-687.33609 L -422.72898,-690.00838 L -436.15881,-675.75103 L -427.62133,-658.1231 z "
       inkscape:rounded="0"
       sodipodi:r1="27.440657"
       sodipodi:r2="11.087763"
       style="fill:#ffde0a;fill-opacity:1;stroke:url(#linearGradient6098);stroke-width:1;stroke-miterlimit:4;stroke-dashoffset:0;stroke-opacity:1"
       transform="matrix(0.281001,4.48833e-2,-4.596649e-2,0.274379,-1195.541,24.97373)"
       sodipodi:arg1="0.78056728"
       sodipodi:arg2="1.4088858"
       inkscape:flatsided="false"
       sodipodi:cy="-677.43262"
       sodipodi:cx="-447.11832"
       inkscape:randomized="0"
       id="path5812"
       sodipodi:type="star"
       sodipodi:sides="5" />
    <path
       d="M -427.62133,-658.1231 L -445.33092,-666.48987 L -459.45786,-652.92292 L -456.97315,-672.35121 L -474.24155,-681.5943 L -454.99633,-685.23488 L -451.54186,-704.51438 L -442.13236,-687.33609 L -422.72898,-690.00838 L -436.15881,-675.75103 L -427.62133,-658.1231 z "
       inkscape:rounded="0"
       sodipodi:r1="27.440657"
       sodipodi:r2="11.087763"
       style="fill:#dedede;fill-opacity:1;stroke:url(#linearGradient6100);stroke-width:1;stroke-miterlimit:4;stroke-dashoffset:0;stroke-opacity:1"
       transform="matrix(0.281001,4.48833e-2,-4.596649e-2,0.274379,-1158.589,24.97373)"
       sodipodi:arg1="0.78056728"
       sodipodi:arg2="1.4088858"
       inkscape:flatsided="false"
       sodipodi:cy="-677.43262"
       sodipodi:cx="-447.11832"
       inkscape:randomized="0"
       id="path5816"
       sodipodi:type="star"
       sodipodi:sides="5" />
    <path
       d="M -427.62133,-658.1231 L -445.33092,-666.48987 L -459.45786,-652.92292 L -456.97315,-672.35121 L -474.24155,-681.5943 L -454.99633,-685.23488 L -451.54186,-704.51438 L -442.13236,-687.33609 L -422.72898,-690.00838 L -436.15881,-675.75103 L -427.62133,-658.1231 z "
       inkscape:rounded="0"
       sodipodi:r1="27.440657"
       sodipodi:r2="11.087763"
       style="fill:#dedede;fill-opacity:1;stroke:url(#linearGradient6102);stroke-width:1;stroke-miterlimit:4;stroke-dashoffset:0;stroke-opacity:1"
       transform="matrix(0.281001,4.48833e-2,-4.596649e-2,0.274379,-1140.112,24.97373)"
       sodipodi:arg1="0.78056728"
       sodipodi:arg2="1.4088858"
       inkscape:flatsided="false"
       sodipodi:cy="-677.43262"
       sodipodi:cx="-447.11832"
       inkscape:randomized="0"
       id="path5818"
       sodipodi:type="star"
       sodipodi:sides="5" />
    <path
       sodipodi:sides="5"
       sodipodi:type="star"
       id="path5967"
       inkscape:randomized="0"
       sodipodi:cx="-447.11832"
       sodipodi:cy="-677.43262"
       inkscape:flatsided="false"
       sodipodi:arg2="1.4088858"
       sodipodi:arg1="0.78056728"
       transform="matrix(0.281001,4.48833e-2,-4.596649e-2,0.274379,-1177.065,24.97373)"
       style="fill:#dedede;fill-opacity:1;stroke:url(#linearGradient6104);stroke-width:1;stroke-miterlimit:4;stroke-dashoffset:0;stroke-opacity:1"
       sodipodi:r2="11.087763"
       sodipodi:r1="27.440657"
       inkscape:rounded="0"
       d="M -427.62133,-658.1231 L -445.33092,-666.48987 L -459.45786,-652.92292 L -456.97315,-672.35121 L -474.24155,-681.5943 L -454.99633,-685.23488 L -451.54186,-704.51438 L -442.13236,-687.33609 L -422.72898,-690.00838 L -436.15881,-675.75103 L -427.62133,-658.1231 z " />
  </g>
  <g
     inkscape:export-ydpi="90.000000"
     inkscape:export-xdpi="90.000000"
     inkscape:export-filename="/home/uira/culturadigital/estudiolivre/src/styles/estudiolivre/star4.png"
     transform="translate(1321.279,252.2436)"
     id="g6031">
    <path
       d="M -427.62133,-658.1231 L -445.33092,-666.48987 L -459.45786,-652.92292 L -456.97315,-672.35121 L -474.24155,-681.5943 L -454.99633,-685.23488 L -451.54186,-704.51438 L -442.13236,-687.33609 L -422.72898,-690.00838 L -436.15881,-675.75103 L -427.62133,-658.1231 z "
       inkscape:rounded="0"
       sodipodi:r1="27.440657"
       sodipodi:r2="11.087763"
       style="fill:#ffde0a;fill-opacity:1;stroke:url(#linearGradient6076);stroke-width:1;stroke-miterlimit:4;stroke-dashoffset:0;stroke-opacity:1"
       transform="matrix(0.281001,4.48833e-2,-4.596649e-2,0.274379,-1214.018,71.02883)"
       sodipodi:arg1="0.78056728"
       sodipodi:arg2="1.4088858"
       inkscape:flatsided="false"
       sodipodi:cy="-677.43262"
       sodipodi:cx="-447.11832"
       inkscape:randomized="0"
       id="path5976"
       sodipodi:type="star"
       sodipodi:sides="5" />
    <path
       d="M -427.62133,-658.1231 L -445.33092,-666.48987 L -459.45786,-652.92292 L -456.97315,-672.35121 L -474.24155,-681.5943 L -454.99633,-685.23488 L -451.54186,-704.51438 L -442.13236,-687.33609 L -422.72898,-690.00838 L -436.15881,-675.75103 L -427.62133,-658.1231 z "
       inkscape:rounded="0"
       sodipodi:r1="27.440657"
       sodipodi:r2="11.087763"
       style="fill:#ffde0a;fill-opacity:1;stroke:url(#linearGradient6078);stroke-width:1;stroke-miterlimit:4;stroke-dashoffset:0;stroke-opacity:1"
       transform="matrix(0.281001,4.48833e-2,-4.596649e-2,0.274379,-1195.542,71.02883)"
       sodipodi:arg1="0.78056728"
       sodipodi:arg2="1.4088858"
       inkscape:flatsided="false"
       sodipodi:cy="-677.43262"
       sodipodi:cx="-447.11832"
       inkscape:randomized="0"
       id="path5978"
       sodipodi:type="star"
       sodipodi:sides="5" />
    <path
       d="M -427.62133,-658.1231 L -445.33092,-666.48987 L -459.45786,-652.92292 L -456.97315,-672.35121 L -474.24155,-681.5943 L -454.99633,-685.23488 L -451.54186,-704.51438 L -442.13236,-687.33609 L -422.72898,-690.00838 L -436.15881,-675.75103 L -427.62133,-658.1231 z "
       inkscape:rounded="0"
       sodipodi:r1="27.440657"
       sodipodi:r2="11.087763"
       style="fill:#ffde0a;fill-opacity:1;stroke:url(#linearGradient6080);stroke-width:1;stroke-miterlimit:4;stroke-dashoffset:0;stroke-opacity:1"
       transform="matrix(0.281001,4.48833e-2,-4.596649e-2,0.274379,-1177.065,71.02883)"
       sodipodi:arg1="0.78056728"
       sodipodi:arg2="1.4088858"
       inkscape:flatsided="false"
       sodipodi:cy="-677.43262"
       sodipodi:cx="-447.11832"
       inkscape:randomized="0"
       id="path5980"
       sodipodi:type="star"
       sodipodi:sides="5" />
    <path
       d="M -427.62133,-658.1231 L -445.33092,-666.48987 L -459.45786,-652.92292 L -456.97315,-672.35121 L -474.24155,-681.5943 L -454.99633,-685.23488 L -451.54186,-704.51438 L -442.13236,-687.33609 L -422.72898,-690.00838 L -436.15881,-675.75103 L -427.62133,-658.1231 z "
       inkscape:rounded="0"
       sodipodi:r1="27.440657"
       sodipodi:r2="11.087763"
       style="fill:#dedede;fill-opacity:1;stroke:url(#linearGradient6082);stroke-width:1;stroke-miterlimit:4;stroke-dashoffset:0;stroke-opacity:1"
       transform="matrix(0.281001,4.48833e-2,-4.596649e-2,0.274379,-1140.112,71.02883)"
       sodipodi:arg1="0.78056728"
       sodipodi:arg2="1.4088858"
       inkscape:flatsided="false"
       sodipodi:cy="-677.43262"
       sodipodi:cx="-447.11832"
       inkscape:randomized="0"
       id="path5984"
       sodipodi:type="star"
       sodipodi:sides="5" />
    <path
       sodipodi:sides="5"
       sodipodi:type="star"
       id="path5996"
       inkscape:randomized="0"
       sodipodi:cx="-447.11832"
       sodipodi:cy="-677.43262"
       inkscape:flatsided="false"
       sodipodi:arg2="1.4088858"
       sodipodi:arg1="0.78056728"
       transform="matrix(0.281001,4.48833e-2,-4.596649e-2,0.274379,-1158.589,71.02883)"
       style="fill:#ffde0a;fill-opacity:1;stroke:url(#linearGradient6084);stroke-width:1;stroke-miterlimit:4;stroke-dashoffset:0;stroke-opacity:1"
       sodipodi:r2="11.087763"
       sodipodi:r1="27.440657"
       inkscape:rounded="0"
       d="M -427.62133,-658.1231 L -445.33092,-666.48987 L -459.45786,-652.92292 L -456.97315,-672.35121 L -474.24155,-681.5943 L -454.99633,-685.23488 L -451.54186,-704.51438 L -442.13236,-687.33609 L -422.72898,-690.00838 L -436.15881,-675.75103 L -427.62133,-658.1231 z " />
  </g>
  <g
     inkscape:export-ydpi="90.000000"
     inkscape:export-xdpi="90.000000"
     inkscape:export-filename="/home/uira/culturadigital/estudiolivre/src/styles/estudiolivre/star5.png"
     transform="translate(1321.279,252.7404)"
     id="g6024">
    <path
       sodipodi:sides="5"
       sodipodi:type="star"
       id="path6000"
       inkscape:randomized="0"
       sodipodi:cx="-447.11832"
       sodipodi:cy="-677.43262"
       inkscape:flatsided="false"
       sodipodi:arg2="1.4088858"
       sodipodi:arg1="0.78056728"
       transform="matrix(0.281001,4.48833e-2,-4.596649e-2,0.274379,-1214.018,95.61144)"
       style="fill:#ffde0a;fill-opacity:1;stroke:url(#linearGradient6066);stroke-width:1;stroke-miterlimit:4;stroke-dashoffset:0;stroke-opacity:1"
       sodipodi:r2="11.087763"
       sodipodi:r1="27.440657"
       inkscape:rounded="0"
       d="M -427.62133,-658.1231 L -445.33092,-666.48987 L -459.45786,-652.92292 L -456.97315,-672.35121 L -474.24155,-681.5943 L -454.99633,-685.23488 L -451.54186,-704.51438 L -442.13236,-687.33609 L -422.72898,-690.00838 L -436.15881,-675.75103 L -427.62133,-658.1231 z " />
    <path
       sodipodi:sides="5"
       sodipodi:type="star"
       id="path6002"
       inkscape:randomized="0"
       sodipodi:cx="-447.11832"
       sodipodi:cy="-677.43262"
       inkscape:flatsided="false"
       sodipodi:arg2="1.4088858"
       sodipodi:arg1="0.78056728"
       transform="matrix(0.281001,4.48833e-2,-4.596649e-2,0.274379,-1195.542,95.61144)"
       style="fill:#ffde0a;fill-opacity:1;stroke:url(#linearGradient6068);stroke-width:1;stroke-miterlimit:4;stroke-dashoffset:0;stroke-opacity:1"
       sodipodi:r2="11.087763"
       sodipodi:r1="27.440657"
       inkscape:rounded="0"
       d="M -427.62133,-658.1231 L -445.33092,-666.48987 L -459.45786,-652.92292 L -456.97315,-672.35121 L -474.24155,-681.5943 L -454.99633,-685.23488 L -451.54186,-704.51438 L -442.13236,-687.33609 L -422.72898,-690.00838 L -436.15881,-675.75103 L -427.62133,-658.1231 z " />
    <path
       sodipodi:sides="5"
       sodipodi:type="star"
       id="path6004"
       inkscape:randomized="0"
       sodipodi:cx="-447.11832"
       sodipodi:cy="-677.43262"
       inkscape:flatsided="false"
       sodipodi:arg2="1.4088858"
       sodipodi:arg1="0.78056728"
       transform="matrix(0.281001,4.48833e-2,-4.596649e-2,0.274379,-1177.065,95.61144)"
       style="fill:#ffde0a;fill-opacity:1;stroke:url(#linearGradient6070);stroke-width:1;stroke-miterlimit:4;stroke-dashoffset:0;stroke-opacity:1"
       sodipodi:r2="11.087763"
       sodipodi:r1="27.440657"
       inkscape:rounded="0"
       d="M -427.62133,-658.1231 L -445.33092,-666.48987 L -459.45786,-652.92292 L -456.97315,-672.35121 L -474.24155,-681.5943 L -454.99633,-685.23488 L -451.54186,-704.51438 L -442.13236,-687.33609 L -422.72898,-690.00838 L -436.15881,-675.75103 L -427.62133,-658.1231 z " />
    <path
       d="M -427.62133,-658.1231 L -445.33092,-666.48987 L -459.45786,-652.92292 L -456.97315,-672.35121 L -474.24155,-681.5943 L -454.99633,-685.23488 L -451.54186,-704.51438 L -442.13236,-687.33609 L -422.72898,-690.00838 L -436.15881,-675.75103 L -427.62133,-658.1231 z "
       inkscape:rounded="0"
       sodipodi:r1="27.440657"
       sodipodi:r2="11.087763"
       style="fill:#ffde0a;fill-opacity:1;stroke:url(#linearGradient6072);stroke-width:1;stroke-miterlimit:4;stroke-dashoffset:0;stroke-opacity:1"
       transform="matrix(0.281001,4.48833e-2,-4.596649e-2,0.274379,-1158.589,95.61144)"
       sodipodi:arg1="0.78056728"
       sodipodi:arg2="1.4088858"
       inkscape:flatsided="false"
       sodipodi:cy="-677.43262"
       sodipodi:cx="-447.11832"
       inkscape:randomized="0"
       id="path6008"
       sodipodi:type="star"
       sodipodi:sides="5" />
    <path
       sodipodi:sides="5"
       sodipodi:type="star"
       id="path6020"
       inkscape:randomized="0"
       sodipodi:cx="-447.11832"
       sodipodi:cy="-677.43262"
       inkscape:flatsided="false"
       sodipodi:arg2="1.4088858"
       sodipodi:arg1="0.78056728"
       transform="matrix(0.281001,4.48833e-2,-4.596649e-2,0.274379,-1140.112,95.6114)"
       style="fill:#ffde0a;fill-opacity:1;stroke:url(#linearGradient6074);stroke-width:1;stroke-miterlimit:4;stroke-dashoffset:0;stroke-opacity:1"
       sodipodi:r2="11.087763"
       sodipodi:r1="27.440657"
       inkscape:rounded="0"
       d="M -427.62133,-658.1231 L -445.33092,-666.48987 L -459.45786,-652.92292 L -456.97315,-672.35121 L -474.24155,-681.5943 L -454.99633,-685.23488 L -451.54186,-704.51438 L -442.13236,-687.33609 L -422.72898,-690.00838 L -436.15881,-675.75103 L -427.62133,-658.1231 z " />
  </g>
</svg>
