<?xml version="1.0" encoding="UTF-8" standalone="no"?>
<!-- Created with Inkscape (http://www.inkscape.org/) -->
<svg
   xmlns:dc="http://purl.org/dc/elements/1.1/"
   xmlns:cc="http://web.resource.org/cc/"
   xmlns:rdf="http://www.w3.org/1999/02/22-rdf-syntax-ns#"
   xmlns:svg="http://www.w3.org/2000/svg"
   xmlns="http://www.w3.org/2000/svg"
   xmlns:xlink="http://www.w3.org/1999/xlink"
   xmlns:sodipodi="http://sodipodi.sourceforge.net/DTD/sodipodi-0.dtd"
   xmlns:inkscape="http://www.inkscape.org/namespaces/inkscape"
   width="744.09448819"
   height="1052.3622047"
   id="svg2"
   sodipodi:version="0.32"
   inkscape:version="0.44"
   sodipodi:docbase="/home/rhwinter/devel/eclipse_workspace/estudiolivre/desenhos/temas/bubble/REorganizar"
   sodipodi:docname="ligthbox+lightBoxNaoLogado.svg">
  <defs
     id="defs4">
    <linearGradient
       inkscape:collect="always"
       id="linearGradient4414">
      <stop
         style="stop-color:#ff766f;stop-opacity:1;"
         offset="0"
         id="stop4416" />
      <stop
         style="stop-color:#ff5756;stop-opacity:1"
         offset="1"
         id="stop4418" />
    </linearGradient>
    <linearGradient
       inkscape:collect="always"
       xlink:href="#linearGradient4414"
       id="linearGradient4420"
       x1="309.60422"
       y1="-172.02419"
       x2="314.0495"
       y2="-172.25586"
       gradientUnits="userSpaceOnUse"
       gradientTransform="matrix(0.61956,-2.86268e-16,2.501231e-16,0.61956,83.45254,-56.7328)" />
    <linearGradient
       inkscape:collect="always"
       id="linearGradient3517">
      <stop
         style="stop-color:#d8d100;stop-opacity:1"
         offset="0"
         id="stop3519" />
      <stop
         style="stop-color:#9d9b34;stop-opacity:1"
         offset="1"
         id="stop3521" />
    </linearGradient>
    <linearGradient
       inkscape:collect="always"
       xlink:href="#linearGradient3517"
       id="linearGradient3523"
       x1="308.05234"
       y1="183.21906"
       x2="315.43578"
       y2="183.21906"
       gradientUnits="userSpaceOnUse"
       gradientTransform="matrix(0.61956,2.86268e-16,-2.501231e-16,0.61956,83.45254,56.7328)" />
    <linearGradient
       inkscape:collect="always"
       id="linearGradient3525">
      <stop
         style="stop-color:#b5b5b5;stop-opacity:1;"
         offset="0"
         id="stop3527" />
      <stop
         style="stop-color:#514e4f;stop-opacity:1"
         offset="1"
         id="stop3529" />
    </linearGradient>
    <linearGradient
       inkscape:collect="always"
       xlink:href="#linearGradient3525"
       id="linearGradient3531"
       x1="308.05234"
       y1="174.65259"
       x2="315.43578"
       y2="174.65259"
       gradientUnits="userSpaceOnUse"
       gradientTransform="matrix(0.61956,2.86268e-16,-2.501231e-16,0.61956,83.45254,56.7328)" />
    <linearGradient
       inkscape:collect="always"
       id="linearGradient3533">
      <stop
         style="stop-color:#ffd5ab;stop-opacity:1;"
         offset="0"
         id="stop3535" />
      <stop
         style="stop-color:#ff943f;stop-opacity:1"
         offset="1"
         id="stop3537" />
    </linearGradient>
    <linearGradient
       inkscape:collect="always"
       xlink:href="#linearGradient3533"
       id="linearGradient3539"
       x1="64.49707"
       y1="350.76138"
       x2="72.992793"
       y2="351.42873"
       gradientUnits="userSpaceOnUse" />
    <marker
       inkscape:stockid="Club"
       orient="auto"
       refY="0.0"
       refX="0.0"
       id="Club"
       style="overflow:visible">
      <path
         id="path5745"
         d="M -1.5971367,-7.0977635 C -3.4863874,-7.0977635 -5.0235187,-5.5606321 -5.0235187,-3.6713813 C -5.0235187,-3.0147015 -4.7851656,-2.4444556 -4.4641095,-1.9232271 C -4.5028609,-1.8911157 -4.5437814,-1.8647646 -4.5806531,-1.8299921 C -5.2030765,-2.6849849 -6.1700514,-3.2751330 -7.3077730,-3.2751330 C -9.1970245,-3.2751331 -10.734155,-1.7380016 -10.734155,0.15124914 C -10.734155,2.0404999 -9.1970245,3.5776313 -7.3077730,3.5776313 C -6.3143268,3.5776313 -5.4391540,3.1355702 -4.8137404,2.4588126 C -4.9384274,2.8137041 -5.0235187,3.1803000 -5.0235187,3.5776313 C -5.0235187,5.4668819 -3.4863874,7.0040135 -1.5971367,7.0040135 C 0.29211394,7.0040135 1.8292454,5.4668819 1.8292454,3.5776313 C 1.8292454,2.7842354 1.5136868,2.0838028 1.0600576,1.5031550 C 2.4152718,1.7663868 3.7718375,2.2973711 4.7661444,3.8340272 C 4.0279463,3.0958289 3.5540908,1.7534117 3.5540908,-0.058529361 L 2.9247554,-0.10514681 L 3.5074733,-0.12845553 C 3.5074733,-1.9403966 3.9580199,-3.2828138 4.6962183,-4.0210121 C 3.7371277,-2.5387813 2.4390549,-1.9946496 1.1299838,-1.7134486 C 1.5341802,-2.2753578 1.8292454,-2.9268556 1.8292454,-3.6713813 C 1.8292454,-5.5606319 0.29211394,-7.0977635 -1.5971367,-7.0977635 z "
         style="fill-rule:evenodd;stroke:#000000;stroke-width:0.74587913pt;marker-start:none"
         transform="scale(0.6)" />
    </marker>
  </defs>
  <sodipodi:namedview
     id="base"
     pagecolor="#ffffff"
     bordercolor="#666666"
     borderopacity="1.0"
     inkscape:pageopacity="0.0"
     inkscape:pageshadow="2"
     inkscape:zoom="0.54808582"
     inkscape:cx="1259.335"
     inkscape:cy="582.8425"
     inkscape:document-units="px"
     inkscape:current-layer="g3938"
     inkscape:window-width="1432"
     inkscape:window-height="872"
     inkscape:window-x="91"
     inkscape:window-y="222" />
  <metadata
     id="metadata7">
    <rdf:RDF>
      <cc:Work
         rdf:about="">
        <dc:format>image/svg+xml</dc:format>
        <dc:type
           rdf:resource="http://purl.org/dc/dcmitype/StillImage" />
      </cc:Work>
    </rdf:RDF>
  </metadata>
  <g
     id="layer1"
     inkscape:groupmode="layer"
     inkscape:label="Layer 1">
    <rect
       rx="28.830484"
       ry="28.830484"
       y="26.81773"
       x="39.898705"
       height="211.31535"
       width="295.54596"
       id="rect1307"
       style="opacity:1;fill:#ffffff;fill-opacity:1;stroke:#7ad022;stroke-width:1.65499997;stroke-linejoin:round;stroke-miterlimit:4;stroke-dasharray:none;stroke-opacity:1" />
    <text
       sodipodi:linespacing="100%"
       id="text2182"
       y="65.259193"
       x="187.6562"
       style="font-size:15.07041264px;font-style:normal;font-variant:normal;font-weight:normal;font-stretch:normal;text-align:center;line-height:100%;writing-mode:lr-tb;text-anchor:middle;fill:#000000;fill-opacity:1;stroke:none;stroke-width:1px;stroke-linecap:butt;stroke-linejoin:miter;stroke-opacity:1;font-family:URW Gothic L"
       xml:space="preserve"><tspan
         y="65.259193"
         x="187.6562"
         id="tspan2184"
         sodipodi:role="line"><tspan
   style="font-size:21.52916145px;font-style:normal;font-variant:normal;font-weight:normal;font-stretch:normal;text-align:center;line-height:100%;writing-mode:lr-tb;text-anchor:middle;font-family:URW Gothic L"
   id="tspan2202">Você não está logado</tspan>.</tspan><tspan
         id="tspan2186"
         y="86.788355"
         x="187.6562"
         sodipodi:role="line" /><tspan
         style="font-size:20px;font-style:normal;font-variant:normal;font-weight:normal;font-stretch:normal;text-align:center;line-height:100%;writing-mode:lr-tb;text-anchor:middle;font-family:URW Gothic L"
         id="tspan2188"
         y="107.08219"
         x="187.6562"
         sodipodi:role="line">&gt;&gt; cadastre-se</tspan><tspan
         style="font-size:15.07041264px;font-style:normal;font-variant:normal;font-weight:normal;font-stretch:normal;text-align:end;line-height:100%;writing-mode:lr-tb;text-anchor:end;font-family:URW Gothic L"
         id="tspan2194"
         y="127.08219"
         x="187.6562"
         sodipodi:role="line" /></text>
    <rect
       ry="0"
       rx="0"
       y="135.03612"
       x="57.631462"
       height="36.943245"
       width="234.95903"
       id="rect3964"
       style="opacity:1;color:#000000;fill:#ffffff;fill-opacity:1;fill-rule:nonzero;stroke:#b8b8b8;stroke-width:1.65499997;stroke-linecap:butt;stroke-linejoin:round;marker:none;marker-start:none;marker-mid:none;marker-end:none;stroke-miterlimit:4;stroke-dasharray:none;stroke-dashoffset:0;stroke-opacity:1;visibility:visible;display:inline;overflow:visible" />
    <rect
       ry="0"
       rx="0"
       y="179.03612"
       x="57.631462"
       height="36.943245"
       width="234.95903"
       id="rect4841"
       style="opacity:1;color:#000000;fill:#ffffff;fill-opacity:1;fill-rule:nonzero;stroke:#b8b8b8;stroke-width:1.65499997;stroke-linecap:butt;stroke-linejoin:round;marker:none;marker-start:none;marker-mid:none;marker-end:none;stroke-miterlimit:4;stroke-dasharray:none;stroke-dashoffset:0;stroke-opacity:1;visibility:visible;display:inline;overflow:visible" />
    <text
       sodipodi:linespacing="225%"
       id="text2208"
       y="158.61711"
       x="70.676071"
       style="font-size:20.10557556px;font-style:normal;font-variant:normal;font-weight:normal;font-stretch:normal;text-align:start;line-height:225%;writing-mode:lr-tb;text-anchor:start;fill:#000000;fill-opacity:1;stroke:none;stroke-width:1px;stroke-linecap:butt;stroke-linejoin:miter;stroke-opacity:1;font-family:URW Gothic L"
       xml:space="preserve"><tspan
         y="158.61711"
         x="70.676071"
         id="tspan2210"
         sodipodi:role="line">login</tspan><tspan
         id="tspan2212"
         y="203.85466"
         x="70.676071"
         sodipodi:role="line">senha</tspan></text>
    <rect
       rx="4.4331894"
       ry="4.4331894"
       y="112.95924"
       x="112.30746"
       height="2.9554596"
       width="153.6839"
       id="rect2214"
       style="opacity:1;fill:#f20000;fill-opacity:1;stroke:none;stroke-width:1.65499997;stroke-linejoin:round;stroke-miterlimit:4;stroke-dasharray:none;stroke-opacity:1" />
    <path
       sodipodi:nodetypes="cccccccc"
       id="path4867"
       d="M 304.41233,201.90162 C 305.62588,202.67672 307.35818,201.36989 306.6005,210.05621 C 311.46934,201.68816 317.58038,192.81764 326.13773,191.02883 C 326.13773,191.02883 326.13773,191.02883 326.13773,191.02883 C 326.08563,191.09853 326.65872,189.2864 326.60663,189.35609 C 316.00807,190.95307 311.37905,198.23244 307.53829,205.66527 C 307.74645,203.79726 308.65002,202.30137 306.9131,199.39251 C 306.07951,198.78029 305.24592,199.76364 304.41233,201.90162 z "
       style="fill:#000000;fill-opacity:1;fill-rule:evenodd;stroke:none;stroke-width:1px;stroke-linecap:butt;stroke-linejoin:miter;marker-mid:none;marker-end:none;stroke-opacity:1" />
    <g
       id="g3938"
       transform="translate(14.00648,-18.61609)">
      <g
         id="g3940"
         transform="translate(8.26349,103.6728)"
         style="opacity:0.41276592" />
      <image
         id="image1443"
         height="572"
         width="776"
         sodipodi:absref="/home/rhwinter/docs/cdig/cvs/estudiolivre/layout/current/imports/lightBox.png"
         xlink:href="imports/lightBox.png"
         x="1689.9403"
         y="-17.206718" />
      <g
         id="g4071"
         transform="matrix(0.991493,0,0,0.991493,766.7009,-518.0636)">
        <path
           style="opacity:0.05;fill:#000000;fill-opacity:1;stroke:#000000;stroke-width:1;stroke-linecap:butt;stroke-linejoin:miter;stroke-miterlimit:4;stroke-opacity:1"
           d="M 115.53125,593 C 103.25535,592.82889 93.322538,604.95099 95,616.96875 C 95.104482,734.18383 94.791245,851.42814 95.15625,968.625 C 96.314733,980.46136 108.42113,988.75816 120,986.96875 C 275.53814,986.8644 431.10443,987.17733 586.625,986.8125 C 598.54968,985.65126 606.75722,973.55412 605,961.96875 C 604.87461,845.00342 605.25052,728.01083 604.8125,611.0625 C 603.51367,599.63305 591.96819,591.42616 580.71875,592.96875 C 425.6566,592.98959 270.59167,592.92707 115.53125,593 z "
           id="path4073" />
        <path
           style="opacity:0.05;fill:#000000;fill-opacity:1;stroke:#000000;stroke-width:1;stroke-linecap:butt;stroke-linejoin:miter;stroke-miterlimit:4;stroke-opacity:1"
           d="M 115.5,592.375 C 102.42436,592.2216 92.373532,605.23711 94.375,617.96875 C 94.47947,734.88257 94.166261,851.81908 94.53125,968.71875 C 95.73349,980.85792 108.04281,989.3952 120,987.59375 C 275.57018,987.48941 431.16223,987.80232 586.71875,987.4375 C 599.03905,986.16342 607.36125,973.91395 605.625,961.96875 C 605.49962,844.99238 605.87551,727.99374 605.4375,611.03125 C 604.17653,599.34065 592.35643,590.78445 580.75,592.34375 C 425.66699,592.36459 270.58138,592.30207 115.5,592.375 z "
           id="path4078" />
        <path
           style="opacity:0.05;fill:#000000;fill-opacity:1;stroke:#000000;stroke-width:1;stroke-linecap:butt;stroke-linejoin:miter;stroke-miterlimit:4;stroke-opacity:1"
           d="M 115.5,591.71875 C 102.05075,591.61416 91.714123,604.93133 93.75,617.96875 C 93.854538,734.90298 93.54117,851.94668 93.90625,968.8125 C 95.145099,981.22774 107.83562,990.09476 120,988.21875 C 275.59057,988.11437 431.28991,988.42737 586.8125,988.0625 C 599.33152,986.82954 608.0777,974.13303 606.25,961.96875 C 606.12456,844.9829 606.50058,727.88389 606.0625,610.96875 C 604.77234,598.5928 592.08364,589.92459 580,591.71875 C 425.17728,591.71875 270.26906,591.71874 115.5,591.71875 z "
           id="path4083" />
        <path
           style="opacity:0.05;fill:#000000;fill-opacity:1;stroke:#000000;stroke-width:1;stroke-linecap:butt;stroke-linejoin:miter;stroke-miterlimit:4;stroke-opacity:1"
           d="M 115.46875,591.09375 C 102.20269,590.94897 91.397564,603.95362 93.09375,616.96875 C 93.219183,734.26739 92.84317,851.59344 93.28125,968.875 C 94.519471,981.62588 107.52184,990.70854 120,988.875 C 275.4563,988.79155 430.92887,989.04182 586.375,988.75 C 599.39594,987.77554 608.78638,974.62262 606.90625,961.96875 C 606.78079,845.01353 607.15687,728.03353 606.71875,611.09375 C 605.49697,598.67305 593.05434,589.49708 580.8125,591.0625 C 425.69823,591.08334 270.58149,591.02082 115.46875,591.09375 z "
           id="path4088" />
        <path
           style="opacity:0.05;fill:#000000;fill-opacity:1;stroke:#000000;stroke-width:1;stroke-linecap:butt;stroke-linejoin:miter;stroke-miterlimit:4;stroke-opacity:1"
           d="M 115.4375,590.46875 C 101.84328,590.31682 90.744468,603.62269 92.46875,616.96875 C 92.594186,734.29868 92.218166,851.6557 92.65625,968.96875 C 93.913605,982.0028 107.23408,991.36464 120,989.5 C 275.47708,989.41655 430.9708,989.66682 586.4375,989.375 C 599.77614,988.39303 609.44289,974.91943 607.53125,961.96875 C 607.40579,844.98209 607.78187,727.97212 607.34375,611 C 606.10444,598.30376 593.36814,588.85323 580.84375,590.4375 C 425.70863,590.45834 270.57118,590.39582 115.4375,590.46875 z "
           id="path4093" />
        <path
           style="opacity:0.05;fill:#000000;fill-opacity:1;stroke:#000000;stroke-width:1;stroke-linecap:butt;stroke-linejoin:miter;stroke-miterlimit:4;stroke-opacity:1"
           d="M 115.40625,589.84375 C 101.48318,589.68514 90.099371,603.2908 91.84375,616.96875 C 91.969158,734.33036 91.593204,851.71567 92.03125,969.0625 C 93.358225,982.39311 106.85682,991.99887 120,990.125 C 275.49826,990.04156 431.0104,990.29181 586.5,990 C 600.17192,988.97193 610.00919,975.3911 608.15625,961.96875 C 608.05178,845.1379 608.36499,728.28724 608,611.46875 C 607.04552,597.78219 593.1843,587.86395 579.875,589.8125 C 425.05236,589.83334 270.22752,589.77082 115.40625,589.84375 z "
           id="path4098" />
        <path
           style="opacity:0.05;fill:#000000;fill-opacity:1;stroke:#000000;stroke-width:1;stroke-linecap:butt;stroke-linejoin:miter;stroke-miterlimit:4;stroke-opacity:1"
           d="M 115.375,589.21875 C 101.20603,589.01983 89.396659,603.02654 91.21875,616.96875 C 91.344209,734.33917 90.968136,851.82909 91.40625,969.125 C 92.707872,982.70375 106.6284,992.72972 120,990.75 C 275.50849,990.68742 431.11558,990.87511 586.5625,990.65625 C 600.06267,989.61036 610.44788,976.1967 608.78125,962.96875 C 608.65573,845.56604 609.03195,728.05202 608.59375,610.71875 C 607.14794,597.07274 593.31121,587.2651 579.90625,589.1875 C 425.06276,589.20834 270.21718,589.14582 115.375,589.21875 z "
           id="path4103" />
        <path
           style="opacity:0.05;fill:#000000;fill-opacity:1;stroke:#000000;stroke-width:1;stroke-linecap:butt;stroke-linejoin:miter;stroke-miterlimit:4;stroke-opacity:1"
           d="M 115.34375,588.5625 C 100.81609,588.46583 88.762503,602.66398 90.59375,616.96875 C 90.719293,734.3709 90.343023,851.88911 90.78125,969.21875 C 92.12529,983.14849 106.33907,993.35224 120,991.375 C 275.51908,991.31239 431.13554,991.50015 586.59375,991.28125 C 600.85353,990.21775 611.40377,975.88262 609.40625,961.96875 C 609.28066,844.8888 609.65704,727.69844 609.21875,610.6875 C 607.80239,597.1399 594.34088,586.9609 581,588.5625 C 425.79191,588.56251 270.49851,588.56249 115.34375,588.5625 z "
           id="path4108" />
        <path
           style="opacity:0.05;fill:#000000;fill-opacity:1;stroke:#000000;stroke-width:1;stroke-linecap:butt;stroke-linejoin:miter;stroke-miterlimit:4;stroke-opacity:1"
           d="M 115.3125,587.9375 C 100.49104,587.87284 88.25634,602.14912 89.9375,616.81086 C 90.021068,734.09104 89.77052,851.38407 90.0625,968.65625 C 91.115214,982.96523 105.53521,993.97432 119.78947,992.03125 C 275.41013,991.94782 431.04361,992.19805 586.65625,991.90625 C 601.10082,990.81738 611.95522,976.41109 610.0625,962.17928 C 609.95798,845.22596 610.2713,728.25452 609.90625,611.3125 C 608.89004,596.87517 594.40377,586.04289 580.17928,587.90625 C 425.22392,587.92709 270.26667,587.86458 115.3125,587.9375 z "
           id="path4113" />
        <path
           style="opacity:0.05;fill:#000000;fill-opacity:1;stroke:#000000;stroke-width:1;stroke-linecap:butt;stroke-linejoin:miter;stroke-miterlimit:4;stroke-opacity:1"
           d="M 115.28125,587.3125 C 103.90563,587.45302 93.507666,595.47221 90.42208,606.32757 C 88.469502,612.89957 89.625798,619.85432 89.3125,626.60034 C 89.333337,740.19166 89.270828,853.78487 89.34375,967.375 C 89.8153,979.06586 98.522297,989.47431 109.9375,991.96875 C 116.07172,993.28924 122.40982,992.39318 128.63159,992.65625 C 280.87916,992.63542 433.12862,992.69792 585.375,992.625 C 596.69114,992.2054 607.01578,983.8614 609.75134,972.98012 C 611.44329,966.4709 610.3964,959.66403 610.6875,953.02137 C 610.66666,839.54575 610.72917,726.06814 610.65625,612.59375 C 610.21746,601.7628 602.58064,591.74455 592.26444,588.61443 C 585.53372,586.36722 578.32254,587.60259 571.36841,587.28125 C 419.33959,587.30208 267.30894,587.23958 115.28125,587.3125 z "
           id="path4118" />
        <path
           style="opacity:0.05;fill:#000000;fill-opacity:1;stroke:#000000;stroke-width:1;stroke-linecap:butt;stroke-linejoin:miter;stroke-miterlimit:4;stroke-opacity:1"
           d="M 115.28125,586.6875 C 103.67627,586.74451 92.961433,595.11208 89.801929,606.14181 C 87.861978,612.78114 88.989308,619.79087 88.6875,626.60032 C 88.708337,740.19164 88.645828,853.78486 88.71875,967.375 C 89.114838,979.50707 98.51562,990.44975 110.4269,992.74004 C 116.84969,993.82733 123.41284,993.04368 129.89473,993.28125 C 281.72125,993.26041 433.54966,993.32292 585.375,993.25 C 597.75867,992.8683 608.9263,983.05322 610.875,970.84375 C 611.79253,964.32257 611.09471,957.69225 611.3125,951.12666 C 611.29166,838.27217 611.35417,725.4158 611.28125,612.5625 C 610.84908,601.08683 602.4777,590.66258 591.5,587.6875 C 584.73765,585.86421 577.64785,586.95448 570.73685,586.65625 C 418.91855,586.67708 267.09842,586.61458 115.28125,586.6875 z "
           id="path4123" />
        <path
           style="opacity:0.05;fill:#000000;fill-opacity:1;stroke:#000000;stroke-width:1;stroke-linecap:butt;stroke-linejoin:miter;stroke-miterlimit:4;stroke-opacity:1"
           d="M 115.28125,586.0625 C 99.412745,585.97724 86.332604,601.13041 88.0625,616.81085 C 88.146094,734.16414 87.895485,851.52881 88.1875,968.875 C 89.388726,984.22846 104.53843,995.8497 119.78947,993.90625 C 275.48322,993.82272 431.18834,994.07318 586.875,993.78125 C 602.31622,992.57888 613.84981,977.40117 611.9375,962.17928 C 611.8329,845.16333 612.14641,728.13031 611.78125,611.125 C 610.66103,595.6776 595.41083,584.14349 580.21053,586.03125 C 425.23434,586.05209 270.25625,585.98957 115.28125,586.0625 z "
           id="path4128" />
        <path
           style="opacity:0.05;fill:#000000;fill-opacity:1;stroke:#000000;stroke-width:1;stroke-linecap:butt;stroke-linejoin:miter;stroke-miterlimit:4;stroke-opacity:1"
           d="M 115.9375,585.40625 C 99.94531,584.90694 86.005122,599.97543 87.40625,615.96875 C 87.510771,733.62966 87.197442,851.33651 87.5625,968.96875 C 88.768278,984.25449 103.74865,996.22805 119,994.5625 C 274.98384,994.45812 431.01358,994.77111 586.96875,994.40625 C 602.40658,993.17874 614.20666,978.18476 612.59375,962.96875 C 612.46821,845.67314 612.84448,728.32589 612.40625,611.0625 C 611.33433,595.67008 596.14424,583.7325 581,585.375 C 425.98348,585.39583 270.93244,585.33334 115.9375,585.40625 z "
           id="path4133" />
        <path
           style="opacity:0.05;fill:#000000;fill-opacity:1;stroke:#000000;stroke-width:1;stroke-linecap:butt;stroke-linejoin:miter;stroke-miterlimit:4;stroke-opacity:1"
           d="M 115.28125,584.78125 C 98.72319,584.66601 84.961734,600.57879 86.78125,616.96875 C 86.885863,734.32755 86.572319,851.73239 86.9375,969.0625 C 88.180499,984.67254 103.4426,996.85678 119,995.1875 C 275.01507,995.08307 431.07611,995.39618 587.0625,995.03125 C 602.78182,993.78478 614.85932,978.47976 613.21875,962.96875 C 613.09313,845.66275 613.46958,728.30502 613.03125,611.03125 C 611.94113,595.30723 596.5549,583.12099 581,584.75 C 425.76068,584.77084 270.51927,584.70832 115.28125,584.78125 z "
           id="path4138" />
        <path
           style="opacity:0.05;fill:#000000;fill-opacity:1;stroke:#000000;stroke-width:1;stroke-linecap:butt;stroke-linejoin:miter;stroke-miterlimit:4;stroke-opacity:1"
           d="M 115.28125,584.15625 C 98.382558,584.01667 84.327726,600.24928 86.15625,616.96875 C 86.26088,734.35025 85.947297,851.7629 86.3125,969.125 C 87.58261,985.0397 103.16043,997.5178 119,995.8125 C 275.03777,995.70806 431.10663,996.02119 587.125,995.65625 C 603.11702,994.39605 615.51017,978.81971 613.84375,962.96875 C 613.73906,845.63757 614.05279,728.28929 613.6875,610.96875 C 612.49298,594.94101 596.86855,582.45719 581,584.125 C 425.76069,584.14584 270.51919,584.08332 115.28125,584.15625 z "
           id="path4143" />
        <path
           style="opacity:0.05;fill:#000000;fill-opacity:1;stroke:#000000;stroke-width:1;stroke-linecap:butt;stroke-linejoin:miter;stroke-miterlimit:4;stroke-opacity:1"
           d="M 115.28125,583.53125 C 98.522691,583.35765 84.069134,599.25254 85.53125,615.96875 C 85.635882,733.71561 85.322294,851.48744 85.6875,969.21875 C 86.989466,985.42445 102.87588,998.1819 119,996.4375 C 275.06979,996.33306 431.16451,996.6462 587.21875,996.28125 C 603.52175,994.99142 616.18359,979.05747 614.46875,962.96875 C 614.36406,845.61673 614.67778,728.24763 614.3125,610.90625 C 613.12547,594.59594 597.17185,581.78838 581,583.5 C 425.76071,583.52084 270.51909,583.45832 115.28125,583.53125 z "
           id="path4148" />
        <path
           style="opacity:0.05;fill:#000000;fill-opacity:1;stroke:#000000;stroke-width:1;stroke-linecap:butt;stroke-linejoin:miter;stroke-miterlimit:4;stroke-opacity:1"
           d="M 115.28125,582.90625 C 97.740603,582.70714 82.996488,599.58603 84.90625,616.96875 C 85.010894,734.41352 84.697278,851.88328 85.0625,969.3125 C 86.40228,985.82314 102.55978,998.82018 119,997.0625 C 275.10104,996.95805 431.22701,997.27121 587.3125,996.90625 C 603.92016,995.57622 616.81159,979.39026 615.09375,962.96875 C 614.98906,845.5959 615.30279,728.20596 614.9375,610.84375 C 613.72478,594.20066 597.49837,581.15239 581,582.875 C 425.76073,582.89584 270.51899,582.83332 115.28125,582.90625 z "
           id="path4153" />
        <path
           style="opacity:0.05;fill:#000000;fill-opacity:1;stroke:#000000;stroke-width:1;stroke-linecap:butt;stroke-linejoin:miter;stroke-miterlimit:4;stroke-opacity:1"
           d="M 115.78125,582.25 C 98.154491,581.78493 82.778251,598.40283 84.25,615.96875 C 84.375486,733.76641 83.999349,851.59931 84.4375,969.375 C 85.8055,986.22635 102.21566,999.41025 119,997.71875 C 275.09104,997.61437 431.20372,997.92736 587.28125,997.5625 C 604.26485,996.18917 617.41436,979.80615 615.75,962.96875 C 615.62446,845.57635 616.00072,728.1566 615.5625,610.78125 C 614.3683,593.82394 597.72767,580.50573 581,582.21875 C 425.92837,582.23958 270.84647,582.17708 115.78125,582.25 z "
           id="path4158" />
        <path
           style="opacity:0.05;fill:#000000;fill-opacity:1;stroke:#000000;stroke-width:1;stroke-linecap:butt;stroke-linejoin:miter;stroke-miterlimit:4;stroke-opacity:1"
           d="M 115.28125,581.625 C 97.480266,581.46937 82.165963,598.23334 83.625,615.96875 C 83.75057,733.79806 83.374236,851.65937 83.8125,969.46875 C 85.200999,986.5799 101.9377,1000.0804 119,998.34375 C 275.11187,998.23933 431.24539,998.55242 587.34375,998.1875 C 604.64083,996.79608 618.08417,980.07698 616.375,962.96875 C 616.2494,845.55552 616.6258,728.11492 616.1875,610.71875 C 614.91257,593.42699 598.14458,579.89271 581,581.59375 C 425.76074,581.61459 270.51888,581.55207 115.28125,581.625 z "
           id="path4163" />
        <path
           style="opacity:0.05;fill:#000000;fill-opacity:1;stroke:#000000;stroke-width:1;stroke-linecap:butt;stroke-linejoin:miter;stroke-miterlimit:4;stroke-opacity:1"
           d="M 115.28125,581 C 97.113267,580.81189 81.517781,597.92354 83,615.96875 C 83.125596,733.82931 82.749202,851.72187 83.1875,969.5625 C 84.621967,986.98714 101.65564,1000.7413 119,998.96875 C 275.14312,998.86432 431.30789,999.17744 587.4375,998.8125 C 604.9935,997.42038 618.74081,980.37098 617,962.96875 C 616.87438,845.54511 617.25083,728.09408 616.8125,610.6875 C 615.59494,593.10898 598.42508,579.21673 581,580.96875 C 425.76077,580.98959 270.51875,580.92707 115.28125,581 z "
           id="path4168" />
      </g>
      <rect
         style="opacity:1;fill:#ffffff;fill-opacity:1;stroke:#888888;stroke-width:1;stroke-linecap:butt;stroke-linejoin:miter;stroke-miterlimit:4;stroke-dasharray:none;stroke-opacity:1"
         id="rect1446"
         width="522"
         height="406"
         x="862"
         y="38.362183"
         transform="translate(-14.00648,18.61609)"
         rx="27"
         ry="27" />
      <rect
         style="opacity:0.49206351;fill:#000000;fill-opacity:1;stroke:#000000;stroke-width:0.62153089;stroke-linecap:butt;stroke-linejoin:miter;stroke-miterlimit:4;stroke-dasharray:none;stroke-opacity:1"
         id="rect4173"
         width="40.362022"
         height="36.740902"
         x="1337.932"
         y="55.879517"
         rx="0"
         ry="27" />
      <rect
         ry="27"
         rx="0"
         y="55.879517"
         x="847.33459"
         height="36.740902"
         width="40.362022"
         id="rect5048"
         style="opacity:0.49206351;fill:#000000;fill-opacity:1;stroke:#000000;stroke-width:0.62153089;stroke-linecap:butt;stroke-linejoin:miter;stroke-miterlimit:4;stroke-dasharray:none;stroke-opacity:1" />
      <rect
         style="opacity:0.49206351;fill:#000000;fill-opacity:1;stroke:#000000;stroke-width:0.65814483;stroke-linecap:butt;stroke-linejoin:miter;stroke-miterlimit:4;stroke-dasharray:none;stroke-opacity:1"
         id="rect5050"
         width="40.362022"
         height="41.197166"
         x="847.33459"
         y="434.54398"
         rx="0"
         ry="27" />
      <rect
         ry="27"
         rx="0"
         y="434.54398"
         x="1339.8737"
         height="41.197166"
         width="40.362022"
         id="rect5052"
         style="opacity:0.49206351;fill:#000000;fill-opacity:1;stroke:#000000;stroke-width:0.65814483;stroke-linecap:butt;stroke-linejoin:miter;stroke-miterlimit:4;stroke-dasharray:none;stroke-opacity:1" />
      <rect
         style="opacity:0.49206351;fill:#000000;fill-opacity:1;stroke:#000000;stroke-width:0.15113959;stroke-linecap:butt;stroke-linejoin:miter;stroke-miterlimit:4;stroke-dasharray:none;stroke-opacity:1"
         id="rect5054"
         width="18.084816"
         height="4.8488603"
         x="1364.2804"
         y="253.62862"
         rx="0"
         ry="27" />
      <rect
         ry="26.999998"
         rx="0"
         y="256.89194"
         x="844.63208"
         height="4.8991094"
         width="7.5805483"
         id="rect5056"
         style="opacity:0.49206351;fill:#000000;fill-opacity:1;stroke:#000000;stroke-width:0.09835813;stroke-linecap:butt;stroke-linejoin:miter;stroke-miterlimit:4;stroke-dasharray:none;stroke-opacity:1" />
      <rect
         style="opacity:0.49206351;fill:#000000;fill-opacity:1;stroke:#000000;stroke-width:0.05715248;stroke-linecap:butt;stroke-linejoin:miter;stroke-miterlimit:4;stroke-dasharray:none;stroke-opacity:1"
         id="rect5061"
         width="2.5578647"
         height="4.9021873"
         x="1028.9747"
         y="55.618221"
         rx="0"
         ry="27" />
      <rect
         style="opacity:0.49206351;fill:#000000;fill-opacity:1;stroke:#000000;stroke-width:0.14103705;stroke-linecap:butt;stroke-linejoin:miter;stroke-miterlimit:4;stroke-dasharray:none;stroke-opacity:1"
         id="rect5065"
         width="4.858963"
         height="15.715206"
         x="1097.0311"
         y="460.22949"
         rx="0"
         ry="27" />
      <g
         transform="matrix(0.991493,0,0,0.991493,767.6162,-57.65964)"
         id="g5067">
        <path
           id="path5069"
           d="M 115.53125,593 C 103.25535,592.82889 93.322538,604.95099 95,616.96875 C 95.104482,734.18383 94.791245,851.42814 95.15625,968.625 C 96.314733,980.46136 108.42113,988.75816 120,986.96875 C 275.53814,986.8644 431.10443,987.17733 586.625,986.8125 C 598.54968,985.65126 606.75722,973.55412 605,961.96875 C 604.87461,845.00342 605.25052,728.01083 604.8125,611.0625 C 603.51367,599.63305 591.96819,591.42616 580.71875,592.96875 C 425.6566,592.98959 270.59167,592.92707 115.53125,593 z "
           style="opacity:0.05;fill:#000000;fill-opacity:1;stroke:#000000;stroke-width:1;stroke-linecap:butt;stroke-linejoin:miter;stroke-miterlimit:4;stroke-opacity:1" />
        <path
           id="path5071"
           d="M 115.5,592.375 C 102.42436,592.2216 92.373532,605.23711 94.375,617.96875 C 94.47947,734.88257 94.166261,851.81908 94.53125,968.71875 C 95.73349,980.85792 108.04281,989.3952 120,987.59375 C 275.57018,987.48941 431.16223,987.80232 586.71875,987.4375 C 599.03905,986.16342 607.36125,973.91395 605.625,961.96875 C 605.49962,844.99238 605.87551,727.99374 605.4375,611.03125 C 604.17653,599.34065 592.35643,590.78445 580.75,592.34375 C 425.66699,592.36459 270.58138,592.30207 115.5,592.375 z "
           style="opacity:0.05;fill:#000000;fill-opacity:1;stroke:#000000;stroke-width:1;stroke-linecap:butt;stroke-linejoin:miter;stroke-miterlimit:4;stroke-opacity:1" />
        <path
           id="path5073"
           d="M 115.5,591.71875 C 102.05075,591.61416 91.714123,604.93133 93.75,617.96875 C 93.854538,734.90298 93.54117,851.94668 93.90625,968.8125 C 95.145099,981.22774 107.83562,990.09476 120,988.21875 C 275.59057,988.11437 431.28991,988.42737 586.8125,988.0625 C 599.33152,986.82954 608.0777,974.13303 606.25,961.96875 C 606.12456,844.9829 606.50058,727.88389 606.0625,610.96875 C 604.77234,598.5928 592.08364,589.92459 580,591.71875 C 425.17728,591.71875 270.26906,591.71874 115.5,591.71875 z "
           style="opacity:0.05;fill:#000000;fill-opacity:1;stroke:#000000;stroke-width:1;stroke-linecap:butt;stroke-linejoin:miter;stroke-miterlimit:4;stroke-opacity:1" />
        <path
           id="path5075"
           d="M 115.46875,591.09375 C 102.20269,590.94897 91.397564,603.95362 93.09375,616.96875 C 93.219183,734.26739 92.84317,851.59344 93.28125,968.875 C 94.519471,981.62588 107.52184,990.70854 120,988.875 C 275.4563,988.79155 430.92887,989.04182 586.375,988.75 C 599.39594,987.77554 608.78638,974.62262 606.90625,961.96875 C 606.78079,845.01353 607.15687,728.03353 606.71875,611.09375 C 605.49697,598.67305 593.05434,589.49708 580.8125,591.0625 C 425.69823,591.08334 270.58149,591.02082 115.46875,591.09375 z "
           style="opacity:0.05;fill:#000000;fill-opacity:1;stroke:#000000;stroke-width:1;stroke-linecap:butt;stroke-linejoin:miter;stroke-miterlimit:4;stroke-opacity:1" />
        <path
           id="path5077"
           d="M 115.4375,590.46875 C 101.84328,590.31682 90.744468,603.62269 92.46875,616.96875 C 92.594186,734.29868 92.218166,851.6557 92.65625,968.96875 C 93.913605,982.0028 107.23408,991.36464 120,989.5 C 275.47708,989.41655 430.9708,989.66682 586.4375,989.375 C 599.77614,988.39303 609.44289,974.91943 607.53125,961.96875 C 607.40579,844.98209 607.78187,727.97212 607.34375,611 C 606.10444,598.30376 593.36814,588.85323 580.84375,590.4375 C 425.70863,590.45834 270.57118,590.39582 115.4375,590.46875 z "
           style="opacity:0.05;fill:#000000;fill-opacity:1;stroke:#000000;stroke-width:1;stroke-linecap:butt;stroke-linejoin:miter;stroke-miterlimit:4;stroke-opacity:1" />
        <path
           id="path5079"
           d="M 115.40625,589.84375 C 101.48318,589.68514 90.099371,603.2908 91.84375,616.96875 C 91.969158,734.33036 91.593204,851.71567 92.03125,969.0625 C 93.358225,982.39311 106.85682,991.99887 120,990.125 C 275.49826,990.04156 431.0104,990.29181 586.5,990 C 600.17192,988.97193 610.00919,975.3911 608.15625,961.96875 C 608.05178,845.1379 608.36499,728.28724 608,611.46875 C 607.04552,597.78219 593.1843,587.86395 579.875,589.8125 C 425.05236,589.83334 270.22752,589.77082 115.40625,589.84375 z "
           style="opacity:0.05;fill:#000000;fill-opacity:1;stroke:#000000;stroke-width:1;stroke-linecap:butt;stroke-linejoin:miter;stroke-miterlimit:4;stroke-opacity:1" />
        <path
           id="path5081"
           d="M 115.375,589.21875 C 101.20603,589.01983 89.396659,603.02654 91.21875,616.96875 C 91.344209,734.33917 90.968136,851.82909 91.40625,969.125 C 92.707872,982.70375 106.6284,992.72972 120,990.75 C 275.50849,990.68742 431.11558,990.87511 586.5625,990.65625 C 600.06267,989.61036 610.44788,976.1967 608.78125,962.96875 C 608.65573,845.56604 609.03195,728.05202 608.59375,610.71875 C 607.14794,597.07274 593.31121,587.2651 579.90625,589.1875 C 425.06276,589.20834 270.21718,589.14582 115.375,589.21875 z "
           style="opacity:0.05;fill:#000000;fill-opacity:1;stroke:#000000;stroke-width:1;stroke-linecap:butt;stroke-linejoin:miter;stroke-miterlimit:4;stroke-opacity:1" />
        <path
           id="path5083"
           d="M 115.34375,588.5625 C 100.81609,588.46583 88.762503,602.66398 90.59375,616.96875 C 90.719293,734.3709 90.343023,851.88911 90.78125,969.21875 C 92.12529,983.14849 106.33907,993.35224 120,991.375 C 275.51908,991.31239 431.13554,991.50015 586.59375,991.28125 C 600.85353,990.21775 611.40377,975.88262 609.40625,961.96875 C 609.28066,844.8888 609.65704,727.69844 609.21875,610.6875 C 607.80239,597.1399 594.34088,586.9609 581,588.5625 C 425.79191,588.56251 270.49851,588.56249 115.34375,588.5625 z "
           style="opacity:0.05;fill:#000000;fill-opacity:1;stroke:#000000;stroke-width:1;stroke-linecap:butt;stroke-linejoin:miter;stroke-miterlimit:4;stroke-opacity:1" />
        <path
           id="path5085"
           d="M 115.3125,587.9375 C 100.49104,587.87284 88.25634,602.14912 89.9375,616.81086 C 90.021068,734.09104 89.77052,851.38407 90.0625,968.65625 C 91.115214,982.96523 105.53521,993.97432 119.78947,992.03125 C 275.41013,991.94782 431.04361,992.19805 586.65625,991.90625 C 601.10082,990.81738 611.95522,976.41109 610.0625,962.17928 C 609.95798,845.22596 610.2713,728.25452 609.90625,611.3125 C 608.89004,596.87517 594.40377,586.04289 580.17928,587.90625 C 425.22392,587.92709 270.26667,587.86458 115.3125,587.9375 z "
           style="opacity:0.05;fill:#000000;fill-opacity:1;stroke:#000000;stroke-width:1;stroke-linecap:butt;stroke-linejoin:miter;stroke-miterlimit:4;stroke-opacity:1" />
        <path
           id="path5087"
           d="M 115.28125,587.3125 C 103.90563,587.45302 93.507666,595.47221 90.42208,606.32757 C 88.469502,612.89957 89.625798,619.85432 89.3125,626.60034 C 89.333337,740.19166 89.270828,853.78487 89.34375,967.375 C 89.8153,979.06586 98.522297,989.47431 109.9375,991.96875 C 116.07172,993.28924 122.40982,992.39318 128.63159,992.65625 C 280.87916,992.63542 433.12862,992.69792 585.375,992.625 C 596.69114,992.2054 607.01578,983.8614 609.75134,972.98012 C 611.44329,966.4709 610.3964,959.66403 610.6875,953.02137 C 610.66666,839.54575 610.72917,726.06814 610.65625,612.59375 C 610.21746,601.7628 602.58064,591.74455 592.26444,588.61443 C 585.53372,586.36722 578.32254,587.60259 571.36841,587.28125 C 419.33959,587.30208 267.30894,587.23958 115.28125,587.3125 z "
           style="opacity:0.05;fill:#000000;fill-opacity:1;stroke:#000000;stroke-width:1;stroke-linecap:butt;stroke-linejoin:miter;stroke-miterlimit:4;stroke-opacity:1" />
        <path
           id="path5089"
           d="M 115.28125,586.6875 C 103.67627,586.74451 92.961433,595.11208 89.801929,606.14181 C 87.861978,612.78114 88.989308,619.79087 88.6875,626.60032 C 88.708337,740.19164 88.645828,853.78486 88.71875,967.375 C 89.114838,979.50707 98.51562,990.44975 110.4269,992.74004 C 116.84969,993.82733 123.41284,993.04368 129.89473,993.28125 C 281.72125,993.26041 433.54966,993.32292 585.375,993.25 C 597.75867,992.8683 608.9263,983.05322 610.875,970.84375 C 611.79253,964.32257 611.09471,957.69225 611.3125,951.12666 C 611.29166,838.27217 611.35417,725.4158 611.28125,612.5625 C 610.84908,601.08683 602.4777,590.66258 591.5,587.6875 C 584.73765,585.86421 577.64785,586.95448 570.73685,586.65625 C 418.91855,586.67708 267.09842,586.61458 115.28125,586.6875 z "
           style="opacity:0.05;fill:#000000;fill-opacity:1;stroke:#000000;stroke-width:1;stroke-linecap:butt;stroke-linejoin:miter;stroke-miterlimit:4;stroke-opacity:1" />
        <path
           id="path5091"
           d="M 115.28125,586.0625 C 99.412745,585.97724 86.332604,601.13041 88.0625,616.81085 C 88.146094,734.16414 87.895485,851.52881 88.1875,968.875 C 89.388726,984.22846 104.53843,995.8497 119.78947,993.90625 C 275.48322,993.82272 431.18834,994.07318 586.875,993.78125 C 602.31622,992.57888 613.84981,977.40117 611.9375,962.17928 C 611.8329,845.16333 612.14641,728.13031 611.78125,611.125 C 610.66103,595.6776 595.41083,584.14349 580.21053,586.03125 C 425.23434,586.05209 270.25625,585.98957 115.28125,586.0625 z "
           style="opacity:0.05;fill:#000000;fill-opacity:1;stroke:#000000;stroke-width:1;stroke-linecap:butt;stroke-linejoin:miter;stroke-miterlimit:4;stroke-opacity:1" />
        <path
           id="path5093"
           d="M 115.9375,585.40625 C 99.94531,584.90694 86.005122,599.97543 87.40625,615.96875 C 87.510771,733.62966 87.197442,851.33651 87.5625,968.96875 C 88.768278,984.25449 103.74865,996.22805 119,994.5625 C 274.98384,994.45812 431.01358,994.77111 586.96875,994.40625 C 602.40658,993.17874 614.20666,978.18476 612.59375,962.96875 C 612.46821,845.67314 612.84448,728.32589 612.40625,611.0625 C 611.33433,595.67008 596.14424,583.7325 581,585.375 C 425.98348,585.39583 270.93244,585.33334 115.9375,585.40625 z "
           style="opacity:0.05;fill:#000000;fill-opacity:1;stroke:#000000;stroke-width:1;stroke-linecap:butt;stroke-linejoin:miter;stroke-miterlimit:4;stroke-opacity:1" />
        <path
           id="path5095"
           d="M 115.28125,584.78125 C 98.72319,584.66601 84.961734,600.57879 86.78125,616.96875 C 86.885863,734.32755 86.572319,851.73239 86.9375,969.0625 C 88.180499,984.67254 103.4426,996.85678 119,995.1875 C 275.01507,995.08307 431.07611,995.39618 587.0625,995.03125 C 602.78182,993.78478 614.85932,978.47976 613.21875,962.96875 C 613.09313,845.66275 613.46958,728.30502 613.03125,611.03125 C 611.94113,595.30723 596.5549,583.12099 581,584.75 C 425.76068,584.77084 270.51927,584.70832 115.28125,584.78125 z "
           style="opacity:0.05;fill:#000000;fill-opacity:1;stroke:#000000;stroke-width:1;stroke-linecap:butt;stroke-linejoin:miter;stroke-miterlimit:4;stroke-opacity:1" />
        <path
           id="path5097"
           d="M 115.28125,584.15625 C 98.382558,584.01667 84.327726,600.24928 86.15625,616.96875 C 86.26088,734.35025 85.947297,851.7629 86.3125,969.125 C 87.58261,985.0397 103.16043,997.5178 119,995.8125 C 275.03777,995.70806 431.10663,996.02119 587.125,995.65625 C 603.11702,994.39605 615.51017,978.81971 613.84375,962.96875 C 613.73906,845.63757 614.05279,728.28929 613.6875,610.96875 C 612.49298,594.94101 596.86855,582.45719 581,584.125 C 425.76069,584.14584 270.51919,584.08332 115.28125,584.15625 z "
           style="opacity:0.05;fill:#000000;fill-opacity:1;stroke:#000000;stroke-width:1;stroke-linecap:butt;stroke-linejoin:miter;stroke-miterlimit:4;stroke-opacity:1" />
        <path
           id="path5099"
           d="M 115.28125,583.53125 C 98.522691,583.35765 84.069134,599.25254 85.53125,615.96875 C 85.635882,733.71561 85.322294,851.48744 85.6875,969.21875 C 86.989466,985.42445 102.87588,998.1819 119,996.4375 C 275.06979,996.33306 431.16451,996.6462 587.21875,996.28125 C 603.52175,994.99142 616.18359,979.05747 614.46875,962.96875 C 614.36406,845.61673 614.67778,728.24763 614.3125,610.90625 C 613.12547,594.59594 597.17185,581.78838 581,583.5 C 425.76071,583.52084 270.51909,583.45832 115.28125,583.53125 z "
           style="opacity:0.05;fill:#000000;fill-opacity:1;stroke:#000000;stroke-width:1;stroke-linecap:butt;stroke-linejoin:miter;stroke-miterlimit:4;stroke-opacity:1" />
        <path
           id="path5101"
           d="M 115.28125,582.90625 C 97.740603,582.70714 82.996488,599.58603 84.90625,616.96875 C 85.010894,734.41352 84.697278,851.88328 85.0625,969.3125 C 86.40228,985.82314 102.55978,998.82018 119,997.0625 C 275.10104,996.95805 431.22701,997.27121 587.3125,996.90625 C 603.92016,995.57622 616.81159,979.39026 615.09375,962.96875 C 614.98906,845.5959 615.30279,728.20596 614.9375,610.84375 C 613.72478,594.20066 597.49837,581.15239 581,582.875 C 425.76073,582.89584 270.51899,582.83332 115.28125,582.90625 z "
           style="opacity:0.05;fill:#000000;fill-opacity:1;stroke:#000000;stroke-width:1;stroke-linecap:butt;stroke-linejoin:miter;stroke-miterlimit:4;stroke-opacity:1" />
        <path
           id="path5103"
           d="M 115.78125,582.25 C 98.154491,581.78493 82.778251,598.40283 84.25,615.96875 C 84.375486,733.76641 83.999349,851.59931 84.4375,969.375 C 85.8055,986.22635 102.21566,999.41025 119,997.71875 C 275.09104,997.61437 431.20372,997.92736 587.28125,997.5625 C 604.26485,996.18917 617.41436,979.80615 615.75,962.96875 C 615.62446,845.57635 616.00072,728.1566 615.5625,610.78125 C 614.3683,593.82394 597.72767,580.50573 581,582.21875 C 425.92837,582.23958 270.84647,582.17708 115.78125,582.25 z "
           style="opacity:0.05;fill:#000000;fill-opacity:1;stroke:#000000;stroke-width:1;stroke-linecap:butt;stroke-linejoin:miter;stroke-miterlimit:4;stroke-opacity:1" />
        <path
           id="path5105"
           d="M 115.28125,581.625 C 97.480266,581.46937 82.165963,598.23334 83.625,615.96875 C 83.75057,733.79806 83.374236,851.65937 83.8125,969.46875 C 85.200999,986.5799 101.9377,1000.0804 119,998.34375 C 275.11187,998.23933 431.24539,998.55242 587.34375,998.1875 C 604.64083,996.79608 618.08417,980.07698 616.375,962.96875 C 616.2494,845.55552 616.6258,728.11492 616.1875,610.71875 C 614.91257,593.42699 598.14458,579.89271 581,581.59375 C 425.76074,581.61459 270.51888,581.55207 115.28125,581.625 z "
           style="opacity:0.05;fill:#000000;fill-opacity:1;stroke:#000000;stroke-width:1;stroke-linecap:butt;stroke-linejoin:miter;stroke-miterlimit:4;stroke-opacity:1" />
        <path
           id="path5107"
           d="M 115.28125,581 C 97.113267,580.81189 81.517781,597.92354 83,615.96875 C 83.125596,733.82931 82.749202,851.72187 83.1875,969.5625 C 84.621967,986.98714 101.65564,1000.7413 119,998.96875 C 275.14312,998.86432 431.30789,999.17744 587.4375,998.8125 C 604.9935,997.42038 618.74081,980.37098 617,962.96875 C 616.87438,845.54511 617.25083,728.09408 616.8125,610.6875 C 615.59494,593.10898 598.42508,579.21673 581,580.96875 C 425.76077,580.98959 270.51875,580.92707 115.28125,581 z "
           style="opacity:0.05;fill:#000000;fill-opacity:1;stroke:#000000;stroke-width:1;stroke-linecap:butt;stroke-linejoin:miter;stroke-miterlimit:4;stroke-opacity:1" />
      </g>
      <rect
         ry="27"
         rx="27"
         y="517.38226"
         x="848.90881"
         height="406"
         width="522"
         id="rect5109"
         style="opacity:1;fill:#ffffff;fill-opacity:1;stroke:#888888;stroke-width:1;stroke-linecap:butt;stroke-linejoin:miter;stroke-miterlimit:4;stroke-dasharray:none;stroke-opacity:1" />
      <rect
         ry="27"
         rx="0"
         y="516.28351"
         x="1338.8473"
         height="36.740902"
         width="40.362022"
         id="rect5111"
         style="opacity:0.50396825;fill:#000000;fill-opacity:1;stroke:#000000;stroke-width:0.62153089;stroke-linecap:butt;stroke-linejoin:miter;stroke-miterlimit:4;stroke-dasharray:none;stroke-opacity:1"
         inkscape:export-filename="/home/rhwinter/docs/cdig/cvs/estudiolivre/src/styles/estudiolivre/lBox_tr.png"
         inkscape:export-xdpi="90"
         inkscape:export-ydpi="90" />
      <rect
         style="opacity:0;fill:#000000;fill-opacity:1;stroke:#000000;stroke-width:0.62153089;stroke-linecap:butt;stroke-linejoin:miter;stroke-miterlimit:4;stroke-dasharray:none;stroke-opacity:1"
         id="rect5113"
         width="40.362022"
         height="36.740902"
         x="848.24994"
         y="516.28351"
         rx="0"
         ry="27"
         inkscape:export-filename="/home/rhwinter/docs/cdig/cvs/estudiolivre/src/styles/estudiolivre/lBox_tl.png"
         inkscape:export-xdpi="90"
         inkscape:export-ydpi="90" />
      <rect
         ry="27"
         rx="0"
         y="894.94794"
         x="848.24994"
         height="41.197166"
         width="40.362022"
         id="rect5115"
         style="opacity:0.36507937;fill:#000000;fill-opacity:1;stroke:#000000;stroke-width:0.65814483;stroke-linecap:butt;stroke-linejoin:miter;stroke-miterlimit:4;stroke-dasharray:none;stroke-opacity:1"
         inkscape:export-filename="/home/rhwinter/docs/cdig/cvs/estudiolivre/src/styles/estudiolivre/lBox_lb.png"
         inkscape:export-xdpi="90"
         inkscape:export-ydpi="90" />
      <rect
         ry="27"
         rx="0"
         y="714.03259"
         x="1365.1957"
         height="4.8488603"
         width="18.084816"
         id="rect5119"
         style="opacity:0.50396825;fill:#000000;fill-opacity:1;stroke:#000000;stroke-width:0.15113959;stroke-linecap:butt;stroke-linejoin:miter;stroke-miterlimit:4;stroke-dasharray:none;stroke-opacity:1"
         inkscape:export-filename="/home/rhwinter/docs/cdig/cvs/estudiolivre/src/styles/estudiolivre/lBox_r.png"
         inkscape:export-xdpi="90"
         inkscape:export-ydpi="90" />
      <rect
         style="opacity:0;fill:#000000;fill-opacity:1;stroke:#000000;stroke-width:0.09835813;stroke-linecap:butt;stroke-linejoin:miter;stroke-miterlimit:4;stroke-dasharray:none;stroke-opacity:1"
         id="rect5121"
         width="7.5805483"
         height="4.8991094"
         x="845.54742"
         y="717.2959"
         rx="0"
         ry="26.999998"
         inkscape:export-filename="/home/rhwinter/docs/cdig/cvs/estudiolivre/src/styles/estudiolivre/lBox_l.png"
         inkscape:export-xdpi="90"
         inkscape:export-ydpi="90" />
      <rect
         ry="27"
         rx="0"
         y="516.02216"
         x="1029.89"
         height="4.9021873"
         width="2.5578647"
         id="rect5123"
         style="opacity:0;fill:#000000;fill-opacity:1;stroke:#000000;stroke-width:0.05715248;stroke-linecap:butt;stroke-linejoin:miter;stroke-miterlimit:4;stroke-dasharray:none;stroke-opacity:1"
         inkscape:export-filename="/home/rhwinter/docs/cdig/cvs/estudiolivre/src/styles/estudiolivre/lBox_t.png"
         inkscape:export-xdpi="90"
         inkscape:export-ydpi="90" />
      <rect
         ry="27"
         rx="0"
         y="920.63348"
         x="1097.9464"
         height="15.715206"
         width="4.858963"
         id="rect5125"
         style="opacity:0.36904762;fill:#000000;fill-opacity:1;stroke:#000000;stroke-width:0.14103705;stroke-linecap:butt;stroke-linejoin:miter;stroke-miterlimit:4;stroke-dasharray:none;stroke-opacity:1"
         inkscape:export-filename="/home/rhwinter/docs/cdig/cvs/estudiolivre/src/styles/estudiolivre/lBox_b.png"
         inkscape:export-xdpi="90"
         inkscape:export-ydpi="90" />
      <rect
         style="opacity:0.36904762;fill:#000000;fill-opacity:1;stroke:#000000;stroke-width:1;stroke-linecap:butt;stroke-linejoin:miter;stroke-miterlimit:4;stroke-dasharray:none;stroke-opacity:1"
         id="rect6000"
         width="33.655762"
         height="9.7083921"
         x="975.36987"
         y="904.79462"
         transform="translate(-14.00648,18.61609)"
         ry="4.8541961" />
      <rect
         inkscape:export-ydpi="90"
         inkscape:export-xdpi="90"
         inkscape:export-filename="/home/rhwinter/docs/cdig/cvs/estudiolivre/src/styles/estudiolivre/lBox_r.png"
         style="opacity:0.50396825;fill:#000000;fill-opacity:1;stroke:#000000;stroke-width:0.28676489;stroke-linecap:butt;stroke-linejoin:miter;stroke-miterlimit:4;stroke-dasharray:none;stroke-opacity:1"
         id="rect6002"
         width="40.362022"
         height="7.8212528"
         x="1338.8473"
         y="-561.21753"
         rx="0"
         ry="27"
         transform="scale(1,-1)" />
      <rect
         inkscape:export-ydpi="90"
         inkscape:export-xdpi="90"
         inkscape:export-filename="/home/rhwinter/docs/cdig/cvs/estudiolivre/src/styles/estudiolivre/lBox_l.png"
         ry="26.999998"
         rx="0"
         y="-571.66333"
         x="848.22882"
         height="4.7656131"
         width="3.5123856"
         id="rect6004"
         style="opacity:0;fill:#000000;fill-opacity:1;stroke:#000000;stroke-width:0.06603312;stroke-linecap:butt;stroke-linejoin:miter;stroke-miterlimit:4;stroke-dasharray:none;stroke-opacity:1"
         transform="scale(1,-1)" />
      <rect
         inkscape:export-ydpi="90"
         inkscape:export-xdpi="90"
         inkscape:export-filename="/home/rhwinter/docs/cdig/cvs/estudiolivre/src/styles/estudiolivre/lBox_rb.png"
         style="opacity:0.2;fill:#000000;fill-opacity:1;stroke:#000000;stroke-width:0.62153089;stroke-linecap:butt;stroke-linejoin:miter;stroke-miterlimit:4;stroke-dasharray:none;stroke-opacity:1"
         id="rect6006"
         width="40.362022"
         height="36.740902"
         x="1338.8473"
         y="896.20532"
         rx="0"
         ry="27" />
      <rect
         inkscape:export-ydpi="90"
         inkscape:export-xdpi="90"
         inkscape:export-filename="/home/rhwinter/docs/cdig/cvs/estudiolivre/src/styles/estudiolivre/lBox_t.png"
         style="opacity:0;fill:#000000;fill-opacity:1;stroke:#000000;stroke-width:0.14235587;stroke-linecap:butt;stroke-linejoin:miter;stroke-miterlimit:4;stroke-dasharray:none;stroke-opacity:1"
         id="rect6010"
         width="2.1173775"
         height="36.740902"
         x="1242.1162"
         y="516.28351"
         rx="0"
         ry="27" />
      <rect
         inkscape:export-ydpi="90"
         inkscape:export-xdpi="90"
         inkscape:export-filename="/home/rhwinter/docs/cdig/cvs/estudiolivre/src/styles/estudiolivre/lBox_b.png"
         style="opacity:0;fill:#000000;fill-opacity:1;stroke:#000000;stroke-width:0.2257345;stroke-linecap:butt;stroke-linejoin:miter;stroke-miterlimit:4;stroke-dasharray:none;stroke-opacity:1"
         id="rect6012"
         width="4.6988811"
         height="41.629265"
         x="1008.4713"
         y="894.73218"
         rx="0"
         ry="27" />
    </g>
  </g>
</svg>
