<?xml version="1.0" encoding="UTF-8" standalone="no"?>
<!-- Created with Inkscape (http://www.inkscape.org/) -->
<svg
   xmlns:dc="http://purl.org/dc/elements/1.1/"
   xmlns:cc="http://web.resource.org/cc/"
   xmlns:rdf="http://www.w3.org/1999/02/22-rdf-syntax-ns#"
   xmlns:svg="http://www.w3.org/2000/svg"
   xmlns="http://www.w3.org/2000/svg"
   xmlns:sodipodi="http://inkscape.sourceforge.net/DTD/sodipodi-0.dtd"
   xmlns:inkscape="http://www.inkscape.org/namespaces/inkscape"
   sodipodi:docname="busca.svg"
   sodipodi:docbase="/home/lais"
   inkscape:version="0.41+0.42pre1"
   sodipodi:version="0.32"
   id="svg8756"
   height="1052.3622047"
   width="744.09448819">
  <defs
     id="defs8758" />
  <sodipodi:namedview
     inkscape:window-y="27"
     inkscape:window-x="0"
     inkscape:window-height="949"
     inkscape:window-width="1280"
     inkscape:current-layer="layer1"
     inkscape:document-units="px"
     inkscape:cy="420.60281"
     inkscape:cx="322.69199"
     inkscape:zoom="1.1834990"
     inkscape:pageshadow="2"
     inkscape:pageopacity="0.0"
     borderopacity="1.0"
     bordercolor="#666666"
     pagecolor="#ffffff"
     id="base" />
  <metadata
     id="metadata8761">
    <rdf:RDF>
      <cc:Work
         rdf:about="">
        <dc:format>image/svg+xml</dc:format>
        <dc:type
           rdf:resource="http://purl.org/dc/dcmitype/StillImage" />
      </cc:Work>
    </rdf:RDF>
  </metadata>
  <g
     id="layer1"
     inkscape:groupmode="layer"
     inkscape:label="Layer 1">
    <rect
       rx="24.223171"
       ry="30.951826"
       y="542.25153"
       x="231.88600"
       height="225.93556"
       width="273.48315"
       id="rect7296"
       style="opacity:1.0000000;color:#000000;fill:#ffffff;fill-opacity:1.0000000;fill-rule:nonzero;stroke:#646464;stroke-width:0.50192833;stroke-linecap:butt;stroke-linejoin:miter;marker:none;marker-start:none;marker-mid:none;marker-end:none;stroke-miterlimit:4.0000000;stroke-dasharray:none;stroke-dashoffset:0.0000000;stroke-opacity:1.0000000;visibility:visible;display:inline;overflow:visible" />
    <path
       sodipodi:nodetypes="ccc"
       id="path8024"
       d="M 231.89890,590.98934 L 504.01052,590.98934 L 504.01052,592.33507"
       style="fill:none;fill-opacity:0.75000000;fill-rule:evenodd;stroke:#818181;stroke-width:1.0262276px;stroke-linecap:butt;stroke-linejoin:miter;stroke-opacity:1.0000000" />
    <text
       sodipodi:linespacing="100.00000%"
       id="text8752"
       y="583.28833"
       x="238.66469"
       style="font-size:14.000000px;font-style:normal;font-variant:normal;font-weight:normal;font-stretch:normal;line-height:100.00000%;writing-mode:lr-tb;text-anchor:start;fill:#999999;fill-opacity:1.0000000;stroke:none;stroke-width:1.0000000px;stroke-linecap:butt;stroke-linejoin:miter;stroke-opacity:1.0000000;font-family:Bitstream Vera Sans"
       xml:space="preserve"><tspan
         y="583.28833"
         x="238.66469"
         id="tspan8754"
         sodipodi:role="line">busca hover</tspan></text>
    <g
       inkscape:export-ydpi="150"
       inkscape:export-xdpi="150"
       inkscape:export-filename="telaUpload_versao00.png"
       transform="translate(-255.7182,570.5243)"
       id="g19331">
      <text
         xml:space="preserve"
         sodipodi:linespacing="100.00000%"
         style="font-size:11.000000px;font-style:normal;font-variant:normal;font-weight:normal;font-stretch:normal;text-align:center;line-height:100.00000%;writing-mode:lr-tb;text-anchor:middle;fill:#cacaca;fill-opacity:1.0000000;stroke:none;stroke-width:1.0000000pt;stroke-linecap:butt;stroke-linejoin:miter;stroke-opacity:1.0000000;font-family:Bitstream Vera Sans"
         id="text19333"
         x="552.28375"
         y="142.86195"><tspan
           id="tspan19335"
           x="552.28375"
           y="142.86195"
           sodipodi:role="line"
           style="font-size:11.000000px;font-style:normal;font-variant:normal;font-weight:normal;font-stretch:normal;line-height:100.00000%;writing-mode:lr-tb;text-anchor:middle;fill:#cacaca;fill-opacity:1.0000000;font-family:Bitstream Vera Sans">Buscar</tspan></text>
      <g
         transform="translate(-28.86834,265.8307)"
         id="g19337">
        <g
           id="g19339">
          <path
             sodipodi:nodetypes="ccccccccc"
             id="path19341"
             d="M 738.71168,-134.78848 L 751.00216,-134.78848 C 755.74521,-134.78848 759.56361,-131.68547 759.56361,-127.83105 L 759.56361,-125.88572 C 759.56361,-122.03130 755.74521,-118.92828 751.00216,-118.92828 L 738.71168,-118.92828 L 738.71168,-125.88572 L 738.71168,-127.83105 L 738.71168,-134.78848 z "
             style="fill:#ebebeb;fill-opacity:1.0000000;stroke:none;stroke-width:1.0676154;stroke-linecap:butt;stroke-linejoin:miter;stroke-miterlimit:4.0000000;stroke-opacity:1.0000000" />
          <path
             id="path19343"
             d="M 744.02536,-131.41687 C 742.57639,-129.85826 742.63304,-127.39131 744.15204,-125.90451 C 745.42694,-124.65660 747.30351,-124.55393 748.73849,-125.45647 L 752.31460,-121.95610 C 752.61777,-121.65933 753.14547,-121.74300 753.50902,-122.13406 C 753.87258,-122.52513 753.92915,-123.06991 753.62597,-123.36668 L 750.04986,-126.86705 C 750.86086,-128.38037 750.67246,-130.29893 749.39754,-131.54684 C 747.87858,-133.03365 745.47438,-132.97548 744.02536,-131.41687 z M 744.78704,-130.67133 C 745.83563,-131.79927 747.58056,-131.85081 748.67982,-130.77483 C 749.77910,-129.69885 749.82047,-127.89886 748.77184,-126.77092 C 747.72323,-125.64297 745.97787,-125.61007 744.87862,-126.68605 C 743.77934,-127.76203 743.73841,-129.54339 744.78704,-130.67133 z "
             style="opacity:1.0000000;fill:#a4a4a4;fill-opacity:1.0000000;stroke:none;stroke-width:2.0000000;stroke-miterlimit:4.0000000;stroke-dasharray:none;stroke-dashoffset:0.0000000;stroke-opacity:1.0000000" />
        </g>
        <path
           style="opacity:1.0000000;fill:#bebebe;fill-opacity:1.0000000;stroke:none;stroke-width:1.0676154;stroke-linecap:butt;stroke-linejoin:miter;stroke-miterlimit:4.0000000;stroke-dasharray:none;stroke-opacity:1.0000000"
           d="M 558.05995,-135.31863 L 558.05995,-118.38113 L 750.59088,-118.38113 C 755.56671,-118.38113 759.68463,-121.67416 759.68463,-125.88113 L 759.68463,-127.81863 C 759.68461,-132.02559 755.56676,-135.31863 750.59088,-135.31863 L 558.05995,-135.31863 z M 559.12245,-134.25613 L 750.59088,-134.25613 C 755.10110,-134.25613 758.62213,-131.32050 758.62213,-127.81863 L 758.62213,-125.88113 C 758.62211,-122.37926 755.10109,-119.44363 750.59088,-119.44363 L 559.12245,-119.44363 L 559.12245,-134.25613 z "
           id="path19345"
           sodipodi:nodetypes="cccccccccccccc" />
      </g>
    </g>
    <g
       id="g4415"
       transform="translate(1921.397,697.1554)">
      <g
         transform="translate(-2205.480,6.756860)"
         id="g12402">
        <path
           d="M 560.20996,-72.230540 L 738.87832,-72.230540 L 738.87832,-70.262340 L 738.87832,-59.296660 L 730.07074,-59.296660 L 569.01755,-59.296660 L 560.20996,-59.296660 L 560.20996,-70.262340 L 560.20996,-72.230540 z "
           id="path12404"
           sodipodi:nodetypes="ccccccccc"
           style="fill:#ebebeb;fill-opacity:1.0000000;stroke:none;stroke-width:3.0000000;stroke-miterlimit:4.0000000;stroke-dashoffset:0.0000000;stroke-opacity:1.0000000" />
        <path
           d="M 663.64047,-69.375180 L 665.64047,-69.375180 L 665.64047,-67.749750 L 665.64047,-58.693770 L 665.54187,-58.693770 L 663.73907,-58.693770 L 663.64047,-58.693770 L 663.64047,-67.749750 L 663.64047,-69.375180 z "
           id="path12406"
           sodipodi:nodetypes="ccccccccc"
           style="fill:#ffffff;fill-opacity:1.0000000;stroke:none;stroke-width:3.0000000;stroke-miterlimit:4.0000000;stroke-dashoffset:0.0000000;stroke-opacity:1.0000000" />
        <path
           id="path12408"
           d="M 560.56362,-72.027470 L 589.83714,-72.027470 L 589.83714,-70.059270 L 589.83714,-59.093590 L 588.39409,-59.093590 L 562.00667,-59.093590 L 560.56362,-59.093590 L 560.56362,-70.059270 L 560.56362,-72.027470 z "
           sodipodi:nodetypes="ccccccccc"
           style="fill:#bebebe;fill-opacity:1.0000000;stroke:none;stroke-width:3.0000000;stroke-miterlimit:4.0000000;stroke-dashoffset:0.0000000;stroke-opacity:1.0000000" />
        <path
           id="path12410"
           d="M 692.27683,-69.375180 L 694.27683,-69.375180 L 694.27683,-67.749750 L 694.27683,-58.693770 L 694.17823,-58.693770 L 692.37543,-58.693770 L 692.27683,-58.693770 L 692.27683,-67.749750 L 692.27683,-69.375180 z "
           sodipodi:nodetypes="ccccccccc"
           style="fill:#ffffff;fill-opacity:1.0000000;stroke:none;stroke-width:3.0000000;stroke-miterlimit:4.0000000;stroke-dashoffset:0.0000000;stroke-opacity:1.0000000" />
        <path
           id="path12412"
           d="M 615.09502,-69.375180 L 617.09502,-69.375180 L 617.09502,-67.749750 L 617.09502,-58.693770 L 616.99642,-58.693770 L 615.19362,-58.693770 L 615.09502,-58.693770 L 615.09502,-67.749750 L 615.09502,-69.375180 z "
           sodipodi:nodetypes="ccccccccc"
           style="fill:#ffffff;fill-opacity:1.0000000;stroke:none;stroke-width:3.0000000;stroke-miterlimit:4.0000000;stroke-dashoffset:0.0000000;stroke-opacity:1.0000000" />
        <path
           d="M 588.91320,-69.375180 L 590.91320,-69.375180 L 590.91320,-67.749750 L 590.91320,-58.693770 L 590.81460,-58.693770 L 589.01180,-58.693770 L 588.91320,-58.693770 L 588.91320,-67.749750 L 588.91320,-69.375180 z "
           id="path12414"
           sodipodi:nodetypes="ccccccccc"
           style="fill:#ffffff;fill-opacity:1.0000000;stroke:none;stroke-width:3.0000000;stroke-miterlimit:4.0000000;stroke-dashoffset:0.0000000;stroke-opacity:1.0000000" />
        <text
           xml:space="preserve"
           sodipodi:linespacing="100.00000%"
           style="font-size:11.000000px;font-style:normal;font-variant:normal;font-weight:normal;font-stretch:normal;text-align:center;line-height:100.00000%;writing-mode:lr-tb;text-anchor:middle;fill:#cacaca;fill-opacity:1.0000000;stroke:none;stroke-width:1.0000000pt;stroke-linecap:butt;stroke-linejoin:miter;stroke-opacity:1.0000000;font-family:Bitstream Vera Sans"
           id="text12416"
           x="581.1521"
           y="-46.968719"><tspan
             id="tspan12418"
             x="581.15210"
             sodipodi:role="line"
             y="-46.968719"
             style="font-size:11.000000px;font-style:normal;font-variant:normal;font-weight:normal;font-stretch:normal;line-height:100.00000%;writing-mode:lr-tb;text-anchor:middle;fill:#cacaca;fill-opacity:1.0000000;font-family:Bitstream Vera Sans">Buscar</tspan></text>
        <g
           transform="translate(0.000000,76.00000)"
           id="g12420">
          <path
             d="M 727.67064,-119.28672 L 739.39518,-119.28672 L 739.39518,-117.39718 L 739.39518,-106.86969 L 738.81721,-106.86969 L 728.24861,-106.86969 L 727.67064,-106.86969 L 727.67064,-117.39718 L 727.67064,-119.28672 z "
             id="path12422"
             sodipodi:nodetypes="ccccccccc"
             style="fill:#ebebeb;fill-opacity:1.0000000;stroke:none;stroke-width:3.0000000;stroke-miterlimit:4.0000000;stroke-dashoffset:0.0000000;stroke-opacity:1.0000000" />
          <g
             id="g12424"
             transform="translate(-9.459563,-32.05774)">
            <rect
               style="opacity:1.0000000;fill:#858585;fill-opacity:1.0000000;stroke:none;stroke-width:3.0000000;stroke-miterlimit:4.0000000;stroke-dasharray:none;stroke-dashoffset:0.0000000;stroke-opacity:1.0000000"
               ry="2.1906228"
               rx="2.1906228"
               height="7.8977451"
               width="1.0000000"
               id="rect12426"
               x="742.61572"
               y="-84.710915" />
            <rect
               style="opacity:1.0000000;fill:#858585;fill-opacity:1.0000000;stroke:none;stroke-width:3.0000000;stroke-miterlimit:4.0000000;stroke-dasharray:none;stroke-dashoffset:0.0000000;stroke-opacity:1.0000000"
               transform="matrix(2.466016e-18,1.000000,-1.000000,4.343891e-18,0.000000,0.000000)"
               rx="2.1906228"
               height="7.8977451"
               width="1.0000000"
               id="rect12428"
               ry="2.1906228"
               x="-81.385315"
               y="-746.94135" />
          </g>
        </g>
        <g
           transform="translate(0.000000,76.00000)"
           id="g12430">
          <g
             id="g12432">
            <path
               d="M 738.71168,-134.78848 L 751.00216,-134.78848 C 755.74521,-134.78848 759.56361,-131.68547 759.56361,-127.83105 L 759.56361,-125.88572 C 759.56361,-122.03130 755.74521,-118.92828 751.00216,-118.92828 L 738.71168,-118.92828 L 738.71168,-125.88572 L 738.71168,-127.83105 L 738.71168,-134.78848 z "
               id="path12434"
               sodipodi:nodetypes="ccccccccc"
               style="fill:#ebebeb;fill-opacity:1.0000000;stroke:none;stroke-width:1.0676154;stroke-linecap:butt;stroke-linejoin:miter;stroke-miterlimit:4.0000000;stroke-opacity:1.0000000" />
            <path
               d="M 744.02536,-131.41687 C 742.57639,-129.85826 742.63304,-127.39131 744.15204,-125.90451 C 745.42694,-124.65660 747.30351,-124.55393 748.73849,-125.45647 L 752.31460,-121.95610 C 752.61777,-121.65933 753.14547,-121.74300 753.50902,-122.13406 C 753.87258,-122.52513 753.92915,-123.06991 753.62597,-123.36668 L 750.04986,-126.86705 C 750.86086,-128.38037 750.67246,-130.29893 749.39754,-131.54684 C 747.87858,-133.03365 745.47438,-132.97548 744.02536,-131.41687 z M 744.78704,-130.67133 C 745.83563,-131.79927 747.58056,-131.85081 748.67982,-130.77483 C 749.77910,-129.69885 749.82047,-127.89886 748.77184,-126.77092 C 747.72323,-125.64297 745.97787,-125.61007 744.87862,-126.68605 C 743.77934,-127.76203 743.73841,-129.54339 744.78704,-130.67133 z "
               id="path12436"
               style="opacity:1.0000000;fill:#a4a4a4;fill-opacity:1.0000000;stroke:none;stroke-width:2.0000000;stroke-miterlimit:4.0000000;stroke-dasharray:none;stroke-dashoffset:0.0000000;stroke-opacity:1.0000000" />
          </g>
          <path
             id="path12438"
             d="M 558.05995,-135.31863 L 558.05995,-118.38113 L 750.59088,-118.38113 C 755.56671,-118.38113 759.68463,-121.67416 759.68463,-125.88113 L 759.68463,-127.81863 C 759.68461,-132.02559 755.56676,-135.31863 750.59088,-135.31863 L 558.05995,-135.31863 z M 559.12245,-134.25613 L 750.59088,-134.25613 C 755.10110,-134.25613 758.62213,-131.32050 758.62213,-127.81863 L 758.62213,-125.88113 C 758.62211,-122.37926 755.10109,-119.44363 750.59088,-119.44363 L 559.12245,-119.44363 L 559.12245,-134.25613 z "
             sodipodi:nodetypes="cccccccccccccc"
             style="opacity:1.0000000;fill:#bebebe;fill-opacity:1.0000000;stroke:none;stroke-width:1.0676154;stroke-linecap:butt;stroke-linejoin:miter;stroke-miterlimit:4.0000000;stroke-dasharray:none;stroke-opacity:1.0000000" />
        </g>
        <text
           xml:space="preserve"
           sodipodi:linespacing="130.00000%"
           style="font-size:10.000000px;font-style:normal;font-variant:normal;font-weight:normal;font-stretch:normal;line-height:130.00000%;writing-mode:lr-tb;text-anchor:start;fill:#858585;fill-opacity:1.0000000;stroke:none;stroke-width:1.0000000px;stroke-linecap:butt;stroke-linejoin:miter;stroke-opacity:1.0000000;font-family:Bitstream Vera Sans"
           id="text12440"
           x="563.96008"
           y="-62.113037"><tspan
             id="tspan12442"
             y="-62.113037"
             sodipodi:role="line"
             x="563.96008"><tspan
   id="tspan12444"
   style="font-size:10.000000px;font-style:normal;font-variant:normal;font-weight:normal;font-stretch:normal;line-height:130.00000%;writing-mode:lr-tb;text-anchor:start;fill:#000000;fill-opacity:1.0000000;font-family:Bitstream Vera Sans">tudo</tspan>  <tspan
   id="tspan12446"
   style="font-size:10.000000px;font-style:normal;font-variant:normal;font-weight:normal;font-stretch:normal;line-height:130.00000%;writing-mode:lr-tb;text-anchor:start;fill:#a1a1a1;fill-opacity:1.0000000;font-family:Bitstream Vera Sans">wiki</tspan><tspan
   id="tspan12448"
   style="fill:#a1a1a1;fill-opacity:1.0000000">  arquivos  tags  pessoas</tspan></tspan></text>
        <text
           xml:space="preserve"
           sodipodi:linespacing="130.00000%"
           style="font-size:10.000000px;font-style:normal;font-variant:normal;font-weight:normal;font-stretch:normal;line-height:130.00000%;writing-mode:lr-tb;text-anchor:start;fill:#858585;fill-opacity:1.0000000;stroke:none;stroke-width:1.0000000px;stroke-linecap:butt;stroke-linejoin:miter;stroke-opacity:1.0000000;font-family:Bitstream Vera Sans"
           id="text12450"
           x="615.57306"
           y="-33.123589"><tspan
             id="tspan12452"
             x="615.57306"
             y="-33.123589"
             sodipodi:role="line">mais opções de busca</tspan></text>
      </g>
      <g
         id="g7807"
         transform="translate(-2176.190,-183.3793)">
        <text
           xml:space="preserve"
           sodipodi:linespacing="100.00000%"
           style="font-size:11.000000px;font-style:normal;font-variant:normal;font-weight:normal;font-stretch:normal;text-align:center;line-height:100.00000%;writing-mode:lr-tb;text-anchor:middle;fill:#cacaca;fill-opacity:1.0000000;stroke:none;stroke-width:1.0000000pt;stroke-linecap:butt;stroke-linejoin:miter;stroke-opacity:1.0000000;font-family:Bitstream Vera Sans"
           id="text7809"
           x="552.28375"
           y="142.86195"><tspan
             id="tspan7811"
             x="552.28375"
             sodipodi:role="line"
             y="142.86195"
             style="font-size:11.000000px;font-style:normal;font-variant:normal;font-weight:normal;font-stretch:normal;line-height:100.00000%;writing-mode:lr-tb;text-anchor:middle;fill:#cacaca;fill-opacity:1.0000000;font-family:Bitstream Vera Sans">Buscar</tspan></text>
        <g
           id="g7813"
           transform="translate(-28.86834,265.8307)">
          <g
             id="g7815">
            <path
               d="M 738.71168,-134.78848 L 751.00216,-134.78848 C 755.74521,-134.78848 759.56361,-131.68547 759.56361,-127.83105 L 759.56361,-125.88572 C 759.56361,-122.03130 755.74521,-118.92828 751.00216,-118.92828 L 738.71168,-118.92828 L 738.71168,-125.88572 L 738.71168,-127.83105 L 738.71168,-134.78848 z "
               id="path7817"
               sodipodi:nodetypes="ccccccccc"
               style="fill:#ebebeb;fill-opacity:1.0000000;stroke:none;stroke-width:1.0676154;stroke-linecap:butt;stroke-linejoin:miter;stroke-miterlimit:4.0000000;stroke-opacity:1.0000000" />
            <path
               d="M 744.02536,-131.41687 C 742.57639,-129.85826 742.63304,-127.39131 744.15204,-125.90451 C 745.42694,-124.65660 747.30351,-124.55393 748.73849,-125.45647 L 752.31460,-121.95610 C 752.61777,-121.65933 753.14547,-121.74300 753.50902,-122.13406 C 753.87258,-122.52513 753.92915,-123.06991 753.62597,-123.36668 L 750.04986,-126.86705 C 750.86086,-128.38037 750.67246,-130.29893 749.39754,-131.54684 C 747.87858,-133.03365 745.47438,-132.97548 744.02536,-131.41687 z M 744.78704,-130.67133 C 745.83563,-131.79927 747.58056,-131.85081 748.67982,-130.77483 C 749.77910,-129.69885 749.82047,-127.89886 748.77184,-126.77092 C 747.72323,-125.64297 745.97787,-125.61007 744.87862,-126.68605 C 743.77934,-127.76203 743.73841,-129.54339 744.78704,-130.67133 z "
               id="path7819"
               style="opacity:1.0000000;fill:#a4a4a4;fill-opacity:1.0000000;stroke:none;stroke-width:2.0000000;stroke-miterlimit:4.0000000;stroke-dasharray:none;stroke-dashoffset:0.0000000;stroke-opacity:1.0000000" />
          </g>
          <path
             id="path7821"
             d="M 558.05995,-135.31863 L 558.05995,-118.38113 L 750.59088,-118.38113 C 755.56671,-118.38113 759.68463,-121.67416 759.68463,-125.88113 L 759.68463,-127.81863 C 759.68461,-132.02559 755.56676,-135.31863 750.59088,-135.31863 L 558.05995,-135.31863 z M 559.12245,-134.25613 L 750.59088,-134.25613 C 755.10110,-134.25613 758.62213,-131.32050 758.62213,-127.81863 L 758.62213,-125.88113 C 758.62211,-122.37926 755.10109,-119.44363 750.59088,-119.44363 L 559.12245,-119.44363 L 559.12245,-134.25613 z "
             sodipodi:nodetypes="cccccccccccccc"
             style="opacity:1.0000000;fill:#bebebe;fill-opacity:1.0000000;stroke:none;stroke-width:1.0676154;stroke-linecap:butt;stroke-linejoin:miter;stroke-miterlimit:4.0000000;stroke-dasharray:none;stroke-opacity:1.0000000" />
        </g>
      </g>
    </g>
  </g>
</svg>
