<?xml version="1.0" encoding="UTF-8" standalone="no"?>
<!-- Created with Inkscape (http://www.inkscape.org/) -->
<svg
   xmlns:dc="http://purl.org/dc/elements/1.1/"
   xmlns:cc="http://web.resource.org/cc/"
   xmlns:rdf="http://www.w3.org/1999/02/22-rdf-syntax-ns#"
   xmlns:svg="http://www.w3.org/2000/svg"
   xmlns="http://www.w3.org/2000/svg"
   xmlns:sodipodi="http://sodipodi.sourceforge.net/DTD/sodipodi-0.dtd"
   xmlns:inkscape="http://www.inkscape.org/namespaces/inkscape"
   id="svg2"
   sodipodi:version="0.32"
   inkscape:version="0.44"
   width="210mm"
   height="297mm"
   sodipodi:docbase="C:\Documents and Settings\Lais\Desktop\estudiolivre"
   sodipodi:docname="hacklab.svg"
   inkscape:export-filename="C:\Documents and Settings\Lais\Desktop\estudiolivre\hacklab.png"
   inkscape:export-xdpi="90"
   inkscape:export-ydpi="90">
  <metadata
     id="metadata7">
    <rdf:RDF>
      <cc:Work
         rdf:about="">
        <dc:format>image/svg+xml</dc:format>
        <dc:type
           rdf:resource="http://purl.org/dc/dcmitype/StillImage" />
      </cc:Work>
    </rdf:RDF>
  </metadata>
  <defs
     id="defs5" />
  <sodipodi:namedview
     inkscape:window-height="977"
     inkscape:window-width="1280"
     inkscape:pageshadow="2"
     inkscape:pageopacity="0.0"
     guidetolerance="10.0"
     gridtolerance="10.0"
     objecttolerance="10.0"
     borderopacity="1.0"
     bordercolor="#666666"
     pagecolor="#ffffff"
     id="base"
     inkscape:zoom="1"
     inkscape:cx="394.93291"
     inkscape:cy="639.61128"
     inkscape:window-x="-4"
     inkscape:window-y="-4"
     inkscape:current-layer="svg2" />
  <rect
     style="fill:black;fill-opacity:1;stroke:none;stroke-width:1.60000002;stroke-miterlimit:4;stroke-dasharray:none;stroke-opacity:1"
     id="rect2811"
     width="6.569603"
     height="88.032677"
     x="118.61507"
     y="495.24078"
     ry="3.2848015" />
  <rect
     ry="3.2848015"
     y="499.45477"
     x="129.92621"
     height="55.65176"
     width="6.569603"
     id="rect3698"
     style="fill:black;fill-opacity:1;stroke:none;stroke-width:1.60000002;stroke-miterlimit:4;stroke-dasharray:none;stroke-opacity:1" />
  <path
     style="fill:black;fill-opacity:1;stroke:none;stroke-width:1.60000002;stroke-miterlimit:4;stroke-dasharray:none;stroke-opacity:1"
     d="M 371.42089,247.14418 C 320.36392,255.53963 279.23097,286.21107 259.93789,325.19939 C 246.40138,315.71936 229.16309,311.34373 211.36052,314.27107 C 179.76664,319.46615 156.8704,345.99328 155.54267,376.37182 C 121.58492,389.99331 100.18062,425.90905 106.06322,463.64356 C 112.86343,507.26419 153.5764,536.87937 196.94039,529.74889 C 205.23167,528.38553 213.00905,525.77633 220.14015,522.14379 C 243.83864,551.93322 287.83932,568.07877 334.71275,560.37122 C 383.30667,552.38077 421.16776,521.02305 433.31698,483.33559 C 449.19929,478.21748 463.73997,470.84975 476.5197,461.77893 C 491.20755,486.21845 519.53519,500.5081 549.22677,495.62582 C 588.43257,489.17908 615.23449,451.76311 609.05248,412.108 C 603.14664,374.22448 569.26576,347.91612 532.06765,351.26346 C 531.86769,349.17007 531.58851,347.08371 531.26123,344.98445 C 520.84694,278.18084 449.23846,234.3484 371.42089,247.14418 z "
     id="path3700" />
  <path
     style="fill:none;fill-rule:evenodd;stroke:white;stroke-width:1.31392062px;stroke-linecap:butt;stroke-linejoin:miter;stroke-opacity:1"
     d="M 121.2429,419.03337 C 129.98815,438.84188 134.38211,470.22092 134.38211,496.55469 C 134.38211,558.19841 134.38211,482.52999 134.38211,463.70667 C 134.38211,415.50697 116.60459,413.19185 125.18466,468.96235 C 127.35291,483.05593 129.60978,497.17419 133.06819,511.00781 C 129.76157,497.56885 127.9032,483.86898 125.18466,470.27627 C 108.40553,386.38063 129.12643,431.55435 129.12643,482.10156 C 129.12643,537.91684 132.87261,529.83656 122.55682,483.41548 C 120.02728,472.03254 121.2429,403.28057 121.2429,429.54474 C 121.2429,441.86441 143.77555,520.03828 118.61506,457.13707 C 117.45219,454.22989 115.70661,453.25914 114.6733,451.88139"
     id="path1871" />
  <path
     style="fill:none;fill-rule:evenodd;stroke:white;stroke-width:1.31392062px;stroke-linecap:butt;stroke-linejoin:miter;stroke-opacity:1"
     d="M 121.2429,467.64843 C 120.37998,465.49116 140.49402,470.42885 160.66052,463.70667 C 184.40877,455.79059 118.79484,467.64843 112.04546,467.64843 C 103.53261,467.64843 128.83781,467.72059 144.89347,463.70667 C 195.84776,450.96811 178.04241,450.20861 140.95171,458.45099 C 122.26367,462.60388 163.16212,454.47767 168.54404,455.82315 C 171.664,456.60314 125.48776,475.6735 142.26563,468.96235 C 151.69603,465.19019 158.03268,458.01679 158.03268,449.25354 C 158.03268,445.24042 154.82173,466.59107 167.23012,482.10156 C 172.16251,488.26705 165.9162,466.34667 165.9162,458.45099 C 165.9162,387.24496 171.17188,444.69425 171.17188,475.53196 C 171.17188,492.89698 179.72012,515.66078 175.11364,483.41548 C 173.34089,471.00622 160.66052,379.40787 160.66052,432.17258 C 160.66052,446.84458 168.67726,499.7154 167.23012,493.92684 C 161.68201,471.7344 150.99812,418.79056 150.14915,411.14985 C 148.45979,395.94566 156.63542,441.06443 160.66052,455.82315 C 174.95478,508.23543 166.36625,497.11338 161.97444,453.19531 C 159.20053,425.45624 167.1071,466.08847 171.17188,474.21804"
     id="path1873" />
  <path
     style="fill:none;fill-rule:evenodd;stroke:white;stroke-width:1.31392062px;stroke-linecap:butt;stroke-linejoin:miter;stroke-opacity:1"
     d="M 200.07814,421.66121 C 199.68318,417.71165 194.56512,449.83254 184.31109,472.90411 C 160.5314,526.40843 174.67547,476.40958 177.74149,451.88139 C 187.70135,372.20256 175.11364,461.64438 175.11364,483.41548 C 175.11364,489.67468 178.35752,467.89402 181.68325,447.93962 C 182.59127,442.49144 189.3975,412.30792 190.88069,409.83593 C 203.20407,389.29697 184.23834,445.05495 180.36933,466.33451 C 179.49338,471.15223 178.61744,475.96994 177.74149,480.78764 C 176.63674,486.86373 179.07475,449.21488 193.50853,420.34729 C 195.16928,417.02582 208.90195,448.13267 200.07814,421.66121 C 199.02336,418.49687 202.70598,415.52959 204.0199,412.46377 C 208.13529,402.86119 215.72577,429.7837 221.10086,438.74218 C 248.44437,484.31469 226.06149,441.07497 209.27558,424.28905 C 182.07661,397.09008 225.79347,469.15011 219.78694,457.13707 C 213.15766,443.87851 185.18495,421.66121 200.07814,421.66121 C 212.24718,421.66121 210.45965,444.03718 218.47302,453.19531 C 242.65966,480.83719 245.99656,508.24239 227.67047,471.59019 C 225.11797,466.48521 218.6752,459.36067 215.84518,455.82315"
     id="path1875" />
  <path
     style="fill:none;fill-rule:evenodd;stroke:white;stroke-width:1.31392062px;stroke-linecap:butt;stroke-linejoin:miter;stroke-opacity:1"
     d="M 202.70598,466.33451 C 198.4379,457.79835 182.80156,479.66932 196.13637,466.33451 C 198.48251,463.98838 238.33883,446.54721 209.27558,461.07883 C 205.05646,463.18839 200.5161,464.58262 196.13637,466.33451 C 152.69377,483.71156 179.82996,466.14088 210.5895,458.45099 C 254.03188,447.5904 205.86563,454.24333 184.31109,465.02059 C 182.0269,466.16269 179.93136,467.64843 177.74149,468.96235 C 170.47631,473.32147 221.34946,438.61788 207.96166,445.31178 C 163.82884,467.3782 183.43083,461.8315 215.84518,447.93962 C 230.08515,445.81321 218.04675,446.83885 218.47302,446.6257"
     id="path1877" />
  <path
     style="fill:none;fill-rule:evenodd;stroke:white;stroke-width:1.31392062px;stroke-linecap:butt;stroke-linejoin:miter;stroke-opacity:1"
     d="M 284.16905,400.63848 C 294.5052,396.20871 248.6932,411.04229 248.6932,438.74218 C 248.6932,454.5418 262.51437,474.38853 277.59945,478.1598 C 293.70616,482.18648 292.98216,472.55104 293.3665,471.59019 C 297.62369,460.9472 270.57891,474.11016 259.20456,475.53196 C 232.15023,478.91375 235.55399,449.68836 235.55399,430.85866 C 235.55399,408.46241 264.45726,394.0679 284.16905,400.63848 C 292.73476,403.49373 266.94692,406.50444 259.20456,411.14985 C 227.55345,430.14052 233.26894,457.00652 259.20456,475.53196 C 273.76942,485.93543 301.28073,471.59019 286.79689,471.59019 C 256.68927,471.59019 240.84181,446.49715 247.37928,420.34729 C 254.3127,392.61357 284.16905,402.64358 284.16905,392.75496"
     id="path1879" />
  <path
     style="fill:none;fill-rule:evenodd;stroke:white;stroke-width:1.31392062px;stroke-linecap:butt;stroke-linejoin:miter;stroke-opacity:1"
     d="M 299.9361,379.61575 C 303.001,367.35617 324.96727,432.4393 328.84235,447.93962 C 330.64885,455.16561 314.30157,424.30642 302.56394,391.44104 C 295.95385,372.93281 277.31057,340.82914 299.9361,379.61575 C 304.40602,387.27847 300.98105,410.66571 307.81962,422.97513 C 310.5847,427.95229 312.19935,433.4865 314.38922,438.74218 C 330.49633,477.39922 301.26417,385.37075 299.9361,379.61575 C 287.11121,324.04121 307.84879,424.42029 310.44746,436.11434 C 320.25864,480.26465 307.81962,412.89886 307.81962,400.63848 C 307.81962,397.97944 307.81962,422.47492 307.81962,429.54474"
     id="path1881" />
  <path
     style="fill:none;fill-rule:evenodd;stroke:white;stroke-width:1.31392062px;stroke-linecap:butt;stroke-linejoin:miter;stroke-opacity:1"
     d="M 331.47019,383.55752 C 331.47019,379.2218 339.61607,378.56634 340.66764,374.36007 C 345.16177,356.38354 323.50833,399.25996 311.76138,417.71945 C 287.65256,455.60476 307.21164,426.13258 317.01707,400.63848 C 321.27034,389.57998 370.06725,317.65507 340.66764,369.10439 C 334.43957,380.00349 288.27155,454.51484 317.01707,408.52201 C 330.08076,387.62009 374.97641,324.26326 328.84235,376.98791 C 320.68616,386.30927 298.62218,441.13759 298.62218,420.34729 C 298.62218,418.87443 347.23724,432.12019 347.23724,461.07883 C 347.23724,467.9202 337.03723,451.91609 331.47019,447.93962 C 279.7478,410.99506 282.07211,424.13246 328.84235,433.4865 C 403.51307,448.42065 360.65201,439.21903 319.64491,426.9169 C 278.18885,414.48009 315.0728,432.17258 349.86508,432.17258 C 372.35307,432.17258 305.33713,422.84529 294.68042,421.66121 C 286.73703,420.77861 310.37839,424.80772 318.33099,425.60297 C 330.73479,426.84336 339.49859,428.23082 351.179,428.23082"
     id="path1883" />
  <path
     style="fill:none;fill-rule:evenodd;stroke:white;stroke-width:1.31392062px;stroke-linecap:butt;stroke-linejoin:miter;stroke-opacity:1"
     d="M 381.39917,352.02342 C 389.72512,352.85602 382.21186,368.8197 384.02701,376.98791 C 387.11446,390.88147 389.87679,452.94381 387.96878,445.31178 C 381.07005,417.71686 373.51565,378.29929 373.51565,354.65126 C 373.51565,343.70193 373.51565,376.54994 373.51565,387.49928 C 373.51565,414.12483 373.51565,480.82342 373.51565,409.83593 C 373.51565,320.57857 368.44464,366.63997 374.82957,417.71945 C 375.22506,420.88333 376.58146,423.85108 377.45741,426.9169 C 380.36757,437.10249 375.01376,405.8695 373.51565,395.3828 C 366.36167,345.30494 383.14654,409.24441 390.59662,421.66121"
     id="path1885" />
  <path
     style="fill:none;fill-rule:evenodd;stroke:white;stroke-width:1.31392062px;stroke-linecap:butt;stroke-linejoin:miter;stroke-opacity:1"
     d="M 377.45741,432.17258 C 376.77859,427.42082 440.42723,424.26447 424.75855,420.34729 C 406.22621,415.71421 310.35572,420.34729 402.4219,420.34729 C 415.5684,420.34729 428.94832,421.61161 441.83952,419.03337 C 455.58921,416.28344 413.81605,417.71945 399.79406,417.71945 C 327.74013,417.71945 406.04681,421.66121 428.70031,421.66121 C 450.50222,421.66121 358.4354,421.66121 393.22446,421.66121 C 418.54012,421.66121 402.90765,418.13355 393.22446,422.97513 C 376.868,431.15337 384.02701,404.47299 384.02701,391.44104 C 384.02701,361.94833 385.23974,347.27373 377.45741,386.18536 C 371.1647,417.64891 376.14349,435.19638 376.14349,388.8132 C 376.14349,346.244 380.08525,327.76368 380.08525,382.2436 C 380.08525,402.56181 381.69471,402.41169 378.77133,384.87144"
     id="path1887" />
  <path
     style="fill:none;fill-rule:evenodd;stroke:white;stroke-width:1.31392062px;stroke-linecap:butt;stroke-linejoin:miter;stroke-opacity:1"
     d="M 440.5256,324.43109 C 440.5256,349.99644 440.30842,387.05404 433.956,412.46377 C 433.51803,414.21567 433.08004,415.96756 432.64208,417.71945 C 431.85106,420.88352 429.35663,378.46785 441.83952,344.1399 C 458.19031,299.17521 443.15344,352.68397 443.15344,371.73223 C 443.15344,425.21823 444.46736,356.33278 444.46736,341.51206 C 444.46736,286.25529 436.58384,415.1513 436.58384,420.34729 C 436.58384,432.20498 436.33577,396.37509 439.21168,384.87144 C 443.12208,369.22987 449.67167,338.1502 440.5256,324.43109 C 438.97,322.0977 444.02939,328.81084 445.78128,331.00069 C 447.53317,333.19057 442.27749,326.62096 440.5256,324.43109 C 433.17395,315.24154 457.83134,340.46037 465.49009,349.39558 C 481.50983,368.08527 517.48112,437.89351 481.25714,383.55752 C 473.33485,371.67409 431.91711,322.3922 465.49009,355.96518 C 469.70239,360.17748 472.49766,365.60061 476.00145,370.41831 C 482.55897,379.43491 491.7685,386.18536 499.65202,394.06888 C 501.8419,396.25875 504.03175,398.44863 506.22163,400.63848 C 510.48238,404.89924 474.963,385.42235 460.23441,355.96518 C 455.76793,347.03225 473.08932,371.3058 478.62929,379.61575 C 483.87641,387.48643 489.44985,393.06415 495.71026,399.32456"
     id="path1889" />
  <path
     style="fill:none;fill-rule:evenodd;stroke:white;stroke-width:1.31392062px;stroke-linecap:butt;stroke-linejoin:miter;stroke-opacity:1"
     d="M 458.92049,390.12712 C 462.76177,395.88904 469.6364,381.02972 476.00145,378.30183 C 515.96515,361.17454 461.66361,378.7813 449.72304,383.55752 C 446.62611,384.79629 443.59141,386.18536 440.5256,387.49928 C 439.87194,387.77942 462.09672,398.06771 456.29265,383.55752 C 451.52809,371.64616 515.49477,367.45568 448.40912,373.04615 C 379.04523,378.82648 462.61179,364.75361 478.62929,358.59303 C 487.76991,355.07741 459.4408,362.63399 449.72304,363.84871 C 425.48981,366.87786 451.48709,366.90845 462.86225,361.22087"
     id="path1891" />
  <path
     style="fill:none;fill-rule:evenodd;stroke:white;stroke-width:1.31392062px;stroke-linecap:butt;stroke-linejoin:miter;stroke-opacity:1"
     d="M 489.14066,313.91973 C 478.24116,315.28217 500.12567,333.36889 502.27986,344.1399 C 505.5751,360.6161 526.00857,429.31513 504.90771,373.04615 C 497.50571,353.30748 489.14066,334.93989 489.14066,313.91973 C 489.14066,304.28431 487.55661,333.32167 489.14066,342.82598 C 491.79002,358.72217 497.61273,380.38565 498.3381,380.92968 C 507.58837,387.86737 487.06154,360.51353 483.88498,349.39558 C 471.39597,305.68403 495.87103,366.06075 502.27986,375.67399 C 510.87385,388.56497 504.53827,383.42422 498.3381,375.67399"
     id="path1893" />
  <path
     style="fill:none;fill-rule:evenodd;stroke:white;stroke-width:1.31392062px;stroke-linecap:butt;stroke-linejoin:miter;stroke-opacity:1"
     d="M 478.62929,325.74501 C 483.30241,332.7547 492.65597,315.30473 500.96594,313.91973 C 521.84172,310.44044 518.56457,320.01122 515.41907,338.88422 C 515.23542,339.98612 476.96724,370.00655 490.45458,352.02342 C 497.89236,342.1064 524.29349,336.27819 520.67475,321.80325 C 518.03402,311.24034 493.57028,315.56407 487.82674,317.86149 C 475.62423,322.74249 511.83571,317.6226 518.04691,319.17541 C 527.91882,321.64339 498.36534,353.32373 493.08242,355.96518 C 489.44326,357.78477 487.5503,354.85877 486.51282,354.65126"
     id="path1895" />
  <path
     style="fill:none;fill-rule:evenodd;stroke:white;stroke-width:1.31392062px;stroke-linecap:butt;stroke-linejoin:miter;stroke-opacity:1"
     d="M 499.65202,350.7095 C 495.42701,352.82201 527.11685,336.70545 548.26708,349.39558 C 559.03862,355.85851 551.99221,371.94887 545.63924,378.30183 C 537.92543,386.01566 534.31367,388.8132 523.30259,388.8132 C 520.23678,388.8132 517.17096,388.8132 514.10515,388.8132"
     id="path1899" />
  <path
     style="fill:none;fill-rule:evenodd;stroke:white;stroke-width:1.31392062px;stroke-linecap:butt;stroke-linejoin:miter;stroke-opacity:1"
     d="M 520.67475,387.49928 C 511.06924,387.49928 536.81616,375.39505 540.38356,366.47655 C 544.28688,356.71825 537.63278,351.33573 529.8722,349.39558 C 523.99452,347.92617 488.5674,358.59303 504.90771,358.59303 C 517.12639,358.59303 567.48422,351.20117 546.95316,371.73223 C 538.09542,380.58997 507.56922,390.12039 520.67475,387.49928 C 535.25751,384.58273 542.10188,347.57654 537.75572,338.88422 C 534.93703,333.24685 468.38755,361.22087 487.82674,361.22087 C 495.62965,361.22087 503.49211,359.93237 508.84947,358.59303"
     id="path1901" />
  <text
     xml:space="preserve"
     style="font-size:63.69112015px;font-style:normal;font-variant:normal;font-weight:normal;font-stretch:normal;text-align:start;line-height:125%;writing-mode:lr-tb;text-anchor:start;fill:#f9f9f9;fill-opacity:1;stroke:none;stroke-width:1px;stroke-linecap:butt;stroke-linejoin:miter;stroke-opacity:1;font-family:Impact"
     x="286.7872"
     y="483.58408"
     id="text1883"
     transform="matrix(0.991108,-0.13306,0.13306,0.991108,0,0)"
     sodipodi:linespacing="125%"><tspan
       sodipodi:role="line"
       id="tspan1885"
       x="286.7872"
       y="483.58408">hacklab</tspan></text>
  <path
     style="fill:black;fill-opacity:1;stroke:none;stroke-width:1.60000002;stroke-miterlimit:4;stroke-dasharray:none;stroke-opacity:1"
     d="M 598.78127,208.27598 C 610.64633,206.68874 618.98776,195.77094 617.40053,183.90588 C 615.81328,172.04082 604.89547,163.6994 593.03043,165.28664 C 585.98554,166.22906 580.19055,170.4594 576.9708,176.22581 L 596.51999,186.69916 L 579.68395,201.18036 L 579.68651,201.19955 C 584.31557,206.39325 591.37113,209.26727 598.78127,208.27598 z "
     id="path1886" />
  <path
     sodipodi:type="arc"
     style="fill:black;fill-opacity:1;stroke:none;stroke-width:1.60000002;stroke-miterlimit:4;stroke-dasharray:none;stroke-opacity:1"
     id="path2796"
     sodipodi:cx="245"
     sodipodi:cy="528.36218"
     sodipodi:rx="15"
     sodipodi:ry="11"
     d="M 260 528.36218 A 15 11 0 1 1  230,528.36218 A 15 11 0 1 1  260 528.36218 z"
     transform="matrix(0.350379,0,0,0.537513,173.3618,18.7499)" />
  <path
     transform="matrix(0.19356,0,0,0.296938,191.7881,144.6256)"
     d="M 260 528.36218 A 15 11 0 1 1  230,528.36218 A 15 11 0 1 1  260 528.36218 z"
     sodipodi:ry="11"
     sodipodi:rx="15"
     sodipodi:cy="528.36218"
     sodipodi:cx="245"
     id="path5487"
     style="fill:black;fill-opacity:1;stroke:none;stroke-width:1.60000002;stroke-miterlimit:4;stroke-dasharray:none;stroke-opacity:1"
     sodipodi:type="arc" />
  <path
     id="path5491"
     d="M 584.79033,310.54039 C 594.82423,317.06879 608.26611,314.22374 614.79448,304.18984 C 621.32288,294.15596 618.47784,280.71409 608.44392,274.18572 C 602.48631,270.30947 595.33403,269.74162 589.134,272.01711 L 597.13649,292.70096 L 574.92936,292.71298 L 574.91879,292.7292 C 575.04522,299.68526 578.52382,306.46318 584.79033,310.54039 z "
     style="fill:black;fill-opacity:1;stroke:none;stroke-width:1.60000002;stroke-miterlimit:4;stroke-dasharray:none;stroke-opacity:1" />
  <path
     style="fill:black;fill-opacity:1;stroke:none;stroke-width:1.60000002;stroke-miterlimit:4;stroke-dasharray:none;stroke-opacity:1"
     d="M 407.02734,227.46089 C 401.08952,232.68868 400.14372,242.21041 404.91617,248.71475 C 409.68862,255.21909 418.38099,256.25513 424.3188,251.02734 C 427.84437,247.92335 429.60639,243.30922 429.46021,238.70806 L 415.36573,239.5147 L 419.76318,224.80259 L 419.75547,224.79208 C 415.52417,223.36445 410.73571,224.19595 407.02734,227.46089 z "
     id="path5493" />
  <path
     id="path5495"
     d="M 537.54152,317.87179 C 532.18278,323.6917 532.2376,333.26013 537.66389,339.2299 C 543.09016,345.19967 551.84322,345.32131 557.20195,339.50139 C 560.38372,336.04585 561.65369,331.27279 561.02729,326.71212 L 547.09437,328.98783 L 549.92967,313.89662 L 549.9209,313.88697 C 545.56355,312.90951 540.88824,314.23706 537.54152,317.87179 z "
     style="fill:black;fill-opacity:1;stroke:none;stroke-width:1.60000002;stroke-miterlimit:4;stroke-dasharray:none;stroke-opacity:1" />
  <g
     id="g5513"
     transform="matrix(1.313921,0,0,1.313921,-95.55399,-146.4283)">
    <path
       sodipodi:nodetypes="ccccc"
       id="path5507"
       d="M 454,320.36218 C 454.5305,326.02885 450.46538,331.69551 443,337.36218 L 497,337.36218 C 484.82877,329.31937 487.45026,324.97474 485,319.36218 L 454,320.36218 z "
       style="fill:white;fill-rule:evenodd;stroke:black;stroke-width:1px;stroke-linecap:butt;stroke-linejoin:miter;stroke-opacity:1" />
    <rect
       ry="2.5"
       y="255.36218"
       x="431"
       height="69"
       width="77"
       id="rect5501"
       style="fill:white;fill-opacity:1;stroke:black;stroke-width:1.60000002;stroke-miterlimit:4;stroke-dasharray:none;stroke-opacity:1" />
    <rect
       ry="2.5"
       y="261.36218"
       x="436"
       height="53"
       width="67"
       id="rect5497"
       style="fill:black;fill-opacity:1;stroke:black;stroke-width:1.60000002;stroke-miterlimit:4;stroke-dasharray:none;stroke-opacity:1" />
    <path
       transform="matrix(0.69697,0,0,0.69697,180.4242,-165.4357)"
       d="M 456 694.86218 A 2.5 2.5 0 1 1  451,694.86218 A 2.5 2.5 0 1 1  456 694.86218 z"
       sodipodi:ry="2.5"
       sodipodi:rx="2.5"
       sodipodi:cy="694.86218"
       sodipodi:cx="453.5"
       id="path5509"
       style="fill:black;fill-opacity:1;stroke:black;stroke-width:1.60000002;stroke-miterlimit:4;stroke-dasharray:none;stroke-opacity:1"
       sodipodi:type="arc" />
  </g>
  <path
     style="fill:black;fill-rule:evenodd;stroke:none;stroke-width:1px;stroke-linecap:butt;stroke-linejoin:miter;stroke-opacity:1"
     d="M 70,306.0362 L 167.23012,409.83593 L 167.23012,395.3828 L 76.569603,299.4666 L 70,306.0362 z "
     id="path5541"
     sodipodi:nodetypes="ccccc" />
  <path
     style="fill:white;fill-rule:evenodd;stroke:black;stroke-width:1.31392062px;stroke-linecap:butt;stroke-linejoin:miter;stroke-opacity:1"
     d="M 136.17747,250.06241 L 178.81562,298.30186 C 131.28298,283.82241 148.2792,348.21065 118.30517,358.80057 L 72.827912,311.31698 C 102.97311,303.1895 92.19127,235.14181 136.17747,250.06241 z "
     id="path5537"
     sodipodi:nodetypes="ccccc" />
  <path
     style="fill:none;fill-rule:evenodd;stroke:black;stroke-width:1.31392062px;stroke-linecap:butt;stroke-linejoin:miter;stroke-opacity:1"
     d="M 72.627841,311.29189 C 71.444745,304.2725 75.417631,301.9325 80.511364,296.83876 C 83.542239,293.80789 84.645966,294.21092 89.70881,294.21092"
     id="path6428" />
  <rect
     style="fill:black;fill-opacity:1;stroke:none;stroke-width:1.60000002;stroke-miterlimit:4;stroke-dasharray:none;stroke-opacity:1"
     id="rect6430"
     width="30.549282"
     height="26.730623"
     x="-160.6779"
     y="278.28143"
     ry="1.9093301"
     transform="matrix(0.661001,-0.750385,0.750385,0.661001,0,0)" />
  <rect
     style="fill:white;fill-opacity:1;stroke:none;stroke-width:1.60000002;stroke-miterlimit:4;stroke-dasharray:none;stroke-opacity:1"
     id="rect6432"
     width="5.3461246"
     height="3.8186603"
     x="-152.49913"
     y="282.1001"
     ry="1.9093301"
     transform="matrix(0.661001,-0.750385,0.750385,0.661001,0,0)" />
  <rect
     ry="1.9093301"
     y="282.1001"
     x="-143.33432"
     height="3.8186603"
     width="5.3461246"
     id="rect6436"
     style="fill:white;fill-opacity:1;stroke:none;stroke-width:1.60000002;stroke-miterlimit:4;stroke-dasharray:none;stroke-opacity:1"
     transform="matrix(0.661001,-0.750385,0.750385,0.661001,0,0)" />
  <path
     style="fill:black;fill-rule:evenodd;stroke:none;stroke-width:1px;stroke-linecap:butt;stroke-linejoin:miter;stroke-opacity:1"
     d="M 132.81836,294.48428 C 130.8465,291.96958 129.65448,287.24788 129.40678,283.33679 C 129.14217,279.1585 129.47627,277.83546 132.02616,273.43073 C 132.49082,272.62805 142.04525,276.78656 143.0784,277.05975 C 148.27009,278.43255 151.15842,279.08838 155.9182,283.28118 C 159.95925,286.84088 153.88966,283.95078 151.10169,284.12734 C 147.11234,284.37998 145.50887,283.4838 143.05143,285.17828 C 140.86332,286.68705 147.09989,289.29328 147.26788,291.94584 C 147.30717,292.56619 139.30438,289.70524 138.43973,289.25819 C 134.19284,287.06245 133.72944,289.52627 132.81836,294.48428 z "
     id="path6440" />
  <path
     id="path6442"
     d="M 115.67001,313.95151 C 112.95075,312.28529 108.23021,311.56923 104.4336,311.68694 C 100.37762,311.81272 99.15742,312.25415 95.31574,315.10526 C 94.61568,315.62483 100.0783,324.42846 100.49937,325.39649 C 102.61537,330.26088 103.68887,332.97694 108.44867,337.16976 C 112.48971,340.72945 108.78084,335.1594 108.52267,332.46407 C 108.15324,328.6073 107.04594,327.14786 108.29722,324.63209 C 109.41138,322.39206 112.87307,328.1484 115.44797,328.06855 C 116.05018,328.04988 112.07264,320.61936 111.51035,319.82908 C 108.74848,315.94751 111.04512,315.27807 115.67001,313.95151 z "
     style="fill:black;fill-rule:evenodd;stroke:none;stroke-width:0.96824586px;stroke-linecap:butt;stroke-linejoin:miter;stroke-opacity:1" />
  <path
     style="fill:none;fill-rule:evenodd;stroke:white;stroke-width:0.5517509px;stroke-linecap:butt;stroke-linejoin:miter;stroke-opacity:1"
     d="M 116.92787,305.979 C 125.61982,303.45795 126.42543,301.86226 126.31645,294.75085"
     id="path6452"
     sodipodi:nodetypes="cc" />
  <path
     style="fill:white;fill-rule:evenodd;stroke:white;stroke-width:0.5517509px;stroke-linecap:butt;stroke-linejoin:miter;stroke-opacity:1"
     d="M 119.63606,305.1846 L 122.87616,307.87137 C 121.22857,307.9308 119.62147,307.62815 118.19896,305.67602 L 119.63606,305.1846 z "
     id="path6454"
     sodipodi:nodetypes="cccc" />
  <path
     sodipodi:nodetypes="cccc"
     id="path6456"
     d="M 126.37785,297.62615 L 129.45839,300.49406 C 129.25097,298.91855 128.70489,297.41143 126.616,296.2158 L 126.37785,297.62615 z "
     style="fill:white;fill-rule:evenodd;stroke:white;stroke-width:0.52977002px;stroke-linecap:butt;stroke-linejoin:miter;stroke-opacity:1" />
  <path
     sodipodi:type="arc"
     style="fill:black;fill-opacity:1;stroke:none;stroke-width:1.60000002;stroke-miterlimit:4;stroke-dasharray:none;stroke-opacity:1"
     id="path7343"
     sodipodi:cx="327"
     sodipodi:cy="227.86218"
     sodipodi:rx="16"
     sodipodi:ry="12.5"
     d="M 343 227.86218 A 16 12.5 0 1 1  311,227.86218 A 16 12.5 0 1 1  343 227.86218 z"
     transform="matrix(-0.765675,0.155222,-0.198685,-0.980063,655.2873,759.536)" />
  <path
     transform="matrix(-1.255706,0.254565,-0.325843,-1.607304,916.2055,841.1545)"
     d="M 343 227.86218 A 16 12.5 0 1 1  311,227.86218 A 16 12.5 0 1 1  343 227.86218 z"
     sodipodi:ry="12.5"
     sodipodi:rx="16"
     sodipodi:cy="227.86218"
     sodipodi:cx="327"
     id="path7345"
     style="fill:black;fill-opacity:1;stroke:none;stroke-width:1.60000002;stroke-miterlimit:4;stroke-dasharray:none;stroke-opacity:1"
     sodipodi:type="arc" />
  <path
     style="fill:none;fill-rule:evenodd;stroke:black;stroke-width:1px;stroke-linecap:butt;stroke-linejoin:miter;stroke-opacity:1"
     d="M 435.25591,554.8091 L 350.9821,501.49001 L 361.59254,584.02739 L 435.25591,554.8091 z "
     id="path7347" />
</svg>
