<?xml version="1.0" encoding="UTF-8" standalone="no"?>
<!-- Creator: CorelDRAW -->
<svg
   xmlns:dc="http://purl.org/dc/elements/1.1/"
   xmlns:cc="http://web.resource.org/cc/"
   xmlns:rdf="http://www.w3.org/1999/02/22-rdf-syntax-ns#"
   xmlns:svg="http://www.w3.org/2000/svg"
   xmlns="http://www.w3.org/2000/svg"
   xmlns:sodipodi="http://inkscape.sourceforge.net/DTD/sodipodi-0.dtd"
   xmlns:inkscape="http://www.inkscape.org/namespaces/inkscape"
   xml:space="preserve"
   width="131.10236"
   height="184.25198"
   style="shape-rendering:geometricPrecision; text-rendering:geometricPrecision; image-rendering:optimizeQuality; fill-rule:evenodd; clip-rule:evenodd"
   viewBox="0 0 210 297"
   id="svg2"
   sodipodi:version="0.32"
   inkscape:version="0.43"
   sodipodi:docname="iconesEditarApagar.svg"
   sodipodi:docbase="/home/rhwinter/dev/cvs/estudiolivre/layout"
   version="1.0"><metadata
   id="metadata31"><rdf:RDF><cc:Work
       rdf:about=""><dc:format>image/svg+xml</dc:format><dc:type
         rdf:resource="http://purl.org/dc/dcmitype/StillImage" /></cc:Work></rdf:RDF></metadata><sodipodi:namedview
   inkscape:window-height="1086"
   inkscape:window-width="1592"
   inkscape:pageshadow="2"
   inkscape:pageopacity="0.0"
   borderopacity="1.0"
   bordercolor="#666666"
   pagecolor="#ffffff"
   id="base"
   showguides="true"
   inkscape:guide-bbox="true"
   inkscape:zoom="1"
   inkscape:cx="47.5"
   inkscape:cy="85"
   inkscape:window-x="0"
   inkscape:window-y="27"
   inkscape:current-layer="svg2" />
 <defs
   id="defs4">
  <style
   type="text/css"
   id="style6">
   
    .str2 {stroke:#1F1A17;stroke-width:0.049;stroke-linejoin:bevel}
    .str0 {stroke:#1F1A17;stroke-width:0.098}
    .str1 {stroke:#1F1A17;stroke-width:0.098;stroke-linejoin:bevel}
    .fil2 {fill:none}
    .fil1 {fill:#1F1A17}
    .fil0 {fill:white}
   
  </style>
 
  <metadata
   id="CorelCorpID_0Corel-Layer" />
  
  
  
  
  
  
  
  
  
  
 </defs>
 
<g
   id="g1373"
   transform="matrix(0.847493,0,0,0.844059,7.859914,7.783076)"
   inkscape:export-filename="/home/rhwinter/dev/cvs/estudiolivre/src/styles/estudiolivre/iEdit.png"
   inkscape:export-xdpi="90"
   inkscape:export-ydpi="90"><rect
     style="opacity:1;color:#000000;fill:#d27876;fill-opacity:1;fill-rule:nonzero;stroke:none;stroke-width:1px;stroke-linecap:butt;stroke-linejoin:miter;marker:none;marker-start:none;marker-mid:none;marker-end:none;stroke-miterlimit:4;stroke-dasharray:none;stroke-dashoffset:0;stroke-opacity:1;visibility:visible;display:inline;overflow:visible"
     id="rect1322"
     width="10.942729"
     height="10.161105"
     x="-0.77522874"
     y="-118.82967"
     ry="0.5134958"
     rx="0.51453936"
     transform="matrix(-0.5,0.866025,-0.866025,-0.5,0,0)" /><rect
     style="opacity:1;color:#000000;fill:#3ab8a3;fill-opacity:1;fill-rule:nonzero;stroke:none;stroke-width:1px;stroke-linecap:butt;stroke-linejoin:miter;marker:none;marker-start:none;marker-mid:none;marker-end:none;stroke-miterlimit:4;stroke-dasharray:none;stroke-dashoffset:0;stroke-opacity:1;visibility:visible;display:inline;overflow:visible"
     id="rect1318"
     width="35.264435"
     height="10.100008"
     x="5.8059049"
     y="-118.76215"
     rx="0"
     ry="0.5134958"
     transform="matrix(-0.5,0.866025,-0.866025,-0.5,0,0)" /><path
     sodipodi:type="star"
     style="opacity:1;color:#000000;fill:#e7ccc1;fill-opacity:1;fill-rule:nonzero;stroke:none;stroke-width:1px;stroke-linecap:butt;stroke-linejoin:miter;marker:none;marker-start:none;marker-mid:none;marker-end:none;stroke-miterlimit:4;stroke-dasharray:none;stroke-dashoffset:0;stroke-opacity:1;visibility:visible;display:inline;overflow:visible"
     id="path1320"
     sodipodi:sides="3"
     sodipodi:cx="30.263845"
     sodipodi:cy="143.29668"
     sodipodi:r1="1.1550894"
     sodipodi:r2="0.57754469"
     sodipodi:arg1="-2.0778948"
     sodipodi:arg2="-1.0306973"
     inkscape:flatsided="false"
     inkscape:rounded="0"
     inkscape:randomized="0"
     d="M 29.702884,142.28695 L 30.560831,142.80134 L 31.418778,143.31574 L 30.544326,143.80154 L 29.669874,144.28735 L 29.686379,143.28715 L 29.702884,142.28695 z "
     transform="matrix(-2.97107,5.331301,-4.412095,-2.453251,798.3489,285.659)" /><path
     style="opacity:1;color:#000000;fill:#000000;fill-opacity:1;fill-rule:nonzero;stroke:none;stroke-width:1px;stroke-linecap:butt;stroke-linejoin:miter;marker:none;marker-start:none;marker-mid:none;marker-end:none;stroke-miterlimit:4;stroke-dasharray:none;stroke-dashoffset:0;stroke-opacity:1;visibility:visible;display:inline;overflow:visible"
     d="M 75.863013,99.44533 L 72.895,97.731695 L 72.677184,101.59401 L 75.863013,99.44533 z "
     id="path2780"
     sodipodi:nodetypes="cccc" /></g><g
   id="g1367"
   transform="matrix(1.040752,0,0,1.084209,-11.11414,27.45156)"
   inkscape:export-filename="/home/rhwinter/dev/cvs/estudiolivre/src/styles/estudiolivre/iDelete.png"
   inkscape:export-xdpi="90"
   inkscape:export-ydpi="90"><path
     style="fill:#7ca5aa;fill-opacity:1;fill-rule:evenodd;stroke:none;stroke-width:1px;stroke-linecap:butt;stroke-linejoin:miter;stroke-opacity:1"
     d="M 80.677055,170.42148 C 74.43839,168.91431 76.309046,145.10701 76.309046,145.10701 L 104.75287,144.44718 C 104.75287,144.44718 106.25363,168.6291 100.95012,170.48697 C 95.770532,172.30149 86.822335,171.90605 80.677055,170.42148 z "
     id="path2785"
     sodipodi:nodetypes="ccczz" /><rect
     style="opacity:1;color:#000000;fill:#659190;fill-opacity:1;fill-rule:nonzero;stroke:none;stroke-width:1px;stroke-linecap:butt;stroke-linejoin:miter;marker:none;marker-start:none;marker-mid:none;marker-end:none;stroke-miterlimit:4;stroke-dasharray:none;stroke-dashoffset:0;stroke-opacity:1;visibility:visible;display:inline;overflow:visible"
     id="rect3521"
     width="30.976118"
     height="5.9382567"
     x="74.953926"
     y="139.4986"
     ry="0.40097877"
     rx="0.41772178" /><path
     style="opacity:1;color:#000000;fill:#659190;fill-opacity:1;fill-rule:nonzero;stroke:none;stroke-width:1px;stroke-linecap:butt;stroke-linejoin:miter;marker:none;marker-start:none;marker-mid:none;marker-end:none;stroke-miterlimit:4;stroke-dasharray:none;stroke-dashoffset:0;stroke-opacity:1;visibility:visible;display:inline;overflow:visible"
     d="M 85.827288,134.52919 C 85.148688,134.52919 84.609678,135.12195 84.609678,135.83529 L 84.609678,139.15278 L 86.597604,139.15278 L 86.597604,138.76093 C 86.597604,138.04757 87.161461,137.48094 87.840061,137.48094 L 92.188644,137.48094 C 92.867245,137.48094 93.406248,138.04757 93.406248,138.76093 L 93.406248,139.15278 L 95.592971,139.15278 L 95.592971,135.83529 C 95.592971,135.12195 95.053962,134.52919 94.375365,134.52919 L 85.827288,134.52919 z "
     id="rect3523" /><path
     style="fill:#a5c9cb;fill-opacity:1;fill-rule:nonzero;stroke:none;stroke-width:1px;stroke-linecap:butt;stroke-linejoin:miter;stroke-opacity:1"
     id="path3531"
     d="M 99.168042,146.00206 C 99.19989,147.20357 98.824808,148.33159 98.831881,149.52863 C 98.83668,150.98202 97.752296,152.19171 96.967929,153.36966 C 95.130616,155.65639 92.239583,156.72381 89.614004,157.88893 C 96.021696,154.02216 91.60409,156.39624 90.731733,158.56122 C 90.480349,159.87875 90.969172,161.06328 91.505107,162.24544 C 92.174448,163.59532 92.527739,165.05273 92.819473,166.51858 C 93.15354,167.27923 93.224803,167.98698 93.158227,168.79604 L 89.237105,170.69973 C 89.375998,169.92992 89.29942,169.29828 88.987844,168.56649 C 88.712137,167.12555 88.399353,165.69237 87.733814,164.36775 C 87.150945,163.11334 86.627265,161.8378 86.804294,160.42872 C 87.607787,157.57773 90.514034,156.57659 92.999717,155.20768 C 97.694327,153.371 88.669268,158.27234 92.984154,155.064 C 93.774104,153.99012 94.737608,152.79179 94.964626,151.50148 C 94.938659,150.29754 95.285864,149.18087 95.239744,147.98456 L 99.168042,146.00206 z " /></g></svg>