<?xml version="1.0" encoding="UTF-8" standalone="no"?>
<!-- Created with Inkscape (http://www.inkscape.org/) -->
<svg
   xmlns:dc="http://purl.org/dc/elements/1.1/"
   xmlns:cc="http://web.resource.org/cc/"
   xmlns:rdf="http://www.w3.org/1999/02/22-rdf-syntax-ns#"
   xmlns:svg="http://www.w3.org/2000/svg"
   xmlns="http://www.w3.org/2000/svg"
   xmlns:xlink="http://www.w3.org/1999/xlink"
   xmlns:sodipodi="http://inkscape.sourceforge.net/DTD/sodipodi-0.dtd"
   xmlns:inkscape="http://www.inkscape.org/namespaces/inkscape"
   width="200"
   height="200"
   id="svg1741"
   sodipodi:version="0.32"
   inkscape:version="0.43"
   sodipodi:docbase="/home/nano/devel/estudiolivre/layout"
   sodipodi:docname="iconesEditarApagar.svg"
   version="1.0">
  <defs
     id="defs1743">
    <linearGradient
       inkscape:collect="always"
       id="linearGradient4414">
      <stop
         style="stop-color:#ff766f;stop-opacity:1;"
         offset="0"
         id="stop4416" />
      <stop
         style="stop-color:#ff5756;stop-opacity:1"
         offset="1"
         id="stop4418" />
    </linearGradient>
    <linearGradient
       inkscape:collect="always"
       id="linearGradient3533">
      <stop
         style="stop-color:#ffd5ab;stop-opacity:1;"
         offset="0"
         id="stop3535" />
      <stop
         style="stop-color:#ff943f;stop-opacity:1"
         offset="1"
         id="stop3537" />
    </linearGradient>
    <linearGradient
       inkscape:collect="always"
       id="linearGradient3525">
      <stop
         style="stop-color:#b5b5b5;stop-opacity:1;"
         offset="0"
         id="stop3527" />
      <stop
         style="stop-color:#514e4f;stop-opacity:1"
         offset="1"
         id="stop3529" />
    </linearGradient>
    <linearGradient
       inkscape:collect="always"
       id="linearGradient3517">
      <stop
         style="stop-color:#00a76e;stop-opacity:1;"
         offset="0"
         id="stop3519" />
      <stop
         style="stop-color:#2f7449;stop-opacity:1"
         offset="1"
         id="stop3521" />
    </linearGradient>
    <linearGradient
       inkscape:collect="always"
       xlink:href="#linearGradient4414"
       id="linearGradient1366"
       gradientUnits="userSpaceOnUse"
       gradientTransform="matrix(0.61956,-9.98964e-17,2.105577e-16,0.61956,-144.7965,93.69005)"
       x1="309.60422"
       y1="-172.02419"
       x2="314.0495"
       y2="-172.25586" />
    <linearGradient
       inkscape:collect="always"
       xlink:href="#linearGradient3517"
       id="linearGradient1368"
       gradientUnits="userSpaceOnUse"
       gradientTransform="matrix(0.61956,9.98964e-17,-2.105577e-16,0.61956,-144.7965,-93.69005)"
       x1="308.05234"
       y1="183.21906"
       x2="315.43579"
       y2="183.21906" />
    <linearGradient
       inkscape:collect="always"
       xlink:href="#linearGradient3525"
       id="linearGradient1370"
       gradientUnits="userSpaceOnUse"
       gradientTransform="matrix(0.61956,9.98964e-17,-2.105577e-16,0.61956,-144.7965,-93.69005)"
       x1="308.05234"
       y1="174.65259"
       x2="315.43579"
       y2="174.65259" />
    <linearGradient
       inkscape:collect="always"
       xlink:href="#linearGradient3533"
       id="linearGradient1372"
       gradientUnits="userSpaceOnUse"
       x1="64.49707"
       y1="350.76138"
       x2="72.99279"
       y2="351.42874" />
    <linearGradient
       inkscape:collect="always"
       xlink:href="#linearGradient4414"
       id="linearGradient2302"
       gradientUnits="userSpaceOnUse"
       gradientTransform="matrix(0.61956,-2.15568e-16,3.262293e-16,0.61956,-144.7965,93.69005)"
       x1="309.60422"
       y1="-172.02419"
       x2="314.0495"
       y2="-172.25586" />
    <linearGradient
       inkscape:collect="always"
       xlink:href="#linearGradient3517"
       id="linearGradient2304"
       gradientUnits="userSpaceOnUse"
       gradientTransform="matrix(0.61956,2.15568e-16,-3.262293e-16,0.61956,-144.7965,-93.69005)"
       x1="308.05234"
       y1="183.21906"
       x2="315.43579"
       y2="183.21906" />
    <linearGradient
       inkscape:collect="always"
       xlink:href="#linearGradient3525"
       id="linearGradient2306"
       gradientUnits="userSpaceOnUse"
       gradientTransform="matrix(0.61956,2.15568e-16,-3.262293e-16,0.61956,-144.7965,-93.69005)"
       x1="308.05234"
       y1="174.65259"
       x2="315.43579"
       y2="174.65259" />
    <linearGradient
       inkscape:collect="always"
       xlink:href="#linearGradient3533"
       id="linearGradient2308"
       gradientUnits="userSpaceOnUse"
       x1="64.49707"
       y1="350.76138"
       x2="72.99279"
       y2="351.42874" />
    <linearGradient
       inkscape:collect="always"
       xlink:href="#linearGradient4414"
       id="linearGradient2319"
       gradientUnits="userSpaceOnUse"
       gradientTransform="matrix(0.61956,-2.348466e-16,3.455079e-16,0.61956,-144.7965,93.69005)"
       x1="309.60422"
       y1="-172.02419"
       x2="314.0495"
       y2="-172.25586" />
    <linearGradient
       inkscape:collect="always"
       xlink:href="#linearGradient3517"
       id="linearGradient2321"
       gradientUnits="userSpaceOnUse"
       gradientTransform="matrix(0.61956,2.348466e-16,-3.455079e-16,0.61956,-144.7965,-93.69005)"
       x1="308.05234"
       y1="183.21906"
       x2="315.43579"
       y2="183.21906" />
    <linearGradient
       inkscape:collect="always"
       xlink:href="#linearGradient3525"
       id="linearGradient2323"
       gradientUnits="userSpaceOnUse"
       gradientTransform="matrix(0.61956,2.348466e-16,-3.455079e-16,0.61956,-144.7965,-93.69005)"
       x1="308.05234"
       y1="174.65259"
       x2="315.43579"
       y2="174.65259" />
    <linearGradient
       inkscape:collect="always"
       xlink:href="#linearGradient3533"
       id="linearGradient2325"
       gradientUnits="userSpaceOnUse"
       x1="64.49707"
       y1="350.76138"
       x2="72.99279"
       y2="351.42874" />
  </defs>
  <sodipodi:namedview
     id="base"
     pagecolor="#ffffff"
     bordercolor="#666666"
     borderopacity="1.0"
     inkscape:pageopacity="0.0"
     inkscape:pageshadow="2"
     inkscape:zoom="3.8227592"
     inkscape:cx="87.155601"
     inkscape:cy="89.702575"
     inkscape:document-units="px"
     inkscape:current-layer="g2277"
     showguides="true"
     inkscape:guide-bbox="true"
     inkscape:window-width="1592"
     inkscape:window-height="1086"
     inkscape:window-x="3"
     inkscape:window-y="50" />
  <metadata
     id="metadata1746">
    <rdf:RDF>
      <cc:Work
         rdf:about="">
        <dc:format>image/svg+xml</dc:format>
        <dc:type
           rdf:resource="http://purl.org/dc/dcmitype/StillImage" />
      </cc:Work>
    </rdf:RDF>
  </metadata>
  <g
     inkscape:label="Layer 1"
     inkscape:groupmode="layer"
     id="layer1">
    <g
       id="g1351"
       transform="matrix(1.011236,0,0,0.999965,32.26808,2.079309e-3)">
      <g
         id="g2310"
         transform="translate(12.20183,-9.53404e-15)">
        <rect
           style="fill:#ffffff;fill-opacity:1;fill-rule:evenodd;stroke:none;stroke-width:0.12584825px;stroke-linecap:butt;stroke-linejoin:miter;stroke-opacity:1"
           id="rect1749"
           width="19.777777"
           height="20.0007"
           x="-2.7792041"
           y="38.965878" />
        <g
           transform="translate(-12.27093,0.103412)"
           id="g2295">
          <rect
             rx="2.9775937"
             ry="1.5457759"
             transform="matrix(0.702742,0.711445,0.711445,-0.702742,0,0)"
             y="-17.090021"
             x="46.060482"
             height="7.515029"
             width="4.5744867"
             id="rect1755"
             style="fill:url(#linearGradient2319);fill-opacity:1;fill-rule:evenodd;stroke:none;stroke-width:0.78611344px;stroke-linecap:butt;stroke-linejoin:miter;stroke-opacity:1" />
          <rect
             transform="matrix(0.702742,0.711445,-0.711445,0.702742,0,0)"
             y="13.74473"
             x="46.060482"
             height="12.160748"
             width="4.5744867"
             id="rect1751"
             style="fill:url(#linearGradient2321);fill-opacity:1;fill-rule:evenodd;stroke:none;stroke-width:1px;stroke-linecap:butt;stroke-linejoin:miter;stroke-opacity:1" />
          <rect
             transform="matrix(0.702742,0.711445,-0.711445,0.702742,0,0)"
             y="13.487467"
             x="46.060482"
             height="2.0604436"
             width="4.5744867"
             id="rect1753"
             style="fill:url(#linearGradient2323);fill-opacity:1;fill-rule:evenodd;stroke:none;stroke-width:0.41162363px;stroke-linecap:butt;stroke-linejoin:miter;stroke-opacity:1" />
          <path
             transform="matrix(0.257015,0.260199,-0.440783,0.435391,151.0734,-115.4596)"
             d="M 66.586247,357.06458 L 63.593269,351.30472 L 60.02794,345.88049 L 66.512608,346.16843 L 72.992793,345.79287 L 69.501102,351.2648 L 66.586247,357.06458 z "
             inkscape:randomized="0"
             inkscape:rounded="0"
             inkscape:flatsided="false"
             sodipodi:arg2="2.6112358"
             sodipodi:arg1="1.5640382"
             sodipodi:r2="3.4109664"
             sodipodi:r1="7.4854321"
             sodipodi:cy="349.57932"
             sodipodi:cx="66.53566"
             sodipodi:sides="3"
             id="path1757"
             style="fill:url(#linearGradient2325);fill-opacity:1;fill-rule:evenodd;stroke:none;stroke-width:1px;stroke-linecap:butt;stroke-linejoin:miter;stroke-opacity:1"
             sodipodi:type="star" />
          <path
             transform="matrix(9.729874e-2,9.85038e-2,-0.211034,0.208453,79.62177,-23.51806)"
             d="M 66.586247,357.06458 L 63.593269,351.30472 L 60.02794,345.88049 L 66.512608,346.16843 L 72.992793,345.79287 L 69.501102,351.2648 L 66.586247,357.06458 z "
             inkscape:randomized="0"
             inkscape:rounded="0"
             inkscape:flatsided="false"
             sodipodi:arg2="2.6112358"
             sodipodi:arg1="1.5640382"
             sodipodi:r2="3.4109664"
             sodipodi:r1="7.4854321"
             sodipodi:cy="349.57932"
             sodipodi:cx="66.53566"
             sodipodi:sides="3"
             id="path1759"
             style="fill:#000000;fill-opacity:1;fill-rule:evenodd;stroke:none;stroke-width:1px;stroke-linecap:butt;stroke-linejoin:miter;stroke-opacity:1"
             sodipodi:type="star" />
        </g>
      </g>
    </g>
    <text
       xml:space="preserve"
       style="font-size:12px;font-style:normal;font-weight:normal;fill:#000000;fill-opacity:1;stroke:none;stroke-width:1px;stroke-linecap:butt;stroke-linejoin:miter;stroke-opacity:1;font-family:Bitstream Vera Sans"
       x="3.2763946"
       y="16.053844"
       id="text1336"><tspan
         sodipodi:role="line"
         x="3.2763946"
         y="16.053844"
         id="tspan1340">icones:acervolivre</tspan></text>
    <text
       xml:space="preserve"
       style="font-size:12px;font-style:normal;font-weight:normal;fill:#000000;fill-opacity:1;stroke:none;stroke-width:1px;stroke-linecap:butt;stroke-linejoin:miter;stroke-opacity:1;font-family:Bitstream Vera Sans"
       x="25.177443"
       y="81.581741"
       id="text1374"><tspan
         sodipodi:role="line"
         x="25.177443"
         y="81.581741"
         id="tspan1378">iEdit.png</tspan></text>
    <g
       id="g2277"
       transform="translate(8,0)">
      <g
         transform="matrix(1.011236,0,0,1,97.00967,-70.42364)"
         id="g1344">
        <g
           id="g2333">
          <rect
             y="109.39024"
             x="16.974112"
             height="20"
             width="19.777777"
             id="rect5295"
             style="fill:#ffffff;fill-opacity:1;fill-rule:evenodd;stroke:none;stroke-width:0.12584825px;stroke-linecap:butt;stroke-linejoin:miter;stroke-opacity:1" />
          <g
             id="g2327"
             transform="translate(-0.388371,0.188431)">
            <path
               style="opacity:1;color:#000000;fill:#275052;fill-opacity:1;fill-rule:evenodd;stroke:none;stroke-width:0.12584825px;stroke-linecap:butt;stroke-linejoin:miter;marker:none;marker-start:none;marker-mid:none;marker-end:none;stroke-miterlimit:4;stroke-dasharray:none;stroke-dashoffset:0;stroke-opacity:1;visibility:visible;display:inline;overflow:visible"
               d="M 25.264358,111.73159 C 25.211818,111.73689 25.155918,111.77665 25.108108,111.79409 C 24.958778,111.85704 24.827308,111.98851 24.764358,112.13784 C 24.739948,112.20477 24.701858,112.28101 24.701858,112.35659 L 24.701858,114.32534 C 24.701858,114.43331 24.747718,114.54946 24.795608,114.63784 C 24.816398,114.67213 24.862558,114.73333 24.889358,114.76284 C 25.002088,114.87557 25.154108,114.95033 25.326858,114.95034 L 25.389358,114.95034 L 25.389358,113.29409 C 25.389358,113.15373 25.436678,113.02309 25.514358,112.91909 C 25.546078,112.88062 25.599358,112.82397 25.639358,112.79409 C 25.738868,112.72698 25.884788,112.66909 26.014358,112.66909 L 28.233108,112.66909 C 28.384268,112.66909 28.531638,112.73651 28.639358,112.82534 C 28.698368,112.87895 28.760658,112.97135 28.795608,113.04409 C 28.827088,113.11875 28.858108,113.20771 28.858108,113.29409 L 28.858108,114.95034 L 29.045608,114.95034 C 29.110388,114.95034 29.174448,114.93726 29.233108,114.91909 C 29.319158,114.8877 29.419698,114.82625 29.483108,114.76284 C 29.509918,114.73333 29.556068,114.67213 29.576858,114.63784 C 29.624748,114.54946 29.670608,114.43332 29.670608,114.32534 L 29.670608,112.35659 C 29.670608,112.28101 29.632518,112.20477 29.608108,112.13784 C 29.513678,111.91385 29.304738,111.73159 29.045608,111.73159 L 25.326858,111.73159 C 25.305268,111.73159 25.285378,111.72947 25.264358,111.73159 z "
               id="rect7049" />
            <path
               style="fill:#4d7981;fill-opacity:1;fill-rule:evenodd;stroke:none;stroke-width:1px;stroke-linecap:butt;stroke-linejoin:miter;stroke-opacity:1"
               d="M 20.925628,115.08942 L 33.532548,115.00032 L 31.795198,125.86988 C 28.633838,127.19271 25.679158,126.65545 22.752068,125.86989 L 20.925628,115.08942 z "
               id="path7045"
               sodipodi:nodetypes="ccccc" />
            <rect
               style="opacity:1;color:#000000;fill:#275052;fill-opacity:1;fill-rule:evenodd;stroke:none;stroke-width:0.12584825px;stroke-linecap:butt;stroke-linejoin:miter;marker:none;marker-start:none;marker-mid:none;marker-end:none;stroke-miterlimit:4;stroke-dasharray:none;stroke-dashoffset:0;stroke-opacity:1;visibility:visible;display:inline;overflow:visible"
               id="rect7047"
               width="14.52246"
               height="1.7373495"
               x="19.990141"
               y="113.70844"
               ry="0.6236639"
               rx="0.61673415" />
            <path
               style="fill:#275052;fill-opacity:1;fill-rule:evenodd;stroke:none;stroke-width:1px;stroke-linecap:butt;stroke-linejoin:miter;stroke-opacity:1"
               d="M 29.532568,116.10926 C 28.804318,119.42255 28.547328,122.55636 29.095068,125.35926 L 29.876318,125.32801 L 31.720068,117.60926 C 31.879708,116.75247 31.066068,116.09552 30.251318,116.10926 L 29.532568,116.10926 z M 24.095068,116.14051 C 23.429568,116.25277 23.062488,116.46765 22.876318,116.70301 C 22.831068,116.76481 22.778598,116.85535 22.751318,116.92176 C 22.650678,117.18957 22.673688,117.51527 22.626318,117.79676 L 24.876318,125.45301 L 25.532568,125.42176 C 26.171798,122.64155 25.538188,119.41302 24.782568,116.14051 L 24.095068,116.14051 z "
               id="path7931" />
          </g>
        </g>
      </g>
      <g
         transform="matrix(1.011201,0,0,1,90.60392,-70.42364)"
         id="g1359">
        <g
           id="g2347">
          <rect
             y="109.39024"
             x="56.974113"
             height="20"
             width="19.778461"
             id="rect9684"
             style="fill:#ffffff;fill-opacity:1;fill-rule:evenodd;stroke:none;stroke-width:0.12584825px;stroke-linecap:butt;stroke-linejoin:miter;stroke-opacity:1" />
          <g
             id="g2341"
             transform="translate(-0.388036,0.188431)">
            <path
               style="opacity:1;color:#000000;fill:#275052;fill-opacity:1;fill-rule:evenodd;stroke:none;stroke-width:0.12584825px;stroke-linecap:butt;stroke-linejoin:miter;marker:none;marker-start:none;marker-mid:none;marker-end:none;stroke-miterlimit:4;stroke-dasharray:none;stroke-dashoffset:0;stroke-opacity:1;visibility:visible;display:inline;overflow:visible"
               d="M 65.264358,111.73159 C 65.211818,111.73689 65.155918,111.77665 65.108108,111.79409 C 64.958778,111.85704 64.827308,111.98851 64.764358,112.13784 C 64.739948,112.20477 64.701858,112.28101 64.701858,112.35659 L 64.701858,114.32534 C 64.701858,114.43331 64.747718,114.54946 64.795608,114.63784 C 64.816398,114.67213 64.862558,114.73333 64.889358,114.76284 C 65.002088,114.87557 65.154108,114.95033 65.326858,114.95034 L 65.389358,114.95034 L 65.389358,113.29409 C 65.389358,113.15373 65.436678,113.02309 65.514358,112.91909 C 65.546078,112.88062 65.599358,112.82397 65.639358,112.79409 C 65.738868,112.72698 65.884788,112.66909 66.014358,112.66909 L 68.233108,112.66909 C 68.384268,112.66909 68.531638,112.73651 68.639358,112.82534 C 68.698368,112.87895 68.760658,112.97135 68.795608,113.04409 C 68.827088,113.11875 68.858108,113.20771 68.858108,113.29409 L 68.858108,114.95034 L 69.045608,114.95034 C 69.110388,114.95034 69.174448,114.93726 69.233108,114.91909 C 69.319158,114.8877 69.419698,114.82625 69.483108,114.76284 C 69.509918,114.73333 69.556068,114.67213 69.576858,114.63784 C 69.624748,114.54946 69.670608,114.43332 69.670608,114.32534 L 69.670608,112.35659 C 69.670608,112.28101 69.632518,112.20477 69.608108,112.13784 C 69.513678,111.91385 69.304738,111.73159 69.045608,111.73159 L 65.326858,111.73159 C 65.305268,111.73159 65.285378,111.72947 65.264358,111.73159 z "
               id="path9686" />
            <path
               style="fill:#4d7981;fill-opacity:1;fill-rule:evenodd;stroke:none;stroke-width:1px;stroke-linecap:butt;stroke-linejoin:miter;stroke-opacity:1"
               d="M 60.925628,115.08942 L 73.532548,115.00032 L 71.795198,125.86988 C 68.633838,127.19271 65.679158,126.65545 62.752068,125.86989 L 60.925628,115.08942 z "
               id="path9688"
               sodipodi:nodetypes="ccccc" />
            <rect
               style="opacity:1;color:#000000;fill:#275052;fill-opacity:1;fill-rule:evenodd;stroke:none;stroke-width:0.12584825px;stroke-linecap:butt;stroke-linejoin:miter;marker:none;marker-start:none;marker-mid:none;marker-end:none;stroke-miterlimit:4;stroke-dasharray:none;stroke-dashoffset:0;stroke-opacity:1;visibility:visible;display:inline;overflow:visible"
               id="rect9690"
               width="14.52246"
               height="1.7373495"
               x="59.99015"
               y="113.70844"
               ry="0.6236639"
               rx="0.61675578" />
            <path
               style="fill:#7ba1a3;fill-opacity:1;fill-rule:nonzero;stroke:none;stroke-width:1px;stroke-linecap:butt;stroke-linejoin:miter;stroke-opacity:1"
               d="M 70.438818,116.64051 C 69.624418,116.74274 68.978938,117.34137 68.032568,117.89051 C 67.587618,118.50451 67.670938,119.3201 67.876318,120.01551 C 68.210108,120.75068 68.586898,121.43332 68.845068,122.20301 C 68.974558,122.59543 69.023538,122.92027 68.970068,123.20301 C 68.961698,123.24163 68.951258,123.29082 68.938818,123.32801 C 68.439578,123.40315 67.842908,123.50398 67.407568,123.48426 C 66.386388,123.37968 65.425958,123.0214 64.470068,122.67176 C 64.070198,122.56029 63.632018,122.55552 63.220068,122.54676 L 62.251318,123.23426 L 62.345068,123.79676 C 62.469808,123.80713 62.596728,123.83489 62.720068,123.85926 C 63.708388,124.17165 64.678318,124.55435 65.720068,124.67176 C 67.532388,124.87688 68.688808,124.44478 70.251318,123.32801 C 70.320808,123.27338 70.382088,123.19716 70.438818,123.14051 C 70.958248,122.599 70.939308,121.94206 70.688818,121.17176 C 70.428828,120.40279 70.022628,119.71777 69.688818,118.98426 C 69.602908,118.65811 69.560608,118.29244 69.595068,117.95301 C 69.654628,117.95936 69.716858,117.94556 69.782568,117.95301 C 70.674368,118.25765 71.502458,118.67648 72.282568,119.20301 L 72.938818,118.73426 L 73.032568,117.51551 C 72.528068,117.26658 72.027448,116.99685 71.501318,116.79676 C 71.106128,116.65653 70.757498,116.60051 70.438818,116.64051 z "
               id="path9704" />
          </g>
        </g>
      </g>
      <text
         xml:space="preserve"
         style="font-size:12px;font-style:normal;font-weight:normal;fill:#000000;fill-opacity:1;stroke:none;stroke-width:1px;stroke-linecap:butt;stroke-linejoin:miter;stroke-opacity:1;font-family:Bitstream Vera Sans"
         x="106.49027"
         y="79.241455"
         id="text1382"><tspan
           sodipodi:role="line"
           x="106.49027"
           y="79.241455"
           id="tspan1384">iDelete.png</tspan></text>
      <rect
         ry="6.0847325"
         rx="6.0847325"
         y="30.38098"
         x="99.295105"
         height="57.936169"
         width="83.800491"
         id="rect1386"
         style="opacity:1;color:#000000;fill:none;fill-opacity:1;fill-rule:evenodd;stroke:#d3d3d3;stroke-width:0.72536373;stroke-linecap:butt;stroke-linejoin:miter;marker:none;marker-start:none;marker-mid:none;marker-end:none;stroke-miterlimit:4;stroke-dasharray:none;stroke-dashoffset:0;stroke-opacity:1;visibility:visible;display:inline;overflow:visible" />
    </g>
    <rect
       ry="6.0847325"
       rx="6.0847325"
       y="30.38098"
       x="9.8963375"
       height="57.936169"
       width="83.800491"
       id="rect2275"
       style="opacity:1;color:#000000;fill:none;fill-opacity:1;fill-rule:evenodd;stroke:#d3d3d3;stroke-width:0.72536373;stroke-linecap:butt;stroke-linejoin:miter;marker:none;marker-start:none;marker-mid:none;marker-end:none;stroke-miterlimit:4;stroke-dasharray:none;stroke-dashoffset:0;stroke-opacity:1;visibility:visible;display:inline;overflow:visible" />
  </g>
</svg>
