<?xml version="1.0" encoding="UTF-8" standalone="no"?>
<!-- Created with Inkscape (http://www.inkscape.org/) -->
<svg
   xmlns:dc="http://purl.org/dc/elements/1.1/"
   xmlns:cc="http://web.resource.org/cc/"
   xmlns:rdf="http://www.w3.org/1999/02/22-rdf-syntax-ns#"
   xmlns:svg="http://www.w3.org/2000/svg"
   xmlns="http://www.w3.org/2000/svg"
   xmlns:sodipodi="http://inkscape.sourceforge.net/DTD/sodipodi-0.dtd"
   xmlns:inkscape="http://www.inkscape.org/namespaces/inkscape"
   width="744.09448819"
   height="1052.3622047"
   id="svg17252"
   sodipodi:version="0.32"
   inkscape:version="0.43"
   sodipodi:docbase="/home/rhwinter/dev/cvs/estudiolivre/layout"
   sodipodi:docname="iKarma.svg">
  <defs
     id="defs17254" />
  <sodipodi:namedview
     id="base"
     pagecolor="#ffffff"
     bordercolor="#666666"
     borderopacity="1.0"
     inkscape:pageopacity="0.0"
     inkscape:pageshadow="2"
     inkscape:zoom="2.1665289"
     inkscape:cx="402.85714"
     inkscape:cy="708.57143"
     inkscape:document-units="px"
     inkscape:current-layer="layer1"
     inkscape:window-width="1592"
     inkscape:window-height="1086"
     inkscape:window-x="0"
     inkscape:window-y="64" />
  <metadata
     id="metadata17257">
    <rdf:RDF>
      <cc:Work
         rdf:about="">
        <dc:format>image/svg+xml</dc:format>
        <dc:type
           rdf:resource="http://purl.org/dc/dcmitype/StillImage" />
      </cc:Work>
    </rdf:RDF>
  </metadata>
  <g
     inkscape:label="Layer 1"
     inkscape:groupmode="layer"
     id="layer1">
    <g
       id="g14601"
       transform="matrix(0.64491,0,0,0.64491,178.8948,138.1003)">
      <path
         transform="translate(55.43753,0.723912)"
         d="M 119.32736 93.024162 A 21.74185 21.573307 0 1 1  75.84366,93.024162 A 21.74185 21.573307 0 1 1  119.32736 93.024162 z"
         sodipodi:ry="21.573307"
         sodipodi:rx="21.74185"
         sodipodi:cy="93.024162"
         sodipodi:cx="97.58551"
         id="path11970"
         style="fill:#ffe931;fill-opacity:1;stroke:none;stroke-opacity:1"
         sodipodi:type="arc" />
      <path
         id="path11972"
         d="M 151.68294,71.005162 C 139.80801,71.532372 130.33919,81.344702 130.33919,93.348912 C 130.33919,105.69059 140.37251,115.72391 152.71419,115.72391 C 165.05587,115.72391 175.05794,105.6906 175.05794,93.348912 C 175.05794,81.007232 165.05587,71.005162 152.71419,71.005162 C 152.37673,71.005162 152.01678,70.990342 151.68294,71.005162 z M 151.90169,72.786412 C 152.16538,72.776382 152.44807,72.786412 152.71419,72.786412 C 164.0689,72.786412 173.27669,81.994212 173.27669,93.348912 C 173.27669,104.70362 164.0689,113.91141 152.71419,113.91141 C 141.35949,113.91141 132.12044,104.70362 132.12044,93.348912 C 132.12045,82.260342 140.91484,73.204472 151.90169,72.786412 z "
         style="fill:#000000;fill-opacity:1;stroke:none;stroke-opacity:1" />
      <g
         transform="translate(58.85271,-1.276088)"
         id="g11974">
        <path
           sodipodi:type="arc"
           style="fill:#000000;fill-opacity:1;stroke:none;stroke-opacity:1"
           id="path11976"
           sodipodi:cx="132.42532"
           sodipodi:cy="77.166328"
           sodipodi:rx="1.9681046"
           sodipodi:ry="7.1695242"
           d="M 134.39343 77.166328 A 1.9681046 7.1695242 0 1 1  130.45722,77.166328 A 1.9681046 7.1695242 0 1 1  134.39343 77.166328 z"
           transform="matrix(1,0,0,0.352942,-43.57946,59.34994)" />
        <path
           sodipodi:type="arc"
           style="fill:#000000;fill-opacity:1;stroke:none;stroke-opacity:1"
           id="path11978"
           sodipodi:cx="132.42532"
           sodipodi:cy="77.166328"
           sodipodi:rx="1.9681046"
           sodipodi:ry="7.1695242"
           d="M 134.39343 77.166328 A 1.9681046 7.1695242 0 1 1  130.45722,77.166328 A 1.9681046 7.1695242 0 1 1  134.39343 77.166328 z"
           transform="matrix(1,0,0,0.352942,-33.57946,59.34994)" />
      </g>
      <path
         id="path11980"
         d="M 138.30289,94.828162 C 138.63176,101.58372 144.97129,106.97728 152.72116,106.97728 C 160.47103,106.97728 166.7844,101.58374 167.11227,94.828162 L 165.97184,94.828162 C 165.64499,101.02239 159.83458,105.94891 152.72116,105.94891 C 145.60775,105.94891 139.77127,101.02239 139.44332,94.828162 L 138.30289,94.828162 z "
         style="fill:#000000;fill-opacity:1;stroke:none;stroke-opacity:1" />
    </g>
    <path
       transform="matrix(0.644908,0,0,0.644908,177.1847,138.1004)"
       d="M 119.32736 93.024162 A 21.74185 21.573307 0 1 1  75.84366,93.024162 A 21.74185 21.573307 0 1 1  119.32736 93.024162 z"
       sodipodi:ry="21.573307"
       sodipodi:rx="21.74185"
       sodipodi:cy="93.024162"
       sodipodi:cx="97.58551"
       id="path10220"
       style="fill:#e9e9e9;fill-opacity:1;stroke:none;stroke-opacity:1"
       sodipodi:type="arc" />
    <path
       id="path7581"
       d="M 239.25404,183.42536 C 231.59579,183.76536 225.48926,190.09342 225.48926,197.83504 C 225.48926,205.7943 231.95983,212.26487 239.91909,212.26487 C 247.87835,212.26487 254.32877,205.7943 254.32877,197.83504 C 254.32877,189.87578 247.87835,183.42536 239.91909,183.42536 C 239.70146,183.42536 239.46932,183.4158 239.25404,183.42536 z M 239.39512,184.57411 C 239.56516,184.56763 239.74747,184.57411 239.91909,184.57411 C 247.24185,184.57411 253.18002,190.5123 253.18002,197.83504 C 253.18002,205.15778 247.24185,211.09597 239.91909,211.09597 C 232.59635,211.09597 226.63801,205.15778 226.63801,197.83504 C 226.63801,190.68393 232.30958,184.84371 239.39512,184.57411 z "
       style="fill:#656565;fill-opacity:1;stroke:none;stroke-opacity:1" />
    <g
       transform="matrix(0.644908,0,0,0.644908,179.3871,136.8106)"
       id="g10209"
       style="fill:#656565;fill-opacity:1">
      <path
         sodipodi:type="arc"
         style="fill:#656565;fill-opacity:1;stroke:none;stroke-opacity:1"
         id="path9332"
         sodipodi:cx="132.42532"
         sodipodi:cy="77.166328"
         sodipodi:rx="1.9681046"
         sodipodi:ry="7.1695242"
         d="M 134.39343 77.166328 A 1.9681046 7.1695242 0 1 1  130.45722,77.166328 A 1.9681046 7.1695242 0 1 1  134.39343 77.166328 z"
         transform="matrix(1,0,0,0.352942,-43.57946,59.34994)" />
      <path
         sodipodi:type="arc"
         style="fill:#656565;fill-opacity:1;stroke:none;stroke-opacity:1"
         id="path10207"
         sodipodi:cx="132.42532"
         sodipodi:cy="77.166328"
         sodipodi:rx="1.9681046"
         sodipodi:ry="7.1695242"
         d="M 134.39343 77.166328 A 1.9681046 7.1695242 0 1 1  130.45722,77.166328 A 1.9681046 7.1695242 0 1 1  134.39343 77.166328 z"
         transform="matrix(1,0,0,0.352942,-33.57946,59.34994)" />
    </g>
    <path
       style="fill:#656565;fill-opacity:1;stroke:none;stroke-opacity:1"
       d="M 230.7028,199.25588 C 230.9149,203.6126 235.00331,207.09095 240.00127,207.09095 C 244.99924,207.09095 249.07078,203.61261 249.28223,199.25588 L 248.54676,199.25588 C 248.33597,203.25058 244.58877,206.42775 240.00127,206.42775 C 235.41377,206.42775 231.64978,203.25058 231.43828,199.25588 L 230.7028,199.25588 z "
       id="path14617" />
    <rect
       style="fill:#dddddd;fill-opacity:1;stroke:none;stroke-opacity:1"
       id="rect18151"
       width="25.847797"
       height="25.847797"
       x="227.09135"
       y="237.4332"
       rx="4.8464613"
       ry="4.8464613" />
    <path
       style="fill:#929292;fill-opacity:1;stroke:none;stroke-opacity:1"
       d="M 229.36167,236.11404 C 227.82319,236.24985 226.62752,237.54473 226.62752,239.11967 L 226.62752,260.27537 C 226.62752,261.94141 227.9671,263.281 229.63314,263.28099 L 250.42041,263.28099 C 252.08646,263.28099 253.42603,261.94141 253.42603,260.27537 L 253.42603,239.11967 C 253.42603,237.45362 252.08646,236.11404 250.42041,236.11404 L 229.63314,236.11404 C 229.54203,236.11404 229.45067,236.10619 229.36167,236.11404 z M 230.73844,237.54899 C 230.83978,237.53875 230.94456,237.54899 231.04869,237.54899 L 249.00486,237.54899 C 250.67091,237.54899 252.01048,238.88856 252.01048,240.55461 L 252.01048,258.84042 C 252.01048,260.50647 250.67091,261.84605 249.00486,261.84605 L 231.04869,261.84605 C 229.38265,261.84605 228.04307,260.50647 228.04307,258.84042 L 228.04307,240.55461 C 228.04307,238.99268 229.2183,237.70244 230.73844,237.54899 z "
       id="rect17273" />
    <rect
       style="fill:#e10000;fill-opacity:1;stroke:none;stroke-opacity:1"
       id="rect18153"
       width="25.847797"
       height="25.847797"
       x="266.31082"
       y="237.4332"
       rx="4.8464613"
       ry="4.8464613" />
    <path
       style="fill:#000000;fill-opacity:1;stroke:none;stroke-opacity:1"
       d="M 269.04498,236.11404 C 267.5065,236.24985 266.31083,237.54473 266.31083,239.11967 L 266.31083,260.27537 C 266.31083,261.94141 267.65041,263.281 269.31645,263.28099 L 290.10372,263.28099 C 291.76977,263.28099 293.10934,261.94141 293.10934,260.27537 L 293.10934,239.11967 C 293.10934,237.45362 291.76977,236.11404 290.10372,236.11404 L 269.31645,236.11404 C 269.22534,236.11404 269.13398,236.10619 269.04498,236.11404 z M 270.42175,237.54899 C 270.52309,237.53875 270.62787,237.54899 270.732,237.54899 L 288.68817,237.54899 C 290.35422,237.54899 291.69379,238.88856 291.69379,240.55461 L 291.69379,258.84042 C 291.69379,260.50647 290.35422,261.84605 288.68817,261.84605 L 270.732,261.84605 C 269.06596,261.84605 267.72638,260.50647 267.72638,258.84042 L 267.72638,240.55461 C 267.72638,238.99268 268.90161,237.70244 270.42175,237.54899 z "
       id="path18155" />
    <rect
       style="fill:#ff890f;fill-opacity:1;stroke:none;stroke-opacity:1"
       id="rect18157"
       width="25.847797"
       height="25.847797"
       x="300.46683"
       y="237.4332"
       rx="4.8464613"
       ry="4.8464613" />
    <path
       style="fill:#000000;fill-opacity:1;stroke:none;stroke-opacity:1"
       d="M 303.201,236.11404 C 301.66252,236.24985 300.46685,237.54473 300.46685,239.11967 L 300.46685,260.27537 C 300.46685,261.94141 301.80643,263.281 303.47247,263.28099 L 324.25974,263.28099 C 325.92579,263.28099 327.26536,261.94141 327.26536,260.27537 L 327.26536,239.11967 C 327.26536,237.45362 325.92579,236.11404 324.25974,236.11404 L 303.47247,236.11404 C 303.38136,236.11404 303.29,236.10619 303.201,236.11404 z M 304.57777,237.54899 C 304.67911,237.53875 304.78389,237.54899 304.88802,237.54899 L 322.84419,237.54899 C 324.51024,237.54899 325.84981,238.88856 325.84981,240.55461 L 325.84981,258.84042 C 325.84981,260.50647 324.51024,261.84605 322.84419,261.84605 L 304.88802,261.84605 C 303.22198,261.84605 301.8824,260.50647 301.8824,258.84042 L 301.8824,240.55461 C 301.8824,238.99268 303.05763,237.70244 304.57777,237.54899 z "
       id="path18159" />
    <rect
       style="fill:#ffb50f;fill-opacity:1;stroke:none;stroke-opacity:1"
       id="rect18161"
       width="25.847797"
       height="25.847797"
       x="334.62283"
       y="237.4332"
       rx="4.8464613"
       ry="4.8464613" />
    <path
       style="fill:#000000;fill-opacity:1;stroke:none;stroke-opacity:1"
       d="M 337.35702,236.11404 C 335.81854,236.24985 334.62287,237.54473 334.62287,239.11967 L 334.62287,260.27537 C 334.62287,261.94141 335.96245,263.281 337.62849,263.28099 L 358.41576,263.28099 C 360.08181,263.28099 361.42138,261.94141 361.42138,260.27537 L 361.42138,239.11967 C 361.42138,237.45362 360.08181,236.11404 358.41576,236.11404 L 337.62849,236.11404 C 337.53738,236.11404 337.44602,236.10619 337.35702,236.11404 z M 338.73379,237.54899 C 338.83513,237.53875 338.93991,237.54899 339.04404,237.54899 L 357.00021,237.54899 C 358.66626,237.54899 360.00583,238.88856 360.00583,240.55461 L 360.00583,258.84042 C 360.00583,260.50647 358.66626,261.84605 357.00021,261.84605 L 339.04404,261.84605 C 337.378,261.84605 336.03842,260.50647 336.03842,258.84042 L 336.03842,240.55461 C 336.03842,238.99268 337.21365,237.70244 338.73379,237.54899 z "
       id="path18163" />
    <rect
       style="fill:#ffeb0d;fill-opacity:1;stroke:none;stroke-opacity:1"
       id="rect18165"
       width="25.847797"
       height="25.847797"
       x="367.85571"
       y="237.4332"
       rx="4.8464613"
       ry="4.8464613" />
    <path
       style="fill:#000000;fill-opacity:1;stroke:none;stroke-opacity:1"
       d="M 370.5899,236.11404 C 369.05142,236.24985 367.85575,237.54473 367.85575,239.11967 L 367.85575,260.27537 C 367.85575,261.94141 369.19533,263.281 370.86137,263.28099 L 391.64864,263.28099 C 393.31469,263.28099 394.65426,261.94141 394.65426,260.27537 L 394.65426,239.11967 C 394.65426,237.45362 393.31469,236.11404 391.64864,236.11404 L 370.86137,236.11404 C 370.77026,236.11404 370.6789,236.10619 370.5899,236.11404 z M 371.96667,237.54899 C 372.06801,237.53875 372.17279,237.54899 372.27692,237.54899 L 390.23309,237.54899 C 391.89914,237.54899 393.23871,238.88856 393.23871,240.55461 L 393.23871,258.84042 C 393.23871,260.50647 391.89914,261.84605 390.23309,261.84605 L 372.27692,261.84605 C 370.61088,261.84605 369.2713,260.50647 369.2713,258.84042 L 369.2713,240.55461 C 369.2713,238.99268 370.44653,237.70244 371.96667,237.54899 z "
       id="path18167" />
    <rect
       style="fill:#cef000;fill-opacity:1;stroke:none;stroke-opacity:1"
       id="rect18169"
       width="25.847797"
       height="25.847797"
       x="401.08859"
       y="237.4332"
       rx="4.8464613"
       ry="4.8464613" />
    <path
       style="fill:#000000;fill-opacity:1;stroke:none;stroke-opacity:1"
       d="M 403.82278,236.11404 C 402.2843,236.24985 401.08863,237.54473 401.08863,239.11967 L 401.08863,260.27537 C 401.08863,261.94141 402.42821,263.281 404.09425,263.28099 L 424.88152,263.28099 C 426.54757,263.28099 427.88714,261.94141 427.88714,260.27537 L 427.88714,239.11967 C 427.88714,237.45362 426.54757,236.11404 424.88152,236.11404 L 404.09425,236.11404 C 404.00314,236.11404 403.91178,236.10619 403.82278,236.11404 z M 405.19955,237.54899 C 405.30089,237.53875 405.40567,237.54899 405.5098,237.54899 L 423.46597,237.54899 C 425.13202,237.54899 426.47159,238.88856 426.47159,240.55461 L 426.47159,258.84042 C 426.47159,260.50647 425.13202,261.84605 423.46597,261.84605 L 405.5098,261.84605 C 403.84376,261.84605 402.50418,260.50647 402.50418,258.84042 L 402.50418,240.55461 C 402.50418,238.99268 403.67941,237.70244 405.19955,237.54899 z "
       id="path18171" />
  </g>
</svg>
