<?xml version="1.0" encoding="UTF-8" standalone="no"?>
<!-- Created with Inkscape (http://www.inkscape.org/) -->
<svg
   xmlns:dc="http://purl.org/dc/elements/1.1/"
   xmlns:cc="http://web.resource.org/cc/"
   xmlns:rdf="http://www.w3.org/1999/02/22-rdf-syntax-ns#"
   xmlns:svg="http://www.w3.org/2000/svg"
   xmlns="http://www.w3.org/2000/svg"
   xmlns:xlink="http://www.w3.org/1999/xlink"
   xmlns:sodipodi="http://inkscape.sourceforge.net/DTD/sodipodi-0.dtd"
   xmlns:inkscape="http://www.inkscape.org/namespaces/inkscape"
   width="744.09448819"
   height="1052.3622047"
   id="svg2"
   sodipodi:version="0.32"
   inkscape:version="0.43"
   sodipodi:docbase="/home/rhwinter/docs/programacao/eclipse/eclipse_workspace/estudiolivre/layout"
   sodipodi:docname="ligthbox_nao+logado_tooltips.svg">
  <defs
     id="defs4">
    <linearGradient
       inkscape:collect="always"
       id="linearGradient4414">
      <stop
         style="stop-color:#ff766f;stop-opacity:1;"
         offset="0"
         id="stop4416" />
      <stop
         style="stop-color:#ff5756;stop-opacity:1"
         offset="1"
         id="stop4418" />
    </linearGradient>
    <linearGradient
       inkscape:collect="always"
       xlink:href="#linearGradient4414"
       id="linearGradient4420"
       x1="309.60422"
       y1="-172.02419"
       x2="314.0495"
       y2="-172.25586"
       gradientUnits="userSpaceOnUse"
       gradientTransform="matrix(0.61956,-2.86268e-16,2.501231e-16,0.61956,83.45254,-56.7328)" />
    <linearGradient
       inkscape:collect="always"
       id="linearGradient3517">
      <stop
         style="stop-color:#d8d100;stop-opacity:1"
         offset="0"
         id="stop3519" />
      <stop
         style="stop-color:#9d9b34;stop-opacity:1"
         offset="1"
         id="stop3521" />
    </linearGradient>
    <linearGradient
       inkscape:collect="always"
       xlink:href="#linearGradient3517"
       id="linearGradient3523"
       x1="308.05234"
       y1="183.21906"
       x2="315.43578"
       y2="183.21906"
       gradientUnits="userSpaceOnUse"
       gradientTransform="matrix(0.61956,2.86268e-16,-2.501231e-16,0.61956,83.45254,56.7328)" />
    <linearGradient
       inkscape:collect="always"
       id="linearGradient3525">
      <stop
         style="stop-color:#b5b5b5;stop-opacity:1;"
         offset="0"
         id="stop3527" />
      <stop
         style="stop-color:#514e4f;stop-opacity:1"
         offset="1"
         id="stop3529" />
    </linearGradient>
    <linearGradient
       inkscape:collect="always"
       xlink:href="#linearGradient3525"
       id="linearGradient3531"
       x1="308.05234"
       y1="174.65259"
       x2="315.43578"
       y2="174.65259"
       gradientUnits="userSpaceOnUse"
       gradientTransform="matrix(0.61956,2.86268e-16,-2.501231e-16,0.61956,83.45254,56.7328)" />
    <linearGradient
       inkscape:collect="always"
       id="linearGradient3533">
      <stop
         style="stop-color:#ffd5ab;stop-opacity:1;"
         offset="0"
         id="stop3535" />
      <stop
         style="stop-color:#ff943f;stop-opacity:1"
         offset="1"
         id="stop3537" />
    </linearGradient>
    <linearGradient
       inkscape:collect="always"
       xlink:href="#linearGradient3533"
       id="linearGradient3539"
       x1="64.49707"
       y1="350.76138"
       x2="72.992793"
       y2="351.42873"
       gradientUnits="userSpaceOnUse" />
    <marker
       inkscape:stockid="Club"
       orient="auto"
       refY="0.0"
       refX="0.0"
       id="Club"
       style="overflow:visible">
      <path
         id="path5745"
         d="M -1.5971367,-7.0977635 C -3.4863874,-7.0977635 -5.0235187,-5.5606321 -5.0235187,-3.6713813 C -5.0235187,-3.0147015 -4.7851656,-2.4444556 -4.4641095,-1.9232271 C -4.5028609,-1.8911157 -4.5437814,-1.8647646 -4.5806531,-1.8299921 C -5.2030765,-2.6849849 -6.1700514,-3.2751330 -7.3077730,-3.2751330 C -9.1970245,-3.2751331 -10.734155,-1.7380016 -10.734155,0.15124914 C -10.734155,2.0404999 -9.1970245,3.5776313 -7.3077730,3.5776313 C -6.3143268,3.5776313 -5.4391540,3.1355702 -4.8137404,2.4588126 C -4.9384274,2.8137041 -5.0235187,3.1803000 -5.0235187,3.5776313 C -5.0235187,5.4668819 -3.4863874,7.0040135 -1.5971367,7.0040135 C 0.29211394,7.0040135 1.8292454,5.4668819 1.8292454,3.5776313 C 1.8292454,2.7842354 1.5136868,2.0838028 1.0600576,1.5031550 C 2.4152718,1.7663868 3.7718375,2.2973711 4.7661444,3.8340272 C 4.0279463,3.0958289 3.5540908,1.7534117 3.5540908,-0.058529361 L 2.9247554,-0.10514681 L 3.5074733,-0.12845553 C 3.5074733,-1.9403966 3.9580199,-3.2828138 4.6962183,-4.0210121 C 3.7371277,-2.5387813 2.4390549,-1.9946496 1.1299838,-1.7134486 C 1.5341802,-2.2753578 1.8292454,-2.9268556 1.8292454,-3.6713813 C 1.8292454,-5.5606319 0.29211394,-7.0977635 -1.5971367,-7.0977635 z "
         style="fill-rule:evenodd;stroke:#000000;stroke-width:0.74587913pt;marker-start:none"
         transform="scale(0.6)" />
    </marker>
  </defs>
  <sodipodi:namedview
     id="base"
     pagecolor="#ffffff"
     bordercolor="#666666"
     borderopacity="1.0"
     inkscape:pageopacity="0.0"
     inkscape:pageshadow="2"
     inkscape:zoom="4"
     inkscape:cx="176.24814"
     inkscape:cy="647.28754"
     inkscape:document-units="px"
     inkscape:current-layer="g3938"
     inkscape:window-width="1592"
     inkscape:window-height="1086"
     inkscape:window-x="0"
     inkscape:window-y="58" />
  <metadata
     id="metadata7">
    <rdf:RDF>
      <cc:Work
         rdf:about="">
        <dc:format>image/svg+xml</dc:format>
        <dc:type
           rdf:resource="http://purl.org/dc/dcmitype/StillImage" />
      </cc:Work>
    </rdf:RDF>
  </metadata>
  <g
     id="layer1"
     inkscape:groupmode="layer"
     inkscape:label="Layer 1">
    <rect
       rx="28.830484"
       ry="28.830484"
       y="26.81773"
       x="39.898705"
       height="211.31535"
       width="295.54596"
       id="rect1307"
       style="opacity:1;fill:#ffffff;fill-opacity:1;stroke:#7ad022;stroke-width:1.65499997;stroke-linejoin:round;stroke-miterlimit:4;stroke-dasharray:none;stroke-opacity:1" />
    <text
       sodipodi:linespacing="100%"
       id="text2182"
       y="65.259193"
       x="187.6562"
       style="font-size:15.07041264px;font-style:normal;font-variant:normal;font-weight:normal;font-stretch:normal;text-align:center;line-height:100%;writing-mode:lr-tb;text-anchor:middle;fill:#000000;fill-opacity:1;stroke:none;stroke-width:1px;stroke-linecap:butt;stroke-linejoin:miter;stroke-opacity:1;font-family:URW Gothic L"
       xml:space="preserve"><tspan
         y="65.259193"
         x="187.6562"
         id="tspan2184"
         sodipodi:role="line"><tspan
   style="font-size:21.52916145px;font-style:normal;font-variant:normal;font-weight:normal;font-stretch:normal;text-align:center;line-height:100%;writing-mode:lr-tb;text-anchor:middle;font-family:URW Gothic L"
   id="tspan2202">Você não está logado</tspan>.</tspan><tspan
         id="tspan2186"
         y="86.788355"
         x="187.6562"
         sodipodi:role="line" /><tspan
         style="font-size:20px;font-style:normal;font-variant:normal;font-weight:normal;font-stretch:normal;text-align:center;line-height:100%;writing-mode:lr-tb;text-anchor:middle;font-family:URW Gothic L"
         id="tspan2188"
         y="107.28753"
         x="187.6562"
         sodipodi:role="line">&gt;&gt; cadastre-se</tspan><tspan
         style="font-size:15.07041264px;font-style:normal;font-variant:normal;font-weight:normal;font-stretch:normal;text-align:end;line-height:100%;writing-mode:lr-tb;text-anchor:end;font-family:URW Gothic L"
         id="tspan2194"
         y="127.28753"
         x="187.6562"
         sodipodi:role="line" /></text>
    <rect
       ry="0"
       rx="0"
       y="135.03612"
       x="57.631462"
       height="36.943245"
       width="234.95903"
       id="rect3964"
       style="opacity:1;color:#000000;fill:#ffffff;fill-opacity:1;fill-rule:nonzero;stroke:#b8b8b8;stroke-width:1.65499997;stroke-linecap:butt;stroke-linejoin:round;marker:none;marker-start:none;marker-mid:none;marker-end:none;stroke-miterlimit:4;stroke-dasharray:none;stroke-dashoffset:0;stroke-opacity:1;visibility:visible;display:inline;overflow:visible" />
    <rect
       ry="0"
       rx="0"
       y="179.03612"
       x="57.631462"
       height="36.943245"
       width="234.95903"
       id="rect4841"
       style="opacity:1;color:#000000;fill:#ffffff;fill-opacity:1;fill-rule:nonzero;stroke:#b8b8b8;stroke-width:1.65499997;stroke-linecap:butt;stroke-linejoin:round;marker:none;marker-start:none;marker-mid:none;marker-end:none;stroke-miterlimit:4;stroke-dasharray:none;stroke-dashoffset:0;stroke-opacity:1;visibility:visible;display:inline;overflow:visible" />
    <text
       sodipodi:linespacing="225%"
       id="text2208"
       y="158.61711"
       x="70.676071"
       style="font-size:20.10557556px;font-style:normal;font-variant:normal;font-weight:normal;font-stretch:normal;text-align:start;line-height:225%;writing-mode:lr-tb;text-anchor:start;fill:#000000;fill-opacity:1;stroke:none;stroke-width:1px;stroke-linecap:butt;stroke-linejoin:miter;stroke-opacity:1;font-family:URW Gothic L"
       xml:space="preserve"><tspan
         y="158.61711"
         x="70.676071"
         id="tspan2210"
         sodipodi:role="line">login</tspan><tspan
         id="tspan2212"
         y="203.85466"
         x="70.676071"
         sodipodi:role="line">senha</tspan></text>
    <rect
       rx="4.4331894"
       ry="4.4331894"
       y="112.95924"
       x="112.30746"
       height="2.9554596"
       width="153.6839"
       id="rect2214"
       style="opacity:1;fill:#f20000;fill-opacity:1;stroke:none;stroke-width:1.65499997;stroke-linejoin:round;stroke-miterlimit:4;stroke-dasharray:none;stroke-opacity:1" />
    <path
       sodipodi:nodetypes="cccccccc"
       id="path4867"
       d="M 304.41233,201.90162 C 305.62588,202.67672 307.35818,201.36989 306.6005,210.05621 C 311.46934,201.68816 317.58038,192.81764 326.13773,191.02883 C 326.13773,191.02883 326.13773,191.02883 326.13773,191.02883 C 326.08563,191.09853 326.65872,189.2864 326.60663,189.35609 C 316.00807,190.95307 311.37905,198.23244 307.53829,205.66527 C 307.74645,203.79726 308.65002,202.30137 306.9131,199.39251 C 306.07951,198.78029 305.24592,199.76364 304.41233,201.90162 z "
       style="fill:#000000;fill-opacity:1;fill-rule:evenodd;stroke:none;stroke-width:1px;stroke-linecap:butt;stroke-linejoin:miter;marker-mid:none;marker-end:none;stroke-opacity:1" />
    <rect
       y="279.8252"
       x="39.823254"
       height="58.159744"
       width="68.035927"
       id="rect16627"
       style="opacity:1;color:#000000;fill:#ffffff;fill-opacity:1;fill-rule:nonzero;stroke:#4a4a4a;stroke-width:2.20000005;stroke-linecap:butt;stroke-linejoin:round;marker:none;marker-start:none;marker-mid:none;marker-end:none;stroke-miterlimit:7.30000019;stroke-dasharray:none;stroke-dashoffset:0;stroke-opacity:1;visibility:visible;display:inline;overflow:visible" />
    <text
       id="text15637"
       y="297.59601"
       x="54.711239"
       style="font-size:12px;font-style:normal;font-weight:normal;fill:#000000;fill-opacity:1;stroke:none;stroke-width:1px;stroke-linecap:butt;stroke-linejoin:miter;stroke-opacity:1;font-family:Bitstream Vera Sans"
       xml:space="preserve"><tspan
         y="297.59601"
         x="54.711239"
         id="tspan15639"
         sodipodi:role="line">editar</tspan></text>
    <g
       id="g27948">
      <rect
         style="fill:url(#linearGradient4420);fill-opacity:1;fill-rule:evenodd;stroke:none;stroke-width:0.78611344px;stroke-linecap:butt;stroke-linejoin:miter;stroke-opacity:1"
         id="rect1755"
         width="4.5744944"
         height="7.5150442"
         x="274.31018"
         y="-167.51323"
         transform="matrix(0.702742,0.711445,0.711445,-0.702742,0,0)"
         ry="1.5545677"
         rx="2.9941163" />
      <rect
         style="fill:url(#linearGradient3523);fill-opacity:1;fill-rule:evenodd;stroke:none;stroke-width:1px;stroke-linecap:butt;stroke-linejoin:miter;stroke-opacity:1"
         id="rect1751"
         width="4.5744944"
         height="12.160779"
         x="274.31018"
         y="164.16794"
         transform="matrix(0.702742,0.711445,-0.711445,0.702742,0,0)" />
      <rect
         style="fill:url(#linearGradient3531);fill-opacity:1;fill-rule:evenodd;stroke:none;stroke-width:0.41162363px;stroke-linecap:butt;stroke-linejoin:miter;stroke-opacity:1"
         id="rect1753"
         width="4.5744944"
         height="2.0604475"
         x="274.31018"
         y="163.91068"
         transform="matrix(0.702742,0.711445,-0.711445,0.702742,0,0)" />
      <path
         sodipodi:type="star"
         style="fill:url(#linearGradient3539);fill-opacity:1;fill-rule:evenodd;stroke:none;stroke-width:1px;stroke-linecap:butt;stroke-linejoin:miter;stroke-opacity:1"
         id="path1757"
         sodipodi:sides="3"
         sodipodi:cx="66.53566"
         sodipodi:cy="349.57932"
         sodipodi:r1="7.4854321"
         sodipodi:r2="3.4109664"
         sodipodi:arg1="1.5640382"
         sodipodi:arg2="2.6112358"
         inkscape:flatsided="false"
         inkscape:rounded="0"
         inkscape:randomized="0"
         d="M 66.586247,357.06458 L 63.593269,351.30472 L 60.02794,345.88049 L 66.512608,346.16843 L 72.992793,345.79287 L 69.501102,351.2648 L 66.586247,357.06458 z "
         transform="matrix(0.257015,0.260199,-0.440783,0.435391,204.4556,152.6347)" />
      <path
         sodipodi:type="star"
         style="fill:#000000;fill-opacity:1;fill-rule:evenodd;stroke:none;stroke-width:1px;stroke-linecap:butt;stroke-linejoin:miter;stroke-opacity:1"
         id="path1759"
         sodipodi:sides="3"
         sodipodi:cx="66.53566"
         sodipodi:cy="349.57932"
         sodipodi:r1="7.4854321"
         sodipodi:r2="3.4109664"
         sodipodi:arg1="1.5640382"
         sodipodi:arg2="2.6112358"
         inkscape:flatsided="false"
         inkscape:rounded="0"
         inkscape:randomized="0"
         d="M 66.586247,357.06458 L 63.593269,351.30472 L 60.02794,345.88049 L 66.512608,346.16843 L 72.992793,345.79287 L 69.501102,351.2648 L 66.586247,357.06458 z "
         transform="matrix(9.729874e-2,9.85038e-2,-0.211034,0.208453,133.004,244.5763)" />
    </g>
    <rect
       y="280.37387"
       x="111.93008"
       height="58.159744"
       width="68.035927"
       id="rect16629"
       style="opacity:1;color:#000000;fill:#ffffff;fill-opacity:1;fill-rule:nonzero;stroke:#4a4a4a;stroke-width:2.20000005;stroke-linecap:butt;stroke-linejoin:round;marker:none;marker-start:none;marker-mid:none;marker-end:none;stroke-miterlimit:7.30000019;stroke-dasharray:none;stroke-dashoffset:0;stroke-opacity:1;visibility:visible;display:inline;overflow:visible" />
    <g
       id="g27935">
      <rect
         style="color:#000000;fill:#b8d1da;fill-opacity:1;fill-rule:nonzero;stroke:#5694ac;stroke-width:0.22018041;stroke-linecap:butt;stroke-linejoin:round;marker:none;marker-start:none;marker-mid:none;marker-end:none;stroke-miterlimit:7.30000019;stroke-dasharray:none;stroke-dashoffset:0;stroke-opacity:1;visibility:visible;display:inline;overflow:visible"
         id="rect15591"
         width="13.288868"
         height="10.103932"
         x="137.13022"
         y="311.9834"
         rx="2.5089283"
         ry="2.4275105" />
      <rect
         style="color:#000000;fill:#b8d1da;fill-opacity:1;fill-rule:nonzero;stroke:#5694ac;stroke-width:0.17343178;stroke-linecap:butt;stroke-linejoin:round;marker:none;marker-start:none;marker-mid:none;marker-end:none;stroke-miterlimit:7.30000019;stroke-dasharray:none;stroke-dashoffset:0;stroke-opacity:1;visibility:visible;display:inline;overflow:visible"
         id="rect15593"
         width="10.47995"
         height="7.9491253"
         x="138.53467"
         y="313.06082"
         rx="1.9863389"
         ry="1.9863389" />
      <rect
         style="color:#000000;fill:#ffffff;fill-opacity:1;fill-rule:nonzero;stroke:#4a4a4a;stroke-width:0.2097351;stroke-linecap:butt;stroke-linejoin:round;marker:none;marker-start:none;marker-mid:none;marker-end:none;stroke-miterlimit:7.30000019;stroke-dasharray:none;stroke-dashoffset:0;stroke-opacity:1;visibility:visible;display:inline;overflow:visible"
         id="rect15597"
         width="9.2604856"
         height="9.1001177"
         x="139.08948"
         y="309.68478"
         rx="16.504002"
         ry="0" />
      <rect
         style="color:#000000;fill:#2a6ea7;fill-opacity:1;fill-rule:nonzero;stroke:none;stroke-width:2.20000005;stroke-linecap:butt;stroke-linejoin:round;marker:none;marker-start:none;marker-mid:none;marker-end:none;stroke-miterlimit:7.30000019;stroke-dasharray:none;stroke-dashoffset:0;stroke-opacity:1;visibility:visible;display:inline;overflow:visible"
         id="rect15595"
         width="1.4277296"
         height="3.0751097"
         x="137.76968"
         y="314.72903"
         rx="0.55480689"
         ry="1.0603812" />
      <path
         style="color:#000000;fill:#d6d6d6;fill-opacity:1;fill-rule:nonzero;stroke:#6c6c6c;stroke-width:0.1172059;stroke-linecap:butt;stroke-linejoin:round;marker:none;marker-start:none;marker-mid:none;marker-end:none;stroke-miterlimit:7.30000019;stroke-dasharray:none;stroke-dashoffset:0;stroke-opacity:1;visibility:visible;display:inline;overflow:visible"
         d="M 136.2014,316.95717 C 135.44689,316.99155 134.84745,317.63115 134.84745,318.42022 L 134.84745,319.57226 L 134.67318,319.57226 C 133.88873,319.57226 133.25756,320.22406 133.25756,321.0353 L 133.25756,322.57282 C 133.25756,323.38406 133.88873,324.03586 134.67318,324.03586 L 152.83755,324.03586 C 153.622,324.03586 154.25316,323.38406 154.25317,322.57282 L 154.25317,321.0353 C 154.25317,320.22406 153.622,319.57226 152.83755,319.57226 L 152.6606,319.57226 L 152.6606,318.42022 C 152.6606,317.60897 152.02943,316.95717 151.24498,316.95717 L 136.26575,316.95717 C 136.2443,316.95717 136.22261,316.9562 136.2014,316.95717 z "
         id="rect15586" />
      <rect
         ry="16.504002"
         style="color:#000000;fill:#eeeeee;fill-opacity:1;fill-rule:nonzero;stroke:none;stroke-width:2.20000005;stroke-linecap:butt;stroke-linejoin:round;marker:none;marker-start:none;marker-mid:none;marker-end:none;stroke-miterlimit:7.30000019;stroke-dasharray:none;stroke-dashoffset:0;stroke-opacity:1;visibility:visible;display:inline;overflow:visible"
         id="rect15599"
         width="17.572056"
         height="2.4161577"
         x="134.91422"
         y="317.1452"
         rx="0.99219012" />
      <rect
         style="color:#000000;fill:#4a4a4a;fill-opacity:1;fill-rule:nonzero;stroke:none;stroke-width:2.20000005;stroke-linecap:butt;stroke-linejoin:round;marker:none;marker-start:none;marker-mid:none;marker-end:none;stroke-miterlimit:7.30000019;stroke-dasharray:none;stroke-dashoffset:0;stroke-opacity:1;visibility:visible;display:inline;overflow:visible"
         id="rect15601"
         width="18.780134"
         height="0.96583545"
         x="134.58475"
         y="320.6709"
         rx="0.96525168"
         ry="7.7252121" />
      <path
         sodipodi:type="arc"
         style="color:#000000;fill:#8b8b8b;fill-opacity:1;fill-rule:nonzero;stroke:none;stroke-width:2.20000005;stroke-linecap:butt;stroke-linejoin:round;marker:none;marker-start:none;marker-mid:none;marker-end:none;stroke-miterlimit:7.30000019;stroke-dasharray:none;stroke-dashoffset:0;stroke-opacity:1;visibility:visible;display:inline;overflow:visible"
         id="path15605"
         sodipodi:cx="330.85214"
         sodipodi:cy="593.11969"
         sodipodi:rx="7.1327991"
         sodipodi:ry="7.1327991"
         d="M 337.98494 593.11969 A 7.1327991 7.1327991 0 1 1  323.71934,593.11969 A 7.1327991 7.1327991 0 1 1  337.98494 593.11969 z"
         transform="matrix(7.703432e-2,0,0,7.703432e-2,127.026,277.0291)" />
      <rect
         style="color:#000000;fill:#8b8b8b;fill-opacity:1;fill-rule:nonzero;stroke:none;stroke-width:2.20000005;stroke-linecap:butt;stroke-linejoin:round;marker:none;marker-start:none;marker-mid:none;marker-end:none;stroke-miterlimit:7.30000019;stroke-dasharray:none;stroke-dashoffset:0;stroke-opacity:1;visibility:visible;display:inline;overflow:visible"
         id="rect15607"
         width="0.95235413"
         height="0.55553991"
         x="150.6449"
         y="322.05148"
         rx="2.4009552"
         ry="5.5508223" />
      <rect
         style="color:#000000;fill:#8b8b8b;fill-opacity:1;fill-rule:nonzero;stroke:none;stroke-width:2.20000005;stroke-linecap:butt;stroke-linejoin:round;marker:none;marker-start:none;marker-mid:none;marker-end:none;stroke-miterlimit:7.30000019;stroke-dasharray:none;stroke-dashoffset:0;stroke-opacity:1;visibility:visible;display:inline;overflow:visible"
         id="rect15609"
         width="0.95235413"
         height="0.55553991"
         x="150.65622"
         y="322.87347"
         rx="2.4009552"
         ry="5.5508223" />
      <rect
         style="color:#000000;fill:#5694ac;fill-opacity:1;fill-rule:nonzero;stroke:none;stroke-width:2.20000005;stroke-linecap:butt;stroke-linejoin:round;marker:none;marker-start:none;marker-mid:none;marker-end:none;stroke-miterlimit:7.30000019;stroke-dasharray:none;stroke-dashoffset:0;stroke-opacity:1;visibility:visible;display:inline;overflow:visible"
         id="rect15611"
         width="13.618343"
         height="0.98842818"
         x="137.00092"
         y="321.53821"
         rx="1.2080208"
         ry="5.5508223" />
    </g>
    <text
       id="text15582"
       y="295.78561"
       x="119.79455"
       style="font-size:12px;font-style:normal;font-weight:normal;fill:#000000;fill-opacity:1;stroke:none;stroke-width:1px;stroke-linecap:butt;stroke-linejoin:miter;stroke-opacity:1;font-family:Bitstream Vera Sans"
       xml:space="preserve"><tspan
         y="295.78561"
         x="119.79455"
         id="tspan15584"
         sodipodi:role="line">imprimir</tspan></text>
    <rect
       y="280.3739"
       x="184.56165"
       height="58.159744"
       width="80.791702"
       id="rect16631"
       style="opacity:1;color:#000000;fill:#ffffff;fill-opacity:1;fill-rule:nonzero;stroke:#4a4a4a;stroke-width:2.39738011;stroke-linecap:butt;stroke-linejoin:round;marker:none;marker-start:none;marker-mid:none;marker-end:none;stroke-miterlimit:7.30000019;stroke-dasharray:none;stroke-dashoffset:0;stroke-opacity:1;visibility:visible;display:inline;overflow:visible" />
    <g
       id="g27955">
      <path
         sodipodi:type="arc"
         style="opacity:1;color:#000000;fill:#b44545;fill-opacity:1;fill-rule:nonzero;stroke:none;stroke-width:2.72300005;stroke-linecap:butt;stroke-linejoin:round;marker:none;marker-start:none;marker-mid:none;marker-end:none;stroke-miterlimit:4.9000001;stroke-dasharray:none;stroke-dashoffset:0;stroke-opacity:1;visibility:visible;display:inline;overflow:visible"
         id="path10326"
         sodipodi:cx="-447.75214"
         sodipodi:cy="464.22574"
         sodipodi:rx="91.619247"
         sodipodi:ry="91.619247"
         d="M -356.13289 464.22574 A 91.619247 91.619247 0 1 1  -539.37138,464.22574 A 91.619247 91.619247 0 1 1  -356.13289 464.22574 z"
         transform="matrix(4.012564e-2,0,0,4.012564e-2,240.5338,295.7236)" />
      <path
         sodipodi:type="arc"
         style="opacity:1;color:#000000;fill:#b44545;fill-opacity:1;fill-rule:nonzero;stroke:none;stroke-width:2.72300005;stroke-linecap:butt;stroke-linejoin:round;marker:none;marker-start:none;marker-mid:none;marker-end:none;stroke-miterlimit:4.9000001;stroke-dasharray:none;stroke-dashoffset:0;stroke-opacity:1;visibility:visible;display:inline;overflow:visible"
         id="path10328"
         sodipodi:cx="-559.32074"
         sodipodi:cy="329.75232"
         sodipodi:rx="31.771191"
         sodipodi:ry="32.510056"
         d="M -527.54955 329.75232 A 31.771191 32.510056 0 1 1  -591.09193,329.75232 A 31.771191 32.510056 0 1 1  -527.54955 329.75232 z"
         transform="matrix(5.26445e-2,0,0,5.26445e-2,247.2861,291.059)" />
      <path
         sodipodi:type="arc"
         style="opacity:1;color:#000000;fill:#b44545;fill-opacity:1;fill-rule:nonzero;stroke:none;stroke-width:2.72300005;stroke-linecap:butt;stroke-linejoin:round;marker:none;marker-start:none;marker-mid:none;marker-end:none;stroke-miterlimit:4.9000001;stroke-dasharray:none;stroke-dashoffset:0;stroke-opacity:1;visibility:visible;display:inline;overflow:visible"
         id="path10330"
         sodipodi:cx="-320.66736"
         sodipodi:cy="288.37589"
         sodipodi:rx="56.153732"
         sodipodi:ry="56.153732"
         d="M -264.51363 288.37589 A 56.153732 56.153732 0 1 1  -376.82109,288.37589 A 56.153732 56.153732 0 1 1  -264.51363 288.37589 z"
         transform="matrix(4.005216e-2,0,0,4.005216e-2,243.8192,299.2435)" />
      <path
         sodipodi:type="arc"
         style="opacity:1;color:#000000;fill:#b44545;fill-opacity:1;fill-rule:nonzero;stroke:none;stroke-width:2.72300005;stroke-linecap:butt;stroke-linejoin:round;marker:none;marker-start:none;marker-mid:none;marker-end:none;stroke-miterlimit:4.9000001;stroke-dasharray:none;stroke-dashoffset:0;stroke-opacity:1;visibility:visible;display:inline;overflow:visible"
         id="path10332"
         sodipodi:cx="-608.82465"
         sodipodi:cy="548.4563"
         sodipodi:rx="38.420975"
         sodipodi:ry="38.420975"
         d="M -570.40367 548.4563 A 38.420975 38.420975 0 1 1  -647.24562,548.4563 A 38.420975 38.420975 0 1 1  -570.40367 548.4563 z"
         transform="matrix(5.26445e-2,0,0,5.26445e-2,248.9809,290.2071)" />
      <path
         style="fill:#b44545;fill-opacity:1;fill-rule:evenodd;stroke:#c33f3f;stroke-width:0.11581801;stroke-linecap:butt;stroke-linejoin:miter;stroke-miterlimit:7.30000019;stroke-dasharray:none;stroke-opacity:1"
         d="M 216.24645,319.85167 L 220.99808,314.99932 L 221.81847,312.1802 L 217.0335,307.56224 L 220.79495,313.27556 L 224.27866,313.9002 L 230.11716,310.89212 L 230.4684,311.84307"
         id="path10334"
         sodipodi:nodetypes="cccccccc" />
    </g>
    <text
       id="text15578"
       y="297.38284"
       x="192.0369"
       style="font-size:12px;font-style:normal;font-weight:normal;fill:#000000;fill-opacity:1;stroke:none;stroke-width:1px;stroke-linecap:butt;stroke-linejoin:miter;stroke-opacity:1;font-family:Bitstream Vera Sans"
       xml:space="preserve"><tspan
         y="297.38284"
         x="192.0369"
         id="tspan15580"
         sodipodi:role="line">referencias</tspan></text>
    <rect
       y="279.27652"
       x="270.40933"
       height="58.159744"
       width="68.035927"
       id="rect16633"
       style="opacity:1;color:#000000;fill:#ffffff;fill-opacity:1;fill-rule:nonzero;stroke:#4a4a4a;stroke-width:2.20000005;stroke-linecap:butt;stroke-linejoin:round;marker:none;marker-start:none;marker-mid:none;marker-end:none;stroke-miterlimit:7.30000019;stroke-dasharray:none;stroke-dashoffset:0;stroke-opacity:1;visibility:visible;display:inline;overflow:visible" />
    <text
       id="text16635"
       y="296.36972"
       x="297.42407"
       style="font-size:12px;font-style:normal;font-weight:normal;fill:#000000;fill-opacity:1;stroke:none;stroke-width:1px;stroke-linecap:butt;stroke-linejoin:miter;stroke-opacity:1;font-family:Bitstream Vera Sans"
       xml:space="preserve"><tspan
         y="296.36972"
         x="297.42407"
         id="tspan16637"
         sodipodi:role="line">3d</tspan></text>
    <g
       id="g27962">
      <path
         sodipodi:type="star"
         style="opacity:1;color:#000000;fill:none;fill-opacity:1;fill-rule:nonzero;stroke:#00003e;stroke-width:2.20000005;stroke-linecap:butt;stroke-linejoin:round;marker:none;marker-start:none;marker-mid:none;marker-end:none;stroke-miterlimit:7.30000019;stroke-dasharray:none;stroke-dashoffset:0;stroke-opacity:1;visibility:visible;display:inline;overflow:visible"
         id="path16641"
         sodipodi:sides="3"
         sodipodi:cx="-263.36487"
         sodipodi:cy="430.16263"
         sodipodi:r1="29.851248"
         sodipodi:r2="14.203539"
         sodipodi:arg1="1.2722974"
         sodipodi:arg2="2.3194949"
         inkscape:flatsided="false"
         inkscape:rounded="0"
         inkscape:randomized="0"
         d="M -254.58604,458.69382 L -273.03302,440.56779 L -292.46302,423.49972 L -267.54193,416.58718 L -243.04554,408.29434 L -249.51966,433.33291 L -254.58604,458.69382 z "
         transform="matrix(0.367559,-0.105397,0.103198,0.359891,361.4195,128.426)" />
      <path
         style="fill:#072940;fill-opacity:1;fill-rule:evenodd;stroke:#00003e;stroke-width:1px;stroke-linecap:butt;stroke-linejoin:miter;stroke-opacity:1"
         d="M 310.22422,309.92069 L 314.84711,320.11207 L 314.95218,320.11207"
         id="path18393" />
      <path
         style="fill:#072940;fill-opacity:1;fill-rule:evenodd;stroke:#00003e;stroke-width:1px;stroke-linecap:butt;stroke-linejoin:miter;stroke-opacity:1"
         d="M 310.74955,309.92069 L 298.03659,311.60174 L 298.03659,311.60174"
         id="path18395" />
      <path
         style="fill:none;fill-opacity:0.75;fill-rule:evenodd;stroke:#00003e;stroke-width:1px;stroke-linecap:butt;stroke-linejoin:miter;stroke-opacity:1"
         d="M 310.22422,309.92069 L 314.00659,301.51543 L 314.00659,301.51543 L 314.11165,301.20023"
         id="path19270" />
    </g>
    <g
       id="g3938"
       transform="translate(14.00648,-18.61609)">
      <g
         id="g3940"
         transform="translate(8.26349,103.6728)"
         style="opacity:0.41276592" />
      <g
         id="g4000"
         transform="translate(-69.27878,28.95846)">
        <g
           id="g3417"
           transform="matrix(0.992736,0,0,0.967497,7.833174,-29.70843)">
          <path
             style="opacity:0.05;color:#000000;fill:#000000;fill-opacity:1;fill-rule:nonzero;stroke:#000000;stroke-width:0.35188249;stroke-linecap:butt;stroke-linejoin:round;marker:none;marker-start:none;marker-mid:none;marker-end:none;stroke-miterlimit:43.79999924;stroke-dashoffset:0;stroke-opacity:1;visibility:visible;display:inline;overflow:visible"
             d="M 119.03125,449.90625 C 119.06429,455.01976 116.94024,463.8021 123.5625,465.84375 C 186.4885,465.93681 249.50279,466.12619 312.40625,465.75 C 318.74644,463.35467 316.67116,454.85681 316.5625,449.6875 C 315.60606,443.77505 308.47951,444.17199 303.96875,444.6875 C 245.01042,444.6875 186.05208,444.6875 127.09375,444.6875 C 121.93445,441.33716 117.17989,434.36353 119.04393,445.12498 C 119.0397,446.71873 119.03548,448.31249 119.03125,449.90625 z "
             id="path3419" />
          <path
             style="opacity:0.05;color:#000000;fill:#000000;fill-opacity:1;fill-rule:nonzero;stroke:#000000;stroke-width:0.35188249;stroke-linecap:butt;stroke-linejoin:round;marker:none;marker-start:none;marker-mid:none;marker-end:none;stroke-miterlimit:43.79999924;stroke-dashoffset:0;stroke-opacity:1;visibility:visible;display:inline;overflow:visible"
             d="M 118.8125,449.90625 C 118.76391,455.10754 116.82112,464.00901 123.5,466.0625 C 186.38759,466.1768 249.34942,466.30268 312.21875,466 C 318.92224,463.9015 316.96655,454.92111 316.78125,449.65625 C 315.77751,443.6296 308.60825,443.90731 303.96875,444.46875 C 245.01042,444.46875 186.05208,444.46875 127.09375,444.46875 C 121.97286,441.04948 117.02829,433.86317 118.83938,444.62491 C 118.83042,446.38536 118.82146,448.1458 118.8125,449.90625 z "
             id="path3424" />
          <path
             style="opacity:0.05;color:#000000;fill:#000000;fill-opacity:1;fill-rule:nonzero;stroke:#000000;stroke-width:0.35188249;stroke-linecap:butt;stroke-linejoin:round;marker:none;marker-start:none;marker-mid:none;marker-end:none;stroke-miterlimit:43.79999924;stroke-dashoffset:0;stroke-opacity:1;visibility:visible;display:inline;overflow:visible"
             d="M 118.625,449.90625 C 118.55471,455.13484 116.58476,464.16964 123.4375,466.25 C 186.37586,466.34271 249.56349,466.53292 312.53125,466.15625 C 319.13511,463.73707 317.14387,454.97686 317,449.625 C 316.09685,444.05777 309.65268,443.41674 305.125,444.28125 C 245.78125,444.28125 186.4375,444.28125 127.09375,444.28125 C 122.01766,440.7965 116.84048,433.39914 118.6531,444.18742 C 118.64373,446.09369 118.63437,447.99997 118.625,449.90625 z "
             id="path3429" />
          <path
             style="opacity:0.05;color:#000000;fill:#000000;fill-opacity:1;fill-rule:nonzero;stroke:#000000;stroke-width:0.35188249;stroke-linecap:butt;stroke-linejoin:round;marker:none;marker-start:none;marker-mid:none;marker-end:none;stroke-miterlimit:43.79999924;stroke-dashoffset:0;stroke-opacity:1;visibility:visible;display:inline;overflow:visible"
             d="M 118.40625,449.90625 C 118.23382,455.2414 116.46924,464.77471 123.65625,466.5 C 186.61103,466.49903 249.71654,466.81391 312.59375,466.34375 C 319.42828,463.87768 317.39041,454.73816 317.125,449.1875 C 315.50161,442.28967 307.18564,444.05895 302,444.0625 C 243.69792,444.0625 185.39583,444.0625 127.09375,444.0625 C 122.10467,440.54608 116.4507,432.58013 118.43558,443.71867 C 118.4258,445.7812 118.41603,447.84372 118.40625,449.90625 z "
             id="path3434" />
          <path
             style="opacity:0.05;color:#000000;fill:#000000;fill-opacity:1;fill-rule:nonzero;stroke:#000000;stroke-width:0.35188249;stroke-linecap:butt;stroke-linejoin:round;marker:none;marker-start:none;marker-mid:none;marker-end:none;stroke-miterlimit:43.79999924;stroke-dashoffset:0;stroke-opacity:1;visibility:visible;display:inline;overflow:visible"
             d="M 118.1875,449.90625 C 117.98088,455.4114 116.29653,464.9719 123.625,466.6875 C 186.60735,466.75931 249.70297,467.01209 312.65625,466.5625 C 319.59799,463.96008 317.77963,454.71517 317.25,448.84375 C 315.0419,441.38208 305.75396,444.29724 300.03125,443.84375 C 242.38542,443.84375 184.73958,443.84375 127.09375,443.84375 C 122.12318,440.29956 116.24997,432.09122 118.21796,443.24993 C 118.20781,445.4687 118.19765,447.68748 118.1875,449.90625 z "
             id="path3439" />
          <path
             style="opacity:0.05;color:#000000;fill:#000000;fill-opacity:1;fill-rule:nonzero;stroke:#000000;stroke-width:0.35188249;stroke-linecap:butt;stroke-linejoin:round;marker:none;marker-start:none;marker-mid:none;marker-end:none;stroke-miterlimit:43.79999924;stroke-dashoffset:0;stroke-opacity:1;visibility:visible;display:inline;overflow:visible"
             d="M 117.96875,449.90625 C 117.77682,455.53027 116.12307,464.72105 123.21875,466.84375 C 186.17905,467.14661 249.21468,467.02035 312.1875,466.90625 C 319.41318,465.11111 318.06468,455.5517 317.6875,449.90625 C 317.02192,444.46508 311.11455,442.47652 306.29441,443.625 C 246.36862,443.45806 186.31427,443.9587 126.46875,443.375 C 122.69281,440.56481 115.96991,431.0797 118.00615,441.43415 C 117.99369,444.25819 117.98122,447.08222 117.96875,449.90625 z "
             id="path3444" />
          <path
             style="opacity:0.05;color:#000000;fill:#000000;fill-opacity:1;fill-rule:nonzero;stroke:#000000;stroke-width:0.35188249;stroke-linecap:butt;stroke-linejoin:round;marker:none;marker-start:none;marker-mid:none;marker-end:none;stroke-miterlimit:43.79999924;stroke-dashoffset:0;stroke-opacity:1;visibility:visible;display:inline;overflow:visible"
             d="M 117.78125,449.90625 C 117.80583,455.51793 115.82062,463.83724 122.3125,466.78125 C 130.98703,467.84574 140.08065,466.83282 148.90954,467.1875 C 203.42413,467.08265 257.97954,467.39675 312.46875,467.03125 C 318.46504,465.56481 318.49354,458.12762 318.03125,453.19901 C 319.02676,447.88124 314.50683,442.10636 308.91447,443.4375 C 248.30757,443.4375 187.70066,443.4375 127.09375,443.4375 C 124.04602,441.77812 119.80579,435.86343 117.84059,436.04934 C 117.82081,440.66831 117.80103,445.28728 117.78125,449.90625 z "
             id="path3449" />
          <path
             style="opacity:0.05;color:#000000;fill:#000000;fill-opacity:1;fill-rule:nonzero;stroke:#000000;stroke-width:0.35188249;stroke-linecap:butt;stroke-linejoin:round;marker:none;marker-start:none;marker-mid:none;marker-end:none;stroke-miterlimit:43.79999924;stroke-dashoffset:0;stroke-opacity:1;visibility:visible;display:inline;overflow:visible"
             d="M 117.5625,449.90625 C 117.73042,455.24616 115.87158,461.91299 120.40625,465.90625 C 124.33072,468.80305 129.94103,466.82775 134.59375,467.40625 C 193.80999,467.34358 253.04624,467.53148 312.25,467.3125 C 317.54096,466.28544 318.91015,460.04794 318.25,455.44079 C 318.84047,450.85336 317.77195,444.628 312.53125,443.375 C 282.07372,443.00946 251.56926,443.32363 221.09375,443.21875 C 189.76041,443.21875 158.42708,443.21875 127.09375,443.21875 C 123.81007,440.6108 120.80255,437.58213 117.625,434.8125 C 117.60417,439.84375 117.58333,444.875 117.5625,449.90625 z "
             id="path3454" />
          <path
             style="opacity:0.05;color:#000000;fill:#000000;fill-opacity:1;fill-rule:nonzero;stroke:#000000;stroke-width:0.35188249;stroke-linecap:butt;stroke-linejoin:round;marker:none;marker-start:none;marker-mid:none;marker-end:none;stroke-miterlimit:43.79999924;stroke-dashoffset:0;stroke-opacity:1;visibility:visible;display:inline;overflow:visible"
             d="M 117.34375,449.90625 C 117.18002,453.65828 117.01655,457.48145 117.4375,461.21875 C 118.12776,465.04385 121.8207,468.25649 125.85691,467.625 C 187.73794,467.625 249.61897,467.625 311.5,467.625 C 316.15514,467.33533 318.99341,462.25946 318.46875,457.86184 C 318.34022,453.50994 319.36524,448.26784 315.8125,444.9375 C 312.75379,441.89058 308.05039,443.32976 304.14638,443 C 245.12884,443 186.11129,443 127.09375,443 C 123.78011,440.24636 120.6495,437.20719 117.40625,434.34375 C 117.38542,439.53125 117.36458,444.71875 117.34375,449.90625 z "
             id="path3459" />
          <path
             style="opacity:0.05;color:#000000;fill:#000000;fill-opacity:1;fill-rule:nonzero;stroke:#000000;stroke-width:0.35188249;stroke-linecap:butt;stroke-linejoin:round;marker:none;marker-start:none;marker-mid:none;marker-end:none;stroke-miterlimit:43.79999924;stroke-dashoffset:0;stroke-opacity:1;visibility:visible;display:inline;overflow:visible"
             d="M 117.125,449.90625 C 116.86152,452.30906 117.06315,454.73879 117,457.15296 C 116.93854,459.29578 116.96927,461.53405 118.00567,463.47498 C 119.25077,466.00471 121.89685,467.98716 124.80428,467.84375 C 187.03618,467.84375 249.26809,467.84375 311.5,467.84375 C 314.51675,467.64743 317.06773,465.34434 318.0625,462.5625 C 319.03747,460.07239 318.57771,457.34193 318.6875,454.7352 C 318.65105,452.25558 318.9498,449.62281 317.75,447.34375 C 316.56145,444.67228 313.79927,442.64419 310.80921,442.78125 C 249.57072,442.78125 188.33224,442.78125 127.09375,442.78125 C 123.7703,439.83335 120.49315,436.8177 117.1875,433.84375 C 117.16667,439.19792 117.14583,444.55208 117.125,449.90625 z "
             id="path3464" />
          <path
             style="opacity:0.05;color:#000000;fill:#000000;fill-opacity:1;fill-rule:nonzero;stroke:#000000;stroke-width:0.35188249;stroke-linecap:butt;stroke-linejoin:round;marker:none;marker-start:none;marker-mid:none;marker-end:none;stroke-miterlimit:43.79999924;stroke-dashoffset:0;stroke-opacity:1;visibility:visible;display:inline;overflow:visible"
             d="M 117,433.65625 C 116.96194,439.15242 116.99146,444.65294 116.91139,450.1464 C 116.69418,452.50675 116.8686,454.88901 116.8125,457.25822 C 116.74681,459.389 116.80325,461.60488 117.80896,463.5415 C 118.8908,465.78552 120.9867,467.5926 123.51008,467.95481 C 125.79115,468.12916 128.09378,467.98325 130.38322,468.03125 C 190.7659,468.03125 251.14857,468.03125 311.53125,468.03125 C 314.56386,467.83298 317.17574,465.61999 318.17472,462.80567 C 319.23733,460.28918 318.76651,457.4936 318.875,454.84046 C 318.8376,452.29473 319.14015,449.60035 317.9375,447.25 C 316.76913,444.55173 314.02625,442.53983 311.01974,442.59375 C 249.71107,442.59375 188.40241,442.59375 127.09375,442.59375 C 123.78125,439.59375 120.46875,436.59375 117.15625,433.59375 L 117.05852,433.63284 L 117,433.65625 z "
             id="path3469" />
          <path
             style="opacity:0.05;color:#000000;fill:#000000;fill-opacity:1;fill-rule:nonzero;stroke:#000000;stroke-width:0.35188249;stroke-linecap:butt;stroke-linejoin:round;marker:none;marker-start:none;marker-mid:none;marker-end:none;stroke-miterlimit:43.79999924;stroke-dashoffset:0;stroke-opacity:1;visibility:visible;display:inline;overflow:visible"
             d="M 116.78125,433.65625 C 116.85912,442.46571 116.52652,451.25941 116.625,460.0625 C 116.85656,464.59375 120.81763,468.82172 125.54112,468.25 C 187.54825,468.25 249.55537,468.25 311.5625,468.25 C 316.55742,467.92755 319.63372,462.5993 319.09375,457.89309 C 318.96669,453.46973 319.96771,448.19417 316.5,444.75 C 313.57069,441.39686 308.75562,442.56503 304.80921,442.375 C 245.61239,442.375 186.41557,442.375 127.21875,442.375 C 123.91667,439.39583 120.61458,436.41667 117.3125,433.4375 L 117.0205,433.55774 L 116.78125,433.65625 z "
             id="path3474" />
          <path
             style="opacity:0.05;color:#000000;fill:#000000;fill-opacity:1;fill-rule:nonzero;stroke:#000000;stroke-width:0.35188249;stroke-linecap:butt;stroke-linejoin:round;marker:none;marker-start:none;marker-mid:none;marker-end:none;stroke-miterlimit:43.79999924;stroke-dashoffset:0;stroke-opacity:1;visibility:visible;display:inline;overflow:visible"
             d="M 116.5625,433.65625 C 116.80103,442.90299 115.99176,452.20901 116.625,461.40625 C 117.44043,466.28073 122.40081,469.43646 127.22533,468.46875 C 188.91864,468.40611 250.63118,468.59394 312.3125,468.375 C 317.91989,467.43697 320.06416,461.02298 319.3125,455.99836 C 319.84529,451.03255 319.02998,444.45142 313.5625,442.59375 C 306.71933,441.55385 299.63578,442.46042 292.70395,442.15625 C 237.55263,442.15625 182.40132,442.15625 127.25,442.15625 C 123.97917,439.19792 120.70833,436.23958 117.4375,433.28125 L 116.95374,433.48858 L 116.5625,433.65625 z "
             id="path3479" />
          <path
             style="opacity:0.05;color:#000000;fill:#000000;fill-opacity:1;fill-rule:nonzero;stroke:#000000;stroke-width:0.35188249;stroke-linecap:butt;stroke-linejoin:round;marker:none;marker-start:none;marker-mid:none;marker-end:none;stroke-miterlimit:43.79999924;stroke-dashoffset:0;stroke-opacity:1;visibility:visible;display:inline;overflow:visible"
             d="M 116.40625,433.375 C 116.59055,442.91369 115.67578,452.44241 116.5,461.90625 C 117.61199,467.10123 123.26873,469.76141 128.27796,468.6875 C 189.67118,468.6038 251.09394,468.85466 312.46875,468.5625 C 319.00117,467.32234 320.34007,459.56536 319.53125,453.99835 C 320.67871,448.00619 316.15316,440.95372 309.65132,441.9375 C 248.88213,441.9375 188.11294,441.9375 127.34375,441.9375 C 123.82388,439.02962 120.70777,435.39414 116.9375,432.9375 L 116.40625,433.375 z "
             id="path3484" />
          <path
             style="opacity:0.05;color:#000000;fill:#000000;fill-opacity:1;fill-rule:nonzero;stroke:#000000;stroke-width:0.35188249;stroke-linecap:butt;stroke-linejoin:round;marker:none;marker-start:none;marker-mid:none;marker-end:none;stroke-miterlimit:43.79999924;stroke-dashoffset:0;stroke-opacity:1;visibility:visible;display:inline;overflow:visible"
             d="M 116.25,433.25 C 116.63818,443.03592 115.0602,453.09864 116.5625,462.78125 C 118.37071,469.06035 125.75333,469.69476 131.22533,468.875 C 191.76755,468.72787 252.37046,469.1684 312.875,468.65625 C 320.39352,466.91295 320.304,457.4781 319.71875,451.40625 C 320.03042,444.91568 313.52927,440.18924 307.33553,441.75 C 247.36952,441.75 187.40351,441.75 127.4375,441.75 C 123.75906,439.45745 120.22532,433.14452 116.25,433.25 z "
             id="path3489" />
          <path
             style="opacity:0.05;color:#000000;fill:#000000;fill-opacity:1;fill-rule:nonzero;stroke:#000000;stroke-width:0.35188249;stroke-linecap:butt;stroke-linejoin:round;marker:none;marker-start:none;marker-mid:none;marker-end:none;stroke-miterlimit:43.79999924;stroke-dashoffset:0;stroke-opacity:1;visibility:visible;display:inline;overflow:visible"
             d="M 116.0625,433.125 C 116.39887,442.97442 114.80752,453.13111 116.375,462.875 C 118.27325,469.3838 125.95599,469.90752 131.59375,469.09375 C 192.03414,468.94621 252.53391,469.3877 312.9375,468.875 C 321.14909,466.7832 320.38947,456.51027 319.84375,449.96875 C 319.29082,443.39003 312.18856,440.00989 306.125,441.53125 C 246.59375,441.53125 187.0625,441.53125 127.53125,441.53125 C 123.97116,439.68902 119.94794,431.98055 116.0625,433.125 z "
             id="path3494" />
          <path
             style="opacity:0.05;color:#000000;fill:#000000;fill-opacity:1;fill-rule:nonzero;stroke:#000000;stroke-width:0.35188249;stroke-linecap:butt;stroke-linejoin:round;marker:none;marker-start:none;marker-mid:none;marker-end:none;stroke-miterlimit:43.79999924;stroke-dashoffset:0;stroke-opacity:1;visibility:visible;display:inline;overflow:visible"
             d="M 115.90625,433 C 116.08797,442.88702 114.64845,453.10312 116.15625,462.90625 C 118.07984,469.52244 125.85184,470.15221 131.59375,469.3125 C 192.05386,469.14417 252.58224,469.64806 313,469.0625 C 321.29583,466.97152 320.69609,456.55426 320.03125,449.9375 C 319.51973,443.25796 312.25152,439.80695 306.125,441.3125 C 246.61458,441.3125 187.10417,441.3125 127.59375,441.3125 C 123.82729,439.2815 120.12688,431.76767 115.90625,433 z "
             id="path3499" />
          <path
             style="opacity:0.05;color:#000000;fill:#000000;fill-opacity:1;fill-rule:nonzero;stroke:#000000;stroke-width:0.35188249;stroke-linecap:butt;stroke-linejoin:round;marker:none;marker-start:none;marker-mid:none;marker-end:none;stroke-miterlimit:43.79999924;stroke-dashoffset:0;stroke-opacity:1;visibility:visible;display:inline;overflow:visible"
             d="M 115.75,432.84375 C 115.69677,442.66529 114.63642,452.80762 115.84375,462.59375 C 117.56325,469.51242 125.64783,470.50611 131.59375,469.53125 C 192.06538,469.36303 252.59659,469.86666 313.03125,469.28125 C 321.46628,467.16989 320.91012,456.64383 320.25,449.90625 C 319.69328,443.08044 312.35563,439.60539 306.125,441.09375 C 246.63542,441.09375 187.14583,441.09375 127.65625,441.09375 C 123.82407,439.06248 120.13049,431.26788 115.75,432.84375 z "
             id="path3504" />
          <path
             style="opacity:0.05;color:#000000;fill:#000000;fill-opacity:1;fill-rule:nonzero;stroke:#000000;stroke-width:0.35188249;stroke-linecap:butt;stroke-linejoin:round;marker:none;marker-start:none;marker-mid:none;marker-end:none;stroke-miterlimit:43.79999924;stroke-dashoffset:0;stroke-opacity:1;visibility:visible;display:inline;overflow:visible"
             d="M 115.59375,432.6875 C 115.43888,442.56444 114.47892,452.7697 115.625,462.625 C 117.27328,469.15476 124.73265,470.85139 130.59375,469.71875 C 191.42028,469.57144 252.3006,470.0124 313.09375,469.5 C 321.40336,467.42961 321.20884,457.15985 320.5,450.4375 C 320.30999,443.78624 313.42348,439.40246 307.125,440.90625 C 247.33333,440.90625 187.54167,440.90625 127.75,440.90625 C 123.8433,438.85543 120.12837,430.83223 115.59375,432.6875 z "
             id="path3509" />
          <path
             style="opacity:0.05;color:#000000;fill:#000000;fill-opacity:1;fill-rule:nonzero;stroke:#000000;stroke-width:0.35188249;stroke-linecap:butt;stroke-linejoin:round;marker:none;marker-start:none;marker-mid:none;marker-end:none;stroke-miterlimit:43.79999924;stroke-dashoffset:0;stroke-opacity:1;visibility:visible;display:inline;overflow:visible"
             d="M 115.4375,432.53125 C 115.04504,442.335 114.46575,452.45406 115.3125,462.28125 C 116.75644,469.08778 124.49366,471.20716 130.59375,469.9375 C 191.44043,469.76912 252.34627,470.27313 313.15625,469.6875 C 321.59942,467.58469 321.42793,457.24486 320.71875,450.40625 C 320.50861,443.74194 313.55667,439.12012 307.125,440.6875 C 247.36458,440.6875 187.60417,440.6875 127.84375,440.6875 C 123.86327,438.60252 120.13737,430.39359 115.4375,432.53125 z "
             id="path3514" />
        </g>
        <path
           style="opacity:1;color:#000000;fill:#ffffff;fill-opacity:1;fill-rule:nonzero;stroke:#888888;stroke-width:0.35188249;stroke-linecap:butt;stroke-linejoin:round;marker:none;marker-start:none;marker-mid:none;marker-end:none;stroke-miterlimit:43.79999924;stroke-dasharray:none;stroke-dashoffset:0;stroke-opacity:1;visibility:visible;display:inline;overflow:visible"
           d="M 129.05924,422.18558 C 124.98937,421.95138 121.77799,418.11687 121.77799,413.40657 L 121.77799,405.72104 C 121.77799,405.19817 121.82698,404.68743 121.90299,404.19018 C 121.90429,404.18168 121.90167,404.16742 121.90299,404.15894 L 121.96985,387.89697 L 131.96549,396.94203 L 315.98465,396.94203 C 320.24019,396.94203 323.64088,400.8588 323.6409,405.72104 L 323.6409,413.40657 C 323.6409,418.2688 320.24018,422.18558 315.98465,422.18558 L 129.46549,422.18558 C 129.3325,422.18558 129.19053,422.19314 129.05924,422.18558 z "
           id="path4004"
           sodipodi:nodetypes="cccsccccccccc" />
        <rect
           style="opacity:0;fill:#000000;fill-opacity:1;stroke:#888888;stroke-width:0.11413525;stroke-linecap:butt;stroke-linejoin:miter;stroke-miterlimit:4;stroke-dasharray:none;stroke-opacity:1"
           id="rect3540"
           width="205"
           height="14.590079"
           x="121.5223"
           y="413.84976"
           rx="6.499999"
           ry="0"
           inkscape:export-filename="/home/rhwinter/lightBoxBottom.png"
           inkscape:export-xdpi="89.945152"
           inkscape:export-ydpi="89.945152" />
      </g>
    </g>
  </g>
</svg>
