<?xml version="1.0" encoding="UTF-8" standalone="no"?>
<!-- Created with Inkscape (http://www.inkscape.org/) -->
<svg
   xmlns:dc="http://purl.org/dc/elements/1.1/"
   xmlns:cc="http://web.resource.org/cc/"
   xmlns:rdf="http://www.w3.org/1999/02/22-rdf-syntax-ns#"
   xmlns:svg="http://www.w3.org/2000/svg"
   xmlns="http://www.w3.org/2000/svg"
   xmlns:sodipodi="http://inkscape.sourceforge.net/DTD/sodipodi-0.dtd"
   xmlns:inkscape="http://www.inkscape.org/namespaces/inkscape"
   width="841.88975pt"
   height="595.27559pt"
   id="svg1551"
   sodipodi:version="0.32"
   inkscape:version="0.43"
   sodipodi:docbase="/home/rhwinter"
   sodipodi:docname="logoNovo.svg"
   inkscape:export-filename="/home/rhwinter/logoDepois.jpg"
   inkscape:export-xdpi="90"
   inkscape:export-ydpi="90">
  <defs
     id="defs3" />
  <sodipodi:namedview
     inkscape:document-units="mm"
     id="base"
     pagecolor="#ffffff"
     bordercolor="#666666"
     borderopacity="1.0"
     inkscape:pageopacity="0.0"
     inkscape:pageshadow="2"
     inkscape:zoom="1"
     inkscape:cx="615"
     inkscape:cy="370.5"
     inkscape:current-layer="layer2"
     inkscape:window-width="1592"
     inkscape:window-height="1086"
     inkscape:window-x="0"
     inkscape:window-y="58" />
  <metadata
     id="metadata4">
    <rdf:RDF>
      <cc:Work
         rdf:about="">
        <dc:format>image/svg+xml</dc:format>
        <dc:type
           rdf:resource="http://purl.org/dc/dcmitype/StillImage" />
      </cc:Work>
    </rdf:RDF>
  </metadata>
  <g
     inkscape:groupmode="layer"
     id="layer2"
     inkscape:label="cubo_wire"
     style="display:inline">
    <path
       sodipodi:nodetypes="ccccc"
       id="path1343"
       d="M 601.67335,301.9256 L 544.75635,330.02994 L 540.22772,391.06627 L 603.27623,366.876 L 601.67335,301.9256 z "
       style="fill:#e80000;fill-opacity:1;fill-rule:evenodd;stroke:none;stroke-width:1.25;stroke-linecap:butt;stroke-linejoin:miter;stroke-miterlimit:4;stroke-dasharray:none;stroke-opacity:1" />
    <path
       id="path1345"
       d="M 540.22772,391.06627 L 602.82894,367.06228 L 645.80652,398.29762 L 587.64018,417.90351 L 540.22772,391.06627 z "
       style="fill:#379800;fill-opacity:1;fill-rule:evenodd;stroke:none;stroke-width:1.25;stroke-linecap:butt;stroke-linejoin:miter;stroke-miterlimit:4;stroke-dasharray:none;stroke-opacity:1"
       sodipodi:nodetypes="ccccc" />
    <path
       id="path1347"
       d="M 601.74811,301.66458 L 602.69843,367.06228 L 645.82553,397.38405 L 641.18414,340.20603 L 601.74811,301.66458 z "
       style="fill:#0c06b7;fill-opacity:1;fill-rule:evenodd;stroke:none;stroke-width:1.25;stroke-linecap:butt;stroke-linejoin:miter;stroke-miterlimit:4;stroke-dasharray:none;stroke-opacity:1"
       sodipodi:nodetypes="ccccc" />
    <path
       style="fill:none;fill-opacity:0.75;fill-rule:evenodd;stroke:#000000;stroke-width:1.25;stroke-linecap:butt;stroke-linejoin:miter;stroke-miterlimit:4;stroke-dasharray:none;stroke-opacity:1"
       d="M 485.04218,290.50555 L 560.86106,334.5401 L 575.75996,486.17786 L 510.20478,414.00093 L 485.04218,290.50555 z "
       id="path1323" />
    <path
       style="fill:none;fill-opacity:0.75;fill-rule:evenodd;stroke:#000000;stroke-width:1.25;stroke-linecap:butt;stroke-linejoin:miter;stroke-miterlimit:4;stroke-dasharray:none;stroke-opacity:1"
       d="M 576.23178,487.4096 L 687.33622,424.59571 L 702.8973,294.47859 L 560.86106,334.38087"
       id="path1325"
       sodipodi:nodetypes="cccc" />
    <path
       style="fill:none;fill-opacity:0.75;fill-rule:evenodd;stroke:#000000;stroke-width:1.25;stroke-linecap:butt;stroke-linejoin:miter;stroke-miterlimit:4;stroke-dasharray:none;stroke-opacity:1"
       d="M 703.44547,294.22317 L 605.88886,267.32947 L 484.30526,289.89335"
       id="path1327"
       sodipodi:nodetypes="ccc" />
    <path
       style="fill:none;fill-opacity:0.75;fill-rule:evenodd;stroke:#000000;stroke-width:1.25;stroke-linecap:butt;stroke-linejoin:miter;stroke-miterlimit:4;stroke-dasharray:none;stroke-opacity:1"
       d="M 601.58474,302.09359 L 603.24017,366.65552 L 540.00259,390.82486 L 544.6378,330.23597 L 601.58474,302.09359 z "
       id="path1329" />
    <path
       style="fill:none;fill-opacity:0.75;fill-rule:evenodd;stroke:#000000;stroke-width:1.25;stroke-linecap:butt;stroke-linejoin:miter;stroke-miterlimit:4;stroke-dasharray:none;stroke-opacity:1"
       d="M 601.74649,301.5477 L 640.98407,339.83749 L 645.61928,397.77768 L 602.79576,366.4785"
       id="path1331"
       sodipodi:nodetypes="cccc" />
    <path
       style="fill:none;fill-opacity:0.75;fill-rule:evenodd;stroke:#000000;stroke-width:1.25;stroke-linecap:butt;stroke-linejoin:miter;stroke-miterlimit:4;stroke-dasharray:none;stroke-opacity:1"
       d="M 646.15735,398.48141 L 587.01692,417.64289 L 539.62819,391.25081"
       id="path1333"
       sodipodi:nodetypes="ccc" />
    <path
       style="fill:none;fill-opacity:0.75;fill-rule:evenodd;stroke:#000000;stroke-width:1.25;stroke-linecap:butt;stroke-linejoin:miter;stroke-miterlimit:4;stroke-dasharray:none;stroke-opacity:1"
       d="M 606.21995,267.32947 L 607.05398,306.84759"
       id="path1335"
       sodipodi:nodetypes="cc" />
    <path
       style="fill:none;fill-opacity:0.75;fill-rule:evenodd;stroke:#000000;stroke-width:1.25;stroke-linecap:butt;stroke-linejoin:miter;stroke-miterlimit:4;stroke-dasharray:none;stroke-opacity:1"
       d="M 645.80654,398.01178 L 687.66731,424.26462"
       id="path1337"
       sodipodi:nodetypes="cc" />
    <path
       style="fill:none;fill-opacity:0.75;fill-rule:evenodd;stroke:#000000;stroke-width:1.25;stroke-linecap:butt;stroke-linejoin:miter;stroke-miterlimit:4;stroke-dasharray:none;stroke-opacity:1"
       d="M 510.9546,414.3371 L 550.66055,396.931"
       id="path1339"
       sodipodi:nodetypes="cc" />
    <path
       inkscape:export-ydpi="150.00000"
       inkscape:export-xdpi="150.00000"
       inkscape:export-filename="/home/palmieri/Desktop/new_EL/g3086.png"
       id="path1378"
       d="M 89.708846,335.51182 C 68.336096,335.51177 57.256207,361.83217 67.482128,388.48066 C 73.898676,405.20206 115.83243,409.45157 115.83243,393.38784 C 115.83236,387.81187 109.30855,385.82337 101.25524,388.91363 C 93.202766,392.00397 83.406388,389.43391 79.605758,383.28481 C 75.530413,376.69048 81.884795,372.17144 95.049046,372.17144 C 110.67073,372.17151 116.28134,366.66225 113.81181,353.84164 C 111.872,343.76722 101.06446,335.51136 89.708846,335.51182 z M 92.595426,345.32621 C 95.553156,346.16259 98.292866,348.174 100.10055,351.09938 C 103.71641,356.95014 99.260456,361.63544 90.286186,361.63544 C 71.900676,361.63544 69.273898,355.45326 83.791351,346.48085 C 86.470956,344.82414 89.637726,344.48935 92.595426,345.32621 z "
       style="fill:#000000;fill-opacity:1;stroke:none;stroke-opacity:1;display:inline" />
    <path
       inkscape:export-ydpi="150.00000"
       inkscape:export-xdpi="150.00000"
       inkscape:export-filename="/home/palmieri/Desktop/new_EL/g3086.png"
       id="path1380"
       d="M 383.6105,332.48027 C 372.66869,332.97404 370.5987,335.38765 378.41465,338.54209 C 395.40107,345.39596 395.40065,391.00751 378.41465,397.86141 C 371.21943,400.7651 379.47345,403.20161 396.74452,403.20161 C 414.01411,403.20112 422.27093,400.7651 415.07429,397.86141 C 407.87907,394.95775 401.94024,378.85801 401.94024,362.06776 C 401.94024,339.6563 397.05788,331.87388 383.6105,332.48027 z "
       style="fill:#000000;fill-opacity:1;stroke:none;stroke-opacity:1;display:inline" />
    <path
       inkscape:export-ydpi="150.00000"
       inkscape:export-xdpi="150.00000"
       inkscape:export-filename="/home/palmieri/Desktop/new_EL/g3086.png"
       id="path1382"
       d="M 452.13192,337.7613 C 430.36879,337.76125 419.52069,364.01303 430.04955,391.45175 C 440.98664,419.95363 472.91478,403.32581 472.9152,369.08071 C 472.91574,344.87361 468.23303,337.76081 452.13192,337.7613 z M 455.45142,346.27673 C 458.39114,347.33298 461.00022,351.07743 463.53386,357.6787 C 467.36482,367.66405 465.24739,380.93373 458.91522,387.26621 C 450.54135,395.63964 445.50731,393.83007 440.44118,380.62708 C 436.60967,370.64226 438.58376,357.37202 444.91534,351.03959 C 449.10248,346.85234 452.51115,345.22045 455.45142,346.27673 z "
       style="fill:#000000;fill-opacity:1;stroke:none;stroke-opacity:1;display:inline" />
    <path
       inkscape:export-ydpi="150.00000"
       inkscape:export-xdpi="150.00000"
       inkscape:export-filename="/home/palmieri/Desktop/new_EL/g3086.png"
       id="path1384"
       d="M 891.90865,339.41091 C 868.42892,339.41084 865.82895,343.44842 866.9397,378.66844 C 868.14745,416.92742 868.37215,417.06973 875.16646,386.46226 C 879.81126,365.54211 888.17156,355.61755 900.13544,356.58607 C 910.01264,357.386 918.0327,353.76532 918.03224,348.64796 C 918.0327,343.53104 906.30002,339.41091 891.90865,339.41091 z "
       style="fill:#000000;fill-opacity:1;stroke:none;stroke-opacity:1;display:inline" />
    <path
       inkscape:export-ydpi="150.00000"
       inkscape:export-xdpi="150.00000"
       inkscape:export-filename="/home/palmieri/Desktop/new_EL/g3086.png"
       id="path1386"
       d="M 159.57435,336.82247 C 146.60963,338.39467 131.09992,345.21506 128.11057,354.28632 C 125.61377,361.86261 133.59881,370.74539 145.71875,373.91505 C 157.83871,377.08437 167.65679,384.32342 167.65679,390.0799 C 167.65679,395.83697 158.25045,398.14456 146.72906,395.13145 C 134.76332,392.00296 128.45168,393.99758 132.00746,399.74996 C 135.43022,405.28907 146.06285,408.213 155.53314,406.38912 C 177.78154,402.10404 185.24833,366.69862 163.90422,366.69862 C 155.18624,366.69865 144.64127,361.23858 140.52289,354.57494 C 135.39308,346.27415 140.06934,344.32526 155.53314,348.3688 C 167.94732,351.61531 178.19235,349.65693 178.19284,344.03897 C 178.19279,340.27945 175.39332,338.11474 171.12072,337.11114 C 167.91647,336.35821 163.89594,336.29842 159.57435,336.82247 z "
       style="fill:#000000;fill-opacity:1;stroke:none;stroke-opacity:1;display:inline" />
    <path
       inkscape:export-ydpi="150.00000"
       inkscape:export-xdpi="150.00000"
       inkscape:export-filename="/home/palmieri/Desktop/new_EL/g3086.png"
       id="path1388"
       d="M 850.6345,338.39792 C 847.70675,337.32098 842.08025,344.63689 835.47989,361.05758 C 828.62137,378.12084 825.85718,379.65365 825.37688,366.83075 C 825.01198,357.09632 819.81845,346.13997 813.83054,342.43911 C 803.52285,336.06887 809.65743,381.90707 822.05728,403.77903 C 829.26769,416.49713 841.81376,399.39097 849.62417,366.25345 C 853.712,348.90813 853.56215,339.4754 850.6345,338.39792 z "
       style="fill:#000000;fill-opacity:1;stroke:none;stroke-opacity:1;display:inline" />
    <path
       inkscape:export-ydpi="150.00000"
       inkscape:export-xdpi="150.00000"
       inkscape:export-filename="/home/palmieri/Desktop/new_EL/g3086.png"
       id="path1390"
       d="M 261.79428,322.05369 C 258.15858,322.20379 255.0173,323.20188 253.27887,324.94028 C 249.80014,328.41849 255.95644,330.87926 266.99013,330.42483 C 279.18403,329.92268 281.68957,327.41535 273.34064,324.07431 C 269.56312,322.56255 265.43046,321.90406 261.79428,322.05369 z "
       style="fill:#000000;fill-opacity:1;stroke:none;stroke-opacity:1;display:inline" />
    <path
       inkscape:export-ydpi="150.00000"
       inkscape:export-xdpi="150.00000"
       inkscape:export-filename="/home/palmieri/Desktop/new_EL/g3086.png"
       sodipodi:nodetypes="cccccccc"
       id="path1392"
       d="M 723.80836,301.83767 C 715.71877,302.2947 712.77712,304.83682 717.27137,307.75544 C 721.76942,310.67662 725.44247,330.74948 725.44265,352.46693 C 725.44247,374.16523 727.33541,395.29368 729.73248,399.15103 C 732.12883,403.00851 738.74761,405.5255 744.44063,405.0686 C 751.19128,404.52711 752.01716,402.61225 746.68774,399.15103 C 741.8817,396.03012 738.51636,374.53518 738.51651,347.20677 C 738.51636,305.78853 736.91885,301.09735 723.80836,301.83767 z "
       style="fill:#000000;fill-opacity:1;stroke:none;stroke-opacity:1;display:inline" />
    <path
       inkscape:export-ydpi="150.00000"
       inkscape:export-xdpi="150.00000"
       inkscape:export-filename="/home/palmieri/Desktop/new_EL/g3086.png"
       id="path1394"
       d="M 355.05045,317.02966 C 357.15622,319.21065 358.99605,333.71624 359.5729,355.50217 C 360.88099,404.87016 359.30959,408.10977 333.94535,405.1442 C 296.29885,400.74265 287.72721,348.28781 323.39274,340.60958 C 336.79196,337.72508 349.887,328.19717 352.78921,319.20152 C 353.51508,316.95271 354.3487,316.30268 355.05045,317.02966 z M 326.78465,350.5379 C 323.3973,351.54009 320.65832,355.13536 317.73952,361.39709 C 313.3251,370.86835 315.71949,383.62424 323.01585,389.63099 C 332.66409,397.57392 338.28347,395.63925 344.12105,383.11554 C 348.53594,373.64454 346.14103,361.19855 338.84469,355.19193 C 334.02098,351.22064 330.17217,349.5359 326.78465,350.5379 z "
       style="fill:#000000;fill-opacity:1;stroke:none;stroke-opacity:1;display:inline" />
    <path
       inkscape:export-ydpi="150.00000"
       inkscape:export-xdpi="150.00000"
       inkscape:export-filename="/home/palmieri/Desktop/new_EL/g3086.png"
       id="path1396"
       d="M 286.39704,339.29589 C 285.41124,338.17616 283.76547,345.00181 280.7933,359.05359 C 271.65871,402.23765 250.08329,405.29206 248.41598,363.51493 C 247.40876,338.28852 245.77527,335.42028 242.50089,352.99874 C 240.07379,366.0262 240.74508,383.23435 243.74611,391.23933 C 246.74694,399.24446 258.14393,405.89829 269.2744,405.89829 C 286.22744,405.89842 289.25224,399.69272 288.26506,367.65766 C 287.70815,349.59667 287.38272,340.41594 286.39704,339.29589 z "
       style="fill:#000000;fill-opacity:1;stroke:none;stroke-opacity:1;display:inline" />
    <path
       inkscape:export-ydpi="150.00000"
       inkscape:export-xdpi="150.00000"
       inkscape:export-filename="/home/palmieri/Desktop/new_EL/g3086.png"
       sodipodi:nodetypes="cccccccccc"
       id="path1398"
       d="M 207.98863,313.82667 C 203.59051,314.28755 206.48259,325.80964 197.59014,327.95333 C 186.10746,327.88028 184.76287,338.46014 191.70922,338.46014 C 198.18378,338.45983 203.38812,350.75285 203.38797,365.62929 C 203.38822,380.50587 206.66741,396.15577 210.81996,400.406 C 214.97251,404.65627 223.89055,407.42989 230.6383,406.92658 C 237.48764,406.41551 236.77172,403.6703 228.86882,400.406 C 212.68117,393.71959 211.43081,341.84549 226.37716,336.01134 C 237.13012,331.4955 216.27208,329.96614 216.18593,323.96912 C 212.8494,318.41668 212.38705,313.36561 207.98863,313.82667 z "
       style="fill:#000000;fill-opacity:1;stroke:none;stroke-opacity:1;display:inline" />
    <path
       inkscape:export-ydpi="150.00000"
       inkscape:export-xdpi="150.00000"
       inkscape:export-filename="/home/palmieri/Desktop/new_EL/g3086.png"
       id="path1400"
       d="M 769.92757,332.48027 C 758.98577,332.97404 756.9158,335.38765 764.73172,338.54209 C 781.71814,345.39596 781.71775,391.00751 764.73172,397.86141 C 757.53648,400.7651 765.79053,403.20161 783.06159,403.20161 C 800.33116,403.20112 808.588,400.7651 801.39139,397.86141 C 794.19612,394.95775 788.25732,378.85801 788.25732,362.06776 C 788.25732,339.6563 783.37498,331.87388 769.92757,332.48027 z "
       style="fill:#000000;fill-opacity:1;stroke:none;stroke-opacity:1;display:inline" />
    <path
       inkscape:export-ydpi="150.00000"
       inkscape:export-xdpi="150.00000"
       inkscape:export-filename="/home/palmieri/Desktop/new_EL/g3086.png"
       id="path1402"
       d="M 947.38657,335.51182 C 926.01379,335.51177 914.93393,361.83217 925.15988,388.48066 C 931.5764,405.20206 973.51018,409.45157 973.51018,393.38784 C 973.51007,387.81187 966.98632,385.82337 958.9329,388.91363 C 950.88044,392.00397 941.08408,389.43391 937.28345,383.28481 C 933.20811,376.69048 939.56254,372.17144 952.72677,372.17144 C 968.3484,372.17151 973.95911,366.66225 971.48953,353.84164 C 969.5497,343.76722 958.7422,335.51136 947.38657,335.51182 z M 950.27318,345.32621 C 953.23088,346.16259 955.97064,348.174 957.77822,351.09938 C 961.39418,356.95014 956.93813,361.63544 947.96386,361.63544 C 929.5784,361.63544 926.95162,355.45326 941.46905,346.48085 C 944.14863,344.82414 947.31542,344.48935 950.27318,345.32621 z "
       style="fill:#000000;fill-opacity:1;stroke:none;stroke-opacity:1;display:inline" />
  </g>
</svg>
