<?xml version="1.0" encoding="UTF-8" standalone="no"?>
<!-- Created with Inkscape (http://www.inkscape.org/) -->
<svg
   xmlns:dc="http://purl.org/dc/elements/1.1/"
   xmlns:cc="http://web.resource.org/cc/"
   xmlns:rdf="http://www.w3.org/1999/02/22-rdf-syntax-ns#"
   xmlns:svg="http://www.w3.org/2000/svg"
   xmlns="http://www.w3.org/2000/svg"
   xmlns:sodipodi="http://sodipodi.sourceforge.net/DTD/sodipodi-0.dtd"
   xmlns:inkscape="http://www.inkscape.org/namespaces/inkscape"
   id="svg3309"
   sodipodi:version="0.32"
   inkscape:version="0.44"
   width="210mm"
   height="297mm"
   sodipodi:docbase="/home/rhwinter/docs/cdig/cvs/estudiolivre/layout/obscur"
   sodipodi:docname="iThumbTipo.svg">
  <metadata
     id="metadata3314">
    <rdf:RDF>
      <cc:Work
         rdf:about="">
        <dc:format>image/svg+xml</dc:format>
        <dc:type
           rdf:resource="http://purl.org/dc/dcmitype/StillImage" />
      </cc:Work>
    </rdf:RDF>
  </metadata>
  <defs
     id="defs3312">
    <linearGradient
       id="linearGradient3609">
      <stop
         style="stop-color:#ffffff;stop-opacity:1"
         offset="0"
         id="stop3611" />
      <stop
         style="stop-color:#ffffff;stop-opacity:0"
         offset="1"
         id="stop3613" />
    </linearGradient>
  </defs>
  <sodipodi:namedview
     inkscape:cy="758.9449"
     inkscape:cx="375.63777"
     inkscape:zoom="1.2279853"
     inkscape:window-height="883"
     inkscape:window-width="1432"
     inkscape:pageshadow="2"
     inkscape:pageopacity="0.0"
     guidetolerance="10.0"
     gridtolerance="10.0"
     objecttolerance="10.0"
     borderopacity="1.0"
     bordercolor="#666666"
     pagecolor="#ffffff"
     id="base"
     inkscape:window-x="48"
     inkscape:window-y="62"
     inkscape:current-layer="svg3309" />
  <rect
     style="opacity:1;fill:black;fill-opacity:1;stroke:#373737;stroke-width:0.90514088;stroke-miterlimit:4;stroke-dasharray:none;stroke-dashoffset:0;stroke-opacity:1"
     id="rect3708"
     width="394.31262"
     height="347.32199"
     x="182.31352"
     y="71.863548"
     rx="6.3558288"
     ry="6.3558297" />
  <g
     id="g3663"
     transform="matrix(1.962053,0,0,1.961021,-1847.333,-1372.658)"
     inkscape:export-filename="/home/rhwinter/docs/cdig/cvs/estudiolivre/src/styles/obscur/iThumbAudio.png"
     inkscape:export-xdpi="90"
     inkscape:export-ydpi="90">
    <rect
       ry="9.7670689"
       rx="0"
       y="746.13141"
       x="1047.8563"
       height="49.993946"
       width="49.967293"
       id="rect2786"
       style="fill:none;fill-opacity:1;stroke:white;stroke-linejoin:round;stroke-opacity:1;stroke-width:0.50980432;stroke-miterlimit:4;stroke-dasharray:none" />
    <path
       style="fill:white;fill-rule:evenodd;fill-opacity:1"
       id="path2681"
       d="M 1082.6762,785.76296 L 1070.6748,778.86036 L 1070.6748,764.07304 L 1082.6762,756.4938 L 1082.6762,785.76296 z M 1063.0038,778.20334 L 1063.0038,764.7301 L 1068.035,764.7301 L 1068.035,778.20334 L 1063.0038,778.20334 z "
       class="fil60" />
  </g>
  <g
     id="g3697"
     transform="matrix(1.962039,0,0,1.961007,-1829.573,-1348.493)"
     inkscape:export-filename="/home/rhwinter/docs/cdig/cvs/estudiolivre/src/styles/obscur/iThumbTexto.png"
     inkscape:export-xdpi="90"
     inkscape:export-ydpi="90">
    <rect
       style="fill:none;fill-opacity:1;stroke:white;stroke-linejoin:round;stroke-opacity:1;stroke-width:0.50980796;stroke-miterlimit:4;stroke-dasharray:none"
       id="rect3669"
       width="49.967293"
       height="49.993946"
       x="1042.1993"
       y="803.76062"
       rx="0"
       ry="9.7671375" />
    <g
       style="fill:white;fill-opacity:1;fill-rule:evenodd"
       transform="matrix(3.620844,0,0,3.620822,890.9497,396.918)"
       id="g2687">
      <path
         style="fill:white;fill-opacity:1;stroke:none;stroke-width:0.28222224;stroke-miterlimit:4;stroke-dasharray:none;stroke-opacity:1"
         d="M 46.46875,115.25 C 45.880029,115.25 45.40625,115.80106 45.40625,116.46875 L 45.40625,122.03125 C 45.406249,122.69895 45.880052,123.28125 46.46875,123.28125 L 50.875,123.28125 C 51.4637,123.28125 51.9375,122.69895 51.9375,122.03125 L 51.9375,116.46875 C 51.937498,115.80106 51.463721,115.25 50.875,115.25 L 46.46875,115.25 z M 46.46875,115.53125 L 50.875,115.53125 C 51.276879,115.53125 51.656249,115.92624 51.65625,116.46875 L 51.65625,122.03125 C 51.65625,122.57377 51.276904,123 50.875,123 L 46.46875,123 C 46.066848,123 45.6875,122.57377 45.6875,122.03125 L 45.6875,116.46875 C 45.6875,115.92624 46.066871,115.53125 46.46875,115.53125 z "
         id="path2689" />
      <path
         style="fill:white;fill-opacity:1;stroke:none;stroke-width:0.22306004;stroke-linejoin:bevel;stroke-opacity:1"
         d="M 46.5,117.59279 L 46.5,117.87501 L 50.84375,117.87501 L 50.84375,117.59279 L 46.5,117.59279 z "
         id="path2691" />
      <path
         id="path2693"
         d="M 46.5,121.79292 L 46.5,122.07514 L 50.84375,122.07514 L 50.84375,121.79292 L 46.5,121.79292 z "
         style="fill:white;fill-opacity:1;stroke:none;stroke-width:0.22306004;stroke-linejoin:bevel;stroke-opacity:1" />
      <path
         style="fill:white;fill-opacity:1;stroke:none;stroke-width:0.22306004;stroke-linejoin:bevel;stroke-opacity:1"
         d="M 46.5,120.74288 L 46.5,121.0251 L 50.84375,121.0251 L 50.84375,120.74288 L 46.5,120.74288 z "
         id="path2695" />
      <path
         id="path2697"
         d="M 46.5,119.69285 L 46.5,119.97507 L 50.84375,119.97507 L 50.84375,119.69285 L 46.5,119.69285 z "
         style="fill:white;fill-opacity:1;stroke:none;stroke-width:0.22306004;stroke-linejoin:bevel;stroke-opacity:1" />
      <path
         style="fill:white;fill-opacity:1;stroke:none;stroke-width:0.22306004;stroke-linejoin:bevel;stroke-opacity:1"
         d="M 46.5,118.64282 L 46.5,118.92504 L 50.84375,118.92504 L 50.84375,118.64282 L 46.5,118.64282 z "
         id="path2699" />
      <path
         id="path2701"
         d="M 47.136383,116.22872 L 47.136383,116.79316 L 50.207367,116.79316 L 50.207367,116.22872 L 47.136383,116.22872 z "
         style="fill:white;fill-opacity:1;stroke:none;stroke-width:0.22306004;stroke-linejoin:bevel;stroke-opacity:1" />
    </g>
  </g>
  <g
     id="g3685"
     transform="matrix(1.962053,0,0,1.961029,-1710.143,-1473.871)"
     inkscape:export-filename="/home/rhwinter/docs/cdig/cvs/estudiolivre/src/styles/obscur/iThumbVideo.png"
     inkscape:export-xdpi="90"
     inkscape:export-ydpi="90">
    <rect
       ry="9.7670326"
       rx="0"
       y="800.2251"
       x="1099.475"
       height="49.993946"
       width="49.967293"
       id="rect3667"
       style="fill:none;fill-opacity:1;stroke:white;stroke-linejoin:round;stroke-opacity:1;stroke-width:0.50980328;stroke-miterlimit:4;stroke-dasharray:none" />
    <g
       transform="matrix(1.019701,0,0,1.019702,3126.796,762.4698)"
       id="g2707">
      <path
         sodipodi:nodetypes="ccssssssccssssscccssssssssssssc"
         style="fill:white;fill-opacity:1;fill-rule:evenodd;stroke:none;stroke-width:0.54485458;stroke-opacity:1"
         d="M -1977.3243,48.270217 C -1977.7207,48.834338 -1978.1276,49.410852 -1978.3776,50.062909 C -1978.2525,50.033951 -1978.1248,49.996312 -1978.0031,49.964581 C -1977.6221,49.865144 -1977.2243,49.779281 -1976.8328,49.739015 C -1976.0499,49.658529 -1975.2717,49.649825 -1974.4455,49.784128 C -1973.6192,49.918527 -1972.7317,50.190437 -1971.8709,50.5084 C -1968.4275,51.780179 -1964.7608,54.361425 -1961.1746,56.970568 C -1957.5883,59.579736 -1954.1447,62.23744 -1950.8059,63.47486 C -1949.8043,63.846038 -1948.7841,64.039053 -1947.7866,64.116862 L -1947.7866,62.534788 C -1948.5388,62.453723 -1949.329,62.26377 -1950.1506,61.959286 C -1953.2214,60.821182 -1956.7417,58.319313 -1960.332,55.707252 C -1963.9222,53.095143 -1967.6007,50.388009 -1971.2857,49.026992 C -1972.207,48.686725 -1973.1032,48.448428 -1974.0242,48.298621 C -1974.9452,48.148838 -1975.916,48.112839 -1976.8328,48.207116 C -1977.0017,48.224525 -1977.1633,48.25657 -1977.3243,48.270217 z M -1979.0716,62.437303 L -1979.0716,63.99435 C -1978.6591,63.952058 -1978.0929,63.862748 -1977.6754,63.885316 C -1976.8643,63.929176 -1976.0272,64.068808 -1975.1944,64.295097 C -1971.8634,65.200304 -1968.3533,67.456402 -1964.8258,69.895267 C -1963.177,71.035251 -1961.5272,72.205761 -1959.8652,73.287419 C -1959.0342,73.828223 -1957.3166,74.924565 -1957.3618,74.924565 L -1954.0993,74.924565 C -1953.948,74.924565 -1954.5326,74.528721 -1954.7496,74.422773 C -1955.1838,74.210903 -1955.619,73.985119 -1956.0553,73.747497 C -1956.9277,73.272228 -1957.8042,72.74958 -1958.6834,72.195899 C -1960.4418,71.08849 -1962.2115,69.856881 -1963.9832,68.631903 C -1967.5267,66.182018 -1971.0612,63.780816 -1974.6795,62.797558 C -1975.5841,62.551786 -1976.503,62.394963 -1977.418,62.345485 C -1977.9186,62.318432 -1978.5739,62.40333 -1979.0716,62.437303 z "
         id="path2709" />
      <path
         id="path2711"
         class="fil3 str7"
         d="M -1978.5797,51.249525 C -1966.6147,51.429786 -1957.2891,65.030388 -1948.2436,66.291824"
         style="fill:none;fill-rule:evenodd;stroke:white;stroke-width:0.84948599;stroke-linejoin:bevel;stroke-miterlimit:4;stroke-dasharray:2.5484579, 2.5484579;stroke-dashoffset:0;stroke-opacity:1"
         sodipodi:nodetypes="cc" />
      <path
         id="path2713"
         class="fil3 str7"
         d="M -1979.0907,60.247224 C -1970.932,59.044838 -1957.178,74.791275 -1950.0702,74.468586"
         style="fill:none;fill-rule:evenodd;stroke:white;stroke-width:0.84948599;stroke-linejoin:bevel;stroke-miterlimit:4;stroke-dasharray:2.5484579, 2.5484579;stroke-dashoffset:0;stroke-opacity:1"
         sodipodi:nodetypes="cc" />
      <g
         transform="matrix(2.65892,0,0,2.411185,-2128.541,-226.0498)"
         id="g2715"
         style="fill:white;fill-opacity:1;fill-rule:evenodd">
        <path
           id="path2717"
           d="M 56.911829,115.81685 C 56.691501,115.81477 56.46655,115.84496 56.250371,115.88741 L 56.250371,118.07463 C 56.751834,118.0545 57.256382,118.14595 57.767314,118.31275 C 58.008318,117.57913 58.247063,116.85425 58.411133,116.12553 C 57.901889,115.93698 57.405387,115.82152 56.911829,115.81685 z "
           style="fill:white;fill-opacity:1" />
        <path
           style="fill:white;fill-opacity:1"
           d="M 58.805574,116.28076 C 58.638444,117.00274 58.397239,117.72615 58.156238,118.45405 C 59.170443,118.86076 60.197708,119.55539 61.227218,120.33003 C 61.473525,119.64477 61.725341,118.95728 61.916959,118.2755 C 60.875817,117.47148 59.829982,116.73358 58.805574,116.28076 C 58.805574,116.28076 58.805574,116.28076 58.805574,116.28076 z "
           class="fil60"
           id="path2719" />
        <path
           style="fill:white;fill-opacity:1"
           d="M 62.314886,118.58465 C 62.121432,119.26419 61.867983,119.9474 61.621676,120.63061 C 62.65037,121.42096 63.679268,122.2662 64.695717,122.95655 C 64.928964,122.2813 65.175883,121.59952 65.375255,120.92712 C 64.381865,120.25554 63.353171,119.40173 62.314886,118.58465 C 62.314886,118.58465 62.314886,118.58465 62.314886,118.58465 L 62.314886,118.58465 z "
           class="fil60"
           id="path2721" />
        <path
           id="path2723"
           d="M 65.748905,121.17025 C 65.552391,121.84694 65.315593,122.53825 65.087447,123.21636 C 65.843749,123.70048 66.583661,124.01731 67.318765,124.21296 C 67.717051,123.77186 67.980223,123.20434 67.980223,122.56372 L 67.980223,122.06983 C 67.268583,121.9487 66.524076,121.66021 65.748905,121.17025 z "
           style="fill:white;fill-opacity:1" />
      </g>
    </g>
  </g>
  <g
     id="g3671"
     transform="matrix(1.962053,0,0,1.961017,-1888.052,-1371.361)"
     inkscape:export-filename="/home/rhwinter/docs/cdig/cvs/estudiolivre/src/styles/obscur/iThumbImagem.png"
     inkscape:export-xdpi="90"
     inkscape:export-ydpi="90">
    <rect
       style="fill:none;fill-opacity:1;stroke:white;stroke-linejoin:round;stroke-opacity:1;stroke-width:0.50980484;stroke-miterlimit:4;stroke-dasharray:none"
       id="rect3661"
       width="49.967293"
       height="49.993946"
       x="1127.7593"
       y="746.13141"
       rx="0"
       ry="9.7670927" />
    <g
       transform="matrix(1.019703,0,0,1.019702,3295.66,708.3652)"
       id="g2729"
       style="fill:white;fill-opacity:1">
      <path
         id="path2731"
         d="M -2115.4526,48.2551 L -2115.4526,48.901032 L -2115.4526,74.200015 L -2115.4526,74.845947 L -2114.9143,74.845947 L -2088.2158,74.845947 L -2087.5699,74.845947 L -2087.5699,74.200015 L -2087.5699,48.901032 L -2087.5699,48.2551 L -2088.2158,48.2551 L -2114.9143,48.2551 L -2115.4526,48.2551 z M -2114.2684,49.546963 L -2088.7541,49.546963 L -2088.7541,73.554084 L -2114.2684,73.554084 L -2114.2684,49.546963 z "
         style="fill:white;fill-opacity:1;fill-rule:evenodd;stroke:none;stroke-width:0.3527;stroke-opacity:1" />
      <path
         id="path2733"
         d="M -2113.5148,50.408205 L -2113.5148,51.054137 L -2113.5148,65.372285 L -2113.5148,65.910561 L -2112.9765,65.910561 L -2090.046,65.910561 L -2089.4,65.910561 L -2089.4,65.372285 L -2089.4,51.054137 L -2089.4,50.408205 L -2090.046,50.408205 L -2112.9765,50.408205 L -2113.5148,50.408205 z M -2112.3306,51.700068 L -2090.6919,51.700068 L -2090.6919,64.726353 L -2112.3306,64.726353 L -2112.3306,51.700068 z "
         style="fill:white;fill-opacity:1;fill-rule:evenodd;stroke:none;stroke-width:0.3527;stroke-opacity:1" />
      <path
         style="fill:white;fill-opacity:1;fill-rule:evenodd"
         id="path2735"
         d="M -2113.0749,63.460353 C -2111.3624,60.292016 -2109.2296,60.835287 -2108.0156,63.258822 C -2108.6464,59.70396 -2104.1521,55.524525 -2102.1467,60.627556 C -2100.2448,47.739241 -2091.22,56.344771 -2093.0393,65.080521 L -2112.6701,65.484961 L -2113.0749,63.460353 L -2113.0749,63.460353 z "
         class="fil60" />
      <path
         id="path2737"
         d="M -2108.9375,52.625 C -2109.8279,52.625 -2110.5311,53.359677 -2110.5312,54.25 C -2110.5312,55.140364 -2109.8278,55.875001 -2108.9375,55.875 C -2108.0472,55.875 -2107.3124,55.140291 -2107.3125,54.25 C -2107.3125,53.359742 -2108.0471,52.624998 -2108.9375,52.625 z M -2108.9375,53.25 C -2108.3768,53.249999 -2107.9062,53.689238 -2107.9062,54.25 C -2107.9062,54.810733 -2108.3766,55.28125 -2108.9375,55.28125 C -2109.4983,55.281251 -2109.9375,54.810656 -2109.9375,54.25 C -2109.9374,53.689307 -2109.4981,53.25 -2108.9375,53.25 z "
         style="fill:white;fill-opacity:1;fill-rule:evenodd;stroke:none;stroke-width:0.60734785;stroke-opacity:1" />
      <path
         id="path2739"
         d="M -2110.2812,53.75 L -2113.125,59.8125 L -2112.2188,60.21875 L -2109.4062,54.15625 L -2110.2812,53.75 z "
         style="fill:white;fill-opacity:1;fill-rule:evenodd;stroke:none;stroke-width:0.97224659;stroke-linejoin:bevel;stroke-miterlimit:4;stroke-dasharray:none;stroke-opacity:1" />
      <path
         id="path2741"
         d="M -2108.75,54.03125 L -2109.7188,54.25 L -2107.2812,65.1875 L -2106.3125,64.96875 L -2108.75,54.03125 z "
         style="fill:white;fill-opacity:1;fill-rule:evenodd;stroke:none;stroke-width:0.97224659;stroke-linejoin:bevel;stroke-miterlimit:4;stroke-dasharray:none;stroke-opacity:1" />
      <path
         id="path2743"
         d="M -2108.2812,53.8125 L -2108.9688,54.5 L -2102.2812,61.1875 L -2101.5938,60.5 L -2108.2812,53.8125 z "
         style="fill:white;fill-opacity:1;fill-rule:evenodd;stroke:none;stroke-width:0.97224659;stroke-linejoin:bevel;stroke-miterlimit:4;stroke-dasharray:none;stroke-opacity:1" />
      <path
         id="path2745"
         d="M -2108.5,53.0625 L -2108.75,54.03125 L -2098,56.65625 L -2097.7812,55.71875 L -2108.5,53.0625 z "
         style="fill:white;fill-opacity:1;fill-rule:evenodd;stroke:none;stroke-width:0.97224659;stroke-linejoin:bevel;stroke-miterlimit:4;stroke-dasharray:none;stroke-opacity:1" />
      <path
         id="path2747"
         d="M -2105.25,50.71875 L -2109.5,53.34375 L -2108.9688,54.15625 L -2104.7188,51.53125 L -2105.25,50.71875 z "
         style="fill:white;fill-opacity:1;fill-rule:evenodd;stroke:none;stroke-width:0.97224659;stroke-linejoin:bevel;stroke-miterlimit:4;stroke-dasharray:none;stroke-opacity:1" />
      <path
         id="path2749"
         d="M -2112.5938,51.125 L -2113.125,51.9375 L -2109.6875,54.15625 L -2109.1562,53.34375 L -2112.5938,51.125 z "
         style="fill:white;fill-opacity:1;fill-rule:evenodd;stroke:none;stroke-width:0.97224659;stroke-linejoin:bevel;stroke-miterlimit:4;stroke-dasharray:none;stroke-opacity:1" />
    </g>
  </g>
  <text
     xml:space="preserve"
     style="font-size:12px;font-style:normal;font-variant:normal;font-weight:normal;font-stretch:normal;text-align:center;line-height:129.99999523%;writing-mode:lr-tb;text-anchor:middle;fill:#a1a1a1;fill-opacity:1;stroke:none;stroke-width:1px;stroke-linecap:butt;stroke-linejoin:miter;stroke-opacity:1;font-family:Trebuchet MS"
     x="388.82697"
     y="369.60422"
     id="text3710"
     sodipodi:linespacing="130%"><tspan
       sodipodi:role="line"
       id="tspan3712"
       x="388.82697"
       y="369.60422">iThumb'tipo'.png</tspan><tspan
       sodipodi:role="line"
       x="388.82697"
       y="385.20422"
       id="tspan3714">tipo em pt!!!!</tspan></text>
</svg>
