<?xml version="1.0" encoding="UTF-8"?>

<!DOCTYPE svg PUBLIC '-//W3C//DTD SVG 1.0//EN' 'http://www.w3.org/TR/2001/REC-SVG-20010904/DTD/svg10.dtd'>
<svg style="fill-opacity:1; color-rendering:auto; color-interpolation:auto; stroke:black; text-rendering:auto; stroke-linecap:square; stroke-miterlimit:10; shape-rendering:auto; stroke-opacity:1; fill:black; stroke-dasharray:none; font-weight:normal; stroke-width:1; font-family:&apos;sansserif&apos;; font-style:normal; stroke-linejoin:miter; font-size:12; stroke-dashoffset:0; image-rendering:auto;" xmlns="http://www.w3.org/2000/svg" width="995" xmlns:xlink="http://www.w3.org/1999/xlink" height="829">
  <!--Generated by the Batik Graphics2D SVG Generator-->
  <defs id="genericDefs" />
  <g>
    <defs id="defs1">
      <clipPath clipPathUnits="userSpaceOnUse" id="clipPath1">
        <path d="M26 -82 L1021 -82 L1021 747 L26 747 L26 -82 Z" />
      </clipPath>
      <clipPath clipPathUnits="userSpaceOnUse" id="clipPath2">
        <path d="M0 0 L995 0 L995 829 L0 829 L0 0 Z" />
      </clipPath>
    </defs>
    <g style="fill:white; stroke:white;" transform="translate(-26,82)">
      <rect x="26" y="-82" width="995" style="clip-path:url(#clipPath1); stroke:none;" height="829" />
    </g>
    <g style="fill:white; stroke:white;">
      <rect x="9.125" y="805.75" width="104.904296875" style="clip-path:url(#clipPath2); stroke:none;" height="15.5625" />
      <text x="10" y="817" style="clip-path:url(#clipPath2); fill:silver; font-family:sans-serif; stroke:none;" xml:space="preserve">Powered by yFiles</text>
    </g>
    <g style="fill:rgb(255,204,0); stroke:rgb(255,204,0);" transform="matrix(1,0,0,1,-26,82)">
      <path d="M546.90625 500 L583.90625 465 L620.90625 500 L583.90625 535 Z" style="clip-path:url(#clipPath1); fill-rule:evenodd; stroke:none;" />
    </g>
    <g style="font-size:13; font-family:sans-serif;" transform="matrix(1,0,0,1,-26,82)">
      <text x="576.90625" y="504.789306640625" style="clip-path:url(#clipPath1); stroke:none;" xml:space="preserve">eL</text>
      <path style="stroke-linecap:butt; clip-path:url(#clipPath1); fill:none; fill-rule:evenodd; stroke-miterlimit:1.4500000476837158;" d="M546.90625 500 L583.90625 465 L620.90625 500 L583.90625 535 Z" />
      <path style="fill:rgb(204,153,255); clip-path:url(#clipPath1); fill-rule:evenodd; stroke:none;" d="M926.90625 391.5233459472656 L946.2371826171875 376 L973.5753173828125 376 L992.90625 391.5233459472656 L992.90625 413.4766540527344 L973.5753173828125 429 L946.2371826171875 429 L926.90625 413.4766540527344 Z" />
      <text x="946.90625" y="407.289306640625" style="clip-path:url(#clipPath1); stroke:none;" xml:space="preserve">labs</text>
      <path style="stroke-linecap:butt; clip-path:url(#clipPath1); fill:none; fill-rule:evenodd; stroke-miterlimit:1.4500000476837158;" d="M926.90625 391.5233459472656 L946.2371826171875 376 L973.5753173828125 376 L992.90625 391.5233459472656 L992.90625 413.4766540527344 L973.5753173828125 429 L946.2371826171875 429 L926.90625 413.4766540527344 Z" />
      <ellipse style="clip-path:url(#clipPath1); fill:rgb(255,204,0); stroke:none;" rx="29.5" cx="448.40625" ry="15" cy="574" />
      <text x="427.90625" y="578.789306640625" style="clip-path:url(#clipPath1); stroke:none;" xml:space="preserve">acervo</text>
      <ellipse style="stroke-linecap:butt; clip-path:url(#clipPath1); fill:none; stroke-miterlimit:1.4500000476837158;" rx="29.5" cx="448.40625" ry="15" cy="574" />
      <ellipse style="clip-path:url(#clipPath1); fill:rgb(255,204,0); stroke:none;" rx="65.5" cx="940.40625" ry="23.5" cy="-24.5" />
      <text x="880.40625" y="-19.710693359375" style="clip-path:url(#clipPath1); stroke:none;" xml:space="preserve">como fazer tutorial</text>
      <ellipse style="stroke-linecap:butt; clip-path:url(#clipPath1); fill:none; stroke-miterlimit:1.4500000476837158;" rx="65.5" cx="940.40625" ry="23.5" cy="-24.5" />
      <ellipse style="clip-path:url(#clipPath1); fill:rgb(255,204,0); stroke:none;" rx="54.5" cx="500.40625" ry="15" cy="621" />
      <text x="452.90625" y="625.789306640625" style="clip-path:url(#clipPath1); stroke:none;" xml:space="preserve">recent changes</text>
      <ellipse style="stroke-linecap:butt; clip-path:url(#clipPath1); fill:none; stroke-miterlimit:1.4500000476837158;" rx="54.5" cx="500.40625" ry="15" cy="621" />
      <ellipse style="clip-path:url(#clipPath1); fill:rgb(204,255,204); stroke:none;" rx="36.5" cx="353.40625" ry="15" cy="268" />
      <text x="327.90625" y="272.789306640625" style="clip-path:url(#clipPath1); stroke:none;" xml:space="preserve">o que é?</text>
      <ellipse style="stroke-linecap:butt; clip-path:url(#clipPath1); fill:none; stroke-miterlimit:1.4500000476837158;" rx="36.5" cx="353.40625" ry="15" cy="268" />
      <path style="fill:rgb(255,204,153); clip-path:url(#clipPath1); fill-rule:evenodd; stroke:none;" d="M654.90625 702 L735.90625 702 L726.90625 732 L645.90625 732 Z" />
      <text x="662.90625" y="721.789306640625" style="clip-path:url(#clipPath1); stroke:none;" xml:space="preserve">conversê</text>
      <path style="stroke-linecap:butt; clip-path:url(#clipPath1); fill:none; fill-rule:evenodd; stroke-miterlimit:1.4500000476837158;" d="M654.90625 702 L735.90625 702 L726.90625 732 L645.90625 732 Z" />
      <ellipse style="clip-path:url(#clipPath1); fill:rgb(255,204,0); stroke:none;" rx="38" cx="418.90625" ry="15" cy="468" />
      <text x="391.90625" y="472.789306640625" style="clip-path:url(#clipPath1); stroke:none;" xml:space="preserve">usuários</text>
      <ellipse style="stroke-linecap:butt; clip-path:url(#clipPath1); fill:none; stroke-miterlimit:1.4500000476837158;" rx="38" cx="418.90625" ry="15" cy="468" />
      <path style="fill:rgb(255,204,153); clip-path:url(#clipPath1); fill-rule:evenodd; stroke:none;" d="M794.5062255859375 367 L853.90625 367 L847.3062744140625 397 L787.90625 397 Z" />
      <text x="801.90625" y="386.789306640625" style="clip-path:url(#clipPath1); stroke:none;" xml:space="preserve">a lista</text>
      <path style="stroke-linecap:butt; clip-path:url(#clipPath1); fill:none; fill-rule:evenodd; stroke-miterlimit:1.4500000476837158;" d="M794.5062255859375 367 L853.90625 367 L847.3062744140625 397 L787.90625 397 Z" />
      <ellipse style="clip-path:url(#clipPath1); fill:rgb(255,204,0); stroke:none;" rx="32.5" cx="698.40625" ry="15" cy="307" />
      <text x="677.90625" y="311.789306640625" style="clip-path:url(#clipPath1); stroke:none;" xml:space="preserve">fóruns</text>
      <ellipse style="stroke-linecap:butt; clip-path:url(#clipPath1); fill:none; stroke-miterlimit:1.4500000476837158;" rx="32.5" cx="698.40625" ry="15" cy="307" />
      <ellipse style="clip-path:url(#clipPath1); fill:rgb(255,204,0); stroke:none;" rx="45" cx="577.90625" ry="15" cy="335" />
      <text x="540.40625" y="341.22607421875" style="clip-path:url(#clipPath1); stroke:none;" xml:space="preserve">registrar-se</text>
      <ellipse style="stroke-linecap:butt; clip-path:url(#clipPath1); fill:none; stroke-miterlimit:1.4500000476837158;" rx="45" cx="577.90625" ry="15" cy="335" />
      <rect x="432.392654833837" y="5" width="224.97280966767374" style="clip-path:url(#clipPath1); fill:rgb(204,255,204); stroke:none;" height="48" />
      <text x="438.3926696777344" y="33.789306640625" style="clip-path:url(#clipPath1); stroke:none;" xml:space="preserve">introdução/todos podem editar</text>
      <rect x="432.392654833837" y="5" width="224.97280966767374" style="stroke-linecap:butt; clip-path:url(#clipPath1); fill:none; stroke-miterlimit:1.4500000476837158;" height="48" />
      <ellipse style="clip-path:url(#clipPath1); fill:rgb(255,204,0); stroke:none;" rx="74.47280966767372" cx="120.35186933534743" ry="15" cy="287.51359516616316" />
      <text x="62.85186767578125" y="292.3028869628906" style="clip-path:url(#clipPath1); stroke:none;" xml:space="preserve">creative commons</text>
      <ellipse style="stroke-linecap:butt; clip-path:url(#clipPath1); fill:none; stroke-miterlimit:1.4500000476837158;" rx="74.47280966767372" cx="120.35186933534743" ry="15" cy="287.51359516616316" />
      <ellipse style="clip-path:url(#clipPath1); fill:rgb(255,204,0); stroke:none;" rx="59.74320241691842" cx="334.6494524169184" ry="15" cy="-52" />
      <text x="288.1494445800781" y="-47.210693359375" style="clip-path:url(#clipPath1); stroke:none;" xml:space="preserve">política de uso</text>
      <ellipse style="stroke-linecap:butt; clip-path:url(#clipPath1); fill:none; stroke-miterlimit:1.4500000476837158;" rx="59.74320241691842" cx="334.6494524169184" ry="15" cy="-52" />
      <ellipse style="clip-path:url(#clipPath1); fill:rgb(255,204,0); stroke:none;" rx="43.5" cx="792.40625" ry="15" cy="328" />
      <text x="768.40625" y="332.789306640625" style="clip-path:url(#clipPath1); stroke:none;" xml:space="preserve">contato</text>
      <ellipse style="stroke-linecap:butt; clip-path:url(#clipPath1); fill:none; stroke-miterlimit:1.4500000476837158;" rx="43.5" cx="792.40625" ry="15" cy="328" />
      <rect x="89.90625" y="26" width="137" style="clip-path:url(#clipPath1); fill:rgb(204,255,204); stroke:none;" height="30" />
      <text x="99.40625" y="45.789306640625" style="clip-path:url(#clipPath1); stroke:none;" xml:space="preserve">organizando ações</text>
      <rect x="89.90625" y="26" width="137" style="stroke-linecap:butt; clip-path:url(#clipPath1); fill:none; stroke-miterlimit:1.4500000476837158;" height="30" />
      <rect x="151.875" y="-25" width="144.0625" style="clip-path:url(#clipPath1); fill:rgb(204,255,204); stroke:none;" height="30" />
      <text x="160.90625" y="-5.210693359375" style="clip-path:url(#clipPath1); stroke:none;" xml:space="preserve">trabalhos anteriores</text>
      <rect x="151.875" y="-25" width="144.0625" style="stroke-linecap:butt; clip-path:url(#clipPath1); fill:none; stroke-miterlimit:1.4500000476837158;" height="30" />
      <path style="fill:rgb(255,204,153); clip-path:url(#clipPath1); fill-rule:evenodd; stroke:none;" d="M501.60626220703125 -54 L579.90625 -54 L571.2062377929688 -24 L492.90625 -24 Z" />
      <text x="500.90625" y="-34.210693359375" style="clip-path:url(#clipPath1); stroke:none;" xml:space="preserve">cultura.gov</text>
      <path style="stroke-linecap:butt; clip-path:url(#clipPath1); fill:none; fill-rule:evenodd; stroke-miterlimit:1.4500000476837158;" d="M501.60626220703125 -54 L579.90625 -54 L571.2062377929688 -24 L492.90625 -24 Z" />
      <ellipse style="clip-path:url(#clipPath1); fill:rgb(204,255,255); stroke:none;" rx="58.75" cx="101.90625" ry="15" cy="354" />
      <text x="50.40625" y="358.789306640625" style="clip-path:url(#clipPath1); stroke:none;" xml:space="preserve">direitos autorais</text>
      <ellipse style="stroke-linecap:butt; clip-path:url(#clipPath1); fill:none; stroke-miterlimit:1.4500000476837158;" rx="58.75" cx="101.90625" ry="15" cy="354" />
      <ellipse style="clip-path:url(#clipPath1); fill:rgb(204,255,255); stroke:none;" rx="45.46875" cx="786.90625" ry="14.21875" cy="-22.5" />
      <text x="749.40625" y="-17.710693359375" style="clip-path:url(#clipPath1); stroke:none;" xml:space="preserve">como editar</text>
      <ellipse style="stroke-linecap:butt; clip-path:url(#clipPath1); fill:none; stroke-miterlimit:1.4500000476837158;" rx="45.46875" cx="786.90625" ry="14.21875" cy="-22.5" />
      <ellipse style="clip-path:url(#clipPath1); fill:rgb(204,255,255); stroke:none;" rx="49.375" cx="361.40625" ry="15" cy="717" />
      <text x="318.90625" y="721.789306640625" style="clip-path:url(#clipPath1); stroke:none;" xml:space="preserve">faq do acervo</text>
      <ellipse style="stroke-linecap:butt; clip-path:url(#clipPath1); fill:none; stroke-miterlimit:1.4500000476837158;" rx="49.375" cx="361.40625" ry="15" cy="717" />
      <ellipse style="clip-path:url(#clipPath1); fill:rgb(204,255,255); stroke:none;" rx="72.8125" cx="858.40625" ry="15" cy="685" />
      <text x="797.90625" y="689.789306640625" style="clip-path:url(#clipPath1); stroke:none;" xml:space="preserve">Est. de Vídeo (tech)</text>
      <ellipse style="stroke-linecap:butt; clip-path:url(#clipPath1); fill:none; stroke-miterlimit:1.4500000476837158;" rx="72.8125" cx="858.40625" ry="15" cy="685" />
      <ellipse style="clip-path:url(#clipPath1); fill:rgb(204,255,255); stroke:none;" rx="59.53125" cx="101.40625" ry="15" cy="93" />
      <text x="59.40625" y="97.789306640625" style="clip-path:url(#clipPath1); stroke:none;" xml:space="preserve">faq soft. livre</text>
      <ellipse style="stroke-linecap:butt; clip-path:url(#clipPath1); fill:none; stroke-miterlimit:1.4500000476837158;" rx="59.53125" cx="101.40625" ry="15" cy="93" />
      <path style="fill:rgb(255,204,153); clip-path:url(#clipPath1); fill-rule:evenodd; stroke:none;" d="M79.28125 201 L135.8125 201 L129.53125 231 L73 231 Z" />
      <text x="84.90625" y="220.789306640625" style="clip-path:url(#clipPath1); stroke:none;" xml:space="preserve">cc.org</text>
      <path style="stroke-linecap:butt; clip-path:url(#clipPath1); fill:none; fill-rule:evenodd; stroke-miterlimit:1.4500000476837158;" d="M79.28125 201 L135.8125 201 L129.53125 231 L73 231 Z" />
      <ellipse style="clip-path:url(#clipPath1); fill:rgb(255,204,0); stroke:none;" rx="40" cx="784.90625" ry="15" cy="66" />
      <text x="757.90625" y="70.789306640625" style="clip-path:url(#clipPath1); stroke:none;" xml:space="preserve">colabore</text>
      <ellipse style="stroke-linecap:butt; clip-path:url(#clipPath1); fill:none; stroke-miterlimit:1.4500000476837158;" rx="40" cx="784.90625" ry="15" cy="66" />
      <path style="fill:rgb(204,153,255); clip-path:url(#clipPath1); fill-rule:evenodd; stroke:none;" d="M881.15625 79.4035415649414 L900.926513671875 65.125 L928.885986328125 65.125 L948.65625 79.4035415649414 L948.65625 99.5964584350586 L928.885986328125 113.875 L900.926513671875 113.875 L881.15625 99.5964584350586 Z" />
      <text x="903.90625" y="94.289306640625" style="clip-path:url(#clipPath1); stroke:none;" xml:space="preserve">dev</text>
      <path style="stroke-linecap:butt; clip-path:url(#clipPath1); fill:none; fill-rule:evenodd; stroke-miterlimit:1.4500000476837158;" d="M881.15625 79.4035415649414 L900.926513671875 65.125 L928.885986328125 65.125 L948.65625 79.4035415649414 L948.65625 99.5964584350586 L928.885986328125 113.875 L900.926513671875 113.875 L881.15625 99.5964584350586 Z" />
      <ellipse style="clip-path:url(#clipPath1); fill:rgb(255,204,0); stroke:none;" rx="36.875" cx="420.90625" ry="15" cy="525" />
      <text x="403.40625" y="529.789306640625" style="clip-path:url(#clipPath1); stroke:none;" xml:space="preserve">blogs</text>
      <ellipse style="stroke-linecap:butt; clip-path:url(#clipPath1); fill:none; stroke-miterlimit:1.4500000476837158;" rx="36.875" cx="420.90625" ry="15" cy="525" />
    </g>
    <g transform="matrix(1,0,0,1,-26,82)" style="stroke-linecap:butt; font-size:13; font-family:sans-serif; stroke-dasharray:2,2; stroke-width:2; stroke-miterlimit:1.4500000476837158;">
      <path d="M612.9599609375 492.46612548828125 L926.9052734375 411.05743408203125" style="fill:none; clip-path:url(#clipPath1);" />
      <path d="M926.9052734375 411.05743408203125 L912.425537109375 409.0010986328125 L917.1044311523438 413.598876953125 L915.2493896484375 419.89093017578125 Z" style="clip-path:url(#clipPath1); stroke:none;" />
      <path d="M597.1984252929688 477.5948486328125 L689.8232421875 321.46746826171875" style="fill:none; clip-path:url(#clipPath1);" />
      <path d="M689.8232421875 321.46746826171875 L678.097412109375 330.20794677734375 L684.6571655273438 330.17535400390625 L687.7728271484375 335.9480285644531 Z" style="clip-path:url(#clipPath1); stroke:none;" />
      <path d="M553.170166015625 494.0390625 L453.0121765136719 474.6144714355469" style="fill:none; clip-path:url(#clipPath1);" />
      <path d="M453.0121765136719 474.6144714355469 L465.19427490234375 482.7068786621094 L462.95196533203125 476.54217529296875 L467.336181640625 471.66265869140625 Z" style="clip-path:url(#clipPath1); stroke:none;" />
      <path style="fill:none; stroke-dasharray:none; stroke-width:1; clip-path:url(#clipPath1);" d="M595.6746826171875 523.8668212890625 L683.5003662109375 701.9805908203125" />
      <path style="stroke-dasharray:none; stroke-width:1; clip-path:url(#clipPath1); stroke:none;" d="M683.5003662109375 701.9805908203125 L682.6778564453125 689.0066528320312 L679.5201416015625 693.9085693359375 L673.7089233398438 693.4290771484375 Z" />
      <path d="M565.9828491210938 481.9599609375 L367.2034912109375 281.8870544433594" style="fill:none; clip-path:url(#clipPath1);" />
      <path d="M367.2034912109375 281.8870544433594 L372.7280578613281 295.428466796875 L374.3396911621094 289.0697021484375 L380.7087707519531 287.4993591308594 Z" style="clip-path:url(#clipPath1); stroke:none;" />
      <path d="M569.2896728515625 521.180908203125 L510.57568359375 606.263427734375" style="fill:none; clip-path:url(#clipPath1);" />
      <path d="M510.57568359375 606.263427734375 L522.8729248046875 598.3471069335938 L516.326416015625 597.9300537109375 L513.6136474609375 591.9574584960938 Z" style="clip-path:url(#clipPath1); stroke:none;" />
      <path d="M560.4517822265625 512.80908203125 L468.50836181640625 563.021728515625" style="fill:none; clip-path:url(#clipPath1);" />
      <path d="M468.50836181640625 563.021728515625 L483.0527038574219 561.4878540039062 L477.3945617675781 558.1687622070312 L477.6605224609375 551.6143188476562 Z" style="clip-path:url(#clipPath1); stroke:none;" />
      <path d="M582.67724609375 466.202392578125 L578.45166015625 349.9989013671875" style="fill:none; clip-path:url(#clipPath1);" />
      <path d="M578.45166015625 349.9989013671875 L573.3209838867188 363.69439697265625 L578.819580078125 360.1172180175781 L584.5635375976562 363.28558349609375 Z" style="clip-path:url(#clipPath1); stroke:none;" />
      <path style="fill:none; stroke-dasharray:none; stroke-width:1; clip-path:url(#clipPath1);" d="M364.8206481933594 253.75233459472656 L525.6516723632812 53" />
      <path style="stroke-dasharray:none; stroke-width:1; clip-path:url(#clipPath1); stroke:none;" d="M525.6516723632812 53 L514.2466430664062 59.239017486572266 L520.0245361328125 60.02390670776367 L522.0509643554688 65.49140167236328 Z" />
      <path style="fill:none; stroke-dasharray:none; stroke-width:1; clip-path:url(#clipPath1);" d="M317.6410217285156 270.99462890625 L189.1194305419922 281.7557067871094" />
      <path style="stroke-dasharray:none; stroke-width:1; clip-path:url(#clipPath1); stroke:none;" d="M189.1194305419922 281.7557067871094 L201.49478149414062 285.7370300292969 L198.08804321289062 281.0047607421875 L200.660400390625 275.7718811035156 Z" />
      <path style="fill:none; stroke-dasharray:none; stroke-width:1; clip-path:url(#clipPath1);" d="M352.52728271484375 253.0043487548828 L335.5285949707031 -37.001625061035156" />
      <path style="stroke-dasharray:none; stroke-width:1; clip-path:url(#clipPath1); stroke:none;" d="M335.5285949707031 -37.001625061035156 L331.2393493652344 -24.7296142578125 L336.05523681640625 -28.017045974731445 L341.2221984863281 -25.31475830078125 Z" />
      <path style="fill:none; stroke-dasharray:none; stroke-width:1; clip-path:url(#clipPath1);" d="M341.2557067871094 253.85552978515625 L171.29171752929688 56" />
      <path style="stroke-dasharray:none; stroke-width:1; clip-path:url(#clipPath1); stroke:none;" d="M171.29171752929688 56 L175.31837463378906 68.36066436767578 L177.15626525878906 62.82693862915039 L182.9038543701172 61.84450149536133 Z" />
      <path style="fill:none; stroke-dasharray:none; stroke-width:1; clip-path:url(#clipPath1);" d="M346.54345703125 253.2675323486328 L230.89366149902344 5" />
      <path style="stroke-dasharray:none; stroke-width:1; clip-path:url(#clipPath1); stroke:none;" d="M230.89366149902344 5 L231.4284210205078 17.988996505737305 L234.69400024414062 13.158270835876465 L240.4931640625 13.766390800476074 Z" />
      <path style="fill:none; stroke-dasharray:none; stroke-width:1; clip-path:url(#clipPath1);" d="M541.888671875 5 L538.2720947265625 -24.025390625" />
      <path style="stroke-dasharray:none; stroke-width:1; clip-path:url(#clipPath1); stroke:none;" d="M538.2720947265625 -24.025390625 L534.794189453125 -11.499249458312988 L539.3848876953125 -15.094450950622559 L544.7174682617188 -12.735692977905273 Z" />
      <path style="fill:none; stroke-dasharray:none; stroke-width:1; clip-path:url(#clipPath1);" d="M116.19683837890625 302.490234375 L106.05736541748047 339.0374755859375" />
      <path style="stroke-dasharray:none; stroke-width:1; clip-path:url(#clipPath1); stroke:none;" d="M106.05736541748047 339.0374755859375 L114.08342742919922 328.8109130859375 L108.46339416503906 330.36505126953125 L104.44739532470703 326.1375427246094 Z" />
      <path style="fill:none; stroke-dasharray:none; stroke-width:1; clip-path:url(#clipPath1);" d="M117.01063537597656 272.5286865234375 L107.74642181396484 230.9801483154297" />
      <path style="stroke-dasharray:none; stroke-width:1; clip-path:url(#clipPath1); stroke:none;" d="M107.74642181396484 230.9801483154297 L105.47781372070312 243.78067016601562 L109.70508575439453 239.76443481445312 L115.23812866210938 241.60438537597656 Z" />
      <path style="fill:none; stroke-dasharray:none; stroke-width:1; clip-path:url(#clipPath1);" d="M785.2452392578125 51.00053787231445 L786.5848999023438 -8.281604766845703" />
      <path style="stroke-dasharray:none; stroke-width:1; clip-path:url(#clipPath1); stroke:none;" d="M786.5848999023438 -8.281604766845703 L781.3150634765625 3.6023709774017334 L786.381591796875 0.7160980701446533 L791.3125 3.828293800354004 Z" />
      <path style="fill:none; stroke-dasharray:none; stroke-width:1; clip-path:url(#clipPath1);" d="M792.5628662109375 80.7226333618164 L946.1702880859375 376.08770751953125" />
      <path style="stroke-dasharray:none; stroke-width:1; clip-path:url(#clipPath1); stroke:none;" d="M946.1702880859375 376.08770751953125 L945.0695190429688 363.1343994140625 L942.0177612304688 368.1029357910156 L936.1975708007812 367.7483215332031 Z" />
      <path style="fill:none; stroke-dasharray:none; stroke-width:1; clip-path:url(#clipPath1);" d="M820.9382934570312 72.51348114013672 L881.16845703125 83.4012451171875" />
      <path style="stroke-dasharray:none; stroke-width:1; clip-path:url(#clipPath1); stroke:none;" d="M881.16845703125 83.4012451171875 L870.249267578125 76.34635162353516 L872.31201171875 81.8002700805664 L868.4703979492188 86.1868667602539 Z" />
      <path style="fill:none; stroke-dasharray:none; stroke-width:1; clip-path:url(#clipPath1);" d="M657.365478515625 46.339691162109375 L747.9100341796875 60.29705810546875" />
      <path style="stroke-dasharray:none; stroke-width:1; clip-path:url(#clipPath1); stroke:none;" d="M747.9100341796875 60.29705810546875 L736.8118896484375 53.52722930908203 L739.0150756835938 58.92591094970703 L735.2883911132812 63.41049575805664 Z" />
      <path style="fill:none; stroke-dasharray:none; stroke-width:1; clip-path:url(#clipPath1);" d="M755.8984985351562 319.8440246582031 L727.6594848632812 313.5352783203125" />
      <path style="stroke-dasharray:none; stroke-width:1; clip-path:url(#clipPath1); stroke:none;" d="M727.6594848632812 313.5352783203125 L738.2806396484375 321.0313415527344 L736.4429321289062 315.49755859375 L740.4609375 311.2719421386719 Z" />
      <path d="M603.6821899414062 483.68603515625 L775.6297607421875 341.8395690917969" style="fill:none; clip-path:url(#clipPath1);" />
      <path d="M775.6297607421875 341.8395690917969 L761.6364135742188 346.0912780761719 L767.8193969726562 348.28265380859375 L768.79541015625 354.76947021484375 Z" style="clip-path:url(#clipPath1); stroke:none;" />
      <path style="fill:none; stroke-dasharray:none; stroke-width:1; clip-path:url(#clipPath1);" d="M800.1950073242188 342.7575988769531 L812.988037109375 366.9970703125" />
      <path style="stroke-dasharray:none; stroke-width:1; clip-path:url(#clipPath1); stroke:none;" d="M812.988037109375 366.9970703125 L811.808837890625 354.0506591796875 L808.7872314453125 359.03759765625 L802.9650268554688 358.7182312011719 Z" />
      <path style="fill:none; stroke-dasharray:none; stroke-width:1; clip-path:url(#clipPath1);" d="M806.57177734375 53.39081954956055 L906.0341796875 -4.4956817626953125" />
      <path style="stroke-dasharray:none; stroke-width:1; clip-path:url(#clipPath1); stroke:none;" d="M906.0341796875 -4.4956817626953125 L893.1477661132812 -2.7810099124908447 L898.255615234375 0.03138096630573273 L898.1778564453125 5.861813545227051 Z" />
      <path style="fill:none; stroke-dasharray:none; stroke-width:1; clip-path:url(#clipPath1);" d="M377.48614501953125 256.72735595703125 L759.8984375 77.70702362060547" />
      <path style="stroke-dasharray:none; stroke-width:1; clip-path:url(#clipPath1); stroke:none;" d="M759.8984375 77.70702362060547 L746.9104614257812 78.2663803100586 L751.7473754882812 81.52281188964844 L751.1502685546875 87.32311248779297 Z" />
      <path d="M552.030517578125 504.888916015625 L455.4101257324219 519.7080078125" style="fill:none; clip-path:url(#clipPath1);" />
      <path d="M455.4101257324219 519.7080078125 L469.6068420410156 523.2213745117188 L465.4180908203125 518.1730346679688 L467.9013366699219 512.1013793945312 Z" style="clip-path:url(#clipPath1); stroke:none;" />
      <path style="fill:none; stroke-dasharray:none; stroke-width:1; clip-path:url(#clipPath1);" d="M950.3782348632812 429.01885986328125 L863.7809448242188 670.0408935546875" />
      <path style="stroke-dasharray:none; stroke-width:1; clip-path:url(#clipPath1); stroke:none;" d="M863.7809448242188 670.0408935546875 L872.5440063476562 660.4383544921875 L866.8240966796875 661.5709838867188 L863.1329956054688 657.0570678710938 Z" />
      <text x="914.3172607421875" y="553.9208984375" style="font-size:12; clip-path:url(#clipPath1); stroke-dasharray:none; stroke:none; stroke-width:1;" xml:space="preserve">video lab</text>
      <path style="font-size:12; clip-path:url(#clipPath1); fill:none; stroke-dasharray:none; stroke-width:1;" d="M439.6880187988281 588.3299560546875 L370.380126953125 702.2498168945312" />
      <path style="font-size:12; clip-path:url(#clipPath1); stroke-dasharray:none; stroke:none; stroke-width:1;" d="M370.380126953125 702.2498168945312 L380.8887939453125 694.5968627929688 L375.0579528808594 694.5609741210938 L372.34564208984375 689.3992919921875 Z" />
      <path style="font-size:12; clip-path:url(#clipPath1); fill:none; stroke-dasharray:none; stroke-width:1;" d="M334.8173522949219 255.09103393554688 L121.71101379394531 107.10052490234375" />
      <path style="font-size:12; clip-path:url(#clipPath1); stroke-dasharray:none; stroke:none; stroke-width:1;" d="M121.71101379394531 107.10052490234375 L128.71546936035156 118.0521240234375 L129.1033477783203 112.23408508300781 L134.41943359375 109.83842468261719 Z" />
      <path style="font-size:12; clip-path:url(#clipPath1); fill:none; stroke-dasharray:none; stroke-width:1;" d="M874.9494018554688 -23.64714241027832 L832.3355712890625 -23.0919132232666" />
      <path style="font-size:12; clip-path:url(#clipPath1); stroke-dasharray:none; stroke:none; stroke-width:1;" d="M832.3355712890625 -23.0919132232666 L844.3997192382812 -18.248676300048828 L841.3347778320312 -23.20916748046875 L844.2694091796875 -28.247827529907227 Z" />
      <path style="font-size:12; clip-path:url(#clipPath1); fill:none; stroke-dasharray:none; stroke-width:1;" d="M785.3356323242188 80.99913787841797 L791.9768676757812 313.000732421875" />
      <path style="font-size:12; clip-path:url(#clipPath1); stroke-dasharray:none; stroke:none; stroke-width:1;" d="M791.9768676757812 313.000732421875 L796.6314697265625 300.8625793457031 L791.7193603515625 304.0044250488281 L786.6355590820312 301.1487121582031 Z" />
      <path style="font-size:12; clip-path:url(#clipPath1); fill:none; stroke-dasharray:none; stroke-width:1;" d="M773.8160400390625 80.41194152832031 L589.0870361328125 320.4703674316406" />
      <path style="font-size:12; clip-path:url(#clipPath1); stroke-dasharray:none; stroke:none; stroke-width:1;" d="M589.0870361328125 320.4703674316406 L600.3678588867188 314.00946044921875 L594.5757446289062 313.3377380371094 L592.4426879882812 307.9109191894531 Z" />
      <path style="font-size:12; clip-path:url(#clipPath1); fill:none; stroke-dasharray:none; stroke-width:1;" d="M589.0870361328125 320.4703674316406 L773.8160400390625 80.41194152832031" />
      <path style="font-size:12; clip-path:url(#clipPath1); stroke-dasharray:none; stroke:none; stroke-width:1;" d="M773.8160400390625 80.41194152832031 L762.5352172851562 86.87284851074219 L768.3273315429688 87.54457092285156 L770.4603881835938 92.97138214111328 Z" />
    </g>
  </g>
</svg>
