<?xml version="1.0" encoding="UTF-8" standalone="no"?>
<!-- Creator: CorelDRAW -->
<svg
   xmlns:dc="http://purl.org/dc/elements/1.1/"
   xmlns:cc="http://web.resource.org/cc/"
   xmlns:rdf="http://www.w3.org/1999/02/22-rdf-syntax-ns#"
   xmlns:svg="http://www.w3.org/2000/svg"
   xmlns="http://www.w3.org/2000/svg"
   xmlns:sodipodi="http://inkscape.sourceforge.net/DTD/sodipodi-0.dtd"
   xmlns:inkscape="http://www.inkscape.org/namespaces/inkscape"
   xml:space="preserve"
   width="210mm"
   height="297mm"
   style="shape-rendering:geometricPrecision; text-rendering:geometricPrecision; image-rendering:optimizeQuality; fill-rule:evenodd; clip-rule:evenodd"
   viewBox="0 0 210 297"
   id="svg2"
   sodipodi:version="0.32"
   inkscape:version="0.41+0.42pre1"
   sodipodi:docname="iconesEditarApagar.svg"
   sodipodi:docbase="/home/lais"><metadata
   id="metadata31"><rdf:RDF><cc:Work
       rdf:about=""><dc:format>image/svg+xml</dc:format><dc:type
         rdf:resource="http://purl.org/dc/dcmitype/StillImage" /></cc:Work></rdf:RDF></metadata><sodipodi:namedview
   inkscape:window-height="949"
   inkscape:window-width="1280"
   inkscape:pageshadow="2"
   inkscape:pageopacity="0.0"
   borderopacity="1.0"
   bordercolor="#666666"
   pagecolor="#ffffff"
   id="base"
   showguides="true"
   inkscape:guide-bbox="true"
   inkscape:zoom="0.74309018"
   inkscape:cx="372.04724"
   inkscape:cy="526.18109"
   inkscape:window-x="0"
   inkscape:window-y="27"
   inkscape:current-layer="svg2" />
 <defs
   id="defs4">
  <style
   type="text/css"
   id="style6">
   
    .str2 {stroke:#1F1A17;stroke-width:0.049;stroke-linejoin:bevel}
    .str0 {stroke:#1F1A17;stroke-width:0.098}
    .str1 {stroke:#1F1A17;stroke-width:0.098;stroke-linejoin:bevel}
    .fil2 {fill:none}
    .fil1 {fill:#1F1A17}
    .fil0 {fill:white}
   
  </style>
 
  <metadata
   id="CorelCorpID_0Corel-Layer" />
  
  
  
  
  
  
  
  
  
  
 </defs>
 
<rect
   transform="matrix(-0.500000,0.866025,-0.866025,-0.500000,0.000000,0.000000)"
   rx="0.43474475"
   ry="0.43474475"
   y="-96.655655"
   x="108.73958"
   height="1.6648456"
   width="1.7929106"
   id="rect1322"
   style="opacity:1.0000000;color:#000000;fill:#d27876;fill-opacity:1.0000000;fill-rule:nonzero;stroke:none;stroke-width:1.0000000px;stroke-linecap:butt;stroke-linejoin:miter;marker:none;marker-start:none;marker-mid:none;marker-end:none;stroke-miterlimit:4.0000000;stroke-dasharray:none;stroke-dashoffset:0.0000000;stroke-opacity:1.0000000;visibility:visible;display:inline;overflow:visible" /><rect
   transform="matrix(-0.500000,0.866025,-0.866025,-0.500000,0.000000,0.000000)"
   ry="0.43474475"
   rx="0.0000000"
   y="-96.644592"
   x="109.81786"
   height="1.6548350"
   width="5.7778983"
   id="rect1318"
   style="opacity:1.0000000;color:#000000;fill:#3ab8a3;fill-opacity:1.0000000;fill-rule:nonzero;stroke:none;stroke-width:1.0000000px;stroke-linecap:butt;stroke-linejoin:miter;marker:none;marker-start:none;marker-mid:none;marker-end:none;stroke-miterlimit:4.0000000;stroke-dasharray:none;stroke-dashoffset:0.0000000;stroke-opacity:1.0000000;visibility:visible;display:inline;overflow:visible" /><path
   transform="matrix(-0.486794,0.873505,-0.722898,-0.401952,143.2169,179.6779)"
   d="M 29.702884,142.28695 L 30.560831,142.80134 L 31.418778,143.31574 L 30.544326,143.80154 L 29.669874,144.28735 L 29.686379,143.28715 L 29.702884,142.28695 z "
   inkscape:randomized="0.0000000"
   inkscape:rounded="0.0000000"
   inkscape:flatsided="false"
   sodipodi:arg2="-1.0306973"
   sodipodi:arg1="-2.0778948"
   sodipodi:r2="0.57754469"
   sodipodi:r1="1.1550894"
   sodipodi:cy="143.29668"
   sodipodi:cx="30.263845"
   sodipodi:sides="3"
   id="path1320"
   style="opacity:1.0000000;color:#000000;fill:#e7ccc1;fill-opacity:1.0000000;fill-rule:nonzero;stroke:none;stroke-width:1.0000000px;stroke-linecap:butt;stroke-linejoin:miter;marker:none;marker-start:none;marker-mid:none;marker-end:none;stroke-miterlimit:4.0000000;stroke-dasharray:none;stroke-dashoffset:0.0000000;stroke-opacity:1.0000000;visibility:visible;display:inline;overflow:visible"
   sodipodi:type="star" /><path
   sodipodi:nodetypes="cccc"
   id="path2780"
   d="M 24.841477,149.16779 L 24.355184,148.88702 L 24.319496,149.51984 L 24.841477,149.16779 z "
   style="opacity:1.0000000;color:#000000;fill:#000000;fill-opacity:1.0000000;fill-rule:nonzero;stroke:none;stroke-width:1.0000000px;stroke-linecap:butt;stroke-linejoin:miter;marker:none;marker-start:none;marker-mid:none;marker-end:none;stroke-miterlimit:4.0000000;stroke-dasharray:none;stroke-dashoffset:0.0000000;stroke-opacity:1.0000000;visibility:visible;display:inline;overflow:visible" /><path
   sodipodi:nodetypes="ccczz"
   id="path2785"
   d="M 25.630232,160.79685 C 24.608060,160.54991 24.914557,156.64921 24.914557,156.64921 L 29.574925,156.54110 C 29.574925,156.54110 29.820816,160.50318 28.951865,160.80758 C 28.103217,161.10488 26.637103,161.04009 25.630232,160.79685 z "
   style="fill:#7ca5aa;fill-opacity:1.0000000;fill-rule:evenodd;stroke:none;stroke-width:1.0000000px;stroke-linecap:butt;stroke-linejoin:miter;stroke-opacity:1.0000000" /><rect
   rx="0.43474475"
   ry="0.43474475"
   y="155.73030"
   x="24.692528"
   height="0.97295147"
   width="5.0752707"
   id="rect3521"
   style="opacity:1.0000000;color:#000000;fill:#659190;fill-opacity:1.0000000;fill-rule:nonzero;stroke:none;stroke-width:1.0000000px;stroke-linecap:butt;stroke-linejoin:miter;marker:none;marker-start:none;marker-mid:none;marker-end:none;stroke-miterlimit:4.0000000;stroke-dasharray:none;stroke-dashoffset:0.0000000;stroke-opacity:1.0000000;visibility:visible;display:inline;overflow:visible" /><path
   id="rect3523"
   d="M 26.474070,154.91609 C 26.362885,154.91609 26.274571,155.01321 26.274571,155.13009 L 26.274571,155.67364 L 26.600282,155.67364 L 26.600282,155.60944 C 26.600282,155.49256 26.692667,155.39972 26.803852,155.39972 L 27.516344,155.39972 C 27.627529,155.39972 27.715842,155.49256 27.715842,155.60944 L 27.715842,155.67364 L 28.074124,155.67364 L 28.074124,155.13009 C 28.074124,155.01321 27.985811,154.91609 27.874627,154.91609 L 26.474070,154.91609 z "
   style="opacity:1.0000000;color:#000000;fill:#659190;fill-opacity:1.0000000;fill-rule:nonzero;stroke:none;stroke-width:1.0000000px;stroke-linecap:butt;stroke-linejoin:miter;marker:none;marker-start:none;marker-mid:none;marker-end:none;stroke-miterlimit:4.0000000;stroke-dasharray:none;stroke-dashoffset:0.0000000;stroke-opacity:1.0000000;visibility:visible;display:inline;overflow:visible" /><path
   d="M 28.659881,156.79586 C 28.665099,156.99272 28.603644,157.17754 28.604803,157.37367 C 28.605589,157.61180 28.427919,157.81000 28.299404,158.00300 C 27.998370,158.37767 27.524690,158.55256 27.094503,158.74346 C 28.144369,158.10991 27.420568,158.49889 27.277637,158.85361 C 27.236449,159.06948 27.316540,159.26356 27.404350,159.45725 C 27.514018,159.67842 27.571903,159.91721 27.619702,160.15738 C 27.674437,160.28201 27.686113,160.39797 27.675205,160.53053 L 27.032750,160.84244 C 27.055507,160.71631 27.042960,160.61282 26.991910,160.49292 C 26.946737,160.25683 26.895489,160.02201 26.786444,159.80498 C 26.690944,159.59945 26.605142,159.39046 26.634147,159.15959 C 26.765795,158.69247 27.241968,158.52844 27.649234,158.30415 C 28.418421,158.00322 26.939713,158.80628 27.646684,158.28061 C 27.776113,158.10466 27.933978,157.90832 27.971173,157.69691 C 27.966919,157.49965 28.023807,157.31669 28.016250,157.12068 L 28.659881,156.79586 z "
   id="path3531"
   style="fill:#a5c9cb;fill-opacity:1.0000000;fill-rule:nonzero;stroke:none;stroke-width:1.0000000px;stroke-linecap:butt;stroke-linejoin:miter;stroke-opacity:1.0000000" /></svg>