<?xml version="1.0" encoding="UTF-8" standalone="no"?>
<!-- Created with Inkscape (http://www.inkscape.org/) -->
<svg
   xmlns:dc="http://purl.org/dc/elements/1.1/"
   xmlns:cc="http://web.resource.org/cc/"
   xmlns:rdf="http://www.w3.org/1999/02/22-rdf-syntax-ns#"
   xmlns:svg="http://www.w3.org/2000/svg"
   xmlns="http://www.w3.org/2000/svg"
   xmlns:sodipodi="http://inkscape.sourceforge.net/DTD/sodipodi-0.dtd"
   xmlns:inkscape="http://www.inkscape.org/namespaces/inkscape"
   width="400"
   height="400"
   id="svg17252"
   sodipodi:version="0.32"
   inkscape:version="0.43"
   sodipodi:docbase="/home/rhwinter/docs/programacao/eclipse/eclipse_workspace/estudiolivre/layout"
   sodipodi:docname="iKarma.svg"
   version="1.0">
  <defs
     id="defs17254" />
  <sodipodi:namedview
     id="base"
     pagecolor="#ffffff"
     bordercolor="#666666"
     borderopacity="1.0"
     inkscape:pageopacity="0.0"
     inkscape:pageshadow="2"
     inkscape:zoom="1"
     inkscape:cx="495.5"
     inkscape:cy="246"
     inkscape:document-units="px"
     inkscape:current-layer="layer1"
     inkscape:window-width="1592"
     inkscape:window-height="1086"
     inkscape:window-x="0"
     inkscape:window-y="82"
     showguides="true"
     inkscape:guide-bbox="true" />
  <metadata
     id="metadata17257">
    <rdf:RDF>
      <cc:Work
         rdf:about="">
        <dc:format>image/svg+xml</dc:format>
        <dc:type
           rdf:resource="http://purl.org/dc/dcmitype/StillImage" />
      </cc:Work>
    </rdf:RDF>
  </metadata>
  <g
     inkscape:label="Layer 1"
     inkscape:groupmode="layer"
     id="layer1">
    <text
       xml:space="preserve"
       style="font-size:24.60129356px;font-style:normal;font-variant:normal;font-weight:bold;font-stretch:normal;text-align:start;line-height:125%;writing-mode:lr-tb;text-anchor:start;fill:#000000;fill-opacity:1;stroke:none;stroke-width:1px;stroke-linecap:butt;stroke-linejoin:miter;stroke-opacity:1;font-family:Trebuchet MS"
       x="4.2191973"
       y="23.378897"
       id="text1336"
       sodipodi:linespacing="125%"><tspan
         sodipodi:role="line"
         x="4.2191973"
         y="23.378897"
         id="tspan2427">icones:karma</tspan></text>
    <g
       id="g2582"
       transform="translate(0.617099,3.06759)">
      <g
         transform="translate(-271.0001,-162.3622)"
         id="g2431">
        <g
           id="g2208"
           transform="matrix(0.559733,0,0,0.552071,168.3055,117.0124)">
          <rect
             ry="4.8154612"
             rx="4.7495437"
             y="236.77187"
             x="226.82355"
             height="25.847797"
             width="25.847797"
             id="rect18151"
             style="fill:#dddddd;fill-opacity:1;stroke:none;stroke-opacity:1" />
          <path
             id="rect17273"
             d="M 229.08234,236.11404 C 227.54386,236.24985 226.34819,237.54473 226.34819,239.11967 L 226.34819,260.27537 C 226.34819,261.94141 227.68777,263.281 229.35381,263.28099 L 250.14108,263.28099 C 251.80713,263.28099 253.1467,261.94141 253.1467,260.27537 L 253.1467,239.11967 C 253.1467,237.45362 251.80713,236.11404 250.14108,236.11404 L 229.35381,236.11404 C 229.2627,236.11404 229.17134,236.10619 229.08234,236.11404 z M 230.45911,237.54899 C 230.56045,237.53875 230.66523,237.54899 230.76936,237.54899 L 248.72553,237.54899 C 250.39158,237.54899 251.73115,238.88856 251.73115,240.55461 L 251.73115,258.84042 C 251.73115,260.50647 250.39158,261.84605 248.72553,261.84605 L 230.76936,261.84605 C 229.10332,261.84605 227.76374,260.50647 227.76374,258.84042 L 227.76374,240.55461 C 227.76374,238.99268 228.93897,237.70244 230.45911,237.54899 z "
             style="fill:#929292;fill-opacity:1;stroke:none;stroke-opacity:1" />
        </g>
        <g
           id="g2212"
           transform="matrix(0.559733,0,0,0.552071,165.9371,117.0124)">
          <rect
             ry="5.6904354"
             rx="5.6125402"
             y="236.77188"
             x="266.78619"
             height="25.847797"
             width="25.847797"
             id="rect18153"
             style="fill:#e10000;fill-opacity:1;stroke:none;stroke-opacity:1" />
          <path
             id="path18155"
             d="M 269.04498,236.11404 C 267.5065,236.24985 266.31083,237.54473 266.31083,239.11967 L 266.31083,260.27537 C 266.31083,261.94141 267.65041,263.281 269.31645,263.28099 L 290.10372,263.28099 C 291.76977,263.28099 293.10934,261.94141 293.10934,260.27537 L 293.10934,239.11967 C 293.10934,237.45362 291.76977,236.11404 290.10372,236.11404 L 269.31645,236.11404 C 269.22534,236.11404 269.13398,236.10619 269.04498,236.11404 z M 270.42175,237.54899 C 270.52309,237.53875 270.62787,237.54899 270.732,237.54899 L 288.68817,237.54899 C 290.35422,237.54899 291.69379,238.88856 291.69379,240.55461 L 291.69379,258.84042 C 291.69379,260.50647 290.35422,261.84605 288.68817,261.84605 L 270.732,261.84605 C 269.06596,261.84605 267.72638,260.50647 267.72638,258.84042 L 267.72638,240.55461 C 267.72638,238.99268 268.90161,237.70244 270.42175,237.54899 z "
             style="fill:#000000;fill-opacity:1;stroke:none;stroke-opacity:1" />
        </g>
        <g
           id="g2216"
           transform="matrix(0.559733,0,0,0.552071,166.8188,117.0124)">
          <rect
             ry="5.6904354"
             rx="5.6125402"
             y="236.77188"
             x="300.9422"
             height="25.847797"
             width="25.847797"
             id="rect18157"
             style="fill:#ff890f;fill-opacity:1;stroke:none;stroke-opacity:1" />
          <path
             id="path18159"
             d="M 303.20099,236.11404 C 301.66251,236.24985 300.46684,237.54473 300.46684,239.11967 L 300.46684,260.27537 C 300.46684,261.94141 301.80642,263.281 303.47246,263.28099 L 324.25973,263.28099 C 325.92578,263.28099 327.26535,261.94141 327.26535,260.27537 L 327.26535,239.11967 C 327.26535,237.45362 325.92578,236.11404 324.25973,236.11404 L 303.47246,236.11404 C 303.38135,236.11404 303.28999,236.10619 303.20099,236.11404 z M 304.57776,237.54899 C 304.6791,237.53875 304.78388,237.54899 304.88801,237.54899 L 322.84418,237.54899 C 324.51023,237.54899 325.8498,238.88856 325.8498,240.55461 L 325.8498,258.84042 C 325.8498,260.50647 324.51023,261.84605 322.84418,261.84605 L 304.88801,261.84605 C 303.22197,261.84605 301.88239,260.50647 301.88239,258.84042 L 301.88239,240.55461 C 301.88239,238.99268 303.05762,237.70244 304.57776,237.54899 z "
             style="fill:#000000;fill-opacity:1;stroke:none;stroke-opacity:1" />
        </g>
        <g
           id="g2220"
           transform="matrix(0.559733,0,0,0.552071,167.7006,117.0124)">
          <rect
             ry="6.1281614"
             rx="6.0442743"
             y="236.77188"
             x="335.09821"
             height="25.847797"
             width="25.847797"
             id="rect18161"
             style="fill:#ffb50f;fill-opacity:1;stroke:none;stroke-opacity:1" />
          <path
             id="path18163"
             d="M 337.357,236.11404 C 335.81852,236.24985 334.62285,237.54473 334.62285,239.11967 L 334.62285,260.27537 C 334.62285,261.94141 335.96243,263.281 337.62847,263.28099 L 358.41574,263.28099 C 360.08179,263.28099 361.42136,261.94141 361.42136,260.27537 L 361.42136,239.11967 C 361.42136,237.45362 360.08179,236.11404 358.41574,236.11404 L 337.62847,236.11404 C 337.53736,236.11404 337.446,236.10619 337.357,236.11404 z M 338.73377,237.54899 C 338.83511,237.53875 338.93989,237.54899 339.04402,237.54899 L 357.00019,237.54899 C 358.66624,237.54899 360.00581,238.88856 360.00581,240.55461 L 360.00581,258.84042 C 360.00581,260.50647 358.66624,261.84605 357.00019,261.84605 L 339.04402,261.84605 C 337.37798,261.84605 336.0384,260.50647 336.0384,258.84042 L 336.0384,240.55461 C 336.0384,238.99268 337.21363,237.70244 338.73377,237.54899 z "
             style="fill:#000000;fill-opacity:1;stroke:none;stroke-opacity:1" />
        </g>
        <g
           id="g2224"
           transform="matrix(0.559733,0,0,0.552071,169.0991,117.0124)">
          <rect
             ry="5.2597079"
             rx="5.1877089"
             y="236.77188"
             x="368.33109"
             height="25.847797"
             width="25.847797"
             id="rect18165"
             style="fill:#ffeb0d;fill-opacity:1;stroke:none;stroke-opacity:1" />
          <path
             id="path18167"
             d="M 370.58988,236.11404 C 369.0514,236.24985 367.85573,237.54473 367.85573,239.11967 L 367.85573,260.27537 C 367.85573,261.94141 369.19531,263.281 370.86135,263.28099 L 391.64862,263.28099 C 393.31467,263.28099 394.65424,261.94141 394.65424,260.27537 L 394.65424,239.11967 C 394.65424,237.45362 393.31467,236.11404 391.64862,236.11404 L 370.86135,236.11404 C 370.77024,236.11404 370.67888,236.10619 370.58988,236.11404 z M 371.96665,237.54899 C 372.06799,237.53875 372.17277,237.54899 372.2769,237.54899 L 390.23307,237.54899 C 391.89912,237.54899 393.23869,238.88856 393.23869,240.55461 L 393.23869,258.84042 C 393.23869,260.50647 391.89912,261.84605 390.23307,261.84605 L 372.2769,261.84605 C 370.61086,261.84605 369.27128,260.50647 369.27128,258.84042 L 369.27128,240.55461 C 369.27128,238.99268 370.44651,237.70244 371.96665,237.54899 z "
             style="fill:#000000;fill-opacity:1;stroke:none;stroke-opacity:1" />
        </g>
        <g
           id="g2228"
           transform="matrix(0.559733,0,0,0.552071,170.4975,117.0124)">
          <rect
             ry="4.3336577"
             rx="4.2743354"
             y="236.77188"
             x="401.56396"
             height="25.847797"
             width="25.847797"
             id="rect18169"
             style="fill:#cef000;fill-opacity:1;stroke:none;stroke-opacity:1" />
          <path
             id="path18171"
             d="M 403.82276,236.11404 C 402.28428,236.24985 401.08861,237.54473 401.08861,239.11967 L 401.08861,260.27537 C 401.08861,261.94141 402.42819,263.281 404.09423,263.28099 L 424.8815,263.28099 C 426.54755,263.28099 427.88712,261.94141 427.88712,260.27537 L 427.88712,239.11967 C 427.88712,237.45362 426.54755,236.11404 424.8815,236.11404 L 404.09423,236.11404 C 404.00312,236.11404 403.91176,236.10619 403.82276,236.11404 z M 405.19953,237.54899 C 405.30087,237.53875 405.40565,237.54899 405.50978,237.54899 L 423.46595,237.54899 C 425.132,237.54899 426.47157,238.88856 426.47157,240.55461 L 426.47157,258.84042 C 426.47157,260.50647 425.132,261.84605 423.46595,261.84605 L 405.50978,261.84605 C 403.84374,261.84605 402.50416,260.50647 402.50416,258.84042 L 402.50416,240.55461 C 402.50416,238.99268 403.67939,237.70244 405.19953,237.54899 z "
             style="fill:#000000;fill-opacity:1;stroke:none;stroke-opacity:1" />
        </g>
      </g>
      <text
         id="text1374"
         y="124.72275"
         x="19.115181"
         style="font-size:12px;font-style:normal;font-weight:normal;fill:#000000;fill-opacity:1;stroke:none;stroke-width:1px;stroke-linecap:butt;stroke-linejoin:miter;stroke-opacity:1;font-family:Bitstream Vera Sans"
         xml:space="preserve"><tspan
           id="tspan1378"
           y="124.72275"
           x="19.115181"
           sodipodi:role="line">iKarma(numero).png</tspan></text>
      <rect
         style="opacity:1;color:#000000;fill:none;fill-opacity:1;fill-rule:evenodd;stroke:#d3d3d3;stroke-width:0.94849235;stroke-linecap:butt;stroke-linejoin:miter;marker:none;marker-start:none;marker-mid:none;marker-end:none;stroke-miterlimit:4;stroke-dasharray:none;stroke-dashoffset:0;stroke-opacity:1;visibility:visible;display:inline;overflow:visible"
         id="rect2275"
         width="143.2856"
         height="57.936169"
         x="9.8571472"
         y="73.522003"
         rx="6.0847325"
         ry="6.0847325" />
    </g>
    <g
       id="g2562"
       transform="translate(-4.169963,9.288886)">
      <text
         xml:space="preserve"
         style="font-size:12px;font-style:normal;font-weight:normal;fill:#000000;fill-opacity:1;stroke:none;stroke-width:1px;stroke-linecap:butt;stroke-linejoin:miter;stroke-opacity:1;font-family:Bitstream Vera Sans"
         x="21.078613"
         y="208.72275"
         id="text2471"><tspan
           sodipodi:role="line"
           x="21.078613"
           y="208.72275"
           id="tspan2473">iKarma(On|off).png</tspan></text>
      <rect
         ry="6.0847325"
         rx="6.0847325"
         y="157.522"
         x="14.61734"
         height="57.936169"
         width="127.50945"
         id="rect2475"
         style="opacity:1;color:#000000;fill:none;fill-opacity:1;fill-rule:evenodd;stroke:#d3d3d3;stroke-width:0.89475423;stroke-linecap:butt;stroke-linejoin:miter;marker:none;marker-start:none;marker-mid:none;marker-end:none;stroke-miterlimit:4;stroke-dasharray:none;stroke-dashoffset:0;stroke-opacity:1;visibility:visible;display:inline;overflow:visible" />
      <g
         transform="matrix(0.487805,0,0,0.487719,-63.85824,81.25554)"
         id="g2234"
         inkscape:export-filename="/home/rhwinter/iKarmaInactive.png"
         inkscape:export-xdpi="90"
         inkscape:export-ydpi="90">
        <path
           transform="matrix(0.644908,0,0,0.644908,177.1847,138.1004)"
           d="M 119.32736 93.024162 A 21.74185 21.573307 0 1 1  75.84366,93.024162 A 21.74185 21.573307 0 1 1  119.32736 93.024162 z"
           sodipodi:ry="21.573307"
           sodipodi:rx="21.74185"
           sodipodi:cy="93.024162"
           sodipodi:cx="97.58551"
           id="path10220"
           style="fill:#e9e9e9;fill-opacity:1;stroke:none;stroke-opacity:1"
           sodipodi:type="arc" />
        <path
           id="path7581"
           d="M 239.21875,182.46875 C 231.05508,182.8312 224.53125,189.59657 224.53125,197.84375 C 224.53125,206.32406 231.42594,213.21875 239.90625,213.21875 C 248.38656,213.21874 255.28125,206.32243 255.28125,197.84375 C 255.28125,189.36507 248.38493,182.46875 239.90625,182.46875 C 239.71682,182.46876 239.49303,182.45657 239.21875,182.46875 z M 239.4375,185.53125 C 239.55702,185.52669 239.71043,185.53125 239.90625,185.53125 C 246.70928,185.53125 252.21875,191.04075 252.21875,197.84375 C 252.21875,204.64675 246.70927,210.125 239.90625,210.125 C 233.10326,210.12501 227.59375,204.64498 227.59375,197.84375 C 227.59374,191.20096 232.85962,185.78153 239.4375,185.53125 z "
           style="fill:#666666;fill-opacity:1;stroke:none;stroke-width:1.92277563;stroke-miterlimit:4;stroke-dasharray:none;stroke-opacity:1" />
        <g
           transform="matrix(0.644908,0,0,0.644908,181.7244,136.8106)"
           id="g10209"
           style="fill:#656565;fill-opacity:1">
          <path
             sodipodi:type="arc"
             style="fill:#656565;fill-opacity:1;stroke:none;stroke-opacity:1"
             id="path9332"
             sodipodi:cx="132.42532"
             sodipodi:cy="77.166328"
             sodipodi:rx="1.9681046"
             sodipodi:ry="7.1695242"
             d="M 134.39343 77.166328 A 1.9681046 7.1695242 0 1 1  130.45722,77.166328 A 1.9681046 7.1695242 0 1 1  134.39343 77.166328 z"
             transform="matrix(1.50622,0,0,0.531608,-115.0924,44.62732)" />
          <path
             sodipodi:type="arc"
             style="fill:#656565;fill-opacity:1;stroke:none;stroke-opacity:1"
             id="path10207"
             sodipodi:cx="132.42532"
             sodipodi:cy="77.166328"
             sodipodi:rx="1.9681046"
             sodipodi:ry="7.1695242"
             d="M 134.39343 77.166328 A 1.9681046 7.1695242 0 1 1  130.45722,77.166328 A 1.9681046 7.1695242 0 1 1  134.39343 77.166328 z"
             transform="matrix(1.50622,0,0,0.531608,-102.7386,44.62732)" />
        </g>
        <path
           id="path14617"
           d="M 231.37666,198.297 L 231.37666,198.74551 L 231.37666,199.19403 C 231.57699,203.47906 235.4563,206.81881 240.02509,206.81881 C 244.59397,206.81883 248.40977,203.47812 248.60946,199.19403 L 248.60946,198.74551 L 248.60946,198.297 L 248.16103,198.297 L 247.77665,198.297 L 247.13603,198.297 L 246.68759,198.297 L 246.30322,198.297 L 246.30322,198.68144 L 246.30322,199.06588 C 246.15295,202.03085 243.45411,204.51215 240.02509,204.51215 C 236.59616,204.51215 233.8336,202.02968 233.68291,199.06588 L 233.68291,198.68144 L 233.68291,198.297 L 233.23447,198.297 L 232.8501,198.297 L 232.20947,198.297 L 231.8251,198.297 L 231.37666,198.297 z "
           style="fill:#4f4f4f;fill-opacity:1;stroke:none;stroke-width:0.85097539;stroke-miterlimit:4;stroke-dasharray:none;stroke-opacity:1" />
      </g>
      <g
         id="g2485"
         transform="matrix(0.487805,0,0,0.487719,-13.45256,81.25554)"
         inkscape:export-filename="/home/rhwinter/iKarma.png"
         inkscape:export-xdpi="90"
         inkscape:export-ydpi="90">
        <path
           sodipodi:type="arc"
           style="fill:#ffeb0d;fill-opacity:1;stroke:none;stroke-opacity:1"
           id="path2487"
           sodipodi:cx="97.58551"
           sodipodi:cy="93.024162"
           sodipodi:rx="21.74185"
           sodipodi:ry="21.573307"
           d="M 119.32736 93.024162 A 21.74185 21.573307 0 1 1  75.84366,93.024162 A 21.74185 21.573307 0 1 1  119.32736 93.024162 z"
           transform="matrix(0.644908,0,0,0.644908,177.1847,138.1004)" />
        <path
           style="fill:#666666;fill-opacity:1;stroke:none;stroke-width:1.92277563;stroke-miterlimit:4;stroke-dasharray:none;stroke-opacity:1"
           d="M 239.21875,182.46875 C 231.05508,182.8312 224.53125,189.59657 224.53125,197.84375 C 224.53125,206.32406 231.42594,213.21875 239.90625,213.21875 C 248.38656,213.21874 255.28125,206.32243 255.28125,197.84375 C 255.28125,189.36507 248.38493,182.46875 239.90625,182.46875 C 239.71682,182.46876 239.49303,182.45657 239.21875,182.46875 z M 239.4375,185.53125 C 239.55702,185.52669 239.71043,185.53125 239.90625,185.53125 C 246.70928,185.53125 252.21875,191.04075 252.21875,197.84375 C 252.21875,204.64675 246.70927,210.125 239.90625,210.125 C 233.10326,210.12501 227.59375,204.64498 227.59375,197.84375 C 227.59374,191.20096 232.85962,185.78153 239.4375,185.53125 z "
           id="path2489" />
        <path
           id="path2512"
           d="M 231.50198,197.7852 L 231.50198,198.23371 L 231.50198,198.68223 C 231.70231,202.96726 235.58162,206.30701 240.15041,206.30701 C 244.71929,206.30703 248.53509,202.96632 248.73478,198.68223 L 248.73478,198.23371 L 248.73478,197.7852 L 248.28635,197.7852 L 247.90197,197.7852 L 247.26135,197.7852 L 246.81291,197.7852 L 246.42854,197.7852 L 246.42854,198.16964 L 246.42854,198.55408 C 246.27827,201.51905 243.57943,204.00035 240.15041,204.00035 C 236.72148,204.00035 233.95892,201.51788 233.80823,198.55408 L 233.80823,198.16964 L 233.80823,197.7852 L 233.35979,197.7852 L 232.97542,197.7852 L 232.33479,197.7852 L 231.95042,197.7852 L 231.50198,197.7852 z "
           style="fill:#424242;fill-opacity:1;stroke:none;stroke-width:0.85097539;stroke-miterlimit:4;stroke-dasharray:none;stroke-opacity:1" />
        <g
           style="fill:#656565;fill-opacity:1"
           id="g1365"
           transform="matrix(0.644907,0,0,0.644908,181.8263,137.378)">
          <path
             transform="matrix(1.50622,0,0,0.531608,-115.0924,44.62732)"
             d="M 134.39343 77.166328 A 1.9681046 7.1695242 0 1 1  130.45722,77.166328 A 1.9681046 7.1695242 0 1 1  134.39343 77.166328 z"
             sodipodi:ry="7.1695242"
             sodipodi:rx="1.9681046"
             sodipodi:cy="77.166328"
             sodipodi:cx="132.42532"
             id="path1367"
             style="fill:#656565;fill-opacity:1;stroke:none;stroke-opacity:1"
             sodipodi:type="arc" />
          <path
             transform="matrix(1.50622,0,0,0.531608,-102.7386,44.62732)"
             d="M 134.39343 77.166328 A 1.9681046 7.1695242 0 1 1  130.45722,77.166328 A 1.9681046 7.1695242 0 1 1  134.39343 77.166328 z"
             sodipodi:ry="7.1695242"
             sodipodi:rx="1.9681046"
             sodipodi:cy="77.166328"
             sodipodi:cx="132.42532"
             id="path1369"
             style="fill:#656565;fill-opacity:1;stroke:none;stroke-opacity:1"
             sodipodi:type="arc" />
        </g>
      </g>
    </g>
    <g
       id="g2606"
       transform="translate(-16.16996,0)">
      <g
         transform="translate(-213.219,74.07874)"
         id="g2243">
        <path
           sodipodi:type="arc"
           style="fill:#dadada;fill-opacity:1;stroke:none;stroke-opacity:1"
           id="path11970"
           sodipodi:cx="97.58551"
           sodipodi:cy="93.024162"
           sodipodi:rx="21.74185"
           sodipodi:ry="21.573307"
           d="M 119.32736 93.024162 A 21.74185 21.573307 0 1 1  75.84366,93.024162 A 21.74185 21.573307 0 1 1  119.32736 93.024162 z"
           transform="matrix(0.429001,0,0,0.429002,230.5876,163.3228)" />
        <path
           style="fill:#4f4f4f;fill-opacity:1;stroke:#4f4f4f;stroke-opacity:1"
           d="M 272.01614,193.63959 C 266.92178,193.86576 262.85965,198.07527 262.85965,203.2251 C 262.85965,208.5197 267.16396,212.82401 272.45855,212.82401 C 277.75314,212.82401 282.04405,208.5197 282.04405,203.2251 C 282.04405,197.93049 277.75314,193.63959 272.45855,193.63959 C 272.31378,193.63959 272.15936,193.63323 272.01614,193.63959 z M 272.10999,194.40375 C 272.22311,194.39945 272.34438,194.40375 272.45855,194.40375 C 277.32973,194.40375 281.27989,198.35391 281.27989,203.2251 C 281.27989,208.09628 277.32973,212.04644 272.45855,212.04644 C 267.58737,212.04644 263.62381,208.09628 263.62381,203.2251 C 263.62381,198.46808 267.39662,194.5831 272.10999,194.40375 z "
           id="path11972" />
        <g
           transform="translate(-6.652424e-2,-0.39617)"
           id="g2558">
          <path
             transform="matrix(0.6391,0,0,0.225566,184.6898,182.3941)"
             d="M 134.39343 77.166328 A 1.9681046 7.1695242 0 1 1  130.45722,77.166328 A 1.9681046 7.1695242 0 1 1  134.39343 77.166328 z"
             sodipodi:ry="7.1695242"
             sodipodi:rx="1.9681046"
             sodipodi:cy="77.166328"
             sodipodi:cx="132.42532"
             id="path11976"
             style="fill:#4f4f4f;fill-opacity:1;stroke:none;stroke-opacity:1"
             sodipodi:type="arc" />
          <path
             transform="matrix(0.6391,0,0,0.225566,191.0809,182.3941)"
             d="M 134.39343 77.166328 A 1.9681046 7.1695242 0 1 1  130.45722,77.166328 A 1.9681046 7.1695242 0 1 1  134.39343 77.166328 z"
             sodipodi:ry="7.1695242"
             sodipodi:rx="1.9681046"
             sodipodi:cy="77.166328"
             sodipodi:cx="132.42532"
             id="path11978"
             style="fill:#4f4f4f;fill-opacity:1;stroke:none;stroke-opacity:1"
             sodipodi:type="arc" />
        </g>
        <path
           style="fill:#4f4f4f;fill-opacity:1;stroke:#4f4f4f;stroke-opacity:1"
           d="M 267.41774,203.79933 C 267.52991,206.34757 269.69211,208.38206 272.33535,208.38206 C 274.97857,208.38206 277.13186,206.34758 277.24369,203.79933 L 276.85473,203.79933 C 276.74325,206.13583 274.76151,207.99414 272.33535,207.99414 C 269.90919,207.99414 267.91855,206.13583 267.8067,203.79933 L 267.41774,203.79933 z "
           id="path11980" />
      </g>
      <text
         id="text2528"
         y="308.20605"
         x="33.078613"
         style="font-size:12px;font-style:normal;font-weight:normal;fill:#000000;fill-opacity:1;stroke:none;stroke-width:1px;stroke-linecap:butt;stroke-linejoin:miter;stroke-opacity:1;font-family:Bitstream Vera Sans"
         xml:space="preserve"><tspan
           id="tspan2530"
           y="308.20605"
           x="33.078613"
           sodipodi:role="line">iKarma(On|off).png</tspan></text>
      <rect
         style="opacity:1;color:#000000;fill:none;fill-opacity:1;fill-rule:evenodd;stroke:#d3d3d3;stroke-width:0.89475423;stroke-linecap:butt;stroke-linejoin:miter;marker:none;marker-start:none;marker-mid:none;marker-end:none;stroke-miterlimit:4;stroke-dasharray:none;stroke-dashoffset:0;stroke-opacity:1;visibility:visible;display:inline;overflow:visible"
         id="rect2532"
         width="127.50945"
         height="57.936169"
         x="26.61734"
         y="257.00531"
         rx="6.0847325"
         ry="6.0847325" />
      <g
         id="g2534"
         transform="translate(-158.1642,74.07874)">
        <path
           transform="matrix(0.429001,0,0,0.429002,230.7267,163.4888)"
           d="M 119.32736 93.024162 A 21.74185 21.573307 0 1 1  75.84366,93.024162 A 21.74185 21.573307 0 1 1  119.32736 93.024162 z"
           sodipodi:ry="21.573307"
           sodipodi:rx="21.74185"
           sodipodi:cy="93.024162"
           sodipodi:cx="97.58551"
           id="path2536"
           style="fill:#ffe931;fill-opacity:1;stroke:none;stroke-opacity:1"
           sodipodi:type="arc" />
        <path
           id="path2538"
           d="M 272.01614,193.63959 C 266.92178,193.86576 262.85965,198.07527 262.85965,203.2251 C 262.85965,208.5197 267.16396,212.82401 272.45855,212.82401 C 277.75314,212.82401 282.04405,208.5197 282.04405,203.2251 C 282.04405,197.93049 277.75314,193.63959 272.45855,193.63959 C 272.31378,193.63959 272.15936,193.63323 272.01614,193.63959 z M 272.10999,194.40375 C 272.22311,194.39945 272.34438,194.40375 272.45855,194.40375 C 277.32973,194.40375 281.27989,198.35391 281.27989,203.2251 C 281.27989,208.09628 277.32973,212.04644 272.45855,212.04644 C 267.58737,212.04644 263.62381,208.09628 263.62381,203.2251 C 263.62381,198.46808 267.39662,194.5831 272.10999,194.40375 z "
           style="fill:none;fill-opacity:1;stroke:#000000;stroke-opacity:1" />
        <path
           transform="matrix(0.429001,0,0,0.151413,213.4963,188.092)"
           d="M 134.39343 77.166328 A 1.9681046 7.1695242 0 1 1  130.45722,77.166328 A 1.9681046 7.1695242 0 1 1  134.39343 77.166328 z"
           sodipodi:ry="7.1695242"
           sodipodi:rx="1.9681046"
           sodipodi:cy="77.166328"
           sodipodi:cx="132.42532"
           id="path2540"
           style="fill:#000000;fill-opacity:1;stroke:none;stroke-opacity:1"
           sodipodi:type="arc" />
        <path
           transform="matrix(0.429001,0,0,0.151413,217.7863,188.092)"
           d="M 134.39343 77.166328 A 1.9681046 7.1695242 0 1 1  130.45722,77.166328 A 1.9681046 7.1695242 0 1 1  134.39343 77.166328 z"
           sodipodi:ry="7.1695242"
           sodipodi:rx="1.9681046"
           sodipodi:cy="77.166328"
           sodipodi:cx="132.42532"
           id="path2542"
           style="fill:#000000;fill-opacity:1;stroke:none;stroke-opacity:1"
           sodipodi:type="arc" />
        <path
           id="path2544"
           d="M 267.41774,203.79933 C 267.52991,206.34757 269.69211,208.38206 272.33535,208.38206 C 274.97857,208.38206 277.13186,206.34758 277.24369,203.79933 L 276.85473,203.79933 C 276.74325,206.13583 274.76151,207.99414 272.33535,207.99414 C 269.90919,207.99414 267.91855,206.13583 267.8067,203.79933 L 267.41774,203.79933 z "
           style="fill:none;fill-opacity:1;stroke:#000000;stroke-opacity:1" />
      </g>
    </g>
  </g>
</svg>
