<?xml version="1.0" encoding="UTF-8" standalone="no"?>
<!-- Created with Inkscape (http://www.inkscape.org/) -->
<svg
   xmlns:dc="http://purl.org/dc/elements/1.1/"
   xmlns:cc="http://web.resource.org/cc/"
   xmlns:rdf="http://www.w3.org/1999/02/22-rdf-syntax-ns#"
   xmlns:svg="http://www.w3.org/2000/svg"
   xmlns="http://www.w3.org/2000/svg"
   xmlns:sodipodi="http://sodipodi.sourceforge.net/DTD/sodipodi-0.dtd"
   xmlns:inkscape="http://www.inkscape.org/namespaces/inkscape"
   id="svg2"
   sodipodi:version="0.32"
   inkscape:version="0.44"
   width="210mm"
   height="297mm"
   sodipodi:docbase="D:\LAIS\trampos\estudiolivre"
   sodipodi:docname="iUsuariosemfoto.svg">
  <metadata
     id="metadata7">
    <rdf:RDF>
      <cc:Work
         rdf:about="">
        <dc:format>image/svg+xml</dc:format>
        <dc:type
           rdf:resource="http://purl.org/dc/dcmitype/StillImage" />
      </cc:Work>
    </rdf:RDF>
  </metadata>
  <defs
     id="defs5" />
  <sodipodi:namedview
     inkscape:window-height="977"
     inkscape:window-width="1280"
     inkscape:pageshadow="2"
     inkscape:pageopacity="0.0"
     guidetolerance="10.0"
     gridtolerance="10.0"
     objecttolerance="10.0"
     borderopacity="1.0"
     bordercolor="#666666"
     pagecolor="#ffffff"
     id="base"
     inkscape:zoom="4.4885649"
     inkscape:cx="196.47683"
     inkscape:cy="549.05853"
     inkscape:window-x="-4"
     inkscape:window-y="-4"
     inkscape:current-layer="svg2" />
  <rect
     style="fill:white;stroke:#b3b3b3;stroke-width:0.5;stroke-miterlimit:4;stroke-dasharray:none;stroke-opacity:1"
     id="rect1871"
     width="60"
     height="60"
     x="86.304832"
     y="423.39703" />
  <path
     style="fill:none;fill-rule:evenodd;stroke:black;stroke-width:1.14124513px;stroke-linecap:butt;stroke-linejoin:miter;stroke-opacity:1"
     d="M 133.44665,466.14149 C 133.44665,465.62395 133.44665,465.1064 133.44665,464.58887 C 133.44665,462.51871 133.44665,460.44855 133.44665,458.37839 C 133.44665,456.59575 133.44665,454.81311 133.44665,453.03046 C 133.44665,450.80278 132.68375,448.82495 132.41156,446.64748 C 132.04614,443.72406 131.20397,440.15023 131.20397,437.33176 C 131.20397,435.12859 130.69886,432.20607 130.16889,430.0862 C 129.96904,429.28678 130.02182,427.16619 129.30633,426.80844 C 128.27515,426.29286 129.28185,426.22824 127.87002,425.94588 C 125.89453,425.55078 123.9107,425.25582 121.83206,425.25582 C 120.22193,425.25582 118.61181,425.25582 117.00168,425.25582 C 115.56449,425.25582 114.15163,425.60084 112.68885,425.60084 C 110.35273,425.60084 108.27264,425.94588 105.96083,425.94588 C 103.97818,425.94588 103.5216,426.4281 101.61989,426.80844 C 100.73633,426.98516 99.689468,427.15985 99.689468,428.53358 C 99.689468,429.85618 99.689468,431.17878 99.689468,432.50138 C 99.689468,434.137 99.516954,435.69145 99.516954,437.33176 C 99.516954,439.05689 99.516954,440.78203 99.516954,442.50716 C 99.516954,444.31128 99.171928,446.0786 99.171928,447.85507 C 99.171928,449.77898 99.171928,451.7769 99.171928,453.72052 C 99.171928,455.61817 99.171928,457.51582 99.171928,459.41346 C 99.171928,461.60707 99.419108,463.986 100.20701,464.58887 C 100.20701,464.86843 100.36577,462.78428 101.27487,460.96608 C 102.17151,459.17279 101.96492,462.21086 101.96492,463.03624 C 101.96492,464.37363 102.17281,465.42043 102.48245,466.65902 C 102.80427,467.94628 103.80342,464.76631 104.03508,464.07133 C 104.5058,462.65914 104.92575,460.67096 104.92575,463.38127 C 104.92575,464.49781 105.11647,465.66036 105.6158,466.65902 C 106.02492,467.47726 105.67209,462.97631 106.47836,464.58887 C 106.60695,464.84603 106.9384,464.93389 107.16842,465.1064 C 107.59255,465.4245 107.85847,465.91147 108.2035,466.314 C 109.62229,467.96925 109.89663,469.13823 111.13623,466.65902 C 111.70925,465.51299 112.993,464.25287 113.3789,465.79646 C 113.9129,467.93247 114.11772,466.61027 115.27655,465.45144 C 115.59368,466.71995 117.68908,468.51288 117.86425,468.55667 C 117.88978,468.56305 117.3819,464.72704 118.89933,465.1064 C 120.81683,465.58578 119.26695,468.92907 121.48703,465.96897 C 122.45117,464.68346 123.6187,466.32937 124.24724,466.48651 C 126.06242,466.9403 125.1266,463.81544 127.35248,466.48651 C 128.76138,468.17718 128.63478,463.801 130.45773,465.62395 C 131.59626,466.76247 130.7231,467.55555 132.23905,467.17656 C 133.19074,466.93865 133.44664,467.60857 133.44665,466.14149 z "
     id="path1873"
     sodipodi:nodetypes="csssssssssssssssssssscssssssssssscsssssssc" />
  <path
     style="fill:none;fill-rule:evenodd;stroke:black;stroke-width:1.14124513px;stroke-linecap:butt;stroke-linejoin:miter;stroke-opacity:1"
     d="M 109.75612,466.27418 C 109.87735,466.98656 109.7368,468.5555 109.23858,469.55194 C 109.02656,469.97598 108.8048,470.09416 108.54853,470.4145"
     id="path1875" />
  <path
     style="fill:none;fill-rule:evenodd;stroke:black;stroke-width:1.14124513px;stroke-linecap:butt;stroke-linejoin:miter;stroke-opacity:1"
     d="M 120.10692,465.75664 C 119.89554,466.17942 120.23872,468.00897 120.45195,468.86189 C 120.6925,469.82408 121.14903,469.73147 121.65954,470.24199"
     id="path1877" />
  <path
     style="fill:none;fill-rule:evenodd;stroke:black;stroke-width:1.14124513px;stroke-linecap:butt;stroke-linejoin:miter;stroke-opacity:1"
     d="M 121.31452,470.58702 C 120.31918,471.08468 119.02827,471.96712 117.86425,471.96712 C 116.77167,471.96712 115.67908,471.96712 114.5865,471.96712 C 113.3211,471.96712 112.28378,471.90898 111.13623,471.62209 C 110.38428,471.4341 108.09787,470.68205 108.03099,470.4145 C 109.10496,469.87753 105.78145,471.44958 104.58072,471.44958 C 103.31247,471.44958 102.35314,472.39463 101.30297,472.65718 C 100.7211,472.80264 99.332017,475.21898 99.060295,475.76241 C 98.50073,476.88154 98.153319,478.01021 97.852702,479.21268 C 97.563899,480.3679 97.096445,481.54766 96.817621,482.66295 C 96.761834,482.8861 96.817621,483.12299 96.817621,483.35301"
     id="path1879" />
  <path
     style="fill:none;fill-rule:evenodd;stroke:black;stroke-width:1.14124513px;stroke-linecap:butt;stroke-linejoin:miter;stroke-opacity:1"
     d="M 121.65954,470.24199 C 121.92158,471.29014 123.72794,470.97385 124.59228,471.62209 C 125.12722,472.02331 126.49186,472.57189 127.35248,473.0022 C 128.35653,473.50422 129.10021,474.6113 129.42264,475.41739 C 129.95524,476.74888 130.65072,477.742 130.97526,479.04017 C 131.1929,479.91069 131.40043,482.3387 131.63986,483.29643"
     id="path1885"
     sodipodi:nodetypes="cssssc" />
  <path
     style="fill:none;fill-rule:evenodd;stroke:black;stroke-width:1.14124513px;stroke-linecap:butt;stroke-linejoin:miter;stroke-opacity:1"
     d="M 106.8234,471.27707 C 107.40094,471.84849 108.70505,472.55893 109.75612,473.34723 C 110.4372,473.85803 111.93546,474.05548 112.86136,474.2098 C 114.0943,474.41529 115.36661,474.38231 116.65666,474.38231 C 117.84383,474.38231 119.04804,473.96292 119.93441,473.51974 C 120.63641,473.16874 122.07944,471.9899 122.52211,471.10456"
     id="path1887" />
  <path
     style="fill:none;fill-rule:evenodd;stroke:black;stroke-width:1.14124513px;stroke-linecap:butt;stroke-linejoin:miter;stroke-opacity:1"
     d="M 101.648,473.69225 C 102.02108,473.50572 102.16553,475.85653 102.16553,476.97001 C 102.16553,478.1201 102.16553,479.27019 102.16553,480.42028 C 102.16553,481.45536 102.16553,482.49043 102.16553,483.52552"
     id="path1889" />
  <path
     style="fill:none;fill-rule:evenodd;stroke:black;stroke-width:1.14124513px;stroke-linecap:butt;stroke-linejoin:miter;stroke-opacity:1"
     d="M 127.35248,474.55482 C 127.35248,475.14372 127.525,476.71059 127.525,477.83258 C 127.525,478.92516 127.525,480.01774 127.525,481.11033 C 127.525,481.80039 127.525,482.49043 127.525,483.18048"
     id="path1891" />
  <path
     style="fill:none;fill-rule:evenodd;stroke:black;stroke-width:1.14124513px;stroke-linecap:butt;stroke-linejoin:miter;stroke-opacity:1"
     d="M 102.68307,473.17472 C 102.68307,474.27334 104.86221,472.82969 105.96083,472.82969 C 106.5981,472.82969 107.38328,473.01279 108.03099,473.17472"
     id="path1893" />
  <path
     style="fill:none;fill-rule:evenodd;stroke:black;stroke-width:1.14124513px;stroke-linecap:butt;stroke-linejoin:miter;stroke-opacity:1"
     d="M 121.14201,472.65718 C 121.41378,472.65718 123.20831,472.82777 124.24724,473.34723 C 124.90784,473.67753 126.28307,473.68367 127.00746,473.86477"
     id="path1895" />
  <path
     style="fill:none;fill-rule:evenodd;stroke:black;stroke-width:1.14124513px;stroke-linecap:butt;stroke-linejoin:miter;stroke-opacity:1"
     d="M 102.33805,475.41739 C 102.79307,475.6449 105.39197,475.41739 106.47836,475.41739 C 108.49555,475.41739 110.46778,475.93492 112.51634,475.93492 C 113.83894,475.93492 115.16154,475.93492 116.48414,475.93492 C 117.69174,475.93492 118.89933,475.93492 120.10692,475.93492 C 121.25701,475.93492 122.4071,475.93492 123.55719,475.93492 C 124.64977,475.93492 125.74235,475.93492 126.83495,475.93492 C 127.00746,475.93492 127.17997,475.93492 127.35248,475.93492"
     id="path1897" />
  <path
     style="fill:none;fill-rule:evenodd;stroke:black;stroke-width:1.14124513px;stroke-linecap:butt;stroke-linejoin:miter;stroke-opacity:1"
     d="M 103.02811,479.38519 C 103.96252,479.38519 106.2176,479.21268 107.68596,479.21268 C 109.41109,479.21268 111.13623,479.21268 112.86136,479.21268 C 114.47149,479.21268 116.08161,479.21268 117.69174,479.21268 C 118.89933,479.21268 120.10692,479.21268 121.31452,479.21268 C 122.46461,479.21268 123.6147,479.21268 124.76479,479.21268 C 125.68486,479.21268 126.60493,479.21268 127.525,479.21268"
     id="path1899" />
  <path
     style="fill:none;fill-rule:evenodd;stroke:black;stroke-width:1.14124513px;stroke-linecap:butt;stroke-linejoin:miter;stroke-opacity:1"
     d="M 101.99302,481.80039 C 102.3103,481.80039 104.19113,481.9729 105.27078,481.9729 C 106.36336,481.9729 107.45594,481.9729 108.54853,481.9729 C 110.27719,481.9729 111.84532,482.31792 113.55141,482.31792 C 115.56407,482.31792 117.57672,482.31792 119.58939,482.31792 C 120.68197,482.31792 121.77455,482.31792 122.86714,482.31792 C 123.98441,482.31792 125.10123,481.80039 126.31741,481.80039 C 126.89244,481.80039 127.4675,481.80039 128.04253,481.80039"
     id="path1901" />
  <path
     style="fill:none;fill-rule:evenodd;stroke:black;stroke-width:1.05889583px;stroke-linecap:butt;stroke-linejoin:miter;stroke-opacity:1"
     d="M 127.82885,477.52872 C 127.99002,477.52872 129.25557,477.10135 129.98702,477.10135"
     id="path1903" />
  <path
     style="fill:none;fill-rule:evenodd;stroke:black;stroke-width:1.14124513px;stroke-linecap:butt;stroke-linejoin:miter;stroke-opacity:1"
     d="M 127.525,480.24776 C 128.05201,480.24776 129.72683,480.07525 130.80275,480.07525"
     id="path1905" />
  <path
     style="fill:none;fill-rule:evenodd;stroke:black;stroke-width:1.14124513px;stroke-linecap:butt;stroke-linejoin:miter;stroke-opacity:1"
     d="M 127.17997,482.66295 C 127.2996,482.66295 129.22822,482.18306 130.45773,482.49043 C 130.62509,482.53228 130.80275,482.49043 130.97526,482.49043"
     id="path1907" />
  <path
     style="fill:none;fill-rule:evenodd;stroke:black;stroke-width:1.14124513px;stroke-linecap:butt;stroke-linejoin:miter;stroke-opacity:1"
     d="M 99.232809,476.10745 C 99.539069,476.10745 100.87124,476.08576 101.648,476.27996"
     id="path1911" />
  <path
     style="fill:none;fill-rule:evenodd;stroke:black;stroke-width:1.14124513px;stroke-linecap:butt;stroke-linejoin:miter;stroke-opacity:1"
     d="M 97.680188,479.90274 C 98.223527,479.90274 99.888039,479.90274 100.95794,479.90274 C 101.24017,479.90274 101.40055,479.90274 101.648,479.90274"
     id="path1913" />
  <path
     style="fill:none;fill-rule:evenodd;stroke:black;stroke-width:1.14124513px;stroke-linecap:butt;stroke-linejoin:miter;stroke-opacity:1"
     d="M 97.507675,482.31792 C 98.056223,482.31792 99.712296,482.31792 100.78543,482.31792 C 101.07295,482.31792 101.36047,482.31792 101.648,482.31792"
     id="path1915" />
  <path
     style="fill:none;fill-rule:evenodd;stroke:black;stroke-width:1.14124513px;stroke-linecap:butt;stroke-linejoin:miter;stroke-opacity:1"
     d="M 111.82628,441.77729 C 111.21281,441.4092 109.54678,441.3334 108.89356,442.63985 C 108.27103,443.88489 108.13385,444.78716 109.41109,445.7451 C 110.47254,446.54117 111.00954,446.87406 112.51634,447.12519 C 113.56203,447.29949 114.41398,445.52915 114.41398,444.71001 C 114.41398,442.84123 113.92826,442.74201 112.68885,442.12232 C 112.41187,441.98383 112.11381,441.8923 111.82628,441.77729 z "
     id="path1919" />
  <path
     style="fill:none;fill-rule:evenodd;stroke:black;stroke-width:1.14124513px;stroke-linecap:butt;stroke-linejoin:miter;stroke-opacity:1"
     d="M 117.86425,441.60477 C 117.63083,441.48806 116.6385,444.26509 116.48414,444.88252 C 116.18852,446.06501 117.14582,447.11101 117.86425,447.47023 C 119.03781,448.05701 120.16936,448.19971 121.14201,447.47023 C 122.01657,446.81431 122.69463,445.52428 122.69463,444.36499 C 122.69463,442.57285 122.11876,442.78321 120.79697,442.12232 C 119.82173,441.6347 118.9869,441.60477 117.86425,441.60477 z "
     id="path1921" />
  <path
     style="fill:none;fill-rule:evenodd;stroke:black;stroke-width:1.14124513px;stroke-linecap:butt;stroke-linejoin:miter;stroke-opacity:1"
     d="M 105.27078,447.12519 C 105.15631,447.06797 105.76102,448.79575 106.65089,450.57546 C 107.28829,451.8503 108.62734,452.85754 109.92863,453.50819 C 111.18088,454.13431 112.79197,455.01455 113.89645,455.75086 C 114.83586,456.37714 116.55821,456.0959 117.69174,456.0959 C 118.95427,456.0959 120.20056,456.19645 121.31452,455.75086 C 123.02552,455.06647 124.1795,454.78353 125.28232,453.68071 C 126.16499,452.79804 127.08264,451.81293 128.04253,451.09301 C 129.05292,450.33522 128.73259,448.7405 128.73259,447.64274 C 128.73259,446.69136 128.60234,446.00212 128.21506,445.22755"
     id="path1923" />
  <path
     sodipodi:type="arc"
     style="fill:black;stroke:none;stroke-width:0.5;stroke-miterlimit:4;stroke-dasharray:none;stroke-opacity:1"
     id="path1927"
     sodipodi:cx="110.42413"
     sodipodi:cy="489.88693"
     sodipodi:rx="0.52906835"
     sodipodi:ry="0.60464954"
     d="M 110.9532 489.88693 A 0.52906835 0.60464954 0 1 1  109.89506,489.88693 A 0.52906835 0.60464954 0 1 1  110.9532 489.88693 z"
     transform="matrix(1.141245,0,0,1.141245,-13.59092,-114.026)" />
  <path
     d="M 110.9532 489.88693 A 0.52906835 0.60464954 0 1 1  109.89506,489.88693 A 0.52906835 0.60464954 0 1 1  110.9532 489.88693 z"
     sodipodi:ry="0.60464954"
     sodipodi:rx="0.52906835"
     sodipodi:cy="489.88693"
     sodipodi:cx="110.42413"
     id="path2816"
     style="fill:black;stroke:none;stroke-width:0.5;stroke-miterlimit:4;stroke-dasharray:none;stroke-opacity:1"
     sodipodi:type="arc"
     transform="matrix(1.141245,0,0,1.141245,-7.260989,-114.026)" />
  <rect
     y="423.39703"
     x="166.30484"
     height="60"
     width="60"
     id="rect2822"
     style="opacity:1;color:black;fill:white;fill-opacity:1;fill-rule:nonzero;stroke:#b3b3b3;stroke-width:0.5;stroke-linecap:butt;stroke-linejoin:miter;marker:none;marker-start:none;marker-mid:none;marker-end:none;stroke-miterlimit:4;stroke-dasharray:none;stroke-dashoffset:0;stroke-opacity:1;visibility:visible;display:inline;overflow:visible" />
  <path
     style="fill:#e9c6af;fill-rule:evenodd;stroke:none;stroke-width:1px;stroke-linecap:butt;stroke-linejoin:miter;stroke-opacity:1"
     d="M 187.64392,471.49035 C 189.6823,469.45726 189.81866,467.69589 190.08909,465.91536 C 193.71658,461.06514 197.05722,461.37828 200.1632,465.91536 C 200.06649,467.88725 200.27369,469.70719 201.72811,470.90351 C 196.83429,474.68277 191.90835,473.26956 187.64392,471.49035 z "
     id="path2906"
     sodipodi:nodetypes="ccccc" />
  <path
     transform="matrix(1.141245,0,0,1.141245,66.40908,-114.026)"
     d="M 110.9532 489.88693 A 0.52906835 0.60464954 0 1 1  109.89506,489.88693 A 0.52906835 0.60464954 0 1 1  110.9532 489.88693 z"
     sodipodi:ry="0.60464954"
     sodipodi:rx="0.52906835"
     sodipodi:cy="489.88693"
     sodipodi:cx="110.42413"
     id="path2868"
     style="fill:black;stroke:none;stroke-width:0.5;stroke-miterlimit:4;stroke-dasharray:none;stroke-opacity:1"
     sodipodi:type="arc" />
  <path
     transform="matrix(1.141245,0,0,1.141245,72.73901,-114.026)"
     sodipodi:type="arc"
     style="fill:black;stroke:none;stroke-width:0.5;stroke-miterlimit:4;stroke-dasharray:none;stroke-opacity:1"
     id="path2870"
     sodipodi:cx="110.42413"
     sodipodi:cy="489.88693"
     sodipodi:rx="0.52906835"
     sodipodi:ry="0.60464954"
     d="M 110.9532 489.88693 A 0.52906835 0.60464954 0 1 1  109.89506,489.88693 A 0.52906835 0.60464954 0 1 1  110.9532 489.88693 z" />
  <path
     style="fill:none;fill-rule:evenodd;stroke:#a00;stroke-width:1px;stroke-linecap:butt;stroke-linejoin:miter;stroke-opacity:1"
     d="M 176.68956,483.32498 C 177.81297,479.16926 178.80636,474.80551 181.18867,472.66403 C 183.50488,471.84955 187.11202,471.55145 188.13296,470.21886 C 192.23167,472.65387 196.49956,474.07384 201.6303,470.31667 C 203.62833,472.12854 205.54752,472.08507 207.79213,472.66403 C 211.70021,475.40402 210.77348,479.75562 211.90002,483.42279 L 176.68956,483.32498 z "
     id="path2874"
     sodipodi:nodetypes="ccccccc" />
  <path
     style="fill:maroon;fill-rule:evenodd;stroke:none;stroke-width:1px;stroke-linecap:butt;stroke-linejoin:miter;stroke-opacity:1"
     d="M 188.03515,469.54724 C 187.68341,470.08759 187.07488,470.45674 186.38521,470.77179 C 192.97932,474.27607 197.22769,474.68206 203.05906,470.75901 L 201.73229,469.70869 C 196.50625,472.54713 192.32431,471.50108 188.03515,469.54724 z "
     id="path2876"
     sodipodi:nodetypes="ccccc" />
  <path
     style="fill:none;fill-rule:evenodd;stroke:#a00;stroke-width:1px;stroke-linecap:butt;stroke-linejoin:miter;stroke-opacity:1"
     d="M 181.67771,483.32498 L 181.5799,475.20701"
     id="path2902" />
  <path
     id="path2904"
     d="M 207.67771,483.32498 L 207.5799,475.20701"
     style="fill:none;fill-rule:evenodd;stroke:#a00;stroke-width:1px;stroke-linecap:butt;stroke-linejoin:miter;stroke-opacity:1" />
  <path
     style="fill:#d38d5f;fill-rule:evenodd;stroke:#a05a2c;stroke-width:1px;stroke-linecap:butt;stroke-linejoin:miter;stroke-opacity:1"
     d="M 210.25,428.25 L 181.6875,429.625 L 182.84375,468.15625 L 183.9375,466.6875 L 184.21875,468.5625 L 185.96875,466 L 186.5625,468.0625 L 187.53125,466.21875 L 188.21875,468.46875 L 189.90625,466.59375 L 190.5625,468.5625 L 191.84375,466.78125 L 192.53125,468.84375 L 193.5,465.90625 L 194.5,468.25 L 195.65625,465.8125 L 196.34375,468.375 L 197.71875,466.59375 L 198.40625,468.25 L 199.28125,466.3125 L 200.9375,468.0625 L 202.21875,466.59375 L 202.40625,468.5625 L 203.28125,467.1875 L 203.875,468.9375 L 204.46875,467.28125 L 205.25,468.75 L 206.21875,467 L 206.625,468.9375 L 208.09375,466.5 C 208.09375,466.5 208.39408,467.95371 208.6875,467.5625 C 208.98093,467.17127 209.65624,465.53124 209.65625,465.53125 L 210.4375,468.46875 L 210.25,428.25 z M 190.28125,441.46875 C 192.2709,441.59266 194.49299,442.40719 194.59375,445.1875 C 192.76913,449.09927 190.45419,447.93999 188.71875,445.96875 C 186.69943,443.19856 188.81013,442.49371 190.28125,441.46875 z M 201.40625,441.59375 C 202.8291,442.6187 204.89056,443.32356 202.9375,446.09375 C 201.25901,448.06498 199.01475,449.22427 197.25,445.3125 C 197.34747,442.53218 199.48189,441.71766 201.40625,441.59375 z "
     id="path2908" />
  <path
     style="fill:none;fill-rule:evenodd;stroke:black;stroke-width:1px;stroke-linecap:butt;stroke-linejoin:miter;stroke-opacity:1"
     d="M 185.30946,446.43891 C 185.71949,450.10869 186.89995,455.19443 193.72378,457.73814 C 196.32342,458.39899 197.0892,458.62006 199.85422,457.61793 C 205.77693,455.0426 207.1416,450.33153 208.14834,445.95809"
     id="path2920"
     sodipodi:nodetypes="cccc" />
  <rect
     style="opacity:1;color:black;fill:white;fill-opacity:1;fill-rule:nonzero;stroke:#b3b3b3;stroke-width:0.5;stroke-linecap:butt;stroke-linejoin:miter;marker:none;marker-start:none;marker-mid:none;marker-end:none;stroke-miterlimit:4;stroke-dasharray:none;stroke-dashoffset:0;stroke-opacity:1;visibility:visible;display:inline;overflow:visible"
     id="rect1903"
     width="60"
     height="60"
     x="86.30484"
     y="503.39703" />
  <rect
     y="503.39703"
     x="166.30484"
     height="60"
     width="60"
     id="rect1905"
     style="opacity:1;color:black;fill:white;fill-opacity:1;fill-rule:nonzero;stroke:#b3b3b3;stroke-width:0.5;stroke-linecap:butt;stroke-linejoin:miter;marker:none;marker-start:none;marker-mid:none;marker-end:none;stroke-miterlimit:4;stroke-dasharray:none;stroke-dashoffset:0;stroke-opacity:1;visibility:visible;display:inline;overflow:visible" />
  <rect
     style="opacity:1;color:black;fill:white;fill-opacity:1;fill-rule:nonzero;stroke:#b3b3b3;stroke-width:0.5;stroke-linecap:butt;stroke-linejoin:miter;marker:none;marker-start:none;marker-mid:none;marker-end:none;stroke-miterlimit:4;stroke-dasharray:none;stroke-dashoffset:0;stroke-opacity:1;visibility:visible;display:inline;overflow:visible"
     id="rect1907"
     width="60"
     height="60"
     x="246.30484"
     y="503.39703" />
  <rect
     y="423.39703"
     x="246.30484"
     height="60"
     width="60"
     id="rect1909"
     style="opacity:1;color:black;fill:white;fill-opacity:1;fill-rule:nonzero;stroke:#b3b3b3;stroke-width:0.5;stroke-linecap:butt;stroke-linejoin:miter;marker:none;marker-start:none;marker-mid:none;marker-end:none;stroke-miterlimit:4;stroke-dasharray:none;stroke-dashoffset:0;stroke-opacity:1;visibility:visible;display:inline;overflow:visible" />
  <path
     sodipodi:type="arc"
     style="opacity:1;color:black;fill:white;fill-opacity:1;fill-rule:nonzero;stroke:black;stroke-width:0.5;stroke-linecap:butt;stroke-linejoin:miter;marker:none;marker-start:none;marker-mid:none;marker-end:none;stroke-miterlimit:4;stroke-dasharray:none;stroke-dashoffset:0;stroke-opacity:1;visibility:visible;display:inline;overflow:visible"
     id="path2002"
     sodipodi:cx="107.71817"
     sodipodi:cy="546.74402"
     sodipodi:rx="5.4583149"
     sodipodi:ry="5.4583149"
     d="M 113.17649 546.74402 A 5.4583149 5.4583149 0 1 1  102.25986,546.74402 A 5.4583149 5.4583149 0 1 1  113.17649 546.74402 z"
     transform="matrix(0.643503,0,0,0.643503,40.89124,184.5019)" />
  <path
     d="M 113.17649 546.74402 A 5.4583149 5.4583149 0 1 1  102.25986,546.74402 A 5.4583149 5.4583149 0 1 1  113.17649 546.74402 z"
     sodipodi:ry="5.4583149"
     sodipodi:rx="5.4583149"
     sodipodi:cy="546.74402"
     sodipodi:cx="107.71817"
     id="path2006"
     style="opacity:1;color:black;fill:black;fill-opacity:1;fill-rule:nonzero;stroke:none;stroke-width:0.5;stroke-linecap:butt;stroke-linejoin:miter;marker:none;marker-start:none;marker-mid:none;marker-end:none;stroke-miterlimit:4;stroke-dasharray:none;stroke-dashoffset:0;stroke-opacity:1;visibility:visible;display:inline;overflow:visible"
     sodipodi:type="arc"
     transform="matrix(0.191355,0,0,0.191355,89.58934,431.7051)" />
  <path
     style="fill:black;fill-rule:evenodd;stroke:none;stroke-width:1px;stroke-linecap:butt;stroke-linejoin:miter;stroke-opacity:1"
     d="M 106.69587,529.52411 C 107.2604,527.61945 108.64816,527.59648 110.13663,527.80373 C 108.52149,527.90897 107.5124,528.62025 106.69587,529.52411 z "
     id="path2008"
     sodipodi:nodetypes="ccc" />
  <path
     sodipodi:nodetypes="ccc"
     id="path2010"
     d="M 109.4554,536.3172 C 109.64037,535.69313 110.09506,535.68561 110.58276,535.75353 C 110.05357,535.78801 109.72293,536.02105 109.4554,536.3172 z "
     style="fill:white;fill-rule:evenodd;stroke:none;stroke-width:0.32764408px;stroke-linecap:butt;stroke-linejoin:miter;stroke-opacity:1" />
  <path
     d="M 113.17649 546.74402 A 5.4583149 5.4583149 0 1 1  102.25986,546.74402 A 5.4583149 5.4583149 0 1 1  113.17649 546.74402 z"
     sodipodi:ry="5.4583149"
     sodipodi:rx="5.4583149"
     sodipodi:cy="546.74402"
     sodipodi:cx="107.71817"
     id="path5554"
     style="opacity:1;color:black;fill:white;fill-opacity:1;fill-rule:nonzero;stroke:black;stroke-width:0.5;stroke-linecap:butt;stroke-linejoin:miter;marker:none;marker-start:none;marker-mid:none;marker-end:none;stroke-miterlimit:4;stroke-dasharray:none;stroke-dashoffset:0;stroke-opacity:1;visibility:visible;display:inline;overflow:visible"
     sodipodi:type="arc"
     transform="matrix(-0.643503,0,0,0.643503,191.812,184.5019)" />
  <path
     transform="matrix(-0.191355,0,0,0.191355,143.1139,431.7051)"
     sodipodi:type="arc"
     style="opacity:1;color:black;fill:black;fill-opacity:1;fill-rule:nonzero;stroke:none;stroke-width:0.5;stroke-linecap:butt;stroke-linejoin:miter;marker:none;marker-start:none;marker-mid:none;marker-end:none;stroke-miterlimit:4;stroke-dasharray:none;stroke-dashoffset:0;stroke-opacity:1;visibility:visible;display:inline;overflow:visible"
     id="path5556"
     sodipodi:cx="107.71817"
     sodipodi:cy="546.74402"
     sodipodi:rx="5.4583149"
     sodipodi:ry="5.4583149"
     d="M 113.17649 546.74402 A 5.4583149 5.4583149 0 1 1  102.25986,546.74402 A 5.4583149 5.4583149 0 1 1  113.17649 546.74402 z" />
  <path
     sodipodi:nodetypes="ccc"
     id="path5558"
     d="M 126.00707,529.52411 C 125.44256,527.61945 124.0548,527.59648 122.56631,527.80373 C 124.18146,527.90897 125.19056,528.62025 126.00707,529.52411 z "
     style="fill:black;fill-rule:evenodd;stroke:none;stroke-width:1px;stroke-linecap:butt;stroke-linejoin:miter;stroke-opacity:1" />
  <path
     style="fill:white;fill-rule:evenodd;stroke:none;stroke-width:0.32764408px;stroke-linecap:butt;stroke-linejoin:miter;stroke-opacity:1"
     d="M 123.24753,536.3172 C 123.06258,535.69313 122.60789,535.68561 122.12019,535.75353 C 122.64938,535.78801 122.98001,536.02105 123.24753,536.3172 z "
     id="path5560"
     sodipodi:nodetypes="ccc" />
  <path
     style="fill:none;fill-rule:evenodd;stroke:black;stroke-width:0.64402711;stroke-linecap:butt;stroke-linejoin:miter;stroke-miterlimit:4;stroke-dasharray:none;stroke-opacity:1"
     d="M 130.77515,531.72375 C 137.26519,533.74581 137.59779,529.3229 138.95842,527.06016 L 137.9905,524.4204 C 137.10442,523.33261 136.62264,522.41326 138.51845,522.48458 L 139.75035,523.45248 C 144.20215,519.58336 144.21595,525.22332 142.56609,526.44422 L 140.01432,528.29206 C 139.87409,531.61521 136.64923,535.38361 130.77515,534.01154 L 130.77515,531.72375 z "
     id="path9112"
     sodipodi:nodetypes="ccccccccc" />
  <path
     style="fill:#007eae;fill-opacity:1;fill-rule:evenodd;stroke:black;stroke-width:0.64402711;stroke-linecap:butt;stroke-linejoin:miter;stroke-miterlimit:4;stroke-dasharray:none;stroke-opacity:1"
     d="M 102.12505,525.19163 C 105.64011,522.99774 104.7986,518.45871 108.75578,515.89855 C 111.07946,514.70524 112.54839,514.18297 114.28139,516.19994 C 115.27267,517.86259 113.46629,521.02129 112.27208,521.77577 C 109.25036,524.06686 110.49203,528.23896 114.78372,527.45208 C 118.30742,526.78825 119.1359,523.96822 120.81166,521.82601 C 122.98699,518.63929 124.3011,518.52463 126.08611,518.46042 C 127.68713,519.17366 127.83567,520.85281 126.33727,522.02696 C 124.51505,523.26975 124.06621,526.86364 128.89914,526.6986 C 129.63831,526.4116 130.36205,526.10398 130.70752,525.29208 L 130.80799,504.84732 L 102.27575,504.84732 L 102.12505,525.19163 z "
     id="path5562"
     sodipodi:nodetypes="cccccccccc" />
  <path
     style="fill:black;fill-rule:evenodd;stroke:none;stroke-width:1px;stroke-linecap:butt;stroke-linejoin:miter;stroke-opacity:1"
     d="M 109.50926,543.15592 C 115.38139,546.02357 119.65531,545.51631 123.12236,543.30662 C 118.58467,544.49136 114.04696,544.24484 109.50926,543.15592 z "
     id="path5564"
     sodipodi:nodetypes="ccc" />
  <path
     style="fill:black;fill-rule:evenodd;stroke:none;stroke-width:1px;stroke-linecap:butt;stroke-linejoin:miter;stroke-opacity:1"
     d="M 110.01159,542.82334 L 109.60973,543.72752 L 109.15764,543.52659 L 109.65997,542.47171 L 110.01159,542.82334 z "
     id="path6451"
     sodipodi:nodetypes="ccccc" />
  <path
     sodipodi:nodetypes="ccccc"
     id="path8223"
     d="M 122.81241,542.97402 L 123.21427,543.87822 L 123.66635,543.67728 L 123.16404,542.6224 L 122.81241,542.97402 z "
     style="fill:black;fill-rule:evenodd;stroke:none;stroke-width:1px;stroke-linecap:butt;stroke-linejoin:miter;stroke-opacity:1" />
  <path
     style="fill:none;fill-rule:evenodd;stroke:black;stroke-width:0.64402711;stroke-linecap:butt;stroke-linejoin:miter;stroke-miterlimit:4;stroke-dasharray:none;stroke-opacity:1"
     d="M 102.15028,524.40985 L 102.06229,548.9716 L 130.69842,548.99412 L 130.67589,519.00431"
     id="path8225"
     sodipodi:nodetypes="cccc" />
  <path
     style="fill:none;fill-rule:evenodd;stroke:black;stroke-width:0.64402711;stroke-linecap:butt;stroke-linejoin:miter;stroke-miterlimit:4;stroke-dasharray:none;stroke-opacity:1"
     d="M 110.80096,549.05818 C 111.17647,552.1379 112.53,555.21764 110.97694,558.29735 C 106.39186,559.69839 107.28341,560.27032 107.45726,561.46507 C 109.34527,563.54194 110.88256,561.05937 112.5608,560.40916 C 113.87677,559.7717 113.54721,558.89917 113.26473,558.03338 C 112.80207,555.07098 112.52694,552.10857 112.29682,549.14617 L 110.80096,549.05818 z "
     id="path9999"
     sodipodi:nodetypes="ccccccc" />
  <path
     sodipodi:nodetypes="ccccccc"
     id="path10886"
     d="M 120.65539,549.05818 C 120.27987,552.1379 118.92634,555.21764 120.4794,558.29735 C 125.06448,559.69839 124.17294,560.27032 123.99909,561.46507 C 122.11107,563.54194 120.57379,561.05937 118.89554,560.40916 C 117.57958,559.7717 117.90914,558.89917 118.19161,558.03338 C 118.65427,555.07098 118.9294,552.10857 119.15952,549.14617 L 120.65539,549.05818 z "
     style="fill:none;fill-rule:evenodd;stroke:black;stroke-width:0.64402711;stroke-linecap:butt;stroke-linejoin:miter;stroke-miterlimit:4;stroke-dasharray:none;stroke-opacity:1" />
  <path
     sodipodi:nodetypes="ccccccccc"
     id="path10888"
     d="M 101.97913,531.26697 C 97.424949,533.99648 99.292148,540.88318 97.931525,543.14592 L 98.899443,545.78568 C 99.785525,546.87348 100.26731,547.79283 98.37149,547.7215 L 97.139595,546.7536 C 92.68779,550.62272 92.673992,544.98276 94.323853,543.76186 L 96.875619,541.91403 C 97.015855,538.59087 97.160992,530.77484 101.97913,528.97919 L 101.97913,531.26697 z "
     style="fill:none;fill-rule:evenodd;stroke:black;stroke-width:0.64402711;stroke-linecap:butt;stroke-linejoin:miter;stroke-miterlimit:4;stroke-dasharray:none;stroke-opacity:1" />
</svg>
