<?xml version="1.0" encoding="UTF-8"?>

<!DOCTYPE svg PUBLIC '-//W3C//DTD SVG 1.0//EN' 'http://www.w3.org/TR/2001/REC-SVG-20010904/DTD/svg10.dtd'>
<svg style="fill-opacity:1; color-rendering:auto; color-interpolation:auto; stroke:black; text-rendering:auto; stroke-linecap:square; stroke-miterlimit:10; shape-rendering:auto; stroke-opacity:1; fill:black; stroke-dasharray:none; font-weight:normal; stroke-width:1; font-family:&apos;sansserif&apos;; font-style:normal; stroke-linejoin:miter; font-size:12; stroke-dashoffset:0; image-rendering:auto;" xmlns="http://www.w3.org/2000/svg" width="1032" xmlns:xlink="http://www.w3.org/1999/xlink" height="845">
  <!--Generated by the Batik Graphics2D SVG Generator-->
  <defs id="genericDefs" />
  <g>
    <defs id="defs1">
      <clipPath clipPathUnits="userSpaceOnUse" id="clipPath1">
        <path d="M-11 -16 L1021 -16 L1021 829 L-11 829 L-11 -16 Z" />
      </clipPath>
      <clipPath clipPathUnits="userSpaceOnUse" id="clipPath2">
        <path d="M0 0 L1032 0 L1032 845 L0 845 L0 0 Z" />
      </clipPath>
    </defs>
    <g style="fill:white; stroke:white;" transform="translate(11,16)">
      <rect x="-11" y="-16" width="1032" style="clip-path:url(#clipPath1); stroke:none;" height="845" />
    </g>
    <g style="fill:white; stroke:white;">
      <rect x="9.125" y="821.75" width="104.904296875" style="clip-path:url(#clipPath2); stroke:none;" height="15.5625" />
      <text x="10" y="833" style="clip-path:url(#clipPath2); fill:silver; font-family:sans-serif; stroke:none;" xml:space="preserve">Powered by yFiles</text>
    </g>
    <g style="fill:rgb(255,204,0); stroke:rgb(255,204,0);" transform="matrix(1,0,0,1,11,16)">
      <path d="M645.90625 558 L682.90625 523 L719.90625 558 L682.90625 593 Z" style="clip-path:url(#clipPath1); fill-rule:evenodd; stroke:none;" />
    </g>
    <g style="font-size:13; font-family:sans-serif;" transform="matrix(1,0,0,1,11,16)">
      <text x="675.90625" y="562.789306640625" style="clip-path:url(#clipPath1); stroke:none;" xml:space="preserve">eL</text>
      <path style="stroke-linecap:butt; clip-path:url(#clipPath1); fill:none; fill-rule:evenodd; stroke-miterlimit:1.4500000476837158;" d="M645.90625 558 L682.90625 523 L719.90625 558 L682.90625 593 Z" />
      <ellipse style="clip-path:url(#clipPath1); fill:rgb(204,255,255); stroke:none;" rx="29.5" cx="238.40625" ry="20" cy="467" />
      <text x="224.90625" y="471.789306640625" style="clip-path:url(#clipPath1); stroke:none;" xml:space="preserve">faqs</text>
      <ellipse style="stroke-linecap:butt; clip-path:url(#clipPath1); fill:none; stroke-miterlimit:1.4500000476837158;" rx="29.5" cx="238.40625" ry="20" cy="467" />
      <path style="fill:rgb(204,153,255); clip-path:url(#clipPath1); fill-rule:evenodd; stroke:none;" d="M865.90625 545.5233154296875 L885.2371826171875 530 L912.5753173828125 530 L931.90625 545.5233154296875 L931.90625 567.4766845703125 L912.5753173828125 583 L885.2371826171875 583 L865.90625 567.4766845703125 Z" />
      <text x="885.90625" y="561.289306640625" style="clip-path:url(#clipPath1); stroke:none;" xml:space="preserve">labs</text>
      <path style="stroke-linecap:butt; clip-path:url(#clipPath1); fill:none; fill-rule:evenodd; stroke-miterlimit:1.4500000476837158;" d="M865.90625 545.5233154296875 L885.2371826171875 530 L912.5753173828125 530 L931.90625 545.5233154296875 L931.90625 567.4766845703125 L912.5753173828125 583 L885.2371826171875 583 L865.90625 567.4766845703125 Z" />
      <ellipse style="clip-path:url(#clipPath1); fill:rgb(255,204,0); stroke:none;" rx="29.5" cx="525.40625" ry="15" cy="738" />
      <text x="504.90625" y="742.789306640625" style="clip-path:url(#clipPath1); stroke:none;" xml:space="preserve">acervo</text>
      <ellipse style="stroke-linecap:butt; clip-path:url(#clipPath1); fill:none; stroke-miterlimit:1.4500000476837158;" rx="29.5" cx="525.40625" ry="15" cy="738" />
      <ellipse style="clip-path:url(#clipPath1); fill:rgb(255,204,0); stroke:none;" rx="65.5" cx="940.40625" ry="23.5" cy="419.5" />
      <text x="880.40625" y="424.289306640625" style="clip-path:url(#clipPath1); stroke:none;" xml:space="preserve">como fazer tutorial</text>
      <ellipse style="stroke-linecap:butt; clip-path:url(#clipPath1); fill:none; stroke-miterlimit:1.4500000476837158;" rx="65.5" cx="940.40625" ry="23.5" cy="419.5" />
      <ellipse style="clip-path:url(#clipPath1); fill:rgb(255,204,0); stroke:none;" rx="54.5" cx="684.40625" ry="15" cy="772" />
      <text x="636.90625" y="776.789306640625" style="clip-path:url(#clipPath1); stroke:none;" xml:space="preserve">recent changes</text>
      <ellipse style="stroke-linecap:butt; clip-path:url(#clipPath1); fill:none; stroke-miterlimit:1.4500000476837158;" rx="54.5" cx="684.40625" ry="15" cy="772" />
      <ellipse style="clip-path:url(#clipPath1); fill:rgb(204,255,204); stroke:none;" rx="36.5" cx="396.40625" ry="15" cy="233" />
      <text x="370.90625" y="237.789306640625" style="clip-path:url(#clipPath1); stroke:none;" xml:space="preserve">o que é?</text>
      <ellipse style="stroke-linecap:butt; clip-path:url(#clipPath1); fill:none; stroke-miterlimit:1.4500000476837158;" rx="36.5" cx="396.40625" ry="15" cy="233" />
      <path style="fill:rgb(255,204,153); clip-path:url(#clipPath1); fill-rule:evenodd; stroke:none;" d="M847.90625 704 L928.90625 704 L919.90625 734 L838.90625 734 Z" />
      <text x="855.90625" y="723.789306640625" style="clip-path:url(#clipPath1); stroke:none;" xml:space="preserve">conversê</text>
      <path style="stroke-linecap:butt; clip-path:url(#clipPath1); fill:none; fill-rule:evenodd; stroke-miterlimit:1.4500000476837158;" d="M847.90625 704 L928.90625 704 L919.90625 734 L838.90625 734 Z" />
      <ellipse style="clip-path:url(#clipPath1); fill:rgb(255,204,0); stroke:none;" rx="38" cx="517.90625" ry="15" cy="598" />
      <text x="490.90625" y="602.789306640625" style="clip-path:url(#clipPath1); stroke:none;" xml:space="preserve">usuários</text>
      <ellipse style="stroke-linecap:butt; clip-path:url(#clipPath1); fill:none; stroke-miterlimit:1.4500000476837158;" rx="38" cx="517.90625" ry="15" cy="598" />
      <path style="fill:rgb(255,204,153); clip-path:url(#clipPath1); fill-rule:evenodd; stroke:none;" d="M737.5062255859375 409 L796.90625 409 L790.3062744140625 439 L730.90625 439 Z" />
      <text x="744.90625" y="428.789306640625" style="clip-path:url(#clipPath1); stroke:none;" xml:space="preserve">a lista</text>
      <path style="stroke-linecap:butt; clip-path:url(#clipPath1); fill:none; fill-rule:evenodd; stroke-miterlimit:1.4500000476837158;" d="M737.5062255859375 409 L796.90625 409 L790.3062744140625 439 L730.90625 439 Z" />
      <ellipse style="clip-path:url(#clipPath1); fill:rgb(255,204,0); stroke:none;" rx="32.5" cx="461.40625" ry="15" cy="428" />
      <text x="440.90625" y="432.789306640625" style="clip-path:url(#clipPath1); stroke:none;" xml:space="preserve">fóruns</text>
      <ellipse style="stroke-linecap:butt; clip-path:url(#clipPath1); fill:none; stroke-miterlimit:1.4500000476837158;" rx="32.5" cx="461.40625" ry="15" cy="428" />
      <ellipse style="clip-path:url(#clipPath1); fill:rgb(255,204,0); stroke:none;" rx="45" cx="632.90625" ry="15" cy="412" />
      <text x="595.40625" y="418.22607421875" style="clip-path:url(#clipPath1); stroke:none;" xml:space="preserve">registrar-se</text>
      <ellipse style="stroke-linecap:butt; clip-path:url(#clipPath1); fill:none; stroke-miterlimit:1.4500000476837158;" rx="45" cx="632.90625" ry="15" cy="412" />
      <rect x="501.90625" y="260" width="86" style="clip-path:url(#clipPath1); fill:rgb(204,255,204); stroke:none;" height="30" />
      <text x="510.90625" y="279.789306640625" style="clip-path:url(#clipPath1); stroke:none;" xml:space="preserve">introdução</text>
      <rect x="501.90625" y="260" width="86" style="stroke-linecap:butt; clip-path:url(#clipPath1); fill:none; stroke-miterlimit:1.4500000476837158;" height="30" />
      <rect x="4.90625" y="319" width="131" style="clip-path:url(#clipPath1); fill:rgb(204,255,204); stroke:none;" height="30" />
      <text x="12.90625" y="338.789306640625" style="clip-path:url(#clipPath1); stroke:none;" xml:space="preserve">creative commons</text>
      <rect x="4.90625" y="319" width="131" style="stroke-linecap:butt; clip-path:url(#clipPath1); fill:none; stroke-miterlimit:1.4500000476837158;" height="30" />
      <rect x="147.90625" y="207" width="144" style="clip-path:url(#clipPath1); fill:rgb(204,255,204); stroke:none;" height="30" />
      <text x="158.40625" y="226.789306640625" style="clip-path:url(#clipPath1); stroke:none;" xml:space="preserve">todos podem editar</text>
      <rect x="147.90625" y="207" width="144" style="stroke-linecap:butt; clip-path:url(#clipPath1); fill:none; stroke-miterlimit:1.4500000476837158;" height="30" />
      <rect x="295.90625" y="618" width="110" style="clip-path:url(#clipPath1); fill:rgb(204,255,204); stroke:none;" height="30" />
      <text x="329.40625" y="637.789306640625" style="clip-path:url(#clipPath1); stroke:none;" xml:space="preserve">seções</text>
      <rect x="295.90625" y="618" width="110" style="stroke-linecap:butt; clip-path:url(#clipPath1); fill:none; stroke-miterlimit:1.4500000476837158;" height="30" />
      <rect x="474.90625" y="0" width="115" style="clip-path:url(#clipPath1); fill:rgb(204,255,204); stroke:none;" height="30" />
      <text x="485.90625" y="19.789306640625" style="clip-path:url(#clipPath1); stroke:none;" xml:space="preserve">política de uso</text>
      <rect x="474.90625" y="0" width="115" style="stroke-linecap:butt; clip-path:url(#clipPath1); fill:none; stroke-miterlimit:1.4500000476837158;" height="30" />
      <rect x="277.90625" y="283" width="87" style="clip-path:url(#clipPath1); fill:rgb(204,255,204); stroke:none;" height="30" />
      <text x="297.40625" y="302.789306640625" style="clip-path:url(#clipPath1); stroke:none;" xml:space="preserve">contato</text>
      <rect x="277.90625" y="283" width="87" style="stroke-linecap:butt; clip-path:url(#clipPath1); fill:none; stroke-miterlimit:1.4500000476837158;" height="30" />
      <rect x="539.90625" y="96" width="91" style="clip-path:url(#clipPath1); fill:rgb(204,255,204); stroke:none;" height="30" />
      <text x="558.40625" y="115.789306640625" style="clip-path:url(#clipPath1); stroke:none;" xml:space="preserve">colabore</text>
      <rect x="539.90625" y="96" width="91" style="stroke-linecap:butt; clip-path:url(#clipPath1); fill:none; stroke-miterlimit:1.4500000476837158;" height="30" />
      <rect x="229.90625" y="126" width="137" style="clip-path:url(#clipPath1); fill:rgb(204,255,204); stroke:none;" height="30" />
      <text x="239.40625" y="145.789306640625" style="clip-path:url(#clipPath1); stroke:none;" xml:space="preserve">organizando ações</text>
      <rect x="229.90625" y="126" width="137" style="stroke-linecap:butt; clip-path:url(#clipPath1); fill:none; stroke-miterlimit:1.4500000476837158;" height="30" />
      <rect x="307.875" y="46" width="144.0625" style="clip-path:url(#clipPath1); fill:rgb(204,255,204); stroke:none;" height="30" />
      <text x="316.90625" y="65.789306640625" style="clip-path:url(#clipPath1); stroke:none;" xml:space="preserve">trabalhos anteriores</text>
      <rect x="307.875" y="46" width="144.0625" style="stroke-linecap:butt; clip-path:url(#clipPath1); fill:none; stroke-miterlimit:1.4500000476837158;" height="30" />
      <path style="fill:rgb(255,204,153); clip-path:url(#clipPath1); fill-rule:evenodd; stroke:none;" d="M539.6062622070312 198 L617.90625 198 L609.2062377929688 228 L530.90625 228 Z" />
      <text x="538.90625" y="217.789306640625" style="clip-path:url(#clipPath1); stroke:none;" xml:space="preserve">cultura.gov</text>
      <path style="stroke-linecap:butt; clip-path:url(#clipPath1); fill:none; fill-rule:evenodd; stroke-miterlimit:1.4500000476837158;" d="M539.6062622070312 198 L617.90625 198 L609.2062377929688 228 L530.90625 228 Z" />
      <ellipse style="clip-path:url(#clipPath1); fill:rgb(204,255,255); stroke:none;" rx="58.75" cx="79.90625" ry="15" cy="425" />
      <text x="28.40625" y="429.789306640625" style="clip-path:url(#clipPath1); stroke:none;" xml:space="preserve">direitos autorais</text>
      <ellipse style="stroke-linecap:butt; clip-path:url(#clipPath1); fill:none; stroke-miterlimit:1.4500000476837158;" rx="58.75" cx="79.90625" ry="15" cy="425" />
      <ellipse style="clip-path:url(#clipPath1); fill:rgb(204,255,255); stroke:none;" rx="45.46875" cx="210.90625" ry="14.21875" cy="369.5" />
      <text x="173.40625" y="374.289306640625" style="clip-path:url(#clipPath1); stroke:none;" xml:space="preserve">como editar</text>
      <ellipse style="stroke-linecap:butt; clip-path:url(#clipPath1); fill:none; stroke-miterlimit:1.4500000476837158;" rx="45.46875" cx="210.90625" ry="14.21875" cy="369.5" />
      <ellipse style="clip-path:url(#clipPath1); fill:rgb(204,255,255); stroke:none;" rx="49.375" cx="122.40625" ry="15" cy="537" />
      <text x="79.90625" y="541.789306640625" style="clip-path:url(#clipPath1); stroke:none;" xml:space="preserve">faq do acervo</text>
      <ellipse style="stroke-linecap:butt; clip-path:url(#clipPath1); fill:none; stroke-miterlimit:1.4500000476837158;" rx="49.375" cx="122.40625" ry="15" cy="537" />
      <ellipse style="clip-path:url(#clipPath1); fill:rgb(204,255,255); stroke:none;" rx="72.8125" cx="104.40625" ry="15" cy="485" />
      <text x="43.90625" y="489.789306640625" style="clip-path:url(#clipPath1); stroke:none;" xml:space="preserve">Est. de Vídeo (tech)</text>
      <ellipse style="stroke-linecap:butt; clip-path:url(#clipPath1); fill:none; stroke-miterlimit:1.4500000476837158;" rx="72.8125" cx="104.40625" ry="15" cy="485" />
      <ellipse style="clip-path:url(#clipPath1); fill:rgb(204,255,255); stroke:none;" rx="59.53125" cx="172.40625" ry="15" cy="592" />
      <text x="130.40625" y="596.789306640625" style="clip-path:url(#clipPath1); stroke:none;" xml:space="preserve">faq soft. livre</text>
      <ellipse style="stroke-linecap:butt; clip-path:url(#clipPath1); fill:none; stroke-miterlimit:1.4500000476837158;" rx="59.53125" cx="172.40625" ry="15" cy="592" />
      <path style="fill:rgb(255,204,153); clip-path:url(#clipPath1); fill-rule:evenodd; stroke:none;" d="M10.28125 255 L66.8125 255 L60.53125 285 L4 285 Z" />
      <text x="15.90625" y="274.789306640625" style="clip-path:url(#clipPath1); stroke:none;" xml:space="preserve">cc.org</text>
      <path style="stroke-linecap:butt; clip-path:url(#clipPath1); fill:none; fill-rule:evenodd; stroke-miterlimit:1.4500000476837158;" d="M10.28125 255 L66.8125 255 L60.53125 285 L4 285 Z" />
      <ellipse style="clip-path:url(#clipPath1); fill:rgb(255,204,0); stroke:none;" rx="40" cx="798.90625" ry="15" cy="310" />
      <text x="771.90625" y="314.789306640625" style="clip-path:url(#clipPath1); stroke:none;" xml:space="preserve">colabore</text>
      <ellipse style="stroke-linecap:butt; clip-path:url(#clipPath1); fill:none; stroke-miterlimit:1.4500000476837158;" rx="40" cx="798.90625" ry="15" cy="310" />
      <path style="fill:rgb(204,153,255); clip-path:url(#clipPath1); fill-rule:evenodd; stroke:none;" d="M859.15625 228.40354919433594 L878.926513671875 214.125 L906.885986328125 214.125 L926.65625 228.40354919433594 L926.65625 248.59645080566406 L906.885986328125 262.875 L878.926513671875 262.875 L859.15625 248.59645080566406 Z" />
      <text x="881.90625" y="243.289306640625" style="clip-path:url(#clipPath1); stroke:none;" xml:space="preserve">dev</text>
      <path style="stroke-linecap:butt; clip-path:url(#clipPath1); fill:none; fill-rule:evenodd; stroke-miterlimit:1.4500000476837158;" d="M859.15625 228.40354919433594 L878.926513671875 214.125 L906.885986328125 214.125 L926.65625 228.40354919433594 L926.65625 248.59645080566406 L906.885986328125 262.875 L878.926513671875 262.875 L859.15625 248.59645080566406 Z" />
      <ellipse style="clip-path:url(#clipPath1); fill:rgb(255,204,0); stroke:none;" rx="36.875" cx="349.90625" ry="15" cy="799" />
      <text x="332.40625" y="803.789306640625" style="clip-path:url(#clipPath1); stroke:none;" xml:space="preserve">blogs</text>
      <ellipse style="stroke-linecap:butt; clip-path:url(#clipPath1); fill:none; stroke-miterlimit:1.4500000476837158;" rx="36.875" cx="349.90625" ry="15" cy="799" />
      <ellipse style="clip-path:url(#clipPath1); fill:rgb(255,204,0); stroke:none;" rx="54.82688524590162" cx="692.9167988917109" ry="15" cy="14.806940968213524" />
      <text x="646.4168090820312" y="19.59624671936035" style="clip-path:url(#clipPath1); stroke:none;" xml:space="preserve">política de uso</text>
      <ellipse style="stroke-linecap:butt; clip-path:url(#clipPath1); fill:none; stroke-miterlimit:1.4500000476837158;" rx="54.82688524590162" cx="692.9167988917109" ry="15" cy="14.806940968213524" />
    </g>
    <g transform="matrix(1,0,0,1,11,16)" style="stroke-linecap:butt; font-size:13; font-family:sans-serif; stroke-dasharray:2,2; stroke-width:2; stroke-miterlimit:1.4500000476837158;">
      <path d="M719.6357421875 557.7449340820312 L865.9208984375 556.7290649414062" style="fill:none; clip-path:url(#clipPath1);" />
      <path d="M865.9208984375 556.7290649414062 L852.3821411132812 551.1979370117188 L855.796142578125 556.7993774414062 L852.4602661132812 562.4476928710938 Z" style="clip-path:url(#clipPath1); stroke:none;" />
      <path d="M660.0586547851562 544.590576171875 L481.4961242675781 439.7908935546875" style="fill:none; clip-path:url(#clipPath1);" />
      <path d="M481.4961242675781 439.7908935546875 L490.2917785644531 451.4753723144531 L490.228271484375 444.9158630371094 L495.9861755371094 441.7729797363281 Z" style="clip-path:url(#clipPath1); stroke:none;" />
      <path style="fill:none; stroke-dasharray:none; stroke-width:1; clip-path:url(#clipPath1);" d="M696.373291015625 535.72119140625 L754.829345703125 439.01611328125" />
      <path style="stroke-dasharray:none; stroke-width:1; clip-path:url(#clipPath1); stroke:none;" d="M754.829345703125 439.01611328125 L744.3426513671875 446.6991271972656 L750.1735229492188 446.7182922363281 L752.900634765625 451.87225341796875 Z" />
      <path d="M653.459228515625 565.138671875 L550.2872314453125 590.1500854492188" style="fill:none; clip-path:url(#clipPath1);" />
      <path d="M550.2872314453125 590.1500854492188 L564.7324829101562 592.4361572265625 L560.127197265625 587.7646484375 L562.0819702148438 581.5028076171875 Z" style="clip-path:url(#clipPath1); stroke:none;" />
      <path style="fill:none; stroke-dasharray:none; stroke-width:1; clip-path:url(#clipPath1);" d="M702.9522705078125 574.0567626953125 L865.1851806640625 704.0045166015625" />
      <path style="stroke-dasharray:none; stroke-width:1; clip-path:url(#clipPath1); stroke:none;" d="M865.1851806640625 704.0045166015625 L858.9451293945312 692.6000366210938 L858.1607666015625 698.3779907226562 L852.6934814453125 700.4049682617188 Z" />
      <path d="M666.066650390625 538.8975219726562 L408.838623046875 247.10305786132812" style="fill:none; clip-path:url(#clipPath1);" />
      <path d="M408.838623046875 247.10305786132812 L413.54632568359375 260.94964599609375 L415.5340576171875 254.69822692871094 L421.98541259765625 253.51026916503906 Z" style="clip-path:url(#clipPath1); stroke:none;" />
      <path style="fill:none; stroke-dasharray:none; stroke-width:1; clip-path:url(#clipPath1);" d="M683.1499633789062 592.769775390625 L684.3010864257812 757" />
      <path style="stroke-dasharray:none; stroke-width:1; clip-path:url(#clipPath1); stroke:none;" d="M684.3010864257812 757 L689.2168579101562 744.9652709960938 L684.2379760742188 748.000244140625 L679.2171020507812 745.0353393554688 Z" />
      <path style="fill:none; stroke-dasharray:none; stroke-width:1; clip-path:url(#clipPath1);" d="M706.5125122070312 545.3030395507812 L904.0592041015625 439.0497741699219" />
      <path style="stroke-dasharray:none; stroke-width:1; clip-path:url(#clipPath1); stroke:none;" d="M904.0592041015625 439.0497741699219 L891.1224365234375 440.33062744140625 L896.1329956054688 443.31298828125 L895.859375 449.1375427246094 Z" />
      <path d="M666.1603393554688 577.13818359375 L537.39794921875 724.2952270507812" style="fill:none; clip-path:url(#clipPath1);" />
      <path d="M537.39794921875 724.2952270507812 L550.52099609375 717.8395385742188 L544.0653076171875 716.6754150390625 L542.0545043945312 710.4313354492188 Z" style="clip-path:url(#clipPath1); stroke:none;" />
      <path d="M652.493408203125 551.7737426757812 L266.64678955078125 472.7815246582031" style="fill:none; clip-path:url(#clipPath1);" />
      <path d="M266.64678955078125 472.7815246582031 L278.7442932128906 480.9998474121094 L276.5660400390625 474.8122253417969 L281.0006408691406 469.97845458984375 Z" style="clip-path:url(#clipPath1); stroke:none;" />
      <path d="M673.86083984375 531.58740234375 L638.0100708007812 426.9031982421875" style="fill:none; clip-path:url(#clipPath1);" />
      <path d="M638.0100708007812 426.9031982421875 L637.0623779296875 441.4974670410156 L641.29052734375 436.4820556640625 L647.70556640625 437.8525390625 Z" style="clip-path:url(#clipPath1); stroke:none;" />
      <path style="fill:none; stroke-dasharray:none; stroke-width:1; clip-path:url(#clipPath1);" d="M426.4737243652344 241.50393676757812 L501.90625 262.83837890625" />
      <path style="stroke-dasharray:none; stroke-width:1; clip-path:url(#clipPath1); stroke:none;" d="M501.90625 262.83837890625 L491.719970703125 254.7612762451172 L493.2459716796875 260.3890075683594 L488.9984436035156 264.3838195800781 Z" />
      <path style="fill:none; stroke-dasharray:none; stroke-width:1; clip-path:url(#clipPath1);" d="M367.2607116699219 242.02975463867188 L118.82209014892578 319" />
      <path style="stroke-dasharray:none; stroke-width:1; clip-path:url(#clipPath1); stroke:none;" d="M118.82209014892578 319 L131.76426696777344 320.2247619628906 L127.41895294189453 316.3365478515625 L128.8048858642578 310.6726989746094 Z" />
      <path style="fill:none; stroke-dasharray:none; stroke-width:1; clip-path:url(#clipPath1);" d="M360.3188781738281 230.7509307861328 L291.90625 226.4872589111328" />
      <path style="stroke-dasharray:none; stroke-width:1; clip-path:url(#clipPath1); stroke:none;" d="M291.90625 226.4872589111328 L303.5719909667969 232.2239990234375 L300.8888244628906 227.0470733642578 L304.19403076171875 222.2433624267578 Z" />
      <path style="fill:none; stroke-dasharray:none; stroke-width:1; clip-path:url(#clipPath1);" d="M394.7018737792969 247.983642578125 L352.61248779296875 618" />
      <path style="stroke-dasharray:none; stroke-width:1; clip-path:url(#clipPath1); stroke:none;" d="M352.61248779296875 618 L358.93670654296875 606.6419677734375 L353.6296691894531 609.0576782226562 L349.00079345703125 605.5117797851562 Z" />
      <path style="fill:none; stroke-dasharray:none; stroke-width:1; clip-path:url(#clipPath1);" d="M405.47088623046875 218.4699249267578 L523.0484619140625 30" />
      <path style="stroke-dasharray:none; stroke-width:1; clip-path:url(#clipPath1); stroke:none;" d="M523.0484619140625 30 L512.4547119140625 37.53472900390625 L518.2847900390625 37.63591766357422 L520.9390258789062 42.827720642089844 Z" />
      <path style="fill:none; stroke-dasharray:none; stroke-width:1; clip-path:url(#clipPath1);" d="M380.7676696777344 246.55345153808594 L338.71392822265625 283" />
      <path style="stroke-dasharray:none; stroke-width:1; clip-path:url(#clipPath1); stroke:none;" d="M338.71392822265625 283 L351.0568542480469 278.9192810058594 L345.51513671875 277.1056213378906 L344.5075378417969 271.3623962402344 Z" />
      <path style="fill:none; stroke-dasharray:none; stroke-width:1; clip-path:url(#clipPath1);" d="M416.00848388671875 220.34671020507812 L562.1685180664062 126" />
      <path style="stroke-dasharray:none; stroke-width:1; clip-path:url(#clipPath1); stroke:none;" d="M562.1685180664062 126 L549.3748779296875 128.30712890625 L554.6069946289062 130.88096618652344 L554.7981567382812 136.7087860107422 Z" />
      <path style="fill:none; stroke-dasharray:none; stroke-width:1; clip-path:url(#clipPath1);" d="M381.76904296875 219.2589569091797 L314.384521484375 156" />
      <path style="stroke-dasharray:none; stroke-width:1; clip-path:url(#clipPath1); stroke:none;" d="M314.384521484375 156 L319.7112121582031 167.8585968017578 L320.9461669921875 162.15992736816406 L326.5555725097656 160.56787109375 Z" />
      <path style="fill:none; stroke-dasharray:none; stroke-width:1; clip-path:url(#clipPath1);" d="M394.9684143066406 218.0116424560547 L381.34521484375 76" />
      <path style="stroke-dasharray:none; stroke-width:1; clip-path:url(#clipPath1); stroke:none;" d="M381.34521484375 76 L377.51397705078125 88.42262268066406 L382.20465087890625 84.95886993408203 L387.46826171875 87.46770477294922 Z" />
      <path style="fill:none; stroke-dasharray:none; stroke-width:1; clip-path:url(#clipPath1);" d="M554.541259765625 290 L623.4847412109375 397.3324279785156" />
      <path style="stroke-dasharray:none; stroke-width:1; clip-path:url(#clipPath1); stroke:none;" d="M623.4847412109375 397.3324279785156 L621.2062377929688 384.5336608886719 L618.6207275390625 389.7600402832031 L612.79248046875 389.9381408691406 Z" />
      <path style="fill:none; stroke-dasharray:none; stroke-width:1; clip-path:url(#clipPath1);" d="M543.6524047851562 290 L519.159423828125 583.0081787109375" />
      <path style="stroke-dasharray:none; stroke-width:1; clip-path:url(#clipPath1); stroke:none;" d="M519.159423828125 583.0081787109375 L525.1416625976562 571.4663696289062 L519.9091186523438 574.0394287109375 L515.1763916015625 570.6333618164062 Z" />
      <path style="fill:none; stroke-dasharray:none; stroke-width:1; clip-path:url(#clipPath1);" d="M536.719970703125 290 L469.3445739746094 413.454345703125" />
      <path style="stroke-dasharray:none; stroke-width:1; clip-path:url(#clipPath1); stroke:none;" d="M469.3445739746094 413.454345703125 L479.4821472167969 405.3161926269531 L473.6560363769531 405.55426025390625 L470.70428466796875 400.525634765625 Z" />
      <path style="fill:none; stroke-dasharray:none; stroke-width:1; clip-path:url(#clipPath1);" d="M566.9532470703125 290 L741.8511962890625 408.9945068359375" />
      <path style="stroke-dasharray:none; stroke-width:1; clip-path:url(#clipPath1); stroke:none;" d="M741.8511962890625 408.9945068359375 L734.7423706054688 398.1103820800781 L734.4100952148438 403.9318542480469 L729.1171875 406.37823486328125 Z" />
      <path style="fill:none; stroke-dasharray:none; stroke-width:1; clip-path:url(#clipPath1);" d="M552.0433349609375 260 L567.276123046875 227.9853515625" />
      <path style="stroke-dasharray:none; stroke-width:1; clip-path:url(#clipPath1); stroke:none;" d="M567.276123046875 227.9853515625 L557.6053466796875 236.67303466796875 L563.4092407226562 236.1123046875 L566.63525390625 240.96954345703125 Z" />
      <path style="fill:none; stroke-dasharray:none; stroke-width:1; clip-path:url(#clipPath1);" d="M210.9303741455078 459.7193298339844 L120.67005157470703 435.8017578125" />
      <path style="stroke-dasharray:none; stroke-width:1; clip-path:url(#clipPath1); stroke:none;" d="M120.67005157470703 435.8017578125 L130.98899841308594 443.70867919921875 L129.3697967529297 438.1070556640625 L133.55043029785156 434.04229736328125 Z" />
      <path style="fill:none; stroke-dasharray:none; stroke-width:1; clip-path:url(#clipPath1);" d="M232.86561584472656 447.3559265136719 L214.90115356445312 383.66375732421875" />
      <path style="stroke-dasharray:none; stroke-width:1; clip-path:url(#clipPath1); stroke:none;" d="M214.90115356445312 383.66375732421875 L213.346435546875 396.5704650878906 L217.34429931640625 392.3258056640625 L222.97093200683594 393.8558654785156 Z" />
      <path style="fill:none; stroke-dasharray:none; stroke-width:1; clip-path:url(#clipPath1);" d="M216.3707733154297 480.2972717285156 L144.60855102539062 523.60205078125" />
      <path style="stroke-dasharray:none; stroke-width:1; clip-path:url(#clipPath1); stroke:none;" d="M144.60855102539062 523.60205078125 L157.46612548828125 521.6829833984375 L152.31423950195312 518.9520874023438 L152.2994842529297 513.1211547851562 Z" />
      <path style="fill:none; stroke-dasharray:none; stroke-width:1; clip-path:url(#clipPath1);" d="M209.46878051757812 470.8871154785156 L165.39816284179688 476.80706787109375" />
      <path style="stroke-dasharray:none; stroke-width:1; clip-path:url(#clipPath1); stroke:none;" d="M165.39816284179688 476.80706787109375 L177.95700073242188 480.1649475097656 L174.3180389404297 475.6088562011719 L176.62567138671875 470.25396728515625 Z" />
      <path style="fill:none; stroke-dasharray:none; stroke-width:1; clip-path:url(#clipPath1);" d="M228.46405029296875 485.8299255371094 L180.257080078125 577.1309814453125" />
      <path style="stroke-dasharray:none; stroke-width:1; clip-path:url(#clipPath1); stroke:none;" d="M180.257080078125 577.1309814453125 L190.2815399169922 568.8538818359375 L184.45928955078125 569.1722412109375 L181.43850708007812 564.1847534179688 Z" />
      <path style="fill:none; stroke-dasharray:none; stroke-width:1; clip-path:url(#clipPath1);" d="M71.97218322753906 349 L78.34087371826172 410.0053405761719" />
      <path style="stroke-dasharray:none; stroke-width:1; clip-path:url(#clipPath1); stroke:none;" d="M78.34087371826172 410.0053405761719 L82.06787109375 397.5510559082031 L77.4063949584961 401.0539855957031 L72.1219253540039 398.58935546875 Z" />
      <path style="fill:none; stroke-dasharray:none; stroke-width:1; clip-path:url(#clipPath1);" d="M62.203125 319 L43.59228515625 284.96875" />
      <path style="stroke-dasharray:none; stroke-width:1; clip-path:url(#clipPath1); stroke:none;" d="M43.59228515625 284.96875 L44.96317672729492 297.8962707519531 L47.91059494018555 292.8650817871094 L53.73688888549805 293.09814453125 Z" />
      <path style="fill:none; stroke-dasharray:none; stroke-width:1; clip-path:url(#clipPath1);" d="M218.99099731445312 237 L211.773681640625 355.2838439941406" />
      <path style="stroke-dasharray:none; stroke-width:1; clip-path:url(#clipPath1); stroke:none;" d="M211.773681640625 355.2838439941406 L217.4952392578125 343.6106262207031 L212.32180786132812 346.300537109375 L207.51380920410156 343.0015869140625 Z" />
      <path style="fill:none; stroke-dasharray:none; stroke-width:1; clip-path:url(#clipPath1);" d="M912.8556518554688 398.179931640625 L816.349609375 323.49859619140625" />
      <path style="stroke-dasharray:none; stroke-width:1; clip-path:url(#clipPath1); stroke:none;" d="M816.349609375 323.49859619140625 L822.7798461914062 334.7969055175781 L823.46728515625 329.0066223144531 L828.89990234375 326.88836669921875 Z" />
      <path style="fill:none; stroke-dasharray:none; stroke-width:1; clip-path:url(#clipPath1);" d="M760.2875366210938 313.9078369140625 L254.16651916503906 365.1224670410156" />
      <path style="stroke-dasharray:none; stroke-width:1; clip-path:url(#clipPath1); stroke:none;" d="M254.16651916503906 365.1224670410156 L266.6089172363281 368.8889465332031 L263.12078857421875 364.21636962890625 L265.6021728515625 358.93975830078125 Z" />
      <path style="fill:none; stroke-dasharray:none; stroke-width:1; clip-path:url(#clipPath1);" d="M601.4992065429688 126 L783.976318359375 296.0840148925781" />
      <path style="stroke-dasharray:none; stroke-width:1; clip-path:url(#clipPath1); stroke:none;" d="M783.976318359375 296.0840148925781 L778.6073608398438 284.2445068359375 L777.3927001953125 289.9475402832031 L771.7890625 291.5596008300781 Z" />
      <path style="fill:none; stroke-dasharray:none; stroke-width:1; clip-path:url(#clipPath1);" d="M794.3312377929688 324.90155029296875 L768.511962890625 408.99853515625" />
      <path style="stroke-dasharray:none; stroke-width:1; clip-path:url(#clipPath1); stroke:none;" d="M768.511962890625 408.99853515625 L776.813720703125 398.9945068359375 L771.1534423828125 400.3948974609375 L767.254150390625 396.0595397949219 Z" />
      <path style="fill:none; stroke-dasharray:none; stroke-width:1; clip-path:url(#clipPath1);" d="M804.9222412109375 324.8293762207031 L888.15185546875 529.9904174804688" />
      <path style="stroke-dasharray:none; stroke-width:1; clip-path:url(#clipPath1); stroke:none;" d="M888.15185546875 529.9904174804688 L888.2740478515625 516.990966796875 L884.7685546875 521.6505737304688 L879.0075073242188 520.750244140625 Z" />
      <path style="fill:none; stroke-dasharray:none; stroke-width:1; clip-path:url(#clipPath1);" d="M816.5938110351562 296.5461730957031 L869.65869140625 256.1829833984375" />
      <path style="stroke-dasharray:none; stroke-width:1; clip-path:url(#clipPath1); stroke:none;" d="M869.65869140625 256.1829833984375 L857.0806274414062 259.46826171875 L862.4954223632812 261.6316223144531 L863.1347045898438 267.42742919921875 Z" />
      <path style="fill:none; stroke-dasharray:none; stroke-width:1; clip-path:url(#clipPath1);" d="M587.90625 280.9252014160156 L761.3607788085938 304.826416015625" />
      <path style="stroke-dasharray:none; stroke-width:1; clip-path:url(#clipPath1); stroke:none;" d="M761.3607788085938 304.826416015625 L750.1556396484375 298.23516845703125 L752.4450073242188 303.5978698730469 L748.7905883789062 308.14154052734375 Z" />
      <path style="fill:none; stroke-dasharray:none; stroke-width:1; clip-path:url(#clipPath1);" d="M340.7406005859375 618 L250.72262573242188 485.1734924316406" />
      <path style="stroke-dasharray:none; stroke-width:1; clip-path:url(#clipPath1); stroke:none;" d="M250.72262573242188 485.1734924316406 L253.3157501220703 497.9122314453125 L255.77174377441406 492.6237487792969 L261.59381103515625 492.3020935058594 Z" />
      <path style="fill:none; stroke-dasharray:none; stroke-width:1; clip-path:url(#clipPath1);" d="M358.9916076660156 618 L453.56005859375 442.5563049316406" />
      <path style="stroke-dasharray:none; stroke-width:1; clip-path:url(#clipPath1); stroke:none;" d="M453.56005859375 442.5563049316406 L443.4649353027344 450.7470397949219 L449.2897033691406 450.4786682128906 L452.267578125 455.49188232421875 Z" />
      <path style="fill:none; stroke-dasharray:none; stroke-width:1; clip-path:url(#clipPath1);" d="M375.8348083496094 648 L506.3656311035156 726.5429077148438" />
      <path style="stroke-dasharray:none; stroke-width:1; clip-path:url(#clipPath1); stroke:none;" d="M506.3656311035156 726.5429077148438 L498.6614074707031 716.07177734375 L498.654052734375 721.9027099609375 L493.505615234375 724.6401977539062 Z" />
      <path style="fill:none; stroke-dasharray:none; stroke-width:1; clip-path:url(#clipPath1);" d="M350.8158874511719 648 L349.9966125488281 784.0000610351562" />
      <path style="stroke-dasharray:none; stroke-width:1; clip-path:url(#clipPath1); stroke:none;" d="M349.9966125488281 784.0000610351562 L355.0688171386719 772.0303955078125 L350.05084228515625 775.000244140625 L345.0690002441406 771.9701538085938 Z" />
      <path style="fill:none; stroke-dasharray:none; stroke-width:1; clip-path:url(#clipPath1);" d="M405.90625 621.4730834960938 L484.343505859375 605.0341186523438" />
      <path style="stroke-dasharray:none; stroke-width:1; clip-path:url(#clipPath1); stroke:none;" d="M484.343505859375 605.0341186523438 L471.57305908203125 602.6019287109375 L475.5348815917969 606.8802490234375 L473.6242980957031 612.3892822265625 Z" />
      <path style="fill:none; stroke-dasharray:none; stroke-width:1; clip-path:url(#clipPath1);" d="M314.0393981933594 313 L247.7257080078125 448.02423095703125" />
      <path style="stroke-dasharray:none; stroke-width:1; clip-path:url(#clipPath1); stroke:none;" d="M247.7257080078125 448.02423095703125 L257.50360107421875 439.457275390625 L251.6931610107422 439.9459228515625 L248.52769470214844 435.0489807128906 Z" />
      <path style="fill:none; stroke-dasharray:none; stroke-width:1; clip-path:url(#clipPath1);" d="M337.5600891113281 313 L446.94073486328125 414.5677185058594" />
      <path style="stroke-dasharray:none; stroke-width:1; clip-path:url(#clipPath1); stroke:none;" d="M446.94073486328125 414.5677185058594 L441.5494689941406 402.73834228515625 L440.3455810546875 408.44366455078125 L434.7449645996094 410.0662841796875 Z" />
      <path style="fill:none; stroke-dasharray:none; stroke-width:1; clip-path:url(#clipPath1);" d="M589.90625 14.930840492248535 L638.0904541015625 14.872884750366211" />
      <path style="stroke-dasharray:none; stroke-width:1; clip-path:url(#clipPath1); stroke:none;" d="M638.0904541015625 14.872884750366211 L626.08447265625 9.887321472167969 L629.0904541015625 14.883709907531738 L626.0964965820312 19.887313842773438 Z" />
    </g>
  </g>
</svg>
